<?xml version="1.0" encoding="utf-8"?>
<!-- Generator: Fusion 360, Shaper Origin Export Add-In, Version 1.6.10  -->
<svg xmlns="http://www.w3.org/2000/svg" xmlns:xlink="http://www.w3.org/1999/xlink" xmlns:shaper="http://www.shapertools.com/namespaces/shaper" shaper:fusionaddin="version:1.6.10" width="54.6040222cm" height="9.6663639cm" version="1.1" x="0cm" y="0cm" viewBox="0 0 54.6040222 9.6663639" enable-background="new 0 0 54.6040222 9.6663639" xml:space="preserve"><path d="M2.5243827,1.0731268 L2.5243827,1.0731268 1.5878947,1.047905 0.6520458,1.0206966 -0.2831584,0.9914125 -1.2177119,0.9599635 -2.151609,0.9262603 -2.6183096,0.9085356 -3.0848439,0.890214 -3.5512033,0.8712843 -4.0173795,0.8517343 -4.4833706,0.8315515 -4.9491751,0.810723 -5.4147911,0.7892363 -5.880217,0.7670785 -6.3454512,0.744237 -6.8104916,0.7206992 -7.2753362,0.6964522 -7.7399834,0.6714835 -8.2044314,0.6457803 -8.6686786,0.6193299 -9.1327233,0.5921197 -9.5965639,0.564137 -10.0601987,0.535369 -10.5236261,0.5058031 -10.9868832,0.4754253 -11.4500373,0.4442277 -11.9130881,0.4122098 -12.3760341,0.3793713 -12.8388737,0.3457119 -13.3016057,0.3112311 -13.7642283,0.2759286 -14.2267402,0.239804 -14.6891457,0.2028568 -15.1514582,0.1650868 -15.6136776,0.1264961 -16.075803,0.0870865 -16.5378338,0.04686 -16.9997692,0.0058184 -17.4616084,-0.0360362 -17.9233508,-0.0787019 -18.3850463,-0.1221804 -18.8468617,-0.1664693 -19.3088126,-0.2115424 -19.7709015,-0.2573718 -20.233131,-0.3039297 -20.6955036,-0.3511884 -21.1580218,-0.39912 -21.6206881,-0.4476969 -22.0835129,-0.4968918 -22.5465339,-0.5466777 -23.4731955,-0.6478907 -24.4007134,-0.7510702 -25.3291244,-0.8559496 -26.258526,-0.962266 -27.1891134,-1.0697335 -27.1891134,-1.0697335 -27.116737,-1.1856749 -27.0453752,-1.3019927 -26.975017,-1.4186719 -26.9056505,-1.5356997 -26.8372642,-1.6530634 -26.7698462,-1.77075 -26.703385,-1.8887467 -26.6378687,-2.0070408 -26.5732857,-2.1256193 -26.5096243,-2.2444694 -26.4468727,-2.3635783 -26.3850193,-2.4829332 -26.3240524,-2.6025212 -26.2639602,-2.7223294 -26.204731,-2.8423451 -26.1463532,-2.9625554 -26.1463532,-2.9625554 -26.067234,-3.1286019 -25.9896804,-3.2949602 -25.9136463,-3.4616366 -25.8390871,-3.6286524 -25.7659786,-3.7959887 -25.6942965,-3.9636262 -25.6240165,-4.1315458 -25.5551143,-4.2997282 -25.4875656,-4.4681543 -25.4213462,-4.6368049 -25.3564317,-4.8056607 -25.2927978,-4.9747027 -25.2304204,-5.1439116 -25.169275,-5.3132683 -25.1093374,-5.4827535 -25.0505775,-5.6523677 -24.9929623,-5.8221342 -24.9364723,-5.9920428 -24.8810883,-6.1620819 -24.8267911,-6.3322401 -24.7735615,-6.502506 -24.7213804,-6.6728683 -24.6702285,-6.8433155 -24.6200867,-7.0138362 -24.5709358,-7.184419 -24.5227566,-7.3550524 -24.4755299,-7.5257252 -24.4292366,-7.6964258 -24.3838539,-7.8671578 -24.3393543,-8.0379607 -24.295724,-8.2088316 -24.2529499,-8.3797642 -11.2529499,-8.3797642 A12.65,12.65 158.0105199 0,0 -3.5702104,-1.1312165 L-3.5702104,-1.1312165 -2.8039689,-1.1002224 -2.0371209,-1.0708607 -1.2696871,-1.0430821 -0.5016707,-1.0168371 0.2669249,-0.9920762 1.0360965,-0.9687499 1.8058409,-0.9468087 2.5761547,-0.926203 2.5761547,-0.926203 3.1630712,-0.9113783 3.7503144,-0.8972771 3.7503144,-0.8972771 4.4834906,-0.8806635 5.2171566,-0.8651 5.9512924,-0.8505472 6.6858967,-0.8369658 7.4209686,-0.8243164 8.1565068,-0.8125598 8.8925103,-0.8016566 9.6289779,-0.7915675 10.3659086,-0.7822531 11.1033013,-0.7736742 11.8411548,-0.7657915 12.5794397,-0.7585664 13.3180448,-0.751971 14.0569584,-0.7459836 14.7961803,-0.7405828 15.53571,-0.7357472 16.2755471,-0.7314552 17.0156913,-0.7276855 18.4969465,-0.7216231 19.9795481,-0.7173643 21.4634603,-0.7147098 22.94866,-0.713468 24.4351433,-0.7134481 25.9229059,-0.7144594 27.4119438,-0.7163112 27.4149088,1.2836866 27.4149088,1.2836866 25.850262,1.285612 24.2867361,1.2865997 22.7243357,1.286428 21.1630652,1.2848755 19.6029292,1.2817206 18.0439546,1.276739 17.2649099,1.2734902 16.4861512,1.2696972 15.7076657,1.2653341 14.9294538,1.2603758 14.1515158,1.2547973 13.3738522,1.2485735 12.5964634,1.2416796 11.8193572,1.2340902 11.0426154,1.2257726 10.266261,1.2166819 9.4902954,1.206772 8.7147197,1.195997 7.9395351,1.1843109 7.164743,1.1716677 6.3903445,1.1580215 5.6163408,1.1433262 4.8427332,1.127536 4.0695267,1.1106049 3.2967413,1.0924851 2.5243827,1.0731268z" transform="matrix(1,0,0,-1,27.1891134,1.2865997)" fill="rgb(0,0,0)" stroke-linecap="round" stroke-linejoin="round" /></svg>