M48
; DRILL file {KiCad (6.0.1)} date Sat Mar 16 16:12:12 2024
; FORMAT={-:-/ absolute / metric / decimal}
; #@! TF.CreationDate,2024-03-16T16:12:12+01:00
; #@! TF.GenerationSoftware,Kicad,Pcbnew,(6.0.1)
; #@! TF.FileFunction,Plated,1,4,PTH
FMAT,2
METRIC
; #@! TA.AperFunction,Plated,PTH,ViaDrill
T1C0.400
; #@! TA.AperFunction,Plated,PTH,ViaDrill
T2C0.800
; #@! TA.AperFunction,Plated,PTH,ComponentDrill
T3C0.900
; #@! TA.AperFunction,Plated,PTH,ComponentDrill
T4C1.000
; #@! TA.AperFunction,Plated,PTH,ComponentDrill
T5C1.100
; #@! TA.AperFunction,Plated,PTH,ComponentDrill
T6C1.200
; #@! TA.AperFunction,Plated,PTH,ComponentDrill
T7C1.600
; #@! TA.AperFunction,Plated,PTH,ComponentDrill
T8C1.800
; #@! TA.AperFunction,Plated,PTH,ComponentDrill
T9C1.850
; #@! TA.AperFunction,Plated,PTH,ComponentDrill
T10C2.200
; #@! TA.AperFunction,Plated,PTH,ComponentDrill
T11C3.200
%
G90
G05
T1
X93.75Y-216.0
X93.989Y-124.741
X93.989Y-161.241
X93.989Y-179.491
X94.0Y-143.0
X94.0Y-197.75
X96.75Y-218.25
X97.0Y-127.0
X97.0Y-145.25
X97.0Y-163.5
X97.0Y-181.75
X97.0Y-200.0
X135.739Y-124.741
X135.739Y-142.991
X135.739Y-161.241
X135.739Y-179.491
X135.739Y-197.741
X135.739Y-215.991
X138.25Y-122.0
X138.75Y-127.0
X138.75Y-145.25
X138.75Y-163.5
X138.75Y-181.75
X138.75Y-200.0
X138.75Y-218.25
T2
X74.25Y-136.75
X74.25Y-155.0
X74.25Y-173.25
X74.25Y-191.5
X74.25Y-209.75
X74.25Y-228.0
X81.5Y-213.0
X94.5Y-220.125
X94.75Y-128.875
X94.75Y-147.125
X94.75Y-165.375
X94.75Y-183.625
X94.75Y-201.875
X116.25Y-136.75
X116.25Y-155.0
X116.25Y-173.25
X116.25Y-191.5
X116.25Y-209.75
X116.25Y-228.0
X127.94Y-120.189
X136.5Y-128.875
X136.5Y-147.125
X136.5Y-165.375
X136.5Y-183.625
X136.5Y-201.875
X136.5Y-220.375
X153.25Y-121.0
T3
X98.98Y-216.595
X99.23Y-125.345
X99.23Y-143.595
X99.23Y-161.845
X99.23Y-180.095
X99.23Y-198.345
X101.48Y-214.095
X101.48Y-219.095
X101.73Y-122.845
X101.73Y-127.845
X101.73Y-141.095
X101.73Y-146.095
X101.73Y-159.345
X101.73Y-164.345
X101.73Y-177.595
X101.73Y-182.595
X101.73Y-195.845
X101.73Y-200.845
X140.98Y-125.345
X140.98Y-143.595
X140.98Y-161.845
X140.98Y-180.095
X140.98Y-198.345
X140.98Y-216.845
X143.48Y-122.845
X143.48Y-127.845
X143.48Y-141.095
X143.48Y-146.095
X143.48Y-159.345
X143.48Y-164.345
X143.48Y-177.595
X143.48Y-182.595
X143.48Y-195.845
X143.48Y-200.845
X143.48Y-214.345
X143.48Y-219.345
X157.655Y-155.48
X157.655Y-161.98
X157.655Y-168.48
X157.655Y-174.98
X157.655Y-181.48
X157.655Y-187.98
X157.655Y-194.48
X157.655Y-200.98
X157.655Y-207.48
X157.655Y-213.98
X157.655Y-220.48
X157.655Y-226.98
X160.155Y-152.98
X160.155Y-159.48
X160.155Y-165.98
X160.155Y-172.48
X160.155Y-178.98
X160.155Y-185.48
X160.155Y-191.98
X160.155Y-198.48
X160.155Y-204.98
X160.155Y-211.48
X160.155Y-217.98
X160.155Y-224.48
X162.655Y-155.48
X162.655Y-161.98
X162.655Y-168.48
X162.655Y-174.98
X162.655Y-181.48
X162.655Y-187.98
X162.655Y-194.48
X162.655Y-200.98
X162.655Y-207.48
X162.655Y-213.98
X162.655Y-220.48
X162.655Y-226.98
X170.155Y-155.48
X170.155Y-161.98
X170.155Y-168.48
X170.155Y-174.98
X170.155Y-181.48
X170.155Y-187.98
X170.155Y-194.48
X170.155Y-200.98
X170.155Y-207.48
X170.155Y-213.98
X170.155Y-220.48
X170.155Y-226.98
X172.695Y-152.98
X172.695Y-159.48
X172.695Y-165.98
X172.695Y-172.48
X172.695Y-178.98
X172.695Y-185.48
X172.695Y-191.98
X172.695Y-198.48
X172.695Y-204.98
X172.695Y-211.48
X172.695Y-217.98
X172.695Y-224.48
X175.235Y-155.48
X175.235Y-161.98
X175.235Y-168.48
X175.235Y-174.98
X175.235Y-181.48
X175.235Y-187.98
X175.235Y-194.48
X175.235Y-200.98
X175.235Y-207.48
X175.235Y-213.98
X175.235Y-220.48
X175.235Y-226.98
T4
X105.48Y-216.527
X105.73Y-125.277
X105.73Y-143.527
X105.73Y-161.777
X105.73Y-180.027
X105.73Y-198.277
X107.98Y-214.027
X107.98Y-219.027
X108.23Y-122.777
X108.23Y-127.777
X108.23Y-141.027
X108.23Y-146.027
X108.23Y-159.277
X108.23Y-164.277
X108.23Y-177.527
X108.23Y-182.527
X108.23Y-195.777
X108.23Y-200.777
X147.48Y-125.277
X147.48Y-161.777
X147.48Y-180.027
X147.48Y-198.277
X147.48Y-216.777
X147.5Y-143.5
X149.98Y-122.777
X149.98Y-127.777
X149.98Y-159.277
X149.98Y-164.277
X149.98Y-177.527
X149.98Y-182.527
X149.98Y-195.777
X149.98Y-200.777
X149.98Y-214.277
X149.98Y-219.277
X150.0Y-141.0
X150.0Y-146.0
T5
X84.73Y-211.5
X84.98Y-120.25
X84.98Y-138.5
X84.98Y-156.75
X84.98Y-175.0
X84.98Y-193.25
X87.27Y-211.5
X87.52Y-120.25
X87.52Y-138.5
X87.52Y-156.75
X87.52Y-175.0
X87.52Y-193.25
X91.98Y-211.5
X92.21Y-138.5
X92.21Y-175.0
X92.21Y-193.25
X92.23Y-156.75
X94.52Y-211.5
X94.75Y-138.5
X94.75Y-175.0
X94.75Y-193.25
X94.77Y-156.75
X112.25Y-209.98
X112.25Y-212.52
X112.25Y-217.23
X112.25Y-219.77
X126.73Y-138.5
X126.73Y-156.75
X126.73Y-175.0
X126.73Y-193.25
X126.73Y-211.5
X126.73Y-229.75
X129.27Y-138.5
X129.27Y-156.75
X129.27Y-175.0
X129.27Y-193.25
X129.27Y-211.5
X129.27Y-229.75
X133.98Y-138.5
X133.98Y-156.75
X133.98Y-175.0
X133.98Y-193.25
X133.98Y-211.5
X136.52Y-138.5
X136.52Y-156.75
X136.52Y-175.0
X136.52Y-193.25
X136.52Y-211.5
T6
X161.5Y-122.944
X161.5Y-133.104
X161.5Y-138.194
X161.5Y-148.354
X171.66Y-122.944
X171.66Y-133.104
X171.66Y-138.194
X171.66Y-148.354
T7
X101.75Y-223.5
X102.0Y-132.25
X102.0Y-150.5
X102.0Y-168.75
X102.0Y-187.0
X102.0Y-205.25
X103.5Y-112.5
X107.0Y-223.5
X107.25Y-132.25
X107.25Y-150.5
X107.25Y-168.75
X107.25Y-187.0
X107.25Y-205.25
X110.0Y-112.5
X143.75Y-132.25
X143.75Y-150.5
X143.75Y-168.75
X143.75Y-187.0
X143.75Y-205.25
X143.75Y-223.75
X149.0Y-132.25
X149.0Y-150.5
X149.0Y-168.75
X149.0Y-187.0
X149.0Y-205.25
X149.0Y-223.75
X154.0Y-154.25
X154.0Y-160.75
X154.0Y-167.25
X154.0Y-173.75
X154.0Y-180.25
X154.0Y-186.75
X154.0Y-193.25
X154.0Y-199.75
X154.0Y-206.25
X154.0Y-212.75
X154.0Y-219.25
X154.0Y-225.75
X166.5Y-154.25
X166.5Y-160.75
X166.5Y-167.25
X166.5Y-173.75
X166.5Y-180.25
X166.5Y-186.75
X166.5Y-193.25
X166.5Y-199.75
X166.5Y-206.25
X166.5Y-212.75
X166.5Y-219.25
X166.5Y-225.75
X179.0Y-154.25
X179.0Y-160.75
X179.0Y-167.25
X179.0Y-173.75
X179.0Y-180.25
X179.0Y-186.75
X179.0Y-193.25
X179.0Y-199.75
X179.0Y-206.25
X179.0Y-212.75
X179.0Y-219.25
X179.0Y-225.75
T8
X92.05Y-99.275
X92.05Y-104.775
X96.25Y-99.275
X96.25Y-104.775
X100.45Y-99.275
X100.45Y-104.775
X104.65Y-99.275
X104.65Y-104.775
X108.85Y-99.275
X108.85Y-104.775
X113.05Y-99.275
X113.05Y-104.775
X117.25Y-99.275
X117.25Y-104.775
X121.45Y-99.275
X121.45Y-104.775
X128.2Y-99.15
X128.2Y-104.65
X132.4Y-99.15
X132.4Y-104.65
X136.6Y-99.15
X136.6Y-104.65
X140.8Y-99.15
X140.8Y-104.65
X145.0Y-99.15
X145.0Y-104.65
X149.2Y-99.15
X149.2Y-104.65
X153.4Y-99.15
X153.4Y-104.65
X157.6Y-99.15
X157.6Y-104.65
X161.8Y-99.15
X161.8Y-104.65
T9
X77.75Y-102.75
X83.25Y-102.75
X167.243Y-102.75
X172.743Y-102.75
T10
X165.3Y-128.024
X165.3Y-143.274
T11
X71.5Y-95.75
X71.5Y-231.0
X180.0Y-95.75
X180.0Y-231.0
T4
G00X170.15Y-115.25
M15
G01X170.15Y-115.85
M16
G05
G00X173.45Y-110.85
M15
G01X172.85Y-110.85
M16
G05
G00X176.15Y-115.25
M15
G01X176.15Y-115.85
M16
G05
T0
M30
