%TF.GenerationSoftware,KiCad,Pcbnew,(6.0.1)*%
%TF.CreationDate,2022-04-28T18:35:21+02:00*%
%TF.ProjectId,STM32_NRF24_Tx,53544d33-325f-44e5-9246-32345f54782e,rev?*%
%TF.SameCoordinates,Original*%
%TF.FileFunction,Legend,Top*%
%TF.FilePolarity,Positive*%
%FSLAX46Y46*%
G04 Gerber Fmt 4.6, Leading zero omitted, Abs format (unit mm)*
G04 Created by KiCad (PCBNEW (6.0.1)) date 2022-04-28 18:35:21*
%MOMM*%
%LPD*%
G01*
G04 APERTURE LIST*
%ADD10C,0.150000*%
%ADD11C,0.120000*%
G04 APERTURE END LIST*
D10*
X159384061Y-63215780D02*
X158907871Y-63215780D01*
X158907871Y-62215780D01*
X113486500Y-79224142D02*
X113438880Y-79271761D01*
X113296023Y-79319380D01*
X113200785Y-79319380D01*
X113057928Y-79271761D01*
X112962690Y-79176523D01*
X112915071Y-79081285D01*
X112867452Y-78890809D01*
X112867452Y-78747952D01*
X112915071Y-78557476D01*
X112962690Y-78462238D01*
X113057928Y-78367000D01*
X113200785Y-78319380D01*
X113296023Y-78319380D01*
X113438880Y-78367000D01*
X113486500Y-78414619D01*
X114391261Y-79319380D02*
X113915071Y-79319380D01*
X113915071Y-78319380D01*
X114724595Y-79319380D02*
X114724595Y-78319380D01*
X115296023Y-79319380D02*
X114867452Y-78747952D01*
X115296023Y-78319380D02*
X114724595Y-78890809D01*
X162229580Y-74776347D02*
X162229580Y-74157300D01*
X162610533Y-74490633D01*
X162610533Y-74347776D01*
X162658152Y-74252538D01*
X162705771Y-74204919D01*
X162801009Y-74157300D01*
X163039104Y-74157300D01*
X163134342Y-74204919D01*
X163181961Y-74252538D01*
X163229580Y-74347776D01*
X163229580Y-74633490D01*
X163181961Y-74728728D01*
X163134342Y-74776347D01*
X162229580Y-73871585D02*
X163229580Y-73538252D01*
X162229580Y-73204919D01*
X162229580Y-72966823D02*
X162229580Y-72347776D01*
X162610533Y-72681109D01*
X162610533Y-72538252D01*
X162658152Y-72443014D01*
X162705771Y-72395395D01*
X162801009Y-72347776D01*
X163039104Y-72347776D01*
X163134342Y-72395395D01*
X163181961Y-72443014D01*
X163229580Y-72538252D01*
X163229580Y-72823966D01*
X163181961Y-72919204D01*
X163134342Y-72966823D01*
X158054342Y-66301376D02*
X158101961Y-66348995D01*
X158149580Y-66491852D01*
X158149580Y-66587090D01*
X158101961Y-66729947D01*
X158006723Y-66825185D01*
X157911485Y-66872804D01*
X157721009Y-66920423D01*
X157578152Y-66920423D01*
X157387676Y-66872804D01*
X157292438Y-66825185D01*
X157197200Y-66729947D01*
X157149580Y-66587090D01*
X157149580Y-66491852D01*
X157197200Y-66348995D01*
X157244819Y-66301376D01*
X158149580Y-65396614D02*
X158149580Y-65872804D01*
X157149580Y-65872804D01*
X158149580Y-65063280D02*
X157149580Y-65063280D01*
X158149580Y-64491852D02*
X157578152Y-64920423D01*
X157149580Y-64491852D02*
X157721009Y-65063280D01*
X134642000Y-76805214D02*
X134594380Y-76900452D01*
X134594380Y-77043309D01*
X134642000Y-77186166D01*
X134737238Y-77281404D01*
X134832476Y-77329023D01*
X135022952Y-77376642D01*
X135165809Y-77376642D01*
X135356285Y-77329023D01*
X135451523Y-77281404D01*
X135546761Y-77186166D01*
X135594380Y-77043309D01*
X135594380Y-76948071D01*
X135546761Y-76805214D01*
X135499142Y-76757595D01*
X135165809Y-76757595D01*
X135165809Y-76948071D01*
X135594380Y-76329023D02*
X134594380Y-76329023D01*
X135594380Y-75757595D01*
X134594380Y-75757595D01*
X135594380Y-75281404D02*
X134594380Y-75281404D01*
X134594380Y-75043309D01*
X134642000Y-74900452D01*
X134737238Y-74805214D01*
X134832476Y-74757595D01*
X135022952Y-74709976D01*
X135165809Y-74709976D01*
X135356285Y-74757595D01*
X135451523Y-74805214D01*
X135546761Y-74900452D01*
X135594380Y-75043309D01*
X135594380Y-75281404D01*
X113200785Y-76779380D02*
X113200785Y-75779380D01*
X113438880Y-75779380D01*
X113581738Y-75827000D01*
X113676976Y-75922238D01*
X113724595Y-76017476D01*
X113772214Y-76207952D01*
X113772214Y-76350809D01*
X113724595Y-76541285D01*
X113676976Y-76636523D01*
X113581738Y-76731761D01*
X113438880Y-76779380D01*
X113200785Y-76779380D01*
X114200785Y-76779380D02*
X114200785Y-75779380D01*
X114867452Y-75779380D02*
X115057928Y-75779380D01*
X115153166Y-75827000D01*
X115248404Y-75922238D01*
X115296023Y-76112714D01*
X115296023Y-76446047D01*
X115248404Y-76636523D01*
X115153166Y-76731761D01*
X115057928Y-76779380D01*
X114867452Y-76779380D01*
X114772214Y-76731761D01*
X114676976Y-76636523D01*
X114629357Y-76446047D01*
X114629357Y-76112714D01*
X114676976Y-75922238D01*
X114772214Y-75827000D01*
X114867452Y-75779380D01*
X162277200Y-66348995D02*
X162229580Y-66444233D01*
X162229580Y-66587090D01*
X162277200Y-66729947D01*
X162372438Y-66825185D01*
X162467676Y-66872804D01*
X162658152Y-66920423D01*
X162801009Y-66920423D01*
X162991485Y-66872804D01*
X163086723Y-66825185D01*
X163181961Y-66729947D01*
X163229580Y-66587090D01*
X163229580Y-66491852D01*
X163181961Y-66348995D01*
X163134342Y-66301376D01*
X162801009Y-66301376D01*
X162801009Y-66491852D01*
X163229580Y-65872804D02*
X162229580Y-65872804D01*
X163229580Y-65301376D01*
X162229580Y-65301376D01*
X163229580Y-64825185D02*
X162229580Y-64825185D01*
X162229580Y-64587090D01*
X162277200Y-64444233D01*
X162372438Y-64348995D01*
X162467676Y-64301376D01*
X162658152Y-64253757D01*
X162801009Y-64253757D01*
X162991485Y-64301376D01*
X163086723Y-64348995D01*
X163181961Y-64444233D01*
X163229580Y-64587090D01*
X163229580Y-64825185D01*
X145811542Y-75662357D02*
X145859161Y-75709976D01*
X145906780Y-75852833D01*
X145906780Y-75948071D01*
X145859161Y-76090928D01*
X145763923Y-76186166D01*
X145668685Y-76233785D01*
X145478209Y-76281404D01*
X145335352Y-76281404D01*
X145144876Y-76233785D01*
X145049638Y-76186166D01*
X144954400Y-76090928D01*
X144906780Y-75948071D01*
X144906780Y-75852833D01*
X144954400Y-75709976D01*
X145002019Y-75662357D01*
X145859161Y-75281404D02*
X145906780Y-75138547D01*
X145906780Y-74900452D01*
X145859161Y-74805214D01*
X145811542Y-74757595D01*
X145716304Y-74709976D01*
X145621066Y-74709976D01*
X145525828Y-74757595D01*
X145478209Y-74805214D01*
X145430590Y-74900452D01*
X145382971Y-75090928D01*
X145335352Y-75186166D01*
X145287733Y-75233785D01*
X145192495Y-75281404D01*
X145097257Y-75281404D01*
X145002019Y-75233785D01*
X144954400Y-75186166D01*
X144906780Y-75090928D01*
X144906780Y-74852833D01*
X144954400Y-74709976D01*
X160594342Y-66301376D02*
X160641961Y-66348995D01*
X160689580Y-66491852D01*
X160689580Y-66587090D01*
X160641961Y-66729947D01*
X160546723Y-66825185D01*
X160451485Y-66872804D01*
X160261009Y-66920423D01*
X160118152Y-66920423D01*
X159927676Y-66872804D01*
X159832438Y-66825185D01*
X159737200Y-66729947D01*
X159689580Y-66587090D01*
X159689580Y-66491852D01*
X159737200Y-66348995D01*
X159784819Y-66301376D01*
X160165771Y-65872804D02*
X160165771Y-65539471D01*
X160689580Y-65396614D02*
X160689580Y-65872804D01*
X159689580Y-65872804D01*
X159689580Y-65396614D01*
X155736580Y-66872804D02*
X154736580Y-66872804D01*
X155450866Y-66539471D01*
X154736580Y-66206138D01*
X155736580Y-66206138D01*
X155736580Y-65729947D02*
X154736580Y-65729947D01*
X155688961Y-65301376D02*
X155736580Y-65158519D01*
X155736580Y-64920423D01*
X155688961Y-64825185D01*
X155641342Y-64777566D01*
X155546104Y-64729947D01*
X155450866Y-64729947D01*
X155355628Y-64777566D01*
X155308009Y-64825185D01*
X155260390Y-64920423D01*
X155212771Y-65110900D01*
X155165152Y-65206138D01*
X155117533Y-65253757D01*
X155022295Y-65301376D01*
X154927057Y-65301376D01*
X154831819Y-65253757D01*
X154784200Y-65206138D01*
X154736580Y-65110900D01*
X154736580Y-64872804D01*
X154784200Y-64729947D01*
X154736580Y-64110900D02*
X154736580Y-63920423D01*
X154784200Y-63825185D01*
X154879438Y-63729947D01*
X155069914Y-63682328D01*
X155403247Y-63682328D01*
X155593723Y-63729947D01*
X155688961Y-63825185D01*
X155736580Y-63920423D01*
X155736580Y-64110900D01*
X155688961Y-64206138D01*
X155593723Y-64301376D01*
X155403247Y-64348995D01*
X155069914Y-64348995D01*
X154879438Y-64301376D01*
X154784200Y-64206138D01*
X154736580Y-64110900D01*
X143341380Y-77900452D02*
X142341380Y-77900452D01*
X143055666Y-77567119D01*
X142341380Y-77233785D01*
X143341380Y-77233785D01*
X142341380Y-76567119D02*
X142341380Y-76376642D01*
X142389000Y-76281404D01*
X142484238Y-76186166D01*
X142674714Y-76138547D01*
X143008047Y-76138547D01*
X143198523Y-76186166D01*
X143293761Y-76281404D01*
X143341380Y-76376642D01*
X143341380Y-76567119D01*
X143293761Y-76662357D01*
X143198523Y-76757595D01*
X143008047Y-76805214D01*
X142674714Y-76805214D01*
X142484238Y-76757595D01*
X142389000Y-76662357D01*
X142341380Y-76567119D01*
X143293761Y-75757595D02*
X143341380Y-75614738D01*
X143341380Y-75376642D01*
X143293761Y-75281404D01*
X143246142Y-75233785D01*
X143150904Y-75186166D01*
X143055666Y-75186166D01*
X142960428Y-75233785D01*
X142912809Y-75281404D01*
X142865190Y-75376642D01*
X142817571Y-75567119D01*
X142769952Y-75662357D01*
X142722333Y-75709976D01*
X142627095Y-75757595D01*
X142531857Y-75757595D01*
X142436619Y-75709976D01*
X142389000Y-75662357D01*
X142341380Y-75567119D01*
X142341380Y-75329023D01*
X142389000Y-75186166D01*
X143341380Y-74757595D02*
X142341380Y-74757595D01*
X138039142Y-76519500D02*
X138086761Y-76567119D01*
X138134380Y-76709976D01*
X138134380Y-76805214D01*
X138086761Y-76948071D01*
X137991523Y-77043309D01*
X137896285Y-77090928D01*
X137705809Y-77138547D01*
X137562952Y-77138547D01*
X137372476Y-77090928D01*
X137277238Y-77043309D01*
X137182000Y-76948071D01*
X137134380Y-76805214D01*
X137134380Y-76709976D01*
X137182000Y-76567119D01*
X137229619Y-76519500D01*
X138134380Y-75614738D02*
X138134380Y-76090928D01*
X137134380Y-76090928D01*
X138134380Y-75281404D02*
X137134380Y-75281404D01*
X138134380Y-74709976D02*
X137562952Y-75138547D01*
X137134380Y-74709976D02*
X137705809Y-75281404D01*
X114391261Y-73366380D02*
X113915071Y-73366380D01*
X113867452Y-73842571D01*
X113915071Y-73794952D01*
X114010309Y-73747333D01*
X114248404Y-73747333D01*
X114343642Y-73794952D01*
X114391261Y-73842571D01*
X114438880Y-73937809D01*
X114438880Y-74175904D01*
X114391261Y-74271142D01*
X114343642Y-74318761D01*
X114248404Y-74366380D01*
X114010309Y-74366380D01*
X113915071Y-74318761D01*
X113867452Y-74271142D01*
X114724595Y-73366380D02*
X115057928Y-74366380D01*
X115391261Y-73366380D01*
X158047980Y-75538252D02*
X157047980Y-75538252D01*
X157762266Y-75204919D01*
X157047980Y-74871585D01*
X158047980Y-74871585D01*
X157047980Y-74204919D02*
X157047980Y-74014442D01*
X157095600Y-73919204D01*
X157190838Y-73823966D01*
X157381314Y-73776347D01*
X157714647Y-73776347D01*
X157905123Y-73823966D01*
X158000361Y-73919204D01*
X158047980Y-74014442D01*
X158047980Y-74204919D01*
X158000361Y-74300157D01*
X157905123Y-74395395D01*
X157714647Y-74443014D01*
X157381314Y-74443014D01*
X157190838Y-74395395D01*
X157095600Y-74300157D01*
X157047980Y-74204919D01*
X158000361Y-73395395D02*
X158047980Y-73252538D01*
X158047980Y-73014442D01*
X158000361Y-72919204D01*
X157952742Y-72871585D01*
X157857504Y-72823966D01*
X157762266Y-72823966D01*
X157667028Y-72871585D01*
X157619409Y-72919204D01*
X157571790Y-73014442D01*
X157524171Y-73204919D01*
X157476552Y-73300157D01*
X157428933Y-73347776D01*
X157333695Y-73395395D01*
X157238457Y-73395395D01*
X157143219Y-73347776D01*
X157095600Y-73300157D01*
X157047980Y-73204919D01*
X157047980Y-72966823D01*
X157095600Y-72823966D01*
X158047980Y-72395395D02*
X157047980Y-72395395D01*
X113200785Y-80907000D02*
X113105547Y-80859380D01*
X112962690Y-80859380D01*
X112819833Y-80907000D01*
X112724595Y-81002238D01*
X112676976Y-81097476D01*
X112629357Y-81287952D01*
X112629357Y-81430809D01*
X112676976Y-81621285D01*
X112724595Y-81716523D01*
X112819833Y-81811761D01*
X112962690Y-81859380D01*
X113057928Y-81859380D01*
X113200785Y-81811761D01*
X113248404Y-81764142D01*
X113248404Y-81430809D01*
X113057928Y-81430809D01*
X113676976Y-81859380D02*
X113676976Y-80859380D01*
X114248404Y-81859380D01*
X114248404Y-80859380D01*
X114724595Y-81859380D02*
X114724595Y-80859380D01*
X114962690Y-80859380D01*
X115105547Y-80907000D01*
X115200785Y-81002238D01*
X115248404Y-81097476D01*
X115296023Y-81287952D01*
X115296023Y-81430809D01*
X115248404Y-81621285D01*
X115200785Y-81716523D01*
X115105547Y-81811761D01*
X114962690Y-81859380D01*
X114724595Y-81859380D01*
X139674380Y-77138547D02*
X139674380Y-76519500D01*
X140055333Y-76852833D01*
X140055333Y-76709976D01*
X140102952Y-76614738D01*
X140150571Y-76567119D01*
X140245809Y-76519500D01*
X140483904Y-76519500D01*
X140579142Y-76567119D01*
X140626761Y-76614738D01*
X140674380Y-76709976D01*
X140674380Y-76995690D01*
X140626761Y-77090928D01*
X140579142Y-77138547D01*
X139674380Y-76233785D02*
X140674380Y-75900452D01*
X139674380Y-75567119D01*
X139674380Y-75329023D02*
X139674380Y-74709976D01*
X140055333Y-75043309D01*
X140055333Y-74900452D01*
X140102952Y-74805214D01*
X140150571Y-74757595D01*
X140245809Y-74709976D01*
X140483904Y-74709976D01*
X140579142Y-74757595D01*
X140626761Y-74805214D01*
X140674380Y-74900452D01*
X140674380Y-75186166D01*
X140626761Y-75281404D01*
X140579142Y-75329023D01*
X160594342Y-74347776D02*
X160641961Y-74395395D01*
X160689580Y-74538252D01*
X160689580Y-74633490D01*
X160641961Y-74776347D01*
X160546723Y-74871585D01*
X160451485Y-74919204D01*
X160261009Y-74966823D01*
X160118152Y-74966823D01*
X159927676Y-74919204D01*
X159832438Y-74871585D01*
X159737200Y-74776347D01*
X159689580Y-74633490D01*
X159689580Y-74538252D01*
X159737200Y-74395395D01*
X159784819Y-74347776D01*
X160641961Y-73966823D02*
X160689580Y-73823966D01*
X160689580Y-73585871D01*
X160641961Y-73490633D01*
X160594342Y-73443014D01*
X160499104Y-73395395D01*
X160403866Y-73395395D01*
X160308628Y-73443014D01*
X160261009Y-73490633D01*
X160213390Y-73585871D01*
X160165771Y-73776347D01*
X160118152Y-73871585D01*
X160070533Y-73919204D01*
X159975295Y-73966823D01*
X159880057Y-73966823D01*
X159784819Y-73919204D01*
X159737200Y-73871585D01*
X159689580Y-73776347D01*
X159689580Y-73538252D01*
X159737200Y-73395395D01*
X160689580Y-72966823D02*
X159689580Y-72966823D01*
X160689580Y-72395395D01*
X159689580Y-72395395D01*
X155111171Y-75014442D02*
X155111171Y-74681109D01*
X155634980Y-74538252D02*
X155634980Y-75014442D01*
X154634980Y-75014442D01*
X154634980Y-74538252D01*
X154634980Y-74204919D02*
X155634980Y-73538252D01*
X154634980Y-73538252D02*
X155634980Y-74204919D01*
X154634980Y-73300157D02*
X154634980Y-72728728D01*
X155634980Y-73014442D02*
X154634980Y-73014442D01*
X155634980Y-72395395D02*
X154634980Y-72395395D01*
X114131619Y-104109780D02*
X113798285Y-103633590D01*
X113560190Y-104109780D02*
X113560190Y-103109780D01*
X113941142Y-103109780D01*
X114036380Y-103157400D01*
X114084000Y-103205019D01*
X114131619Y-103300257D01*
X114131619Y-103443114D01*
X114084000Y-103538352D01*
X114036380Y-103585971D01*
X113941142Y-103633590D01*
X113560190Y-103633590D01*
X114560190Y-103585971D02*
X114893523Y-103585971D01*
X115036380Y-104109780D02*
X114560190Y-104109780D01*
X114560190Y-103109780D01*
X115036380Y-103109780D01*
X115417333Y-104062161D02*
X115560190Y-104109780D01*
X115798285Y-104109780D01*
X115893523Y-104062161D01*
X115941142Y-104014542D01*
X115988761Y-103919304D01*
X115988761Y-103824066D01*
X115941142Y-103728828D01*
X115893523Y-103681209D01*
X115798285Y-103633590D01*
X115607809Y-103585971D01*
X115512571Y-103538352D01*
X115464952Y-103490733D01*
X115417333Y-103395495D01*
X115417333Y-103300257D01*
X115464952Y-103205019D01*
X115512571Y-103157400D01*
X115607809Y-103109780D01*
X115845904Y-103109780D01*
X115988761Y-103157400D01*
X116417333Y-103585971D02*
X116750666Y-103585971D01*
X116893523Y-104109780D02*
X116417333Y-104109780D01*
X116417333Y-103109780D01*
X116893523Y-103109780D01*
X117179238Y-103109780D02*
X117750666Y-103109780D01*
X117464952Y-104109780D02*
X117464952Y-103109780D01*
X133054380Y-77900452D02*
X132054380Y-77900452D01*
X132768666Y-77567119D01*
X132054380Y-77233785D01*
X133054380Y-77233785D01*
X133054380Y-76757595D02*
X132054380Y-76757595D01*
X133006761Y-76329023D02*
X133054380Y-76186166D01*
X133054380Y-75948071D01*
X133006761Y-75852833D01*
X132959142Y-75805214D01*
X132863904Y-75757595D01*
X132768666Y-75757595D01*
X132673428Y-75805214D01*
X132625809Y-75852833D01*
X132578190Y-75948071D01*
X132530571Y-76138547D01*
X132482952Y-76233785D01*
X132435333Y-76281404D01*
X132340095Y-76329023D01*
X132244857Y-76329023D01*
X132149619Y-76281404D01*
X132102000Y-76233785D01*
X132054380Y-76138547D01*
X132054380Y-75900452D01*
X132102000Y-75757595D01*
X132054380Y-75138547D02*
X132054380Y-74948071D01*
X132102000Y-74852833D01*
X132197238Y-74757595D01*
X132387714Y-74709976D01*
X132721047Y-74709976D01*
X132911523Y-74757595D01*
X133006761Y-74852833D01*
X133054380Y-74948071D01*
X133054380Y-75138547D01*
X133006761Y-75233785D01*
X132911523Y-75329023D01*
X132721047Y-75376642D01*
X132387714Y-75376642D01*
X132197238Y-75329023D01*
X132102000Y-75233785D01*
X132054380Y-75138547D01*
X165363804Y-62263400D02*
X165268566Y-62215780D01*
X165125709Y-62215780D01*
X164982852Y-62263400D01*
X164887614Y-62358638D01*
X164839995Y-62453876D01*
X164792376Y-62644352D01*
X164792376Y-62787209D01*
X164839995Y-62977685D01*
X164887614Y-63072923D01*
X164982852Y-63168161D01*
X165125709Y-63215780D01*
X165220947Y-63215780D01*
X165363804Y-63168161D01*
X165411423Y-63120542D01*
X165411423Y-62787209D01*
X165220947Y-62787209D01*
X165839995Y-63215780D02*
X165839995Y-62215780D01*
X166411423Y-63215780D01*
X166411423Y-62215780D01*
X166887614Y-63215780D02*
X166887614Y-62215780D01*
X167125709Y-62215780D01*
X167268566Y-62263400D01*
X167363804Y-62358638D01*
X167411423Y-62453876D01*
X167459042Y-62644352D01*
X167459042Y-62787209D01*
X167411423Y-62977685D01*
X167363804Y-63072923D01*
X167268566Y-63168161D01*
X167125709Y-63215780D01*
X166887614Y-63215780D01*
%TO.C,H3*%
X170956095Y-54427380D02*
X170956095Y-53427380D01*
X170956095Y-53903571D02*
X171527523Y-53903571D01*
X171527523Y-54427380D02*
X171527523Y-53427380D01*
X171908476Y-53427380D02*
X172527523Y-53427380D01*
X172194190Y-53808333D01*
X172337047Y-53808333D01*
X172432285Y-53855952D01*
X172479904Y-53903571D01*
X172527523Y-53998809D01*
X172527523Y-54236904D01*
X172479904Y-54332142D01*
X172432285Y-54379761D01*
X172337047Y-54427380D01*
X172051333Y-54427380D01*
X171956095Y-54379761D01*
X171908476Y-54332142D01*
%TO.C,H2*%
X146318095Y-106497380D02*
X146318095Y-105497380D01*
X146318095Y-105973571D02*
X146889523Y-105973571D01*
X146889523Y-106497380D02*
X146889523Y-105497380D01*
X147318095Y-105592619D02*
X147365714Y-105545000D01*
X147460952Y-105497380D01*
X147699047Y-105497380D01*
X147794285Y-105545000D01*
X147841904Y-105592619D01*
X147889523Y-105687857D01*
X147889523Y-105783095D01*
X147841904Y-105925952D01*
X147270476Y-106497380D01*
X147889523Y-106497380D01*
%TO.C,H1*%
X108218095Y-54427380D02*
X108218095Y-53427380D01*
X108218095Y-53903571D02*
X108789523Y-53903571D01*
X108789523Y-54427380D02*
X108789523Y-53427380D01*
X109789523Y-54427380D02*
X109218095Y-54427380D01*
X109503809Y-54427380D02*
X109503809Y-53427380D01*
X109408571Y-53570238D01*
X109313333Y-53665476D01*
X109218095Y-53713095D01*
%TO.C,J7*%
X162991580Y-105260733D02*
X163705866Y-105260733D01*
X163848723Y-105308352D01*
X163943961Y-105403590D01*
X163991580Y-105546447D01*
X163991580Y-105641685D01*
X162991580Y-104879780D02*
X162991580Y-104213114D01*
X163991580Y-104641685D01*
%TO.C,R14*%
X113544142Y-84399380D02*
X113210809Y-83923190D01*
X112972714Y-84399380D02*
X112972714Y-83399380D01*
X113353666Y-83399380D01*
X113448904Y-83447000D01*
X113496523Y-83494619D01*
X113544142Y-83589857D01*
X113544142Y-83732714D01*
X113496523Y-83827952D01*
X113448904Y-83875571D01*
X113353666Y-83923190D01*
X112972714Y-83923190D01*
X114496523Y-84399380D02*
X113925095Y-84399380D01*
X114210809Y-84399380D02*
X114210809Y-83399380D01*
X114115571Y-83542238D01*
X114020333Y-83637476D01*
X113925095Y-83685095D01*
X115353666Y-83732714D02*
X115353666Y-84399380D01*
X115115571Y-83351761D02*
X114877476Y-84066047D01*
X115496523Y-84066047D01*
%TO.C,C23*%
X150130642Y-86621857D02*
X150178261Y-86669476D01*
X150225880Y-86812333D01*
X150225880Y-86907571D01*
X150178261Y-87050428D01*
X150083023Y-87145666D01*
X149987785Y-87193285D01*
X149797309Y-87240904D01*
X149654452Y-87240904D01*
X149463976Y-87193285D01*
X149368738Y-87145666D01*
X149273500Y-87050428D01*
X149225880Y-86907571D01*
X149225880Y-86812333D01*
X149273500Y-86669476D01*
X149321119Y-86621857D01*
X149321119Y-86240904D02*
X149273500Y-86193285D01*
X149225880Y-86098047D01*
X149225880Y-85859952D01*
X149273500Y-85764714D01*
X149321119Y-85717095D01*
X149416357Y-85669476D01*
X149511595Y-85669476D01*
X149654452Y-85717095D01*
X150225880Y-86288523D01*
X150225880Y-85669476D01*
X149225880Y-85336142D02*
X149225880Y-84717095D01*
X149606833Y-85050428D01*
X149606833Y-84907571D01*
X149654452Y-84812333D01*
X149702071Y-84764714D01*
X149797309Y-84717095D01*
X150035404Y-84717095D01*
X150130642Y-84764714D01*
X150178261Y-84812333D01*
X150225880Y-84907571D01*
X150225880Y-85193285D01*
X150178261Y-85288523D01*
X150130642Y-85336142D01*
%TO.C,C17*%
X124704142Y-100074357D02*
X124751761Y-100121976D01*
X124799380Y-100264833D01*
X124799380Y-100360071D01*
X124751761Y-100502928D01*
X124656523Y-100598166D01*
X124561285Y-100645785D01*
X124370809Y-100693404D01*
X124227952Y-100693404D01*
X124037476Y-100645785D01*
X123942238Y-100598166D01*
X123847000Y-100502928D01*
X123799380Y-100360071D01*
X123799380Y-100264833D01*
X123847000Y-100121976D01*
X123894619Y-100074357D01*
X124799380Y-99121976D02*
X124799380Y-99693404D01*
X124799380Y-99407690D02*
X123799380Y-99407690D01*
X123942238Y-99502928D01*
X124037476Y-99598166D01*
X124085095Y-99693404D01*
X123799380Y-98788642D02*
X123799380Y-98121976D01*
X124799380Y-98550547D01*
%TO.C,C5*%
X142595333Y-68429142D02*
X142547714Y-68476761D01*
X142404857Y-68524380D01*
X142309619Y-68524380D01*
X142166761Y-68476761D01*
X142071523Y-68381523D01*
X142023904Y-68286285D01*
X141976285Y-68095809D01*
X141976285Y-67952952D01*
X142023904Y-67762476D01*
X142071523Y-67667238D01*
X142166761Y-67572000D01*
X142309619Y-67524380D01*
X142404857Y-67524380D01*
X142547714Y-67572000D01*
X142595333Y-67619619D01*
X143500095Y-67524380D02*
X143023904Y-67524380D01*
X142976285Y-68000571D01*
X143023904Y-67952952D01*
X143119142Y-67905333D01*
X143357238Y-67905333D01*
X143452476Y-67952952D01*
X143500095Y-68000571D01*
X143547714Y-68095809D01*
X143547714Y-68333904D01*
X143500095Y-68429142D01*
X143452476Y-68476761D01*
X143357238Y-68524380D01*
X143119142Y-68524380D01*
X143023904Y-68476761D01*
X142976285Y-68429142D01*
%TO.C,C8*%
X134991142Y-68746666D02*
X135038761Y-68794285D01*
X135086380Y-68937142D01*
X135086380Y-69032380D01*
X135038761Y-69175238D01*
X134943523Y-69270476D01*
X134848285Y-69318095D01*
X134657809Y-69365714D01*
X134514952Y-69365714D01*
X134324476Y-69318095D01*
X134229238Y-69270476D01*
X134134000Y-69175238D01*
X134086380Y-69032380D01*
X134086380Y-68937142D01*
X134134000Y-68794285D01*
X134181619Y-68746666D01*
X134514952Y-68175238D02*
X134467333Y-68270476D01*
X134419714Y-68318095D01*
X134324476Y-68365714D01*
X134276857Y-68365714D01*
X134181619Y-68318095D01*
X134134000Y-68270476D01*
X134086380Y-68175238D01*
X134086380Y-67984761D01*
X134134000Y-67889523D01*
X134181619Y-67841904D01*
X134276857Y-67794285D01*
X134324476Y-67794285D01*
X134419714Y-67841904D01*
X134467333Y-67889523D01*
X134514952Y-67984761D01*
X134514952Y-68175238D01*
X134562571Y-68270476D01*
X134610190Y-68318095D01*
X134705428Y-68365714D01*
X134895904Y-68365714D01*
X134991142Y-68318095D01*
X135038761Y-68270476D01*
X135086380Y-68175238D01*
X135086380Y-67984761D01*
X135038761Y-67889523D01*
X134991142Y-67841904D01*
X134895904Y-67794285D01*
X134705428Y-67794285D01*
X134610190Y-67841904D01*
X134562571Y-67889523D01*
X134514952Y-67984761D01*
%TO.C,FL1*%
X161962904Y-101790571D02*
X161629571Y-101790571D01*
X161629571Y-102314380D02*
X161629571Y-101314380D01*
X162105761Y-101314380D01*
X162962904Y-102314380D02*
X162486714Y-102314380D01*
X162486714Y-101314380D01*
X163820047Y-102314380D02*
X163248619Y-102314380D01*
X163534333Y-102314380D02*
X163534333Y-101314380D01*
X163439095Y-101457238D01*
X163343857Y-101552476D01*
X163248619Y-101600095D01*
%TO.C,U1*%
X153622019Y-68859495D02*
X152812495Y-68859495D01*
X152717257Y-68907114D01*
X152669638Y-68954733D01*
X152622019Y-69049971D01*
X152622019Y-69240447D01*
X152669638Y-69335685D01*
X152717257Y-69383304D01*
X152812495Y-69430923D01*
X153622019Y-69430923D01*
X152622019Y-70430923D02*
X152622019Y-69859495D01*
X152622019Y-70145209D02*
X153622019Y-70145209D01*
X153479161Y-70049971D01*
X153383923Y-69954733D01*
X153336304Y-69859495D01*
%TO.C,L4*%
X160472380Y-89447666D02*
X160472380Y-89923857D01*
X159472380Y-89923857D01*
X159805714Y-88685761D02*
X160472380Y-88685761D01*
X159424761Y-88923857D02*
X160139047Y-89161952D01*
X160139047Y-88542904D01*
%TO.C,R3*%
X114402333Y-70111880D02*
X114069000Y-69635690D01*
X113830904Y-70111880D02*
X113830904Y-69111880D01*
X114211857Y-69111880D01*
X114307095Y-69159500D01*
X114354714Y-69207119D01*
X114402333Y-69302357D01*
X114402333Y-69445214D01*
X114354714Y-69540452D01*
X114307095Y-69588071D01*
X114211857Y-69635690D01*
X113830904Y-69635690D01*
X114735666Y-69111880D02*
X115354714Y-69111880D01*
X115021380Y-69492833D01*
X115164238Y-69492833D01*
X115259476Y-69540452D01*
X115307095Y-69588071D01*
X115354714Y-69683309D01*
X115354714Y-69921404D01*
X115307095Y-70016642D01*
X115259476Y-70064261D01*
X115164238Y-70111880D01*
X114878523Y-70111880D01*
X114783285Y-70064261D01*
X114735666Y-70016642D01*
%TO.C,C30*%
X162185142Y-100941142D02*
X162137523Y-100988761D01*
X161994666Y-101036380D01*
X161899428Y-101036380D01*
X161756571Y-100988761D01*
X161661333Y-100893523D01*
X161613714Y-100798285D01*
X161566095Y-100607809D01*
X161566095Y-100464952D01*
X161613714Y-100274476D01*
X161661333Y-100179238D01*
X161756571Y-100084000D01*
X161899428Y-100036380D01*
X161994666Y-100036380D01*
X162137523Y-100084000D01*
X162185142Y-100131619D01*
X162518476Y-100036380D02*
X163137523Y-100036380D01*
X162804190Y-100417333D01*
X162947047Y-100417333D01*
X163042285Y-100464952D01*
X163089904Y-100512571D01*
X163137523Y-100607809D01*
X163137523Y-100845904D01*
X163089904Y-100941142D01*
X163042285Y-100988761D01*
X162947047Y-101036380D01*
X162661333Y-101036380D01*
X162566095Y-100988761D01*
X162518476Y-100941142D01*
X163756571Y-100036380D02*
X163851809Y-100036380D01*
X163947047Y-100084000D01*
X163994666Y-100131619D01*
X164042285Y-100226857D01*
X164089904Y-100417333D01*
X164089904Y-100655428D01*
X164042285Y-100845904D01*
X163994666Y-100941142D01*
X163947047Y-100988761D01*
X163851809Y-101036380D01*
X163756571Y-101036380D01*
X163661333Y-100988761D01*
X163613714Y-100941142D01*
X163566095Y-100845904D01*
X163518476Y-100655428D01*
X163518476Y-100417333D01*
X163566095Y-100226857D01*
X163613714Y-100131619D01*
X163661333Y-100084000D01*
X163756571Y-100036380D01*
%TO.C,R19*%
X148723142Y-95194380D02*
X148389809Y-94718190D01*
X148151714Y-95194380D02*
X148151714Y-94194380D01*
X148532666Y-94194380D01*
X148627904Y-94242000D01*
X148675523Y-94289619D01*
X148723142Y-94384857D01*
X148723142Y-94527714D01*
X148675523Y-94622952D01*
X148627904Y-94670571D01*
X148532666Y-94718190D01*
X148151714Y-94718190D01*
X149675523Y-95194380D02*
X149104095Y-95194380D01*
X149389809Y-95194380D02*
X149389809Y-94194380D01*
X149294571Y-94337238D01*
X149199333Y-94432476D01*
X149104095Y-94480095D01*
X150151714Y-95194380D02*
X150342190Y-95194380D01*
X150437428Y-95146761D01*
X150485047Y-95099142D01*
X150580285Y-94956285D01*
X150627904Y-94765809D01*
X150627904Y-94384857D01*
X150580285Y-94289619D01*
X150532666Y-94242000D01*
X150437428Y-94194380D01*
X150246952Y-94194380D01*
X150151714Y-94242000D01*
X150104095Y-94289619D01*
X150056476Y-94384857D01*
X150056476Y-94622952D01*
X150104095Y-94718190D01*
X150151714Y-94765809D01*
X150246952Y-94813428D01*
X150437428Y-94813428D01*
X150532666Y-94765809D01*
X150580285Y-94718190D01*
X150627904Y-94622952D01*
%TO.C,L1*%
X126451380Y-66270166D02*
X126451380Y-66746357D01*
X125451380Y-66746357D01*
X126451380Y-65413023D02*
X126451380Y-65984452D01*
X126451380Y-65698738D02*
X125451380Y-65698738D01*
X125594238Y-65793976D01*
X125689476Y-65889214D01*
X125737095Y-65984452D01*
%TO.C,C22*%
X150129542Y-81160857D02*
X150177161Y-81208476D01*
X150224780Y-81351333D01*
X150224780Y-81446571D01*
X150177161Y-81589428D01*
X150081923Y-81684666D01*
X149986685Y-81732285D01*
X149796209Y-81779904D01*
X149653352Y-81779904D01*
X149462876Y-81732285D01*
X149367638Y-81684666D01*
X149272400Y-81589428D01*
X149224780Y-81446571D01*
X149224780Y-81351333D01*
X149272400Y-81208476D01*
X149320019Y-81160857D01*
X149320019Y-80779904D02*
X149272400Y-80732285D01*
X149224780Y-80637047D01*
X149224780Y-80398952D01*
X149272400Y-80303714D01*
X149320019Y-80256095D01*
X149415257Y-80208476D01*
X149510495Y-80208476D01*
X149653352Y-80256095D01*
X150224780Y-80827523D01*
X150224780Y-80208476D01*
X149320019Y-79827523D02*
X149272400Y-79779904D01*
X149224780Y-79684666D01*
X149224780Y-79446571D01*
X149272400Y-79351333D01*
X149320019Y-79303714D01*
X149415257Y-79256095D01*
X149510495Y-79256095D01*
X149653352Y-79303714D01*
X150224780Y-79875142D01*
X150224780Y-79256095D01*
%TO.C,C19*%
X121656142Y-100314357D02*
X121703761Y-100361976D01*
X121751380Y-100504833D01*
X121751380Y-100600071D01*
X121703761Y-100742928D01*
X121608523Y-100838166D01*
X121513285Y-100885785D01*
X121322809Y-100933404D01*
X121179952Y-100933404D01*
X120989476Y-100885785D01*
X120894238Y-100838166D01*
X120799000Y-100742928D01*
X120751380Y-100600071D01*
X120751380Y-100504833D01*
X120799000Y-100361976D01*
X120846619Y-100314357D01*
X121751380Y-99361976D02*
X121751380Y-99933404D01*
X121751380Y-99647690D02*
X120751380Y-99647690D01*
X120894238Y-99742928D01*
X120989476Y-99838166D01*
X121037095Y-99933404D01*
X121751380Y-98885785D02*
X121751380Y-98695309D01*
X121703761Y-98600071D01*
X121656142Y-98552452D01*
X121513285Y-98457214D01*
X121322809Y-98409595D01*
X120941857Y-98409595D01*
X120846619Y-98457214D01*
X120799000Y-98504833D01*
X120751380Y-98600071D01*
X120751380Y-98790547D01*
X120799000Y-98885785D01*
X120846619Y-98933404D01*
X120941857Y-98981023D01*
X121179952Y-98981023D01*
X121275190Y-98933404D01*
X121322809Y-98885785D01*
X121370428Y-98790547D01*
X121370428Y-98600071D01*
X121322809Y-98504833D01*
X121275190Y-98457214D01*
X121179952Y-98409595D01*
%TO.C,C25*%
X153547142Y-91447857D02*
X153594761Y-91495476D01*
X153642380Y-91638333D01*
X153642380Y-91733571D01*
X153594761Y-91876428D01*
X153499523Y-91971666D01*
X153404285Y-92019285D01*
X153213809Y-92066904D01*
X153070952Y-92066904D01*
X152880476Y-92019285D01*
X152785238Y-91971666D01*
X152690000Y-91876428D01*
X152642380Y-91733571D01*
X152642380Y-91638333D01*
X152690000Y-91495476D01*
X152737619Y-91447857D01*
X152737619Y-91066904D02*
X152690000Y-91019285D01*
X152642380Y-90924047D01*
X152642380Y-90685952D01*
X152690000Y-90590714D01*
X152737619Y-90543095D01*
X152832857Y-90495476D01*
X152928095Y-90495476D01*
X153070952Y-90543095D01*
X153642380Y-91114523D01*
X153642380Y-90495476D01*
X152642380Y-89590714D02*
X152642380Y-90066904D01*
X153118571Y-90114523D01*
X153070952Y-90066904D01*
X153023333Y-89971666D01*
X153023333Y-89733571D01*
X153070952Y-89638333D01*
X153118571Y-89590714D01*
X153213809Y-89543095D01*
X153451904Y-89543095D01*
X153547142Y-89590714D01*
X153594761Y-89638333D01*
X153642380Y-89733571D01*
X153642380Y-89971666D01*
X153594761Y-90066904D01*
X153547142Y-90114523D01*
%TO.C,R13*%
X113544142Y-86050380D02*
X113210809Y-85574190D01*
X112972714Y-86050380D02*
X112972714Y-85050380D01*
X113353666Y-85050380D01*
X113448904Y-85098000D01*
X113496523Y-85145619D01*
X113544142Y-85240857D01*
X113544142Y-85383714D01*
X113496523Y-85478952D01*
X113448904Y-85526571D01*
X113353666Y-85574190D01*
X112972714Y-85574190D01*
X114496523Y-86050380D02*
X113925095Y-86050380D01*
X114210809Y-86050380D02*
X114210809Y-85050380D01*
X114115571Y-85193238D01*
X114020333Y-85288476D01*
X113925095Y-85336095D01*
X114829857Y-85050380D02*
X115448904Y-85050380D01*
X115115571Y-85431333D01*
X115258428Y-85431333D01*
X115353666Y-85478952D01*
X115401285Y-85526571D01*
X115448904Y-85621809D01*
X115448904Y-85859904D01*
X115401285Y-85955142D01*
X115353666Y-86002761D01*
X115258428Y-86050380D01*
X114972714Y-86050380D01*
X114877476Y-86002761D01*
X114829857Y-85955142D01*
%TO.C,R6*%
X114402333Y-62999880D02*
X114069000Y-62523690D01*
X113830904Y-62999880D02*
X113830904Y-61999880D01*
X114211857Y-61999880D01*
X114307095Y-62047500D01*
X114354714Y-62095119D01*
X114402333Y-62190357D01*
X114402333Y-62333214D01*
X114354714Y-62428452D01*
X114307095Y-62476071D01*
X114211857Y-62523690D01*
X113830904Y-62523690D01*
X115259476Y-61999880D02*
X115069000Y-61999880D01*
X114973761Y-62047500D01*
X114926142Y-62095119D01*
X114830904Y-62237976D01*
X114783285Y-62428452D01*
X114783285Y-62809404D01*
X114830904Y-62904642D01*
X114878523Y-62952261D01*
X114973761Y-62999880D01*
X115164238Y-62999880D01*
X115259476Y-62952261D01*
X115307095Y-62904642D01*
X115354714Y-62809404D01*
X115354714Y-62571309D01*
X115307095Y-62476071D01*
X115259476Y-62428452D01*
X115164238Y-62380833D01*
X114973761Y-62380833D01*
X114878523Y-62428452D01*
X114830904Y-62476071D01*
X114783285Y-62571309D01*
%TO.C,L3*%
X153249333Y-88844380D02*
X152773142Y-88844380D01*
X152773142Y-87844380D01*
X153487428Y-87844380D02*
X154106476Y-87844380D01*
X153773142Y-88225333D01*
X153916000Y-88225333D01*
X154011238Y-88272952D01*
X154058857Y-88320571D01*
X154106476Y-88415809D01*
X154106476Y-88653904D01*
X154058857Y-88749142D01*
X154011238Y-88796761D01*
X153916000Y-88844380D01*
X153630285Y-88844380D01*
X153535047Y-88796761D01*
X153487428Y-88749142D01*
%TO.C,J4*%
X161718666Y-53300380D02*
X161718666Y-54014666D01*
X161671047Y-54157523D01*
X161575809Y-54252761D01*
X161432952Y-54300380D01*
X161337714Y-54300380D01*
X162623428Y-53633714D02*
X162623428Y-54300380D01*
X162385333Y-53252761D02*
X162147238Y-53967047D01*
X162766285Y-53967047D01*
%TO.C,C10*%
X113545142Y-71794642D02*
X113497523Y-71842261D01*
X113354666Y-71889880D01*
X113259428Y-71889880D01*
X113116571Y-71842261D01*
X113021333Y-71747023D01*
X112973714Y-71651785D01*
X112926095Y-71461309D01*
X112926095Y-71318452D01*
X112973714Y-71127976D01*
X113021333Y-71032738D01*
X113116571Y-70937500D01*
X113259428Y-70889880D01*
X113354666Y-70889880D01*
X113497523Y-70937500D01*
X113545142Y-70985119D01*
X114497523Y-71889880D02*
X113926095Y-71889880D01*
X114211809Y-71889880D02*
X114211809Y-70889880D01*
X114116571Y-71032738D01*
X114021333Y-71127976D01*
X113926095Y-71175595D01*
X115116571Y-70889880D02*
X115211809Y-70889880D01*
X115307047Y-70937500D01*
X115354666Y-70985119D01*
X115402285Y-71080357D01*
X115449904Y-71270833D01*
X115449904Y-71508928D01*
X115402285Y-71699404D01*
X115354666Y-71794642D01*
X115307047Y-71842261D01*
X115211809Y-71889880D01*
X115116571Y-71889880D01*
X115021333Y-71842261D01*
X114973714Y-71794642D01*
X114926095Y-71699404D01*
X114878476Y-71508928D01*
X114878476Y-71270833D01*
X114926095Y-71080357D01*
X114973714Y-70985119D01*
X115021333Y-70937500D01*
X115116571Y-70889880D01*
%TO.C,SW1*%
X116014161Y-99250333D02*
X116061780Y-99107476D01*
X116061780Y-98869380D01*
X116014161Y-98774142D01*
X115966542Y-98726523D01*
X115871304Y-98678904D01*
X115776066Y-98678904D01*
X115680828Y-98726523D01*
X115633209Y-98774142D01*
X115585590Y-98869380D01*
X115537971Y-99059857D01*
X115490352Y-99155095D01*
X115442733Y-99202714D01*
X115347495Y-99250333D01*
X115252257Y-99250333D01*
X115157019Y-99202714D01*
X115109400Y-99155095D01*
X115061780Y-99059857D01*
X115061780Y-98821761D01*
X115109400Y-98678904D01*
X115061780Y-98345571D02*
X116061780Y-98107476D01*
X115347495Y-97917000D01*
X116061780Y-97726523D01*
X115061780Y-97488428D01*
X116061780Y-96583666D02*
X116061780Y-97155095D01*
X116061780Y-96869380D02*
X115061780Y-96869380D01*
X115204638Y-96964619D01*
X115299876Y-97059857D01*
X115347495Y-97155095D01*
%TO.C,C29*%
X162409142Y-94368857D02*
X162456761Y-94416476D01*
X162504380Y-94559333D01*
X162504380Y-94654571D01*
X162456761Y-94797428D01*
X162361523Y-94892666D01*
X162266285Y-94940285D01*
X162075809Y-94987904D01*
X161932952Y-94987904D01*
X161742476Y-94940285D01*
X161647238Y-94892666D01*
X161552000Y-94797428D01*
X161504380Y-94654571D01*
X161504380Y-94559333D01*
X161552000Y-94416476D01*
X161599619Y-94368857D01*
X161599619Y-93987904D02*
X161552000Y-93940285D01*
X161504380Y-93845047D01*
X161504380Y-93606952D01*
X161552000Y-93511714D01*
X161599619Y-93464095D01*
X161694857Y-93416476D01*
X161790095Y-93416476D01*
X161932952Y-93464095D01*
X162504380Y-94035523D01*
X162504380Y-93416476D01*
X162504380Y-92940285D02*
X162504380Y-92749809D01*
X162456761Y-92654571D01*
X162409142Y-92606952D01*
X162266285Y-92511714D01*
X162075809Y-92464095D01*
X161694857Y-92464095D01*
X161599619Y-92511714D01*
X161552000Y-92559333D01*
X161504380Y-92654571D01*
X161504380Y-92845047D01*
X161552000Y-92940285D01*
X161599619Y-92987904D01*
X161694857Y-93035523D01*
X161932952Y-93035523D01*
X162028190Y-92987904D01*
X162075809Y-92940285D01*
X162123428Y-92845047D01*
X162123428Y-92654571D01*
X162075809Y-92559333D01*
X162028190Y-92511714D01*
X161932952Y-92464095D01*
%TO.C,C3*%
X162028143Y-87442166D02*
X162075762Y-87489785D01*
X162123381Y-87632642D01*
X162123381Y-87727880D01*
X162075762Y-87870738D01*
X161980524Y-87965976D01*
X161885286Y-88013595D01*
X161694810Y-88061214D01*
X161551953Y-88061214D01*
X161361477Y-88013595D01*
X161266239Y-87965976D01*
X161171001Y-87870738D01*
X161123381Y-87727880D01*
X161123381Y-87632642D01*
X161171001Y-87489785D01*
X161218620Y-87442166D01*
X161123381Y-87108833D02*
X161123381Y-86489785D01*
X161504334Y-86823119D01*
X161504334Y-86680261D01*
X161551953Y-86585023D01*
X161599572Y-86537404D01*
X161694810Y-86489785D01*
X161932905Y-86489785D01*
X162028143Y-86537404D01*
X162075762Y-86585023D01*
X162123381Y-86680261D01*
X162123381Y-86965976D01*
X162075762Y-87061214D01*
X162028143Y-87108833D01*
%TO.C,C18*%
X123180142Y-100074357D02*
X123227761Y-100121976D01*
X123275380Y-100264833D01*
X123275380Y-100360071D01*
X123227761Y-100502928D01*
X123132523Y-100598166D01*
X123037285Y-100645785D01*
X122846809Y-100693404D01*
X122703952Y-100693404D01*
X122513476Y-100645785D01*
X122418238Y-100598166D01*
X122323000Y-100502928D01*
X122275380Y-100360071D01*
X122275380Y-100264833D01*
X122323000Y-100121976D01*
X122370619Y-100074357D01*
X123275380Y-99121976D02*
X123275380Y-99693404D01*
X123275380Y-99407690D02*
X122275380Y-99407690D01*
X122418238Y-99502928D01*
X122513476Y-99598166D01*
X122561095Y-99693404D01*
X122703952Y-98550547D02*
X122656333Y-98645785D01*
X122608714Y-98693404D01*
X122513476Y-98741023D01*
X122465857Y-98741023D01*
X122370619Y-98693404D01*
X122323000Y-98645785D01*
X122275380Y-98550547D01*
X122275380Y-98360071D01*
X122323000Y-98264833D01*
X122370619Y-98217214D01*
X122465857Y-98169595D01*
X122513476Y-98169595D01*
X122608714Y-98217214D01*
X122656333Y-98264833D01*
X122703952Y-98360071D01*
X122703952Y-98550547D01*
X122751571Y-98645785D01*
X122799190Y-98693404D01*
X122894428Y-98741023D01*
X123084904Y-98741023D01*
X123180142Y-98693404D01*
X123227761Y-98645785D01*
X123275380Y-98550547D01*
X123275380Y-98360071D01*
X123227761Y-98264833D01*
X123180142Y-98217214D01*
X123084904Y-98169595D01*
X122894428Y-98169595D01*
X122799190Y-98217214D01*
X122751571Y-98264833D01*
X122703952Y-98360071D01*
%TO.C,L2*%
X160472380Y-87034666D02*
X160472380Y-87510857D01*
X159472380Y-87510857D01*
X159567619Y-86748952D02*
X159520000Y-86701333D01*
X159472380Y-86606095D01*
X159472380Y-86368000D01*
X159520000Y-86272761D01*
X159567619Y-86225142D01*
X159662857Y-86177523D01*
X159758095Y-86177523D01*
X159900952Y-86225142D01*
X160472380Y-86796571D01*
X160472380Y-86177523D01*
%TO.C,R2*%
X154999980Y-61761666D02*
X154523790Y-62095000D01*
X154999980Y-62333095D02*
X153999980Y-62333095D01*
X153999980Y-61952142D01*
X154047600Y-61856904D01*
X154095219Y-61809285D01*
X154190457Y-61761666D01*
X154333314Y-61761666D01*
X154428552Y-61809285D01*
X154476171Y-61856904D01*
X154523790Y-61952142D01*
X154523790Y-62333095D01*
X154095219Y-61380714D02*
X154047600Y-61333095D01*
X153999980Y-61237857D01*
X153999980Y-60999761D01*
X154047600Y-60904523D01*
X154095219Y-60856904D01*
X154190457Y-60809285D01*
X154285695Y-60809285D01*
X154428552Y-60856904D01*
X154999980Y-61428333D01*
X154999980Y-60809285D01*
%TO.C,C24*%
X157636542Y-91448957D02*
X157684161Y-91496576D01*
X157731780Y-91639433D01*
X157731780Y-91734671D01*
X157684161Y-91877528D01*
X157588923Y-91972766D01*
X157493685Y-92020385D01*
X157303209Y-92068004D01*
X157160352Y-92068004D01*
X156969876Y-92020385D01*
X156874638Y-91972766D01*
X156779400Y-91877528D01*
X156731780Y-91734671D01*
X156731780Y-91639433D01*
X156779400Y-91496576D01*
X156827019Y-91448957D01*
X156827019Y-91068004D02*
X156779400Y-91020385D01*
X156731780Y-90925147D01*
X156731780Y-90687052D01*
X156779400Y-90591814D01*
X156827019Y-90544195D01*
X156922257Y-90496576D01*
X157017495Y-90496576D01*
X157160352Y-90544195D01*
X157731780Y-91115623D01*
X157731780Y-90496576D01*
X157065114Y-89639433D02*
X157731780Y-89639433D01*
X156684161Y-89877528D02*
X157398447Y-90115623D01*
X157398447Y-89496576D01*
%TO.C,C12*%
X120149142Y-63412642D02*
X120101523Y-63460261D01*
X119958666Y-63507880D01*
X119863428Y-63507880D01*
X119720571Y-63460261D01*
X119625333Y-63365023D01*
X119577714Y-63269785D01*
X119530095Y-63079309D01*
X119530095Y-62936452D01*
X119577714Y-62745976D01*
X119625333Y-62650738D01*
X119720571Y-62555500D01*
X119863428Y-62507880D01*
X119958666Y-62507880D01*
X120101523Y-62555500D01*
X120149142Y-62603119D01*
X121101523Y-63507880D02*
X120530095Y-63507880D01*
X120815809Y-63507880D02*
X120815809Y-62507880D01*
X120720571Y-62650738D01*
X120625333Y-62745976D01*
X120530095Y-62793595D01*
X121482476Y-62603119D02*
X121530095Y-62555500D01*
X121625333Y-62507880D01*
X121863428Y-62507880D01*
X121958666Y-62555500D01*
X122006285Y-62603119D01*
X122053904Y-62698357D01*
X122053904Y-62793595D01*
X122006285Y-62936452D01*
X121434857Y-63507880D01*
X122053904Y-63507880D01*
%TO.C,R20*%
X148723142Y-97988380D02*
X148389809Y-97512190D01*
X148151714Y-97988380D02*
X148151714Y-96988380D01*
X148532666Y-96988380D01*
X148627904Y-97036000D01*
X148675523Y-97083619D01*
X148723142Y-97178857D01*
X148723142Y-97321714D01*
X148675523Y-97416952D01*
X148627904Y-97464571D01*
X148532666Y-97512190D01*
X148151714Y-97512190D01*
X149104095Y-97083619D02*
X149151714Y-97036000D01*
X149246952Y-96988380D01*
X149485047Y-96988380D01*
X149580285Y-97036000D01*
X149627904Y-97083619D01*
X149675523Y-97178857D01*
X149675523Y-97274095D01*
X149627904Y-97416952D01*
X149056476Y-97988380D01*
X149675523Y-97988380D01*
X150294571Y-96988380D02*
X150389809Y-96988380D01*
X150485047Y-97036000D01*
X150532666Y-97083619D01*
X150580285Y-97178857D01*
X150627904Y-97369333D01*
X150627904Y-97607428D01*
X150580285Y-97797904D01*
X150532666Y-97893142D01*
X150485047Y-97940761D01*
X150389809Y-97988380D01*
X150294571Y-97988380D01*
X150199333Y-97940761D01*
X150151714Y-97893142D01*
X150104095Y-97797904D01*
X150056476Y-97607428D01*
X150056476Y-97369333D01*
X150104095Y-97178857D01*
X150151714Y-97083619D01*
X150199333Y-97036000D01*
X150294571Y-96988380D01*
%TO.C,R5*%
X114402333Y-68333880D02*
X114069000Y-67857690D01*
X113830904Y-68333880D02*
X113830904Y-67333880D01*
X114211857Y-67333880D01*
X114307095Y-67381500D01*
X114354714Y-67429119D01*
X114402333Y-67524357D01*
X114402333Y-67667214D01*
X114354714Y-67762452D01*
X114307095Y-67810071D01*
X114211857Y-67857690D01*
X113830904Y-67857690D01*
X115307095Y-67333880D02*
X114830904Y-67333880D01*
X114783285Y-67810071D01*
X114830904Y-67762452D01*
X114926142Y-67714833D01*
X115164238Y-67714833D01*
X115259476Y-67762452D01*
X115307095Y-67810071D01*
X115354714Y-67905309D01*
X115354714Y-68143404D01*
X115307095Y-68238642D01*
X115259476Y-68286261D01*
X115164238Y-68333880D01*
X114926142Y-68333880D01*
X114830904Y-68286261D01*
X114783285Y-68238642D01*
%TO.C,C20*%
X120132142Y-100314357D02*
X120179761Y-100361976D01*
X120227380Y-100504833D01*
X120227380Y-100600071D01*
X120179761Y-100742928D01*
X120084523Y-100838166D01*
X119989285Y-100885785D01*
X119798809Y-100933404D01*
X119655952Y-100933404D01*
X119465476Y-100885785D01*
X119370238Y-100838166D01*
X119275000Y-100742928D01*
X119227380Y-100600071D01*
X119227380Y-100504833D01*
X119275000Y-100361976D01*
X119322619Y-100314357D01*
X119322619Y-99933404D02*
X119275000Y-99885785D01*
X119227380Y-99790547D01*
X119227380Y-99552452D01*
X119275000Y-99457214D01*
X119322619Y-99409595D01*
X119417857Y-99361976D01*
X119513095Y-99361976D01*
X119655952Y-99409595D01*
X120227380Y-99981023D01*
X120227380Y-99361976D01*
X119227380Y-98742928D02*
X119227380Y-98647690D01*
X119275000Y-98552452D01*
X119322619Y-98504833D01*
X119417857Y-98457214D01*
X119608333Y-98409595D01*
X119846428Y-98409595D01*
X120036904Y-98457214D01*
X120132142Y-98504833D01*
X120179761Y-98552452D01*
X120227380Y-98647690D01*
X120227380Y-98742928D01*
X120179761Y-98838166D01*
X120132142Y-98885785D01*
X120036904Y-98933404D01*
X119846428Y-98981023D01*
X119608333Y-98981023D01*
X119417857Y-98933404D01*
X119322619Y-98885785D01*
X119275000Y-98838166D01*
X119227380Y-98742928D01*
%TO.C,C4*%
X163425143Y-87442166D02*
X163472762Y-87489785D01*
X163520381Y-87632642D01*
X163520381Y-87727880D01*
X163472762Y-87870738D01*
X163377524Y-87965976D01*
X163282286Y-88013595D01*
X163091810Y-88061214D01*
X162948953Y-88061214D01*
X162758477Y-88013595D01*
X162663239Y-87965976D01*
X162568001Y-87870738D01*
X162520381Y-87727880D01*
X162520381Y-87632642D01*
X162568001Y-87489785D01*
X162615620Y-87442166D01*
X162853715Y-86585023D02*
X163520381Y-86585023D01*
X162472762Y-86823119D02*
X163187048Y-87061214D01*
X163187048Y-86442166D01*
%TO.C,R11*%
X130895380Y-100083857D02*
X130419190Y-100417190D01*
X130895380Y-100655285D02*
X129895380Y-100655285D01*
X129895380Y-100274333D01*
X129943000Y-100179095D01*
X129990619Y-100131476D01*
X130085857Y-100083857D01*
X130228714Y-100083857D01*
X130323952Y-100131476D01*
X130371571Y-100179095D01*
X130419190Y-100274333D01*
X130419190Y-100655285D01*
X130895380Y-99131476D02*
X130895380Y-99702904D01*
X130895380Y-99417190D02*
X129895380Y-99417190D01*
X130038238Y-99512428D01*
X130133476Y-99607666D01*
X130181095Y-99702904D01*
X130895380Y-98179095D02*
X130895380Y-98750523D01*
X130895380Y-98464809D02*
X129895380Y-98464809D01*
X130038238Y-98560047D01*
X130133476Y-98655285D01*
X130181095Y-98750523D01*
%TO.C,U7*%
X159218380Y-80771904D02*
X160027904Y-80771904D01*
X160123142Y-80724285D01*
X160170761Y-80676666D01*
X160218380Y-80581428D01*
X160218380Y-80390952D01*
X160170761Y-80295714D01*
X160123142Y-80248095D01*
X160027904Y-80200476D01*
X159218380Y-80200476D01*
X159218380Y-79819523D02*
X159218380Y-79152857D01*
X160218380Y-79581428D01*
%TO.C,J1*%
X147211380Y-73231333D02*
X147925666Y-73231333D01*
X148068523Y-73278952D01*
X148163761Y-73374190D01*
X148211380Y-73517047D01*
X148211380Y-73612285D01*
X148211380Y-72231333D02*
X148211380Y-72802761D01*
X148211380Y-72517047D02*
X147211380Y-72517047D01*
X147354238Y-72612285D01*
X147449476Y-72707523D01*
X147497095Y-72802761D01*
%TO.C,C31*%
X163679142Y-94368857D02*
X163726761Y-94416476D01*
X163774380Y-94559333D01*
X163774380Y-94654571D01*
X163726761Y-94797428D01*
X163631523Y-94892666D01*
X163536285Y-94940285D01*
X163345809Y-94987904D01*
X163202952Y-94987904D01*
X163012476Y-94940285D01*
X162917238Y-94892666D01*
X162822000Y-94797428D01*
X162774380Y-94654571D01*
X162774380Y-94559333D01*
X162822000Y-94416476D01*
X162869619Y-94368857D01*
X162774380Y-94035523D02*
X162774380Y-93416476D01*
X163155333Y-93749809D01*
X163155333Y-93606952D01*
X163202952Y-93511714D01*
X163250571Y-93464095D01*
X163345809Y-93416476D01*
X163583904Y-93416476D01*
X163679142Y-93464095D01*
X163726761Y-93511714D01*
X163774380Y-93606952D01*
X163774380Y-93892666D01*
X163726761Y-93987904D01*
X163679142Y-94035523D01*
X163774380Y-92464095D02*
X163774380Y-93035523D01*
X163774380Y-92749809D02*
X162774380Y-92749809D01*
X162917238Y-92845047D01*
X163012476Y-92940285D01*
X163060095Y-93035523D01*
%TO.C,C14*%
X113644642Y-90654142D02*
X113597023Y-90701761D01*
X113454166Y-90749380D01*
X113358928Y-90749380D01*
X113216071Y-90701761D01*
X113120833Y-90606523D01*
X113073214Y-90511285D01*
X113025595Y-90320809D01*
X113025595Y-90177952D01*
X113073214Y-89987476D01*
X113120833Y-89892238D01*
X113216071Y-89797000D01*
X113358928Y-89749380D01*
X113454166Y-89749380D01*
X113597023Y-89797000D01*
X113644642Y-89844619D01*
X114597023Y-90749380D02*
X114025595Y-90749380D01*
X114311309Y-90749380D02*
X114311309Y-89749380D01*
X114216071Y-89892238D01*
X114120833Y-89987476D01*
X114025595Y-90035095D01*
X115454166Y-90082714D02*
X115454166Y-90749380D01*
X115216071Y-89701761D02*
X114977976Y-90416047D01*
X115597023Y-90416047D01*
%TO.C,Y3*%
X149723190Y-83788190D02*
X150199380Y-83788190D01*
X149199380Y-84121523D02*
X149723190Y-83788190D01*
X149199380Y-83454857D01*
X149199380Y-83216761D02*
X149199380Y-82597714D01*
X149580333Y-82931047D01*
X149580333Y-82788190D01*
X149627952Y-82692952D01*
X149675571Y-82645333D01*
X149770809Y-82597714D01*
X150008904Y-82597714D01*
X150104142Y-82645333D01*
X150151761Y-82692952D01*
X150199380Y-82788190D01*
X150199380Y-83073904D01*
X150151761Y-83169142D01*
X150104142Y-83216761D01*
%TO.C,R9*%
X125053380Y-74551166D02*
X124577190Y-74884500D01*
X125053380Y-75122595D02*
X124053380Y-75122595D01*
X124053380Y-74741642D01*
X124101000Y-74646404D01*
X124148619Y-74598785D01*
X124243857Y-74551166D01*
X124386714Y-74551166D01*
X124481952Y-74598785D01*
X124529571Y-74646404D01*
X124577190Y-74741642D01*
X124577190Y-75122595D01*
X125053380Y-74074976D02*
X125053380Y-73884500D01*
X125005761Y-73789261D01*
X124958142Y-73741642D01*
X124815285Y-73646404D01*
X124624809Y-73598785D01*
X124243857Y-73598785D01*
X124148619Y-73646404D01*
X124101000Y-73694023D01*
X124053380Y-73789261D01*
X124053380Y-73979738D01*
X124101000Y-74074976D01*
X124148619Y-74122595D01*
X124243857Y-74170214D01*
X124481952Y-74170214D01*
X124577190Y-74122595D01*
X124624809Y-74074976D01*
X124672428Y-73979738D01*
X124672428Y-73789261D01*
X124624809Y-73694023D01*
X124577190Y-73646404D01*
X124481952Y-73598785D01*
%TO.C,R18*%
X154871880Y-80906857D02*
X154395690Y-81240190D01*
X154871880Y-81478285D02*
X153871880Y-81478285D01*
X153871880Y-81097333D01*
X153919500Y-81002095D01*
X153967119Y-80954476D01*
X154062357Y-80906857D01*
X154205214Y-80906857D01*
X154300452Y-80954476D01*
X154348071Y-81002095D01*
X154395690Y-81097333D01*
X154395690Y-81478285D01*
X154871880Y-79954476D02*
X154871880Y-80525904D01*
X154871880Y-80240190D02*
X153871880Y-80240190D01*
X154014738Y-80335428D01*
X154109976Y-80430666D01*
X154157595Y-80525904D01*
X154300452Y-79383047D02*
X154252833Y-79478285D01*
X154205214Y-79525904D01*
X154109976Y-79573523D01*
X154062357Y-79573523D01*
X153967119Y-79525904D01*
X153919500Y-79478285D01*
X153871880Y-79383047D01*
X153871880Y-79192571D01*
X153919500Y-79097333D01*
X153967119Y-79049714D01*
X154062357Y-79002095D01*
X154109976Y-79002095D01*
X154205214Y-79049714D01*
X154252833Y-79097333D01*
X154300452Y-79192571D01*
X154300452Y-79383047D01*
X154348071Y-79478285D01*
X154395690Y-79525904D01*
X154490928Y-79573523D01*
X154681404Y-79573523D01*
X154776642Y-79525904D01*
X154824261Y-79478285D01*
X154871880Y-79383047D01*
X154871880Y-79192571D01*
X154824261Y-79097333D01*
X154776642Y-79049714D01*
X154681404Y-79002095D01*
X154490928Y-79002095D01*
X154395690Y-79049714D01*
X154348071Y-79097333D01*
X154300452Y-79192571D01*
%TO.C,D8*%
X131022380Y-69318095D02*
X130022380Y-69318095D01*
X130022380Y-69080000D01*
X130070000Y-68937142D01*
X130165238Y-68841904D01*
X130260476Y-68794285D01*
X130450952Y-68746666D01*
X130593809Y-68746666D01*
X130784285Y-68794285D01*
X130879523Y-68841904D01*
X130974761Y-68937142D01*
X131022380Y-69080000D01*
X131022380Y-69318095D01*
X130450952Y-68175238D02*
X130403333Y-68270476D01*
X130355714Y-68318095D01*
X130260476Y-68365714D01*
X130212857Y-68365714D01*
X130117619Y-68318095D01*
X130070000Y-68270476D01*
X130022380Y-68175238D01*
X130022380Y-67984761D01*
X130070000Y-67889523D01*
X130117619Y-67841904D01*
X130212857Y-67794285D01*
X130260476Y-67794285D01*
X130355714Y-67841904D01*
X130403333Y-67889523D01*
X130450952Y-67984761D01*
X130450952Y-68175238D01*
X130498571Y-68270476D01*
X130546190Y-68318095D01*
X130641428Y-68365714D01*
X130831904Y-68365714D01*
X130927142Y-68318095D01*
X130974761Y-68270476D01*
X131022380Y-68175238D01*
X131022380Y-67984761D01*
X130974761Y-67889523D01*
X130927142Y-67841904D01*
X130831904Y-67794285D01*
X130641428Y-67794285D01*
X130546190Y-67841904D01*
X130498571Y-67889523D01*
X130450952Y-67984761D01*
%TO.C,C21*%
X161901142Y-78774357D02*
X161948761Y-78821976D01*
X161996380Y-78964833D01*
X161996380Y-79060071D01*
X161948761Y-79202928D01*
X161853523Y-79298166D01*
X161758285Y-79345785D01*
X161567809Y-79393404D01*
X161424952Y-79393404D01*
X161234476Y-79345785D01*
X161139238Y-79298166D01*
X161044000Y-79202928D01*
X160996380Y-79060071D01*
X160996380Y-78964833D01*
X161044000Y-78821976D01*
X161091619Y-78774357D01*
X161091619Y-78393404D02*
X161044000Y-78345785D01*
X160996380Y-78250547D01*
X160996380Y-78012452D01*
X161044000Y-77917214D01*
X161091619Y-77869595D01*
X161186857Y-77821976D01*
X161282095Y-77821976D01*
X161424952Y-77869595D01*
X161996380Y-78441023D01*
X161996380Y-77821976D01*
X161996380Y-76869595D02*
X161996380Y-77441023D01*
X161996380Y-77155309D02*
X160996380Y-77155309D01*
X161139238Y-77250547D01*
X161234476Y-77345785D01*
X161282095Y-77441023D01*
%TO.C,D7*%
X112971027Y-87574380D02*
X112971027Y-86574380D01*
X113209123Y-86574380D01*
X113351980Y-86622000D01*
X113447218Y-86717238D01*
X113494837Y-86812476D01*
X113542456Y-87002952D01*
X113542456Y-87145809D01*
X113494837Y-87336285D01*
X113447218Y-87431523D01*
X113351980Y-87526761D01*
X113209123Y-87574380D01*
X112971027Y-87574380D01*
X113875789Y-86574380D02*
X114542456Y-86574380D01*
X114113884Y-87574380D01*
%TO.C,C13*%
X113644642Y-89130142D02*
X113597023Y-89177761D01*
X113454166Y-89225380D01*
X113358928Y-89225380D01*
X113216071Y-89177761D01*
X113120833Y-89082523D01*
X113073214Y-88987285D01*
X113025595Y-88796809D01*
X113025595Y-88653952D01*
X113073214Y-88463476D01*
X113120833Y-88368238D01*
X113216071Y-88273000D01*
X113358928Y-88225380D01*
X113454166Y-88225380D01*
X113597023Y-88273000D01*
X113644642Y-88320619D01*
X114597023Y-89225380D02*
X114025595Y-89225380D01*
X114311309Y-89225380D02*
X114311309Y-88225380D01*
X114216071Y-88368238D01*
X114120833Y-88463476D01*
X114025595Y-88511095D01*
X114930357Y-88225380D02*
X115549404Y-88225380D01*
X115216071Y-88606333D01*
X115358928Y-88606333D01*
X115454166Y-88653952D01*
X115501785Y-88701571D01*
X115549404Y-88796809D01*
X115549404Y-89034904D01*
X115501785Y-89130142D01*
X115454166Y-89177761D01*
X115358928Y-89225380D01*
X115073214Y-89225380D01*
X114977976Y-89177761D01*
X114930357Y-89130142D01*
%TO.C,R4*%
X114402333Y-66555880D02*
X114069000Y-66079690D01*
X113830904Y-66555880D02*
X113830904Y-65555880D01*
X114211857Y-65555880D01*
X114307095Y-65603500D01*
X114354714Y-65651119D01*
X114402333Y-65746357D01*
X114402333Y-65889214D01*
X114354714Y-65984452D01*
X114307095Y-66032071D01*
X114211857Y-66079690D01*
X113830904Y-66079690D01*
X115259476Y-65889214D02*
X115259476Y-66555880D01*
X115021380Y-65508261D02*
X114783285Y-66222547D01*
X115402333Y-66222547D01*
%TO.C,R10*%
X127847380Y-100060357D02*
X127371190Y-100393690D01*
X127847380Y-100631785D02*
X126847380Y-100631785D01*
X126847380Y-100250833D01*
X126895000Y-100155595D01*
X126942619Y-100107976D01*
X127037857Y-100060357D01*
X127180714Y-100060357D01*
X127275952Y-100107976D01*
X127323571Y-100155595D01*
X127371190Y-100250833D01*
X127371190Y-100631785D01*
X127847380Y-99107976D02*
X127847380Y-99679404D01*
X127847380Y-99393690D02*
X126847380Y-99393690D01*
X126990238Y-99488928D01*
X127085476Y-99584166D01*
X127133095Y-99679404D01*
X126847380Y-98488928D02*
X126847380Y-98393690D01*
X126895000Y-98298452D01*
X126942619Y-98250833D01*
X127037857Y-98203214D01*
X127228333Y-98155595D01*
X127466428Y-98155595D01*
X127656904Y-98203214D01*
X127752142Y-98250833D01*
X127799761Y-98298452D01*
X127847380Y-98393690D01*
X127847380Y-98488928D01*
X127799761Y-98584166D01*
X127752142Y-98631785D01*
X127656904Y-98679404D01*
X127466428Y-98727023D01*
X127228333Y-98727023D01*
X127037857Y-98679404D01*
X126942619Y-98631785D01*
X126895000Y-98584166D01*
X126847380Y-98488928D01*
%TO.C,C7*%
X132689333Y-66016142D02*
X132641714Y-66063761D01*
X132498857Y-66111380D01*
X132403619Y-66111380D01*
X132260761Y-66063761D01*
X132165523Y-65968523D01*
X132117904Y-65873285D01*
X132070285Y-65682809D01*
X132070285Y-65539952D01*
X132117904Y-65349476D01*
X132165523Y-65254238D01*
X132260761Y-65159000D01*
X132403619Y-65111380D01*
X132498857Y-65111380D01*
X132641714Y-65159000D01*
X132689333Y-65206619D01*
X133022666Y-65111380D02*
X133689333Y-65111380D01*
X133260761Y-66111380D01*
%TO.C,D3*%
X131022380Y-63476095D02*
X130022380Y-63476095D01*
X130022380Y-63238000D01*
X130070000Y-63095142D01*
X130165238Y-62999904D01*
X130260476Y-62952285D01*
X130450952Y-62904666D01*
X130593809Y-62904666D01*
X130784285Y-62952285D01*
X130879523Y-62999904D01*
X130974761Y-63095142D01*
X131022380Y-63238000D01*
X131022380Y-63476095D01*
X130022380Y-62571333D02*
X130022380Y-61952285D01*
X130403333Y-62285619D01*
X130403333Y-62142761D01*
X130450952Y-62047523D01*
X130498571Y-61999904D01*
X130593809Y-61952285D01*
X130831904Y-61952285D01*
X130927142Y-61999904D01*
X130974761Y-62047523D01*
X131022380Y-62142761D01*
X131022380Y-62428476D01*
X130974761Y-62523714D01*
X130927142Y-62571333D01*
%TO.C,C11*%
X113545142Y-64682642D02*
X113497523Y-64730261D01*
X113354666Y-64777880D01*
X113259428Y-64777880D01*
X113116571Y-64730261D01*
X113021333Y-64635023D01*
X112973714Y-64539785D01*
X112926095Y-64349309D01*
X112926095Y-64206452D01*
X112973714Y-64015976D01*
X113021333Y-63920738D01*
X113116571Y-63825500D01*
X113259428Y-63777880D01*
X113354666Y-63777880D01*
X113497523Y-63825500D01*
X113545142Y-63873119D01*
X114497523Y-64777880D02*
X113926095Y-64777880D01*
X114211809Y-64777880D02*
X114211809Y-63777880D01*
X114116571Y-63920738D01*
X114021333Y-64015976D01*
X113926095Y-64063595D01*
X115449904Y-64777880D02*
X114878476Y-64777880D01*
X115164190Y-64777880D02*
X115164190Y-63777880D01*
X115068952Y-63920738D01*
X114973714Y-64015976D01*
X114878476Y-64063595D01*
%TO.C,C6*%
X142595333Y-65508142D02*
X142547714Y-65555761D01*
X142404857Y-65603380D01*
X142309619Y-65603380D01*
X142166761Y-65555761D01*
X142071523Y-65460523D01*
X142023904Y-65365285D01*
X141976285Y-65174809D01*
X141976285Y-65031952D01*
X142023904Y-64841476D01*
X142071523Y-64746238D01*
X142166761Y-64651000D01*
X142309619Y-64603380D01*
X142404857Y-64603380D01*
X142547714Y-64651000D01*
X142595333Y-64698619D01*
X143452476Y-64603380D02*
X143262000Y-64603380D01*
X143166761Y-64651000D01*
X143119142Y-64698619D01*
X143023904Y-64841476D01*
X142976285Y-65031952D01*
X142976285Y-65412904D01*
X143023904Y-65508142D01*
X143071523Y-65555761D01*
X143166761Y-65603380D01*
X143357238Y-65603380D01*
X143452476Y-65555761D01*
X143500095Y-65508142D01*
X143547714Y-65412904D01*
X143547714Y-65174809D01*
X143500095Y-65079571D01*
X143452476Y-65031952D01*
X143357238Y-64984333D01*
X143166761Y-64984333D01*
X143071523Y-65031952D01*
X143023904Y-65079571D01*
X142976285Y-65174809D01*
%TO.C,D2*%
X126276904Y-71254880D02*
X126276904Y-70254880D01*
X126515000Y-70254880D01*
X126657857Y-70302500D01*
X126753095Y-70397738D01*
X126800714Y-70492976D01*
X126848333Y-70683452D01*
X126848333Y-70826309D01*
X126800714Y-71016785D01*
X126753095Y-71112023D01*
X126657857Y-71207261D01*
X126515000Y-71254880D01*
X126276904Y-71254880D01*
X127229285Y-70350119D02*
X127276904Y-70302500D01*
X127372142Y-70254880D01*
X127610238Y-70254880D01*
X127705476Y-70302500D01*
X127753095Y-70350119D01*
X127800714Y-70445357D01*
X127800714Y-70540595D01*
X127753095Y-70683452D01*
X127181666Y-71254880D01*
X127800714Y-71254880D01*
%TO.C,C9*%
X122292142Y-70969166D02*
X122339761Y-71016785D01*
X122387380Y-71159642D01*
X122387380Y-71254880D01*
X122339761Y-71397738D01*
X122244523Y-71492976D01*
X122149285Y-71540595D01*
X121958809Y-71588214D01*
X121815952Y-71588214D01*
X121625476Y-71540595D01*
X121530238Y-71492976D01*
X121435000Y-71397738D01*
X121387380Y-71254880D01*
X121387380Y-71159642D01*
X121435000Y-71016785D01*
X121482619Y-70969166D01*
X122387380Y-70492976D02*
X122387380Y-70302500D01*
X122339761Y-70207261D01*
X122292142Y-70159642D01*
X122149285Y-70064404D01*
X121958809Y-70016785D01*
X121577857Y-70016785D01*
X121482619Y-70064404D01*
X121435000Y-70112023D01*
X121387380Y-70207261D01*
X121387380Y-70397738D01*
X121435000Y-70492976D01*
X121482619Y-70540595D01*
X121577857Y-70588214D01*
X121815952Y-70588214D01*
X121911190Y-70540595D01*
X121958809Y-70492976D01*
X122006428Y-70397738D01*
X122006428Y-70207261D01*
X121958809Y-70112023D01*
X121911190Y-70064404D01*
X121815952Y-70016785D01*
%TO.C,J5*%
X118171666Y-54815380D02*
X118171666Y-55529666D01*
X118124047Y-55672523D01*
X118028809Y-55767761D01*
X117885952Y-55815380D01*
X117790714Y-55815380D01*
X119124047Y-54815380D02*
X118647857Y-54815380D01*
X118600238Y-55291571D01*
X118647857Y-55243952D01*
X118743095Y-55196333D01*
X118981190Y-55196333D01*
X119076428Y-55243952D01*
X119124047Y-55291571D01*
X119171666Y-55386809D01*
X119171666Y-55624904D01*
X119124047Y-55720142D01*
X119076428Y-55767761D01*
X118981190Y-55815380D01*
X118743095Y-55815380D01*
X118647857Y-55767761D01*
X118600238Y-55720142D01*
%TO.C,J6*%
X118846380Y-78057333D02*
X119560666Y-78057333D01*
X119703523Y-78104952D01*
X119798761Y-78200190D01*
X119846380Y-78343047D01*
X119846380Y-78438285D01*
X118846380Y-77152571D02*
X118846380Y-77343047D01*
X118894000Y-77438285D01*
X118941619Y-77485904D01*
X119084476Y-77581142D01*
X119274952Y-77628761D01*
X119655904Y-77628761D01*
X119751142Y-77581142D01*
X119798761Y-77533523D01*
X119846380Y-77438285D01*
X119846380Y-77247809D01*
X119798761Y-77152571D01*
X119751142Y-77104952D01*
X119655904Y-77057333D01*
X119417809Y-77057333D01*
X119322571Y-77104952D01*
X119274952Y-77152571D01*
X119227333Y-77247809D01*
X119227333Y-77438285D01*
X119274952Y-77533523D01*
X119322571Y-77581142D01*
X119417809Y-77628761D01*
%TO.C,D4*%
X113703904Y-61348880D02*
X113703904Y-60348880D01*
X113942000Y-60348880D01*
X114084857Y-60396500D01*
X114180095Y-60491738D01*
X114227714Y-60586976D01*
X114275333Y-60777452D01*
X114275333Y-60920309D01*
X114227714Y-61110785D01*
X114180095Y-61206023D01*
X114084857Y-61301261D01*
X113942000Y-61348880D01*
X113703904Y-61348880D01*
X115132476Y-60682214D02*
X115132476Y-61348880D01*
X114894380Y-60301261D02*
X114656285Y-61015547D01*
X115275333Y-61015547D01*
%TO.C,U3*%
X140309380Y-68604904D02*
X141118904Y-68604904D01*
X141214142Y-68557285D01*
X141261761Y-68509666D01*
X141309380Y-68414428D01*
X141309380Y-68223952D01*
X141261761Y-68128714D01*
X141214142Y-68081095D01*
X141118904Y-68033476D01*
X140309380Y-68033476D01*
X140309380Y-67652523D02*
X140309380Y-67033476D01*
X140690333Y-67366809D01*
X140690333Y-67223952D01*
X140737952Y-67128714D01*
X140785571Y-67081095D01*
X140880809Y-67033476D01*
X141118904Y-67033476D01*
X141214142Y-67081095D01*
X141261761Y-67128714D01*
X141309380Y-67223952D01*
X141309380Y-67509666D01*
X141261761Y-67604904D01*
X141214142Y-67652523D01*
%TO.C,R21*%
X148723142Y-96591380D02*
X148389809Y-96115190D01*
X148151714Y-96591380D02*
X148151714Y-95591380D01*
X148532666Y-95591380D01*
X148627904Y-95639000D01*
X148675523Y-95686619D01*
X148723142Y-95781857D01*
X148723142Y-95924714D01*
X148675523Y-96019952D01*
X148627904Y-96067571D01*
X148532666Y-96115190D01*
X148151714Y-96115190D01*
X149104095Y-95686619D02*
X149151714Y-95639000D01*
X149246952Y-95591380D01*
X149485047Y-95591380D01*
X149580285Y-95639000D01*
X149627904Y-95686619D01*
X149675523Y-95781857D01*
X149675523Y-95877095D01*
X149627904Y-96019952D01*
X149056476Y-96591380D01*
X149675523Y-96591380D01*
X150627904Y-96591380D02*
X150056476Y-96591380D01*
X150342190Y-96591380D02*
X150342190Y-95591380D01*
X150246952Y-95734238D01*
X150151714Y-95829476D01*
X150056476Y-95877095D01*
%TO.C,R8*%
X123529380Y-74551166D02*
X123053190Y-74884500D01*
X123529380Y-75122595D02*
X122529380Y-75122595D01*
X122529380Y-74741642D01*
X122577000Y-74646404D01*
X122624619Y-74598785D01*
X122719857Y-74551166D01*
X122862714Y-74551166D01*
X122957952Y-74598785D01*
X123005571Y-74646404D01*
X123053190Y-74741642D01*
X123053190Y-75122595D01*
X122957952Y-73979738D02*
X122910333Y-74074976D01*
X122862714Y-74122595D01*
X122767476Y-74170214D01*
X122719857Y-74170214D01*
X122624619Y-74122595D01*
X122577000Y-74074976D01*
X122529380Y-73979738D01*
X122529380Y-73789261D01*
X122577000Y-73694023D01*
X122624619Y-73646404D01*
X122719857Y-73598785D01*
X122767476Y-73598785D01*
X122862714Y-73646404D01*
X122910333Y-73694023D01*
X122957952Y-73789261D01*
X122957952Y-73979738D01*
X123005571Y-74074976D01*
X123053190Y-74122595D01*
X123148428Y-74170214D01*
X123338904Y-74170214D01*
X123434142Y-74122595D01*
X123481761Y-74074976D01*
X123529380Y-73979738D01*
X123529380Y-73789261D01*
X123481761Y-73694023D01*
X123434142Y-73646404D01*
X123338904Y-73598785D01*
X123148428Y-73598785D01*
X123053190Y-73646404D01*
X123005571Y-73694023D01*
X122957952Y-73789261D01*
%TO.C,U8*%
X156082780Y-98170904D02*
X156892304Y-98170904D01*
X156987542Y-98123285D01*
X157035161Y-98075666D01*
X157082780Y-97980428D01*
X157082780Y-97789952D01*
X157035161Y-97694714D01*
X156987542Y-97647095D01*
X156892304Y-97599476D01*
X156082780Y-97599476D01*
X156511352Y-96980428D02*
X156463733Y-97075666D01*
X156416114Y-97123285D01*
X156320876Y-97170904D01*
X156273257Y-97170904D01*
X156178019Y-97123285D01*
X156130400Y-97075666D01*
X156082780Y-96980428D01*
X156082780Y-96789952D01*
X156130400Y-96694714D01*
X156178019Y-96647095D01*
X156273257Y-96599476D01*
X156320876Y-96599476D01*
X156416114Y-96647095D01*
X156463733Y-96694714D01*
X156511352Y-96789952D01*
X156511352Y-96980428D01*
X156558971Y-97075666D01*
X156606590Y-97123285D01*
X156701828Y-97170904D01*
X156892304Y-97170904D01*
X156987542Y-97123285D01*
X157035161Y-97075666D01*
X157082780Y-96980428D01*
X157082780Y-96789952D01*
X157035161Y-96694714D01*
X156987542Y-96647095D01*
X156892304Y-96599476D01*
X156701828Y-96599476D01*
X156606590Y-96647095D01*
X156558971Y-96694714D01*
X156511352Y-96789952D01*
%TO.C,U5*%
X119989380Y-89878404D02*
X120798904Y-89878404D01*
X120894142Y-89830785D01*
X120941761Y-89783166D01*
X120989380Y-89687928D01*
X120989380Y-89497452D01*
X120941761Y-89402214D01*
X120894142Y-89354595D01*
X120798904Y-89306976D01*
X119989380Y-89306976D01*
X119989380Y-88354595D02*
X119989380Y-88830785D01*
X120465571Y-88878404D01*
X120417952Y-88830785D01*
X120370333Y-88735547D01*
X120370333Y-88497452D01*
X120417952Y-88402214D01*
X120465571Y-88354595D01*
X120560809Y-88306976D01*
X120798904Y-88306976D01*
X120894142Y-88354595D01*
X120941761Y-88402214D01*
X120989380Y-88497452D01*
X120989380Y-88735547D01*
X120941761Y-88830785D01*
X120894142Y-88878404D01*
%TO.C,C15*%
X128006142Y-74519357D02*
X128053761Y-74566976D01*
X128101380Y-74709833D01*
X128101380Y-74805071D01*
X128053761Y-74947928D01*
X127958523Y-75043166D01*
X127863285Y-75090785D01*
X127672809Y-75138404D01*
X127529952Y-75138404D01*
X127339476Y-75090785D01*
X127244238Y-75043166D01*
X127149000Y-74947928D01*
X127101380Y-74805071D01*
X127101380Y-74709833D01*
X127149000Y-74566976D01*
X127196619Y-74519357D01*
X128101380Y-73566976D02*
X128101380Y-74138404D01*
X128101380Y-73852690D02*
X127101380Y-73852690D01*
X127244238Y-73947928D01*
X127339476Y-74043166D01*
X127387095Y-74138404D01*
X127101380Y-72662214D02*
X127101380Y-73138404D01*
X127577571Y-73186023D01*
X127529952Y-73138404D01*
X127482333Y-73043166D01*
X127482333Y-72805071D01*
X127529952Y-72709833D01*
X127577571Y-72662214D01*
X127672809Y-72614595D01*
X127910904Y-72614595D01*
X128006142Y-72662214D01*
X128053761Y-72709833D01*
X128101380Y-72805071D01*
X128101380Y-73043166D01*
X128053761Y-73138404D01*
X128006142Y-73186023D01*
%TO.C,U2*%
X144794095Y-66000380D02*
X144794095Y-66809904D01*
X144841714Y-66905142D01*
X144889333Y-66952761D01*
X144984571Y-67000380D01*
X145175047Y-67000380D01*
X145270285Y-66952761D01*
X145317904Y-66905142D01*
X145365523Y-66809904D01*
X145365523Y-66000380D01*
X145794095Y-66095619D02*
X145841714Y-66048000D01*
X145936952Y-66000380D01*
X146175047Y-66000380D01*
X146270285Y-66048000D01*
X146317904Y-66095619D01*
X146365523Y-66190857D01*
X146365523Y-66286095D01*
X146317904Y-66428952D01*
X145746476Y-67000380D01*
X146365523Y-67000380D01*
%TO.C,C16*%
X126228142Y-100060357D02*
X126275761Y-100107976D01*
X126323380Y-100250833D01*
X126323380Y-100346071D01*
X126275761Y-100488928D01*
X126180523Y-100584166D01*
X126085285Y-100631785D01*
X125894809Y-100679404D01*
X125751952Y-100679404D01*
X125561476Y-100631785D01*
X125466238Y-100584166D01*
X125371000Y-100488928D01*
X125323380Y-100346071D01*
X125323380Y-100250833D01*
X125371000Y-100107976D01*
X125418619Y-100060357D01*
X126323380Y-99107976D02*
X126323380Y-99679404D01*
X126323380Y-99393690D02*
X125323380Y-99393690D01*
X125466238Y-99488928D01*
X125561476Y-99584166D01*
X125609095Y-99679404D01*
X125323380Y-98250833D02*
X125323380Y-98441309D01*
X125371000Y-98536547D01*
X125418619Y-98584166D01*
X125561476Y-98679404D01*
X125751952Y-98727023D01*
X126132904Y-98727023D01*
X126228142Y-98679404D01*
X126275761Y-98631785D01*
X126323380Y-98536547D01*
X126323380Y-98346071D01*
X126275761Y-98250833D01*
X126228142Y-98203214D01*
X126132904Y-98155595D01*
X125894809Y-98155595D01*
X125799571Y-98203214D01*
X125751952Y-98250833D01*
X125704333Y-98346071D01*
X125704333Y-98536547D01*
X125751952Y-98631785D01*
X125799571Y-98679404D01*
X125894809Y-98727023D01*
%TO.C,C34*%
X130546142Y-93583357D02*
X130593761Y-93630976D01*
X130641380Y-93773833D01*
X130641380Y-93869071D01*
X130593761Y-94011928D01*
X130498523Y-94107166D01*
X130403285Y-94154785D01*
X130212809Y-94202404D01*
X130069952Y-94202404D01*
X129879476Y-94154785D01*
X129784238Y-94107166D01*
X129689000Y-94011928D01*
X129641380Y-93869071D01*
X129641380Y-93773833D01*
X129689000Y-93630976D01*
X129736619Y-93583357D01*
X129641380Y-93250023D02*
X129641380Y-92630976D01*
X130022333Y-92964309D01*
X130022333Y-92821452D01*
X130069952Y-92726214D01*
X130117571Y-92678595D01*
X130212809Y-92630976D01*
X130450904Y-92630976D01*
X130546142Y-92678595D01*
X130593761Y-92726214D01*
X130641380Y-92821452D01*
X130641380Y-93107166D01*
X130593761Y-93202404D01*
X130546142Y-93250023D01*
X129974714Y-91773833D02*
X130641380Y-91773833D01*
X129593761Y-92011928D02*
X130308047Y-92250023D01*
X130308047Y-91630976D01*
%TO.C,R17*%
X163520380Y-78774357D02*
X163044190Y-79107690D01*
X163520380Y-79345785D02*
X162520380Y-79345785D01*
X162520380Y-78964833D01*
X162568000Y-78869595D01*
X162615619Y-78821976D01*
X162710857Y-78774357D01*
X162853714Y-78774357D01*
X162948952Y-78821976D01*
X162996571Y-78869595D01*
X163044190Y-78964833D01*
X163044190Y-79345785D01*
X163520380Y-77821976D02*
X163520380Y-78393404D01*
X163520380Y-78107690D02*
X162520380Y-78107690D01*
X162663238Y-78202928D01*
X162758476Y-78298166D01*
X162806095Y-78393404D01*
X162520380Y-77488642D02*
X162520380Y-76821976D01*
X163520380Y-77250547D01*
%TO.C,C33*%
X121910142Y-74519357D02*
X121957761Y-74566976D01*
X122005380Y-74709833D01*
X122005380Y-74805071D01*
X121957761Y-74947928D01*
X121862523Y-75043166D01*
X121767285Y-75090785D01*
X121576809Y-75138404D01*
X121433952Y-75138404D01*
X121243476Y-75090785D01*
X121148238Y-75043166D01*
X121053000Y-74947928D01*
X121005380Y-74805071D01*
X121005380Y-74709833D01*
X121053000Y-74566976D01*
X121100619Y-74519357D01*
X121005380Y-74186023D02*
X121005380Y-73566976D01*
X121386333Y-73900309D01*
X121386333Y-73757452D01*
X121433952Y-73662214D01*
X121481571Y-73614595D01*
X121576809Y-73566976D01*
X121814904Y-73566976D01*
X121910142Y-73614595D01*
X121957761Y-73662214D01*
X122005380Y-73757452D01*
X122005380Y-74043166D01*
X121957761Y-74138404D01*
X121910142Y-74186023D01*
X121005380Y-73233642D02*
X121005380Y-72614595D01*
X121386333Y-72947928D01*
X121386333Y-72805071D01*
X121433952Y-72709833D01*
X121481571Y-72662214D01*
X121576809Y-72614595D01*
X121814904Y-72614595D01*
X121910142Y-72662214D01*
X121957761Y-72709833D01*
X122005380Y-72805071D01*
X122005380Y-73090785D01*
X121957761Y-73186023D01*
X121910142Y-73233642D01*
%TO.C,Y2*%
X119933809Y-92789690D02*
X119933809Y-93265880D01*
X119600476Y-92265880D02*
X119933809Y-92789690D01*
X120267142Y-92265880D01*
X120552857Y-92361119D02*
X120600476Y-92313500D01*
X120695714Y-92265880D01*
X120933809Y-92265880D01*
X121029047Y-92313500D01*
X121076666Y-92361119D01*
X121124285Y-92456357D01*
X121124285Y-92551595D01*
X121076666Y-92694452D01*
X120505238Y-93265880D01*
X121124285Y-93265880D01*
%TO.C,R12*%
X129371380Y-100083857D02*
X128895190Y-100417190D01*
X129371380Y-100655285D02*
X128371380Y-100655285D01*
X128371380Y-100274333D01*
X128419000Y-100179095D01*
X128466619Y-100131476D01*
X128561857Y-100083857D01*
X128704714Y-100083857D01*
X128799952Y-100131476D01*
X128847571Y-100179095D01*
X128895190Y-100274333D01*
X128895190Y-100655285D01*
X129371380Y-99131476D02*
X129371380Y-99702904D01*
X129371380Y-99417190D02*
X128371380Y-99417190D01*
X128514238Y-99512428D01*
X128609476Y-99607666D01*
X128657095Y-99702904D01*
X128466619Y-98750523D02*
X128419000Y-98702904D01*
X128371380Y-98607666D01*
X128371380Y-98369571D01*
X128419000Y-98274333D01*
X128466619Y-98226714D01*
X128561857Y-98179095D01*
X128657095Y-98179095D01*
X128799952Y-98226714D01*
X129371380Y-98798142D01*
X129371380Y-98179095D01*
%TO.C,D1*%
X126276904Y-61856880D02*
X126276904Y-60856880D01*
X126515000Y-60856880D01*
X126657857Y-60904500D01*
X126753095Y-60999738D01*
X126800714Y-61094976D01*
X126848333Y-61285452D01*
X126848333Y-61428309D01*
X126800714Y-61618785D01*
X126753095Y-61714023D01*
X126657857Y-61809261D01*
X126515000Y-61856880D01*
X126276904Y-61856880D01*
X127800714Y-61856880D02*
X127229285Y-61856880D01*
X127515000Y-61856880D02*
X127515000Y-60856880D01*
X127419761Y-60999738D01*
X127324523Y-61094976D01*
X127229285Y-61142595D01*
%TO.C,Y1*%
X124831190Y-93543690D02*
X125307380Y-93543690D01*
X124307380Y-93877023D02*
X124831190Y-93543690D01*
X124307380Y-93210357D01*
X125307380Y-92353214D02*
X125307380Y-92924642D01*
X125307380Y-92638928D02*
X124307380Y-92638928D01*
X124450238Y-92734166D01*
X124545476Y-92829404D01*
X124593095Y-92924642D01*
%TO.C,C26*%
X160377142Y-93098857D02*
X160424761Y-93146476D01*
X160472380Y-93289333D01*
X160472380Y-93384571D01*
X160424761Y-93527428D01*
X160329523Y-93622666D01*
X160234285Y-93670285D01*
X160043809Y-93717904D01*
X159900952Y-93717904D01*
X159710476Y-93670285D01*
X159615238Y-93622666D01*
X159520000Y-93527428D01*
X159472380Y-93384571D01*
X159472380Y-93289333D01*
X159520000Y-93146476D01*
X159567619Y-93098857D01*
X159567619Y-92717904D02*
X159520000Y-92670285D01*
X159472380Y-92575047D01*
X159472380Y-92336952D01*
X159520000Y-92241714D01*
X159567619Y-92194095D01*
X159662857Y-92146476D01*
X159758095Y-92146476D01*
X159900952Y-92194095D01*
X160472380Y-92765523D01*
X160472380Y-92146476D01*
X159472380Y-91289333D02*
X159472380Y-91479809D01*
X159520000Y-91575047D01*
X159567619Y-91622666D01*
X159710476Y-91717904D01*
X159900952Y-91765523D01*
X160281904Y-91765523D01*
X160377142Y-91717904D01*
X160424761Y-91670285D01*
X160472380Y-91575047D01*
X160472380Y-91384571D01*
X160424761Y-91289333D01*
X160377142Y-91241714D01*
X160281904Y-91194095D01*
X160043809Y-91194095D01*
X159948571Y-91241714D01*
X159900952Y-91289333D01*
X159853333Y-91384571D01*
X159853333Y-91575047D01*
X159900952Y-91670285D01*
X159948571Y-91717904D01*
X160043809Y-91765523D01*
%TO.C,R1*%
X142595333Y-62936380D02*
X142262000Y-62460190D01*
X142023904Y-62936380D02*
X142023904Y-61936380D01*
X142404857Y-61936380D01*
X142500095Y-61984000D01*
X142547714Y-62031619D01*
X142595333Y-62126857D01*
X142595333Y-62269714D01*
X142547714Y-62364952D01*
X142500095Y-62412571D01*
X142404857Y-62460190D01*
X142023904Y-62460190D01*
X143547714Y-62936380D02*
X142976285Y-62936380D01*
X143262000Y-62936380D02*
X143262000Y-61936380D01*
X143166761Y-62079238D01*
X143071523Y-62174476D01*
X142976285Y-62222095D01*
%TO.C,R7*%
X126577380Y-74551166D02*
X126101190Y-74884500D01*
X126577380Y-75122595D02*
X125577380Y-75122595D01*
X125577380Y-74741642D01*
X125625000Y-74646404D01*
X125672619Y-74598785D01*
X125767857Y-74551166D01*
X125910714Y-74551166D01*
X126005952Y-74598785D01*
X126053571Y-74646404D01*
X126101190Y-74741642D01*
X126101190Y-75122595D01*
X125577380Y-74217833D02*
X125577380Y-73551166D01*
X126577380Y-73979738D01*
%TO.C,R15*%
X113544142Y-92273380D02*
X113210809Y-91797190D01*
X112972714Y-92273380D02*
X112972714Y-91273380D01*
X113353666Y-91273380D01*
X113448904Y-91321000D01*
X113496523Y-91368619D01*
X113544142Y-91463857D01*
X113544142Y-91606714D01*
X113496523Y-91701952D01*
X113448904Y-91749571D01*
X113353666Y-91797190D01*
X112972714Y-91797190D01*
X114496523Y-92273380D02*
X113925095Y-92273380D01*
X114210809Y-92273380D02*
X114210809Y-91273380D01*
X114115571Y-91416238D01*
X114020333Y-91511476D01*
X113925095Y-91559095D01*
X115401285Y-91273380D02*
X114925095Y-91273380D01*
X114877476Y-91749571D01*
X114925095Y-91701952D01*
X115020333Y-91654333D01*
X115258428Y-91654333D01*
X115353666Y-91701952D01*
X115401285Y-91749571D01*
X115448904Y-91844809D01*
X115448904Y-92082904D01*
X115401285Y-92178142D01*
X115353666Y-92225761D01*
X115258428Y-92273380D01*
X115020333Y-92273380D01*
X114925095Y-92225761D01*
X114877476Y-92178142D01*
%TO.C,C27*%
X157329142Y-94622857D02*
X157376761Y-94670476D01*
X157424380Y-94813333D01*
X157424380Y-94908571D01*
X157376761Y-95051428D01*
X157281523Y-95146666D01*
X157186285Y-95194285D01*
X156995809Y-95241904D01*
X156852952Y-95241904D01*
X156662476Y-95194285D01*
X156567238Y-95146666D01*
X156472000Y-95051428D01*
X156424380Y-94908571D01*
X156424380Y-94813333D01*
X156472000Y-94670476D01*
X156519619Y-94622857D01*
X156519619Y-94241904D02*
X156472000Y-94194285D01*
X156424380Y-94099047D01*
X156424380Y-93860952D01*
X156472000Y-93765714D01*
X156519619Y-93718095D01*
X156614857Y-93670476D01*
X156710095Y-93670476D01*
X156852952Y-93718095D01*
X157424380Y-94289523D01*
X157424380Y-93670476D01*
X156424380Y-93337142D02*
X156424380Y-92670476D01*
X157424380Y-93099047D01*
%TO.C,U4*%
X119649095Y-68476880D02*
X119649095Y-69286404D01*
X119696714Y-69381642D01*
X119744333Y-69429261D01*
X119839571Y-69476880D01*
X120030047Y-69476880D01*
X120125285Y-69429261D01*
X120172904Y-69381642D01*
X120220523Y-69286404D01*
X120220523Y-68476880D01*
X121125285Y-68810214D02*
X121125285Y-69476880D01*
X120887190Y-68429261D02*
X120649095Y-69143547D01*
X121268142Y-69143547D01*
D11*
%TO.C,J7*%
X157054000Y-103827000D02*
X158164000Y-103827000D01*
X159844000Y-103827000D02*
X160954000Y-103827000D01*
X157054000Y-107537000D02*
X158164000Y-107537000D01*
X158754000Y-102777000D02*
X159004000Y-103277000D01*
X159254000Y-102777000D02*
X158754000Y-102777000D01*
X159844000Y-107537000D02*
X160954000Y-107537000D01*
X159004000Y-103277000D02*
X159254000Y-102777000D01*
%TO.C,R14*%
X116956776Y-84469500D02*
X117466224Y-84469500D01*
X116956776Y-83424500D02*
X117466224Y-83424500D01*
%TO.C,C23*%
X152306267Y-86489000D02*
X152013733Y-86489000D01*
X152306267Y-85469000D02*
X152013733Y-85469000D01*
%TO.C,C17*%
X124857000Y-96515767D02*
X124857000Y-96223233D01*
X123837000Y-96515767D02*
X123837000Y-96223233D01*
%TO.C,C5*%
X142615733Y-67058000D02*
X142908267Y-67058000D01*
X142615733Y-66038000D02*
X142908267Y-66038000D01*
%TO.C,C8*%
X131946000Y-67868748D02*
X131946000Y-69291252D01*
X133766000Y-67868748D02*
X133766000Y-69291252D01*
%TO.C,FL1*%
X159112000Y-102754000D02*
X159912000Y-102754000D01*
X159512000Y-100954000D02*
X159912000Y-100954000D01*
%TO.C,U1*%
X151384000Y-66294000D02*
X152654000Y-66294000D01*
X166624000Y-66294000D02*
X166624000Y-67564000D01*
X151384000Y-67564000D02*
X151384000Y-66294000D01*
X165354000Y-66294000D02*
X166624000Y-66294000D01*
%TO.C,L4*%
X159006000Y-89452267D02*
X159006000Y-89109733D01*
X157986000Y-89452267D02*
X157986000Y-89109733D01*
%TO.C,R3*%
X117490724Y-69137000D02*
X116981276Y-69137000D01*
X117490724Y-70182000D02*
X116981276Y-70182000D01*
%TO.C,C30*%
X160039267Y-99693000D02*
X159746733Y-99693000D01*
X160039267Y-100713000D02*
X159746733Y-100713000D01*
%TO.C,R19*%
X154432724Y-94219500D02*
X153923276Y-94219500D01*
X154432724Y-95264500D02*
X153923276Y-95264500D01*
%TO.C,L1*%
X129326000Y-62703500D02*
X128126000Y-62703500D01*
X122926000Y-62703500D02*
X122926000Y-64103500D01*
X122926000Y-69503500D02*
X122926000Y-68103500D01*
X129326000Y-69503500D02*
X129326000Y-68103500D01*
X129326000Y-69503500D02*
X128126000Y-69503500D01*
X129326000Y-62703500D02*
X129326000Y-64103500D01*
X122926000Y-62703500D02*
X124126000Y-62703500D01*
X122926000Y-69503500D02*
X124126000Y-69503500D01*
%TO.C,C22*%
X152013733Y-80008000D02*
X152306267Y-80008000D01*
X152013733Y-81028000D02*
X152306267Y-81028000D01*
%TO.C,C19*%
X121809000Y-96515767D02*
X121809000Y-96223233D01*
X120789000Y-96515767D02*
X120789000Y-96223233D01*
%TO.C,C25*%
X153936000Y-90951267D02*
X153936000Y-90658733D01*
X154956000Y-90951267D02*
X154956000Y-90658733D01*
%TO.C,R13*%
X117466224Y-84948500D02*
X116956776Y-84948500D01*
X117466224Y-85993500D02*
X116956776Y-85993500D01*
%TO.C,R6*%
X117490724Y-63070000D02*
X116981276Y-63070000D01*
X117490724Y-62025000D02*
X116981276Y-62025000D01*
%TO.C,L3*%
X155657733Y-87755000D02*
X156000267Y-87755000D01*
X155657733Y-88775000D02*
X156000267Y-88775000D01*
%TO.C,J4*%
X167237000Y-51705000D02*
X167237000Y-53820000D01*
X157867000Y-50705000D02*
X166237000Y-50705000D01*
X156867000Y-53820000D02*
X156867000Y-51705000D01*
X166237000Y-50705000D02*
X167237000Y-51705000D01*
X156867000Y-57010000D02*
X156867000Y-60835000D01*
X167237000Y-60835000D02*
X167237000Y-57010000D01*
X156867000Y-60835000D02*
X167237000Y-60835000D01*
X156867000Y-51705000D02*
X157867000Y-50705000D01*
%TO.C,C10*%
X117089733Y-71947500D02*
X117382267Y-71947500D01*
X117089733Y-70927500D02*
X117382267Y-70927500D01*
%TO.C,SW1*%
X117332400Y-100977000D02*
X113632400Y-100977000D01*
X113632400Y-100977000D02*
X113632400Y-94857000D01*
X117332400Y-94857000D02*
X117332400Y-100977000D01*
X113632400Y-94857000D02*
X117332400Y-94857000D01*
%TO.C,C29*%
X161542000Y-96920267D02*
X161542000Y-96627733D01*
X162562000Y-96920267D02*
X162562000Y-96627733D01*
%TO.C,C3*%
X161161001Y-84881767D02*
X161161001Y-84589233D01*
X162181001Y-84881767D02*
X162181001Y-84589233D01*
%TO.C,C18*%
X123333000Y-96223233D02*
X123333000Y-96515767D01*
X122313000Y-96223233D02*
X122313000Y-96515767D01*
%TO.C,L2*%
X157435733Y-86358000D02*
X157778267Y-86358000D01*
X157435733Y-87378000D02*
X157778267Y-87378000D01*
%TO.C,R2*%
X151910400Y-62290336D02*
X151910400Y-63744464D01*
X153730400Y-62290336D02*
X153730400Y-63744464D01*
%TO.C,C24*%
X156353000Y-90951267D02*
X156353000Y-90658733D01*
X155333000Y-90951267D02*
X155333000Y-90658733D01*
%TO.C,C12*%
X122646252Y-62187500D02*
X121223748Y-62187500D01*
X122646252Y-60367500D02*
X121223748Y-60367500D01*
%TO.C,R20*%
X154432724Y-98058500D02*
X153923276Y-98058500D01*
X154432724Y-97013500D02*
X153923276Y-97013500D01*
%TO.C,R5*%
X117490724Y-68404000D02*
X116981276Y-68404000D01*
X117490724Y-67359000D02*
X116981276Y-67359000D01*
%TO.C,C20*%
X119265000Y-96223233D02*
X119265000Y-96515767D01*
X120285000Y-96223233D02*
X120285000Y-96515767D01*
%TO.C,C4*%
X163578000Y-84881767D02*
X163578000Y-84589233D01*
X162558000Y-84881767D02*
X162558000Y-84589233D01*
%TO.C,R11*%
X129920500Y-96138276D02*
X129920500Y-96647724D01*
X130965500Y-96138276D02*
X130965500Y-96647724D01*
%TO.C,U7*%
X155751000Y-85676000D02*
X156476000Y-85676000D01*
X159971000Y-82181000D02*
X159971000Y-81456000D01*
X155751000Y-81456000D02*
X156476000Y-81456000D01*
X155751000Y-82181000D02*
X155751000Y-81456000D01*
X155751000Y-84951000D02*
X155751000Y-85676000D01*
X159971000Y-85676000D02*
X159246000Y-85676000D01*
X159971000Y-84951000D02*
X159971000Y-85676000D01*
%TO.C,J1*%
X144159000Y-74228000D02*
X131399000Y-74228000D01*
X144159000Y-71568000D02*
X144159000Y-74228000D01*
X144159000Y-71568000D02*
X131399000Y-71568000D01*
X145429000Y-71568000D02*
X146759000Y-71568000D01*
X131399000Y-71568000D02*
X131399000Y-74228000D01*
X146759000Y-71568000D02*
X146759000Y-72898000D01*
%TO.C,C31*%
X163832000Y-96920267D02*
X163832000Y-96627733D01*
X162812000Y-96920267D02*
X162812000Y-96627733D01*
%TO.C,C14*%
X117381267Y-89787000D02*
X117088733Y-89787000D01*
X117381267Y-90807000D02*
X117088733Y-90807000D01*
%TO.C,Y3*%
X150633000Y-81662000D02*
X150633000Y-84962000D01*
X153433000Y-81662000D02*
X150633000Y-81662000D01*
%TO.C,R9*%
X125123500Y-76669776D02*
X125123500Y-77179224D01*
X124078500Y-76669776D02*
X124078500Y-77179224D01*
%TO.C,R18*%
X154841500Y-83057276D02*
X154841500Y-83566724D01*
X153796500Y-83057276D02*
X153796500Y-83566724D01*
%TO.C,D8*%
X131570000Y-66330000D02*
X129570000Y-66330000D01*
X131570000Y-66330000D02*
X131570000Y-70230000D01*
X129570000Y-66330000D02*
X129570000Y-70230000D01*
%TO.C,C21*%
X161161001Y-81325767D02*
X161161001Y-81033233D01*
X162181001Y-81325767D02*
X162181001Y-81033233D01*
%TO.C,D7*%
X115605123Y-86387000D02*
X115605123Y-87857000D01*
X115605123Y-87857000D02*
X118065123Y-87857000D01*
X118065123Y-86387000D02*
X115605123Y-86387000D01*
%TO.C,C13*%
X117088733Y-89283000D02*
X117381267Y-89283000D01*
X117088733Y-88263000D02*
X117381267Y-88263000D01*
%TO.C,R4*%
X117490724Y-66626000D02*
X116981276Y-66626000D01*
X117490724Y-65581000D02*
X116981276Y-65581000D01*
%TO.C,R10*%
X127917500Y-96624224D02*
X127917500Y-96114776D01*
X126872500Y-96624224D02*
X126872500Y-96114776D01*
%TO.C,C7*%
X131946000Y-61924748D02*
X131946000Y-63347252D01*
X133766000Y-61924748D02*
X133766000Y-63347252D01*
%TO.C,D3*%
X131570000Y-60488000D02*
X131570000Y-64388000D01*
X131570000Y-60488000D02*
X129570000Y-60488000D01*
X129570000Y-60488000D02*
X129570000Y-64388000D01*
%TO.C,C11*%
X117382267Y-64835500D02*
X117089733Y-64835500D01*
X117382267Y-63815500D02*
X117089733Y-63815500D01*
%TO.C,C6*%
X142908267Y-64391000D02*
X142615733Y-64391000D01*
X142908267Y-63371000D02*
X142615733Y-63371000D01*
%TO.C,D2*%
X129265000Y-71802500D02*
X129265000Y-69802500D01*
X129265000Y-69802500D02*
X125365000Y-69802500D01*
X129265000Y-71802500D02*
X125365000Y-71802500D01*
%TO.C,C9*%
X122646252Y-71712500D02*
X121223748Y-71712500D01*
X122646252Y-69892500D02*
X121223748Y-69892500D01*
%TO.C,J5*%
X120555000Y-59422000D02*
X119855000Y-59422000D01*
X114545000Y-56522000D02*
X114545000Y-53922000D01*
X122465000Y-51022000D02*
X122465000Y-49362000D01*
X120555000Y-58832000D02*
X120555000Y-59422000D01*
X114545000Y-49362000D02*
X114545000Y-51022000D01*
X116455000Y-58832000D02*
X115305000Y-58832000D01*
X122465000Y-49362000D02*
X114545000Y-49362000D01*
X122465000Y-53922000D02*
X122465000Y-56522000D01*
X121705000Y-58832000D02*
X120555000Y-58832000D01*
%TO.C,J6*%
X115905000Y-73787000D02*
X115905000Y-72457000D01*
X115905000Y-75057000D02*
X118565000Y-75057000D01*
X118565000Y-75057000D02*
X118565000Y-82737000D01*
X115905000Y-72457000D02*
X117235000Y-72457000D01*
X115905000Y-82737000D02*
X118565000Y-82737000D01*
X115905000Y-75057000D02*
X115905000Y-82737000D01*
%TO.C,D4*%
X115576000Y-60161500D02*
X115576000Y-61631500D01*
X118036000Y-60161500D02*
X115576000Y-60161500D01*
X115576000Y-61631500D02*
X118036000Y-61631500D01*
%TO.C,U3*%
X141092000Y-60568000D02*
X141092000Y-66578000D01*
X134272000Y-66578000D02*
X135532000Y-66578000D01*
X141092000Y-66578000D02*
X139832000Y-66578000D01*
X134272000Y-62818000D02*
X134272000Y-66578000D01*
%TO.C,R21*%
X153937276Y-96661500D02*
X154446724Y-96661500D01*
X153937276Y-95616500D02*
X154446724Y-95616500D01*
%TO.C,R8*%
X123599500Y-76669776D02*
X123599500Y-77179224D01*
X122554500Y-76669776D02*
X122554500Y-77179224D01*
%TO.C,U8*%
X157648000Y-96274000D02*
X157648000Y-95799000D01*
X160868000Y-98544000D02*
X160868000Y-99019000D01*
X160868000Y-99019000D02*
X160393000Y-99019000D01*
X157648000Y-99019000D02*
X158123000Y-99019000D01*
X157648000Y-95799000D02*
X158123000Y-95799000D01*
X160868000Y-96274000D02*
X160868000Y-95799000D01*
X157648000Y-98544000D02*
X157648000Y-99019000D01*
%TO.C,U5*%
X128211000Y-87704500D02*
X128211000Y-88154500D01*
X128211000Y-88154500D02*
X127761000Y-88154500D01*
X120991000Y-81384500D02*
X120991000Y-80934500D01*
X120991000Y-80934500D02*
X121441000Y-80934500D01*
X121441000Y-88154500D02*
X121441000Y-89444500D01*
X128211000Y-81384500D02*
X128211000Y-80934500D01*
X128211000Y-80934500D02*
X127761000Y-80934500D01*
X120991000Y-88154500D02*
X121441000Y-88154500D01*
X120991000Y-87704500D02*
X120991000Y-88154500D01*
%TO.C,C15*%
X128159000Y-76778233D02*
X128159000Y-77070767D01*
X127139000Y-76778233D02*
X127139000Y-77070767D01*
%TO.C,U2*%
X148096000Y-60432000D02*
X150046000Y-60432000D01*
X148096000Y-60432000D02*
X144646000Y-60432000D01*
X148096000Y-65552000D02*
X150046000Y-65552000D01*
X148096000Y-65552000D02*
X146146000Y-65552000D01*
%TO.C,C16*%
X126381000Y-96515767D02*
X126381000Y-96223233D01*
X125361000Y-96515767D02*
X125361000Y-96223233D01*
%TO.C,C34*%
X129429000Y-93086767D02*
X129429000Y-92794233D01*
X128409000Y-93086767D02*
X128409000Y-92794233D01*
%TO.C,R17*%
X162545500Y-81434224D02*
X162545500Y-80924776D01*
X163590500Y-81434224D02*
X163590500Y-80924776D01*
%TO.C,C33*%
X121043000Y-76778233D02*
X121043000Y-77070767D01*
X122063000Y-76778233D02*
X122063000Y-77070767D01*
%TO.C,Y2*%
X121285000Y-92138500D02*
X121285000Y-93488500D01*
X119535000Y-92138500D02*
X119535000Y-93488500D01*
%TO.C,R12*%
X129441500Y-96647724D02*
X129441500Y-96138276D01*
X128396500Y-96647724D02*
X128396500Y-96138276D01*
%TO.C,D1*%
X129265000Y-62404500D02*
X129265000Y-60404500D01*
X129265000Y-62404500D02*
X125365000Y-62404500D01*
X129265000Y-60404500D02*
X125365000Y-60404500D01*
%TO.C,Y1*%
X127505000Y-90963500D02*
X122205000Y-90963500D01*
X127505000Y-94663500D02*
X127505000Y-90963500D01*
%TO.C,C26*%
X159006000Y-92309733D02*
X159006000Y-92602267D01*
X157986000Y-92309733D02*
X157986000Y-92602267D01*
%TO.C,R1*%
X143016724Y-60437500D02*
X142507276Y-60437500D01*
X143016724Y-61482500D02*
X142507276Y-61482500D01*
%TO.C,R7*%
X126647500Y-76669776D02*
X126647500Y-77179224D01*
X125602500Y-76669776D02*
X125602500Y-77179224D01*
%TO.C,R15*%
X116980276Y-91298500D02*
X117489724Y-91298500D01*
X116980276Y-92343500D02*
X117489724Y-92343500D01*
%TO.C,C27*%
X159531267Y-95252000D02*
X159238733Y-95252000D01*
X159531267Y-94232000D02*
X159238733Y-94232000D01*
%TO.C,U4*%
X122479000Y-66103500D02*
X122479000Y-66853500D01*
X119359000Y-66103500D02*
X119359000Y-65353500D01*
X122479000Y-66103500D02*
X122479000Y-64253500D01*
X119359000Y-66103500D02*
X119359000Y-66853500D01*
%TD*%
M02*
