M48
INCH,TZ
T1C0.0157
T2C0.0394
T3C0.0402
T4C0.0949
T5C0.1260
%
G90
G05
T1
X44856Y-22000
X44856Y-23850
X45196Y-40910
X45256Y-38590
X45326Y-26730
X45336Y-24620
X45606Y-22501
X45606Y-22800
X45606Y-23100
X45806Y-33050
X45806Y-34950
X45806Y-35550
X45856Y-28100
X46156Y-36600
X46406Y-38650
X46506Y-28100
X46512Y-34300
X46556Y-37550
X46556Y-40400
X46606Y-23500
X46956Y-39250
X47006Y-23500
X47306Y-25050
X47346Y-29930
X47606Y-25100
X47606Y-25400
X47706Y-22501
X47706Y-22800
X47706Y-23100
X47706Y-31400
X47816Y-27748
X47816Y-28048
X47856Y-28550
X47980Y-25950
X48106Y-34300
X48116Y-28048
X48156Y-26700
X48156Y-31150
X48456Y-23900
X48456Y-24200
X48456Y-24499
X48456Y-25651
X48456Y-25950
X48456Y-26250
X48456Y-29926
X48456Y-36141
X48506Y-32350
X48756Y-23900
X48756Y-24200
X48756Y-24500
X48856Y-33550
X49056Y-29926
X49056Y-34400
X49106Y-32250
X49106Y-33050
X49106Y-38050
X49106Y-40400
X49206Y-33550
X49256Y-27700
X49256Y-28000
X49276Y-29250
X49312Y-25660
X49312Y-25960
X49312Y-26260
X49556Y-27700
X49556Y-28000
X49556Y-34150
X49556Y-37601
X49612Y-25661
X49612Y-25960
X49612Y-26260
X49705Y-23721
X49706Y-23421
X49805Y-36934
X49806Y-28400
X50005Y-23421
X50005Y-23721
X50056Y-32950
X50305Y-23421
X50305Y-23721
X50606Y-25664
X50606Y-25964
X50606Y-26264
X50686Y-29470
X50706Y-30600
X50706Y-31900
X50756Y-36900
X50756Y-38300
X50906Y-25665
X50906Y-25964
X50906Y-26264
X51156Y-23500
X51206Y-27000
X51346Y-31610
X51403Y-30024
X51446Y-34700
X51526Y-24840
X51526Y-24540
X51606Y-27150
X51766Y-30750
X51826Y-24540
X51826Y-24840
X52256Y-30900
X52256Y-33000
X52546Y-31610
X52656Y-24600
X52906Y-33000
X53606Y-31610
X53756Y-30250
X54156Y-24900
X54156Y-25250
X54156Y-25950
X54256Y-30250
X54506Y-32500
X54786Y-31610
X54806Y-24850
X54806Y-25250
X54806Y-25950
X55106Y-26600
X55106Y-26900
X55273Y-29520
X55706Y-32500
X55756Y-30600
X55836Y-26880
X55916Y-34700
X55986Y-31610
X56256Y-30600
X56306Y-24400
X56306Y-24700
X56556Y-24550
X56706Y-40750
X56750Y-29504
X57026Y-37370
X57366Y-31630
X57656Y-26400
X57773Y-29485
X57856Y-32050
X58006Y-25400
X58106Y-25900
X58238Y-26811
X58306Y-29550
X58556Y-24950
X58576Y-35200
X58958Y-29244
X59206Y-42750
X59368Y-26823
X59456Y-30250
X59556Y-33150
X59556Y-33800
X59666Y-34570
X59666Y-34870
X59666Y-35450
X59666Y-35750
X59666Y-36050
X59666Y-36630
X59666Y-36930
X59666Y-37230
X59666Y-37830
X59666Y-38430
X59666Y-39010
X59666Y-39310
X59666Y-39610
X59666Y-40190
X59666Y-40490
X59666Y-40790
X59666Y-41750
X59666Y-42050
X59876Y-29244
X59966Y-39010
X59966Y-42050
X60156Y-32450
X60222Y-27142
X60256Y-31700
X60266Y-39010
X60306Y-30900
X60346Y-39550
X60346Y-39850
X60346Y-40350
X60346Y-40650
X60646Y-42050
X60667Y-29244
X60796Y-36100
X60796Y-36590
X60946Y-39550
X60946Y-39850
X60946Y-40350
X60946Y-40650
X60946Y-40950
X60946Y-41500
X60946Y-42050
X61006Y-31200
X61116Y-39010
X61346Y-36100
X61346Y-36590
X61416Y-39010
X61456Y-30600
X61506Y-39550
X61506Y-39850
X61506Y-40350
X61506Y-40650
X61806Y-35500
X61806Y-35800
X61806Y-36100
X61806Y-36600
X61806Y-36900
X61806Y-37200
X61946Y-24780
X61956Y-30050
X62006Y-32750
X62006Y-33050
X62106Y-39550
X62106Y-39850
X62106Y-40350
X62106Y-40650
X62106Y-40950
X62106Y-41500
X62106Y-41800
X62106Y-42100
X62135Y-29268
X62305Y-23587
X62306Y-32750
X62306Y-33050
X62546Y-38190
X62546Y-38490
X62606Y-29390
X62646Y-31190
X62846Y-38190
X62846Y-38490
X62906Y-34270
X62906Y-34570
X62906Y-34870
X62906Y-35450
X62906Y-35750
X62906Y-36050
X62906Y-36630
X62906Y-36930
X62906Y-37230
X62926Y-32370
X62956Y-33700
X63106Y-31950
X63106Y-39550
X63106Y-39850
X63106Y-40350
X63106Y-40650
X63106Y-40950
X63106Y-41500
X63106Y-41800
X63106Y-42100
X63256Y-33700
X63286Y-30235
X63456Y-29250
X63606Y-32750
X63606Y-33050
X63656Y-31600
X63706Y-34270
X63706Y-34570
X63706Y-34870
X63706Y-35450
X63706Y-35750
X63706Y-36050
X63706Y-39550
X63706Y-39850
X63706Y-40350
X63706Y-40650
X63764Y-37633
X63765Y-37933
X63776Y-39020
X63800Y-38440
X63906Y-32750
X63906Y-33050
X64064Y-37633
X64064Y-37933
X64076Y-39020
X64128Y-28835
X64196Y-33700
X64206Y-31600
X64206Y-32750
X64206Y-33050
X64246Y-39550
X64246Y-39850
X64246Y-40350
X64246Y-40650
X64246Y-40950
X64246Y-41500
X64246Y-42050
X64286Y-38440
X64364Y-37633
X64364Y-37933
X64546Y-42050
X64706Y-34270
X64706Y-34570
X64706Y-34870
X64706Y-35450
X64706Y-35750
X64706Y-36050
X64706Y-36630
X64706Y-36930
X64706Y-37230
X64866Y-39550
X64866Y-39850
X64866Y-40350
X64866Y-40650
X64926Y-39020
X64982Y-27973
X65226Y-39020
X65226Y-42050
X65306Y-27550
X65443Y-23493
X65490Y-28890
X65526Y-34570
X65526Y-34870
X65526Y-35450
X65526Y-35750
X65526Y-36050
X65526Y-36630
X65526Y-36930
X65526Y-37230
X65526Y-37830
X65526Y-38130
X65526Y-38430
X65526Y-39010
X65526Y-39310
X65526Y-39610
X65526Y-40190
X65526Y-40490
X65526Y-40790
X65526Y-41750
X65526Y-42050
X65588Y-33520
X65718Y-24898
X65742Y-25957
X65856Y-32792
X66104Y-32016
X66317Y-30662
T2
X42751Y-23184
X42751Y-24184
X42751Y-25184
X42751Y-26184
X42751Y-27184
X42751Y-28184
X42751Y-29184
X42751Y-30184
X42751Y-31184
X42751Y-32184
X42751Y-33184
X42751Y-34184
X42751Y-35184
X42751Y-36184
X42751Y-37184
X42751Y-38184
X42751Y-39184
X42751Y-40184
X42751Y-41184
X43751Y-23184
X43751Y-24184
X43751Y-25184
X43751Y-26184
X43751Y-27184
X43751Y-28184
X43751Y-29184
X43751Y-30184
X43751Y-31184
X43751Y-32184
X43751Y-33184
X43751Y-34184
X43751Y-35184
X43751Y-36184
X43751Y-37184
X43751Y-38184
X43751Y-39184
X43751Y-40184
X43751Y-41184
X46156Y-29050
X46156Y-30050
X46156Y-31050
X46156Y-32050
X52256Y-28700
X53256Y-28700
X54256Y-28700
X55256Y-28700
X56256Y-28700
X57256Y-28700
X60100Y-41500
X61100Y-26900
X61100Y-27900
X62100Y-26900
X62100Y-27900
X63100Y-26900
X63100Y-27900
X64100Y-26900
X64100Y-27900
X65100Y-41500
X66751Y-23184
X66751Y-24184
X66751Y-25184
X66751Y-26184
X66751Y-27184
X66751Y-28184
X66751Y-29184
X66751Y-30184
X66751Y-31184
X66751Y-32184
X66751Y-33184
X66751Y-34184
X66751Y-35184
X66751Y-36184
X66751Y-37184
X66751Y-38184
X66751Y-39184
X66751Y-40184
X66751Y-41184
X67751Y-23184
X67751Y-24184
X67751Y-25184
X67751Y-26184
X67751Y-27184
X67751Y-28184
X67751Y-29184
X67751Y-30184
X67751Y-31184
X67751Y-32184
X67751Y-33184
X67751Y-34184
X67751Y-35184
X67751Y-36184
X67751Y-37184
X67751Y-38184
X67751Y-39184
X67751Y-40184
X67751Y-41184
T3
X63209Y-23518
X63209Y-24699
X64391Y-23518
X64391Y-24699
T4
X62363Y-21817
X65237Y-21817
T5
X42906Y-21250
X57906Y-41750
X67606Y-21250
T0
M30
