%TF.GenerationSoftware,KiCad,Pcbnew,(6.0.1)*%
%TF.CreationDate,2022-04-28T18:35:21+02:00*%
%TF.ProjectId,STM32_NRF24_Tx,53544d33-325f-44e5-9246-32345f54782e,rev?*%
%TF.SameCoordinates,Original*%
%TF.FileFunction,Legend,Bot*%
%TF.FilePolarity,Positive*%
%FSLAX46Y46*%
G04 Gerber Fmt 4.6, Leading zero omitted, Abs format (unit mm)*
G04 Created by KiCad (PCBNEW (6.0.1)) date 2022-04-28 18:35:21*
%MOMM*%
%LPD*%
G01*
G04 APERTURE LIST*
%ADD10C,0.150000*%
%ADD11C,0.120000*%
G04 APERTURE END LIST*
D10*
X120856500Y-79224142D02*
X120904119Y-79271761D01*
X121046976Y-79319380D01*
X121142214Y-79319380D01*
X121285071Y-79271761D01*
X121380309Y-79176523D01*
X121427928Y-79081285D01*
X121475547Y-78890809D01*
X121475547Y-78747952D01*
X121427928Y-78557476D01*
X121380309Y-78462238D01*
X121285071Y-78367000D01*
X121142214Y-78319380D01*
X121046976Y-78319380D01*
X120904119Y-78367000D01*
X120856500Y-78414619D01*
X119951738Y-79319380D02*
X120427928Y-79319380D01*
X120427928Y-78319380D01*
X119618404Y-79319380D02*
X119618404Y-78319380D01*
X119046976Y-79319380D02*
X119475547Y-78747952D01*
X119046976Y-78319380D02*
X119618404Y-78890809D01*
X138166142Y-75329023D02*
X138213761Y-75281404D01*
X138261380Y-75138547D01*
X138261380Y-75043309D01*
X138213761Y-74900452D01*
X138118523Y-74805214D01*
X138023285Y-74757595D01*
X137832809Y-74709976D01*
X137689952Y-74709976D01*
X137499476Y-74757595D01*
X137404238Y-74805214D01*
X137309000Y-74900452D01*
X137261380Y-75043309D01*
X137261380Y-75138547D01*
X137309000Y-75281404D01*
X137356619Y-75329023D01*
X138261380Y-76233785D02*
X138261380Y-75757595D01*
X137261380Y-75757595D01*
X138261380Y-76567119D02*
X137261380Y-76567119D01*
X138261380Y-77138547D02*
X137689952Y-76709976D01*
X137261380Y-77138547D02*
X137832809Y-76567119D01*
X162277200Y-64825185D02*
X162229580Y-64729947D01*
X162229580Y-64587090D01*
X162277200Y-64444233D01*
X162372438Y-64348995D01*
X162467676Y-64301376D01*
X162658152Y-64253757D01*
X162801009Y-64253757D01*
X162991485Y-64301376D01*
X163086723Y-64348995D01*
X163181961Y-64444233D01*
X163229580Y-64587090D01*
X163229580Y-64682328D01*
X163181961Y-64825185D01*
X163134342Y-64872804D01*
X162801009Y-64872804D01*
X162801009Y-64682328D01*
X163229580Y-65301376D02*
X162229580Y-65301376D01*
X163229580Y-65872804D01*
X162229580Y-65872804D01*
X163229580Y-66348995D02*
X162229580Y-66348995D01*
X162229580Y-66587090D01*
X162277200Y-66729947D01*
X162372438Y-66825185D01*
X162467676Y-66872804D01*
X162658152Y-66920423D01*
X162801009Y-66920423D01*
X162991485Y-66872804D01*
X163086723Y-66825185D01*
X163181961Y-66729947D01*
X163229580Y-66587090D01*
X163229580Y-66348995D01*
X155736580Y-63729947D02*
X154736580Y-63729947D01*
X155450866Y-64063280D01*
X154736580Y-64396614D01*
X155736580Y-64396614D01*
X154736580Y-65063280D02*
X154736580Y-65253757D01*
X154784200Y-65348995D01*
X154879438Y-65444233D01*
X155069914Y-65491852D01*
X155403247Y-65491852D01*
X155593723Y-65444233D01*
X155688961Y-65348995D01*
X155736580Y-65253757D01*
X155736580Y-65063280D01*
X155688961Y-64968042D01*
X155593723Y-64872804D01*
X155403247Y-64825185D01*
X155069914Y-64825185D01*
X154879438Y-64872804D01*
X154784200Y-64968042D01*
X154736580Y-65063280D01*
X155688961Y-65872804D02*
X155736580Y-66015661D01*
X155736580Y-66253757D01*
X155688961Y-66348995D01*
X155641342Y-66396614D01*
X155546104Y-66444233D01*
X155450866Y-66444233D01*
X155355628Y-66396614D01*
X155308009Y-66348995D01*
X155260390Y-66253757D01*
X155212771Y-66063280D01*
X155165152Y-65968042D01*
X155117533Y-65920423D01*
X155022295Y-65872804D01*
X154927057Y-65872804D01*
X154831819Y-65920423D01*
X154784200Y-65968042D01*
X154736580Y-66063280D01*
X154736580Y-66301376D01*
X154784200Y-66444233D01*
X155736580Y-66872804D02*
X154736580Y-66872804D01*
X149154214Y-82627857D02*
X148468500Y-82627857D01*
X148811357Y-83827857D02*
X148811357Y-82627857D01*
X147611357Y-83770714D02*
X147725642Y-83827857D01*
X147954214Y-83827857D01*
X148068500Y-83770714D01*
X148125642Y-83656428D01*
X148125642Y-83199285D01*
X148068500Y-83085000D01*
X147954214Y-83027857D01*
X147725642Y-83027857D01*
X147611357Y-83085000D01*
X147554214Y-83199285D01*
X147554214Y-83313571D01*
X148125642Y-83427857D01*
X146868500Y-83827857D02*
X146982785Y-83770714D01*
X147039928Y-83656428D01*
X147039928Y-82627857D01*
X145954214Y-83770714D02*
X146068500Y-83827857D01*
X146297071Y-83827857D01*
X146411357Y-83770714D01*
X146468500Y-83656428D01*
X146468500Y-83199285D01*
X146411357Y-83085000D01*
X146297071Y-83027857D01*
X146068500Y-83027857D01*
X145954214Y-83085000D01*
X145897071Y-83199285D01*
X145897071Y-83313571D01*
X146468500Y-83427857D01*
X145382785Y-83827857D02*
X145382785Y-83027857D01*
X145382785Y-83142142D02*
X145325642Y-83085000D01*
X145211357Y-83027857D01*
X145039928Y-83027857D01*
X144925642Y-83085000D01*
X144868500Y-83199285D01*
X144868500Y-83827857D01*
X144868500Y-83199285D02*
X144811357Y-83085000D01*
X144697071Y-83027857D01*
X144525642Y-83027857D01*
X144411357Y-83085000D01*
X144354214Y-83199285D01*
X144354214Y-83827857D01*
X143325642Y-83770714D02*
X143439928Y-83827857D01*
X143668500Y-83827857D01*
X143782785Y-83770714D01*
X143839928Y-83656428D01*
X143839928Y-83199285D01*
X143782785Y-83085000D01*
X143668500Y-83027857D01*
X143439928Y-83027857D01*
X143325642Y-83085000D01*
X143268500Y-83199285D01*
X143268500Y-83313571D01*
X143839928Y-83427857D01*
X142925642Y-83027857D02*
X142468500Y-83027857D01*
X142754214Y-82627857D02*
X142754214Y-83656428D01*
X142697071Y-83770714D01*
X142582785Y-83827857D01*
X142468500Y-83827857D01*
X142068500Y-83827857D02*
X142068500Y-83027857D01*
X142068500Y-83256428D02*
X142011357Y-83142142D01*
X141954214Y-83085000D01*
X141839928Y-83027857D01*
X141725642Y-83027857D01*
X141439928Y-83027857D02*
X141154214Y-83827857D01*
X140868500Y-83027857D02*
X141154214Y-83827857D01*
X141268500Y-84113571D01*
X141325642Y-84170714D01*
X141439928Y-84227857D01*
X138868500Y-83827857D02*
X139554214Y-83827857D01*
X139211357Y-83827857D02*
X139211357Y-82627857D01*
X139325642Y-82799285D01*
X139439928Y-82913571D01*
X139554214Y-82970714D01*
X138354214Y-83713571D02*
X138297071Y-83770714D01*
X138354214Y-83827857D01*
X138411357Y-83770714D01*
X138354214Y-83713571D01*
X138354214Y-83827857D01*
X137554214Y-82627857D02*
X137439928Y-82627857D01*
X137325642Y-82685000D01*
X137268500Y-82742142D01*
X137211357Y-82856428D01*
X137154214Y-83085000D01*
X137154214Y-83370714D01*
X137211357Y-83599285D01*
X137268500Y-83713571D01*
X137325642Y-83770714D01*
X137439928Y-83827857D01*
X137554214Y-83827857D01*
X137668500Y-83770714D01*
X137725642Y-83713571D01*
X137782785Y-83599285D01*
X137839928Y-83370714D01*
X137839928Y-83085000D01*
X137782785Y-82856428D01*
X137725642Y-82742142D01*
X137668500Y-82685000D01*
X137554214Y-82627857D01*
X148982785Y-85759857D02*
X148982785Y-84559857D01*
X148411357Y-84959857D02*
X148411357Y-85759857D01*
X148411357Y-85074142D02*
X148354214Y-85017000D01*
X148239928Y-84959857D01*
X148068500Y-84959857D01*
X147954214Y-85017000D01*
X147897071Y-85131285D01*
X147897071Y-85759857D01*
X147497071Y-84959857D02*
X147039928Y-84959857D01*
X147325642Y-84559857D02*
X147325642Y-85588428D01*
X147268500Y-85702714D01*
X147154214Y-85759857D01*
X147039928Y-85759857D01*
X146639928Y-85759857D02*
X146639928Y-84959857D01*
X146639928Y-85188428D02*
X146582785Y-85074142D01*
X146525642Y-85017000D01*
X146411357Y-84959857D01*
X146297071Y-84959857D01*
X145725642Y-85759857D02*
X145839928Y-85702714D01*
X145897071Y-85645571D01*
X145954214Y-85531285D01*
X145954214Y-85188428D01*
X145897071Y-85074142D01*
X145839928Y-85017000D01*
X145725642Y-84959857D01*
X145554214Y-84959857D01*
X145439928Y-85017000D01*
X145382785Y-85074142D01*
X145325642Y-85188428D01*
X145325642Y-85531285D01*
X145382785Y-85645571D01*
X145439928Y-85702714D01*
X145554214Y-85759857D01*
X145725642Y-85759857D01*
X144297071Y-85759857D02*
X144297071Y-84559857D01*
X144297071Y-85702714D02*
X144411357Y-85759857D01*
X144639928Y-85759857D01*
X144754214Y-85702714D01*
X144811357Y-85645571D01*
X144868500Y-85531285D01*
X144868500Y-85188428D01*
X144811357Y-85074142D01*
X144754214Y-85017000D01*
X144639928Y-84959857D01*
X144411357Y-84959857D01*
X144297071Y-85017000D01*
X143211357Y-84959857D02*
X143211357Y-85759857D01*
X143725642Y-84959857D02*
X143725642Y-85588428D01*
X143668500Y-85702714D01*
X143554214Y-85759857D01*
X143382785Y-85759857D01*
X143268500Y-85702714D01*
X143211357Y-85645571D01*
X142125642Y-85702714D02*
X142239928Y-85759857D01*
X142468500Y-85759857D01*
X142582785Y-85702714D01*
X142639928Y-85645571D01*
X142697071Y-85531285D01*
X142697071Y-85188428D01*
X142639928Y-85074142D01*
X142582785Y-85017000D01*
X142468500Y-84959857D01*
X142239928Y-84959857D01*
X142125642Y-85017000D01*
X141782785Y-84959857D02*
X141325642Y-84959857D01*
X141611357Y-84559857D02*
X141611357Y-85588428D01*
X141554214Y-85702714D01*
X141439928Y-85759857D01*
X141325642Y-85759857D01*
X140754214Y-85759857D02*
X140868500Y-85702714D01*
X140925642Y-85645571D01*
X140982785Y-85531285D01*
X140982785Y-85188428D01*
X140925642Y-85074142D01*
X140868500Y-85017000D01*
X140754214Y-84959857D01*
X140582785Y-84959857D01*
X140468500Y-85017000D01*
X140411357Y-85074142D01*
X140354214Y-85188428D01*
X140354214Y-85531285D01*
X140411357Y-85645571D01*
X140468500Y-85702714D01*
X140582785Y-85759857D01*
X140754214Y-85759857D01*
X139839928Y-85759857D02*
X139839928Y-84959857D01*
X139839928Y-85188428D02*
X139782785Y-85074142D01*
X139725642Y-85017000D01*
X139611357Y-84959857D01*
X139497071Y-84959857D01*
X139211357Y-84959857D02*
X138925642Y-85759857D01*
X138639928Y-84959857D02*
X138925642Y-85759857D01*
X139039928Y-86045571D01*
X139097071Y-86102714D01*
X139211357Y-86159857D01*
X137268500Y-84959857D02*
X137268500Y-86159857D01*
X137268500Y-85017000D02*
X137154214Y-84959857D01*
X136925642Y-84959857D01*
X136811357Y-85017000D01*
X136754214Y-85074142D01*
X136697071Y-85188428D01*
X136697071Y-85531285D01*
X136754214Y-85645571D01*
X136811357Y-85702714D01*
X136925642Y-85759857D01*
X137154214Y-85759857D01*
X137268500Y-85702714D01*
X136182785Y-85759857D02*
X136182785Y-84959857D01*
X136182785Y-85188428D02*
X136125642Y-85074142D01*
X136068500Y-85017000D01*
X135954214Y-84959857D01*
X135839928Y-84959857D01*
X135268500Y-85759857D02*
X135382785Y-85702714D01*
X135439928Y-85645571D01*
X135497071Y-85531285D01*
X135497071Y-85188428D01*
X135439928Y-85074142D01*
X135382785Y-85017000D01*
X135268500Y-84959857D01*
X135097071Y-84959857D01*
X134982785Y-85017000D01*
X134925642Y-85074142D01*
X134868500Y-85188428D01*
X134868500Y-85531285D01*
X134925642Y-85645571D01*
X134982785Y-85702714D01*
X135097071Y-85759857D01*
X135268500Y-85759857D01*
X134354214Y-84959857D02*
X134354214Y-85988428D01*
X134411357Y-86102714D01*
X134525642Y-86159857D01*
X134582785Y-86159857D01*
X134354214Y-84559857D02*
X134411357Y-84617000D01*
X134354214Y-84674142D01*
X134297071Y-84617000D01*
X134354214Y-84559857D01*
X134354214Y-84674142D01*
X133325642Y-85702714D02*
X133439928Y-85759857D01*
X133668500Y-85759857D01*
X133782785Y-85702714D01*
X133839928Y-85588428D01*
X133839928Y-85131285D01*
X133782785Y-85017000D01*
X133668500Y-84959857D01*
X133439928Y-84959857D01*
X133325642Y-85017000D01*
X133268500Y-85131285D01*
X133268500Y-85245571D01*
X133839928Y-85359857D01*
X132239928Y-85702714D02*
X132354214Y-85759857D01*
X132582785Y-85759857D01*
X132697071Y-85702714D01*
X132754214Y-85645571D01*
X132811357Y-85531285D01*
X132811357Y-85188428D01*
X132754214Y-85074142D01*
X132697071Y-85017000D01*
X132582785Y-84959857D01*
X132354214Y-84959857D01*
X132239928Y-85017000D01*
X131897071Y-84959857D02*
X131439928Y-84959857D01*
X131725642Y-84559857D02*
X131725642Y-85588428D01*
X131668500Y-85702714D01*
X131554214Y-85759857D01*
X131439928Y-85759857D01*
X129725642Y-85131285D02*
X130125642Y-85131285D01*
X130125642Y-85759857D02*
X130125642Y-84559857D01*
X129554214Y-84559857D01*
X129154214Y-84674142D02*
X129097071Y-84617000D01*
X128982785Y-84559857D01*
X128697071Y-84559857D01*
X128582785Y-84617000D01*
X128525642Y-84674142D01*
X128468500Y-84788428D01*
X128468500Y-84902714D01*
X128525642Y-85074142D01*
X129211357Y-85759857D01*
X128468500Y-85759857D01*
X128011357Y-84674142D02*
X127954214Y-84617000D01*
X127839928Y-84559857D01*
X127554214Y-84559857D01*
X127439928Y-84617000D01*
X127382785Y-84674142D01*
X127325642Y-84788428D01*
X127325642Y-84902714D01*
X127382785Y-85074142D01*
X128068500Y-85759857D01*
X127325642Y-85759857D01*
X148982785Y-87691857D02*
X148982785Y-86491857D01*
X148697071Y-86491857D01*
X148525642Y-86549000D01*
X148411357Y-86663285D01*
X148354214Y-86777571D01*
X148297071Y-87006142D01*
X148297071Y-87177571D01*
X148354214Y-87406142D01*
X148411357Y-87520428D01*
X148525642Y-87634714D01*
X148697071Y-87691857D01*
X148982785Y-87691857D01*
X147954214Y-86491857D02*
X147268500Y-86491857D01*
X147611357Y-87691857D02*
X147611357Y-86491857D01*
X146868500Y-86491857D02*
X146868500Y-87463285D01*
X146811357Y-87577571D01*
X146754214Y-87634714D01*
X146639928Y-87691857D01*
X146411357Y-87691857D01*
X146297071Y-87634714D01*
X146239928Y-87577571D01*
X146182785Y-87463285D01*
X146182785Y-86491857D01*
X144011357Y-87691857D02*
X144411357Y-87120428D01*
X144697071Y-87691857D02*
X144697071Y-86491857D01*
X144239928Y-86491857D01*
X144125642Y-86549000D01*
X144068500Y-86606142D01*
X144011357Y-86720428D01*
X144011357Y-86891857D01*
X144068500Y-87006142D01*
X144125642Y-87063285D01*
X144239928Y-87120428D01*
X144697071Y-87120428D01*
X143268500Y-86491857D02*
X143039928Y-86491857D01*
X142925642Y-86549000D01*
X142811357Y-86663285D01*
X142754214Y-86891857D01*
X142754214Y-87291857D01*
X142811357Y-87520428D01*
X142925642Y-87634714D01*
X143039928Y-87691857D01*
X143268500Y-87691857D01*
X143382785Y-87634714D01*
X143497071Y-87520428D01*
X143554214Y-87291857D01*
X143554214Y-86891857D01*
X143497071Y-86663285D01*
X143382785Y-86549000D01*
X143268500Y-86491857D01*
X142297071Y-87349000D02*
X141725642Y-87349000D01*
X142411357Y-87691857D02*
X142011357Y-86491857D01*
X141611357Y-87691857D01*
X141268500Y-87634714D02*
X141097071Y-87691857D01*
X140811357Y-87691857D01*
X140697071Y-87634714D01*
X140639928Y-87577571D01*
X140582785Y-87463285D01*
X140582785Y-87349000D01*
X140639928Y-87234714D01*
X140697071Y-87177571D01*
X140811357Y-87120428D01*
X141039928Y-87063285D01*
X141154214Y-87006142D01*
X141211357Y-86949000D01*
X141268500Y-86834714D01*
X141268500Y-86720428D01*
X141211357Y-86606142D01*
X141154214Y-86549000D01*
X141039928Y-86491857D01*
X140754214Y-86491857D01*
X140582785Y-86549000D01*
X140239928Y-86491857D02*
X139554214Y-86491857D01*
X139897071Y-87691857D02*
X139897071Y-86491857D01*
X158124180Y-72395395D02*
X157124180Y-72395395D01*
X157838466Y-72728728D01*
X157124180Y-73062061D01*
X158124180Y-73062061D01*
X157124180Y-73728728D02*
X157124180Y-73919204D01*
X157171800Y-74014442D01*
X157267038Y-74109680D01*
X157457514Y-74157300D01*
X157790847Y-74157300D01*
X157981323Y-74109680D01*
X158076561Y-74014442D01*
X158124180Y-73919204D01*
X158124180Y-73728728D01*
X158076561Y-73633490D01*
X157981323Y-73538252D01*
X157790847Y-73490633D01*
X157457514Y-73490633D01*
X157267038Y-73538252D01*
X157171800Y-73633490D01*
X157124180Y-73728728D01*
X158076561Y-74538252D02*
X158124180Y-74681109D01*
X158124180Y-74919204D01*
X158076561Y-75014442D01*
X158028942Y-75062061D01*
X157933704Y-75109680D01*
X157838466Y-75109680D01*
X157743228Y-75062061D01*
X157695609Y-75014442D01*
X157647990Y-74919204D01*
X157600371Y-74728728D01*
X157552752Y-74633490D01*
X157505133Y-74585871D01*
X157409895Y-74538252D01*
X157314657Y-74538252D01*
X157219419Y-74585871D01*
X157171800Y-74633490D01*
X157124180Y-74728728D01*
X157124180Y-74966823D01*
X157171800Y-75109680D01*
X158124180Y-75538252D02*
X157124180Y-75538252D01*
X160568942Y-72966823D02*
X160616561Y-72919204D01*
X160664180Y-72776347D01*
X160664180Y-72681109D01*
X160616561Y-72538252D01*
X160521323Y-72443014D01*
X160426085Y-72395395D01*
X160235609Y-72347776D01*
X160092752Y-72347776D01*
X159902276Y-72395395D01*
X159807038Y-72443014D01*
X159711800Y-72538252D01*
X159664180Y-72681109D01*
X159664180Y-72776347D01*
X159711800Y-72919204D01*
X159759419Y-72966823D01*
X160616561Y-73347776D02*
X160664180Y-73490633D01*
X160664180Y-73728728D01*
X160616561Y-73823966D01*
X160568942Y-73871585D01*
X160473704Y-73919204D01*
X160378466Y-73919204D01*
X160283228Y-73871585D01*
X160235609Y-73823966D01*
X160187990Y-73728728D01*
X160140371Y-73538252D01*
X160092752Y-73443014D01*
X160045133Y-73395395D01*
X159949895Y-73347776D01*
X159854657Y-73347776D01*
X159759419Y-73395395D01*
X159711800Y-73443014D01*
X159664180Y-73538252D01*
X159664180Y-73776347D01*
X159711800Y-73919204D01*
X160664180Y-74347776D02*
X159664180Y-74347776D01*
X160664180Y-74919204D01*
X159664180Y-74919204D01*
X119951738Y-73366380D02*
X120427928Y-73366380D01*
X120475547Y-73842571D01*
X120427928Y-73794952D01*
X120332690Y-73747333D01*
X120094595Y-73747333D01*
X119999357Y-73794952D01*
X119951738Y-73842571D01*
X119904119Y-73937809D01*
X119904119Y-74175904D01*
X119951738Y-74271142D01*
X119999357Y-74318761D01*
X120094595Y-74366380D01*
X120332690Y-74366380D01*
X120427928Y-74318761D01*
X120475547Y-74271142D01*
X119618404Y-73366380D02*
X119285071Y-74366380D01*
X118951738Y-73366380D01*
X162204180Y-72300157D02*
X162204180Y-72919204D01*
X162585133Y-72585871D01*
X162585133Y-72728728D01*
X162632752Y-72823966D01*
X162680371Y-72871585D01*
X162775609Y-72919204D01*
X163013704Y-72919204D01*
X163108942Y-72871585D01*
X163156561Y-72823966D01*
X163204180Y-72728728D01*
X163204180Y-72443014D01*
X163156561Y-72347776D01*
X163108942Y-72300157D01*
X162204180Y-73204919D02*
X163204180Y-73538252D01*
X162204180Y-73871585D01*
X162204180Y-74109680D02*
X162204180Y-74728728D01*
X162585133Y-74395395D01*
X162585133Y-74538252D01*
X162632752Y-74633490D01*
X162680371Y-74681109D01*
X162775609Y-74728728D01*
X163013704Y-74728728D01*
X163108942Y-74681109D01*
X163156561Y-74633490D01*
X163204180Y-74538252D01*
X163204180Y-74252538D01*
X163156561Y-74157300D01*
X163108942Y-74109680D01*
X166887614Y-62263400D02*
X166982852Y-62215780D01*
X167125709Y-62215780D01*
X167268566Y-62263400D01*
X167363804Y-62358638D01*
X167411423Y-62453876D01*
X167459042Y-62644352D01*
X167459042Y-62787209D01*
X167411423Y-62977685D01*
X167363804Y-63072923D01*
X167268566Y-63168161D01*
X167125709Y-63215780D01*
X167030471Y-63215780D01*
X166887614Y-63168161D01*
X166839995Y-63120542D01*
X166839995Y-62787209D01*
X167030471Y-62787209D01*
X166411423Y-63215780D02*
X166411423Y-62215780D01*
X165839995Y-63215780D01*
X165839995Y-62215780D01*
X165363804Y-63215780D02*
X165363804Y-62215780D01*
X165125709Y-62215780D01*
X164982852Y-62263400D01*
X164887614Y-62358638D01*
X164839995Y-62453876D01*
X164792376Y-62644352D01*
X164792376Y-62787209D01*
X164839995Y-62977685D01*
X164887614Y-63072923D01*
X164982852Y-63168161D01*
X165125709Y-63215780D01*
X165363804Y-63215780D01*
X166601900Y-60320180D02*
X167173328Y-60320180D01*
X166887614Y-60320180D02*
X166887614Y-59320180D01*
X166982852Y-59463038D01*
X167078090Y-59558276D01*
X167173328Y-59605895D01*
X166220947Y-59415419D02*
X166173328Y-59367800D01*
X166078090Y-59320180D01*
X165839995Y-59320180D01*
X165744757Y-59367800D01*
X165697138Y-59415419D01*
X165649519Y-59510657D01*
X165649519Y-59605895D01*
X165697138Y-59748752D01*
X166268566Y-60320180D01*
X165649519Y-60320180D01*
X165363804Y-59320180D02*
X165030471Y-60320180D01*
X164697138Y-59320180D01*
X139801380Y-74662357D02*
X139801380Y-75281404D01*
X140182333Y-74948071D01*
X140182333Y-75090928D01*
X140229952Y-75186166D01*
X140277571Y-75233785D01*
X140372809Y-75281404D01*
X140610904Y-75281404D01*
X140706142Y-75233785D01*
X140753761Y-75186166D01*
X140801380Y-75090928D01*
X140801380Y-74805214D01*
X140753761Y-74709976D01*
X140706142Y-74662357D01*
X139801380Y-75567119D02*
X140801380Y-75900452D01*
X139801380Y-76233785D01*
X139801380Y-76471880D02*
X139801380Y-77090928D01*
X140182333Y-76757595D01*
X140182333Y-76900452D01*
X140229952Y-76995690D01*
X140277571Y-77043309D01*
X140372809Y-77090928D01*
X140610904Y-77090928D01*
X140706142Y-77043309D01*
X140753761Y-76995690D01*
X140801380Y-76900452D01*
X140801380Y-76614738D01*
X140753761Y-76519500D01*
X140706142Y-76471880D01*
X158054342Y-65110900D02*
X158101961Y-65063280D01*
X158149580Y-64920423D01*
X158149580Y-64825185D01*
X158101961Y-64682328D01*
X158006723Y-64587090D01*
X157911485Y-64539471D01*
X157721009Y-64491852D01*
X157578152Y-64491852D01*
X157387676Y-64539471D01*
X157292438Y-64587090D01*
X157197200Y-64682328D01*
X157149580Y-64825185D01*
X157149580Y-64920423D01*
X157197200Y-65063280D01*
X157244819Y-65110900D01*
X158149580Y-66015661D02*
X158149580Y-65539471D01*
X157149580Y-65539471D01*
X158149580Y-66348995D02*
X157149580Y-66348995D01*
X158149580Y-66920423D02*
X157578152Y-66491852D01*
X157149580Y-66920423D02*
X157721009Y-66348995D01*
X160594342Y-66015661D02*
X160641961Y-65968042D01*
X160689580Y-65825185D01*
X160689580Y-65729947D01*
X160641961Y-65587090D01*
X160546723Y-65491852D01*
X160451485Y-65444233D01*
X160261009Y-65396614D01*
X160118152Y-65396614D01*
X159927676Y-65444233D01*
X159832438Y-65491852D01*
X159737200Y-65587090D01*
X159689580Y-65729947D01*
X159689580Y-65825185D01*
X159737200Y-65968042D01*
X159784819Y-66015661D01*
X160165771Y-66444233D02*
X160165771Y-66777566D01*
X160689580Y-66920423D02*
X160689580Y-66444233D01*
X159689580Y-66444233D01*
X159689580Y-66920423D01*
X155187371Y-72395395D02*
X155187371Y-72728728D01*
X155711180Y-72871585D02*
X155711180Y-72395395D01*
X154711180Y-72395395D01*
X154711180Y-72871585D01*
X154711180Y-73204919D02*
X155711180Y-73871585D01*
X154711180Y-73871585D02*
X155711180Y-73204919D01*
X154711180Y-74109680D02*
X154711180Y-74681109D01*
X155711180Y-74395395D02*
X154711180Y-74395395D01*
X155711180Y-75014442D02*
X154711180Y-75014442D01*
X145786142Y-75329023D02*
X145833761Y-75281404D01*
X145881380Y-75138547D01*
X145881380Y-75043309D01*
X145833761Y-74900452D01*
X145738523Y-74805214D01*
X145643285Y-74757595D01*
X145452809Y-74709976D01*
X145309952Y-74709976D01*
X145119476Y-74757595D01*
X145024238Y-74805214D01*
X144929000Y-74900452D01*
X144881380Y-75043309D01*
X144881380Y-75138547D01*
X144929000Y-75281404D01*
X144976619Y-75329023D01*
X145833761Y-75709976D02*
X145881380Y-75852833D01*
X145881380Y-76090928D01*
X145833761Y-76186166D01*
X145786142Y-76233785D01*
X145690904Y-76281404D01*
X145595666Y-76281404D01*
X145500428Y-76233785D01*
X145452809Y-76186166D01*
X145405190Y-76090928D01*
X145357571Y-75900452D01*
X145309952Y-75805214D01*
X145262333Y-75757595D01*
X145167095Y-75709976D01*
X145071857Y-75709976D01*
X144976619Y-75757595D01*
X144929000Y-75805214D01*
X144881380Y-75900452D01*
X144881380Y-76138547D01*
X144929000Y-76281404D01*
X134769000Y-75281404D02*
X134721380Y-75186166D01*
X134721380Y-75043309D01*
X134769000Y-74900452D01*
X134864238Y-74805214D01*
X134959476Y-74757595D01*
X135149952Y-74709976D01*
X135292809Y-74709976D01*
X135483285Y-74757595D01*
X135578523Y-74805214D01*
X135673761Y-74900452D01*
X135721380Y-75043309D01*
X135721380Y-75138547D01*
X135673761Y-75281404D01*
X135626142Y-75329023D01*
X135292809Y-75329023D01*
X135292809Y-75138547D01*
X135721380Y-75757595D02*
X134721380Y-75757595D01*
X135721380Y-76329023D01*
X134721380Y-76329023D01*
X135721380Y-76805214D02*
X134721380Y-76805214D01*
X134721380Y-77043309D01*
X134769000Y-77186166D01*
X134864238Y-77281404D01*
X134959476Y-77329023D01*
X135149952Y-77376642D01*
X135292809Y-77376642D01*
X135483285Y-77329023D01*
X135578523Y-77281404D01*
X135673761Y-77186166D01*
X135721380Y-77043309D01*
X135721380Y-76805214D01*
X121142214Y-80907000D02*
X121237452Y-80859380D01*
X121380309Y-80859380D01*
X121523166Y-80907000D01*
X121618404Y-81002238D01*
X121666023Y-81097476D01*
X121713642Y-81287952D01*
X121713642Y-81430809D01*
X121666023Y-81621285D01*
X121618404Y-81716523D01*
X121523166Y-81811761D01*
X121380309Y-81859380D01*
X121285071Y-81859380D01*
X121142214Y-81811761D01*
X121094595Y-81764142D01*
X121094595Y-81430809D01*
X121285071Y-81430809D01*
X120666023Y-81859380D02*
X120666023Y-80859380D01*
X120094595Y-81859380D01*
X120094595Y-80859380D01*
X119618404Y-81859380D02*
X119618404Y-80859380D01*
X119380309Y-80859380D01*
X119237452Y-80907000D01*
X119142214Y-81002238D01*
X119094595Y-81097476D01*
X119046976Y-81287952D01*
X119046976Y-81430809D01*
X119094595Y-81621285D01*
X119142214Y-81716523D01*
X119237452Y-81811761D01*
X119380309Y-81859380D01*
X119618404Y-81859380D01*
X158765014Y-63215780D02*
X159241204Y-63215780D01*
X159241204Y-62215780D01*
X121142214Y-76779380D02*
X121142214Y-75779380D01*
X120904119Y-75779380D01*
X120761261Y-75827000D01*
X120666023Y-75922238D01*
X120618404Y-76017476D01*
X120570785Y-76207952D01*
X120570785Y-76350809D01*
X120618404Y-76541285D01*
X120666023Y-76636523D01*
X120761261Y-76731761D01*
X120904119Y-76779380D01*
X121142214Y-76779380D01*
X120142214Y-76779380D02*
X120142214Y-75779380D01*
X119475547Y-75779380D02*
X119285071Y-75779380D01*
X119189833Y-75827000D01*
X119094595Y-75922238D01*
X119046976Y-76112714D01*
X119046976Y-76446047D01*
X119094595Y-76636523D01*
X119189833Y-76731761D01*
X119285071Y-76779380D01*
X119475547Y-76779380D01*
X119570785Y-76731761D01*
X119666023Y-76636523D01*
X119713642Y-76446047D01*
X119713642Y-76112714D01*
X119666023Y-75922238D01*
X119570785Y-75827000D01*
X119475547Y-75779380D01*
X159241204Y-60320180D02*
X159241204Y-59320180D01*
X159241204Y-59796371D02*
X158669776Y-59796371D01*
X158669776Y-60320180D02*
X158669776Y-59320180D01*
X143341380Y-74757595D02*
X142341380Y-74757595D01*
X143055666Y-75090928D01*
X142341380Y-75424261D01*
X143341380Y-75424261D01*
X142341380Y-76090928D02*
X142341380Y-76281404D01*
X142389000Y-76376642D01*
X142484238Y-76471880D01*
X142674714Y-76519500D01*
X143008047Y-76519500D01*
X143198523Y-76471880D01*
X143293761Y-76376642D01*
X143341380Y-76281404D01*
X143341380Y-76090928D01*
X143293761Y-75995690D01*
X143198523Y-75900452D01*
X143008047Y-75852833D01*
X142674714Y-75852833D01*
X142484238Y-75900452D01*
X142389000Y-75995690D01*
X142341380Y-76090928D01*
X143293761Y-76900452D02*
X143341380Y-77043309D01*
X143341380Y-77281404D01*
X143293761Y-77376642D01*
X143246142Y-77424261D01*
X143150904Y-77471880D01*
X143055666Y-77471880D01*
X142960428Y-77424261D01*
X142912809Y-77376642D01*
X142865190Y-77281404D01*
X142817571Y-77090928D01*
X142769952Y-76995690D01*
X142722333Y-76948071D01*
X142627095Y-76900452D01*
X142531857Y-76900452D01*
X142436619Y-76948071D01*
X142389000Y-76995690D01*
X142341380Y-77090928D01*
X142341380Y-77329023D01*
X142389000Y-77471880D01*
X143341380Y-77900452D02*
X142341380Y-77900452D01*
X133181380Y-74757595D02*
X132181380Y-74757595D01*
X132895666Y-75090928D01*
X132181380Y-75424261D01*
X133181380Y-75424261D01*
X133181380Y-75900452D02*
X132181380Y-75900452D01*
X133133761Y-76329023D02*
X133181380Y-76471880D01*
X133181380Y-76709976D01*
X133133761Y-76805214D01*
X133086142Y-76852833D01*
X132990904Y-76900452D01*
X132895666Y-76900452D01*
X132800428Y-76852833D01*
X132752809Y-76805214D01*
X132705190Y-76709976D01*
X132657571Y-76519500D01*
X132609952Y-76424261D01*
X132562333Y-76376642D01*
X132467095Y-76329023D01*
X132371857Y-76329023D01*
X132276619Y-76376642D01*
X132229000Y-76424261D01*
X132181380Y-76519500D01*
X132181380Y-76757595D01*
X132229000Y-76900452D01*
X132181380Y-77519500D02*
X132181380Y-77709976D01*
X132229000Y-77805214D01*
X132324238Y-77900452D01*
X132514714Y-77948071D01*
X132848047Y-77948071D01*
X133038523Y-77900452D01*
X133133761Y-77805214D01*
X133181380Y-77709976D01*
X133181380Y-77519500D01*
X133133761Y-77424261D01*
X133038523Y-77329023D01*
X132848047Y-77281404D01*
X132514714Y-77281404D01*
X132324238Y-77329023D01*
X132229000Y-77424261D01*
X132181380Y-77519500D01*
%TO.C,CN7*%
X110548262Y-107164142D02*
X110595881Y-107211761D01*
X110738738Y-107259380D01*
X110833976Y-107259380D01*
X110976833Y-107211761D01*
X111072071Y-107116523D01*
X111119690Y-107021285D01*
X111167309Y-106830809D01*
X111167309Y-106687952D01*
X111119690Y-106497476D01*
X111072071Y-106402238D01*
X110976833Y-106307000D01*
X110833976Y-106259380D01*
X110738738Y-106259380D01*
X110595881Y-106307000D01*
X110548262Y-106354619D01*
X110119690Y-107259380D02*
X110119690Y-106259380D01*
X109548262Y-107259380D01*
X109548262Y-106259380D01*
X109167309Y-106259380D02*
X108500643Y-106259380D01*
X108929214Y-107259380D01*
%TO.C,J2*%
X141952333Y-67524380D02*
X141952333Y-68238666D01*
X141999952Y-68381523D01*
X142095190Y-68476761D01*
X142238047Y-68524380D01*
X142333285Y-68524380D01*
X141523761Y-67619619D02*
X141476142Y-67572000D01*
X141380904Y-67524380D01*
X141142809Y-67524380D01*
X141047571Y-67572000D01*
X140999952Y-67619619D01*
X140952333Y-67714857D01*
X140952333Y-67810095D01*
X140999952Y-67952952D01*
X141571380Y-68524380D01*
X140952333Y-68524380D01*
%TO.C,BT1*%
X125273714Y-106481571D02*
X125130857Y-106529190D01*
X125083238Y-106576809D01*
X125035619Y-106672047D01*
X125035619Y-106814904D01*
X125083238Y-106910142D01*
X125130857Y-106957761D01*
X125226095Y-107005380D01*
X125607047Y-107005380D01*
X125607047Y-106005380D01*
X125273714Y-106005380D01*
X125178476Y-106053000D01*
X125130857Y-106100619D01*
X125083238Y-106195857D01*
X125083238Y-106291095D01*
X125130857Y-106386333D01*
X125178476Y-106433952D01*
X125273714Y-106481571D01*
X125607047Y-106481571D01*
X124749904Y-106005380D02*
X124178476Y-106005380D01*
X124464190Y-107005380D02*
X124464190Y-106005380D01*
X123321333Y-107005380D02*
X123892761Y-107005380D01*
X123607047Y-107005380D02*
X123607047Y-106005380D01*
X123702285Y-106148238D01*
X123797523Y-106243476D01*
X123892761Y-106291095D01*
%TO.C,J3*%
X158216380Y-85086866D02*
X158930666Y-85086866D01*
X159073523Y-85039247D01*
X159168761Y-84944009D01*
X159216380Y-84801152D01*
X159216380Y-84705914D01*
X158216380Y-85467819D02*
X158216380Y-86086866D01*
X158597333Y-85753533D01*
X158597333Y-85896390D01*
X158644952Y-85991628D01*
X158692571Y-86039247D01*
X158787809Y-86086866D01*
X159025904Y-86086866D01*
X159121142Y-86039247D01*
X159168761Y-85991628D01*
X159216380Y-85896390D01*
X159216380Y-85610676D01*
X159168761Y-85515438D01*
X159121142Y-85467819D01*
%TO.C,C28*%
X163679142Y-93083142D02*
X163726761Y-93035523D01*
X163774380Y-92892666D01*
X163774380Y-92797428D01*
X163726761Y-92654571D01*
X163631523Y-92559333D01*
X163536285Y-92511714D01*
X163345809Y-92464095D01*
X163202952Y-92464095D01*
X163012476Y-92511714D01*
X162917238Y-92559333D01*
X162822000Y-92654571D01*
X162774380Y-92797428D01*
X162774380Y-92892666D01*
X162822000Y-93035523D01*
X162869619Y-93083142D01*
X162869619Y-93464095D02*
X162822000Y-93511714D01*
X162774380Y-93606952D01*
X162774380Y-93845047D01*
X162822000Y-93940285D01*
X162869619Y-93987904D01*
X162964857Y-94035523D01*
X163060095Y-94035523D01*
X163202952Y-93987904D01*
X163774380Y-93416476D01*
X163774380Y-94035523D01*
X163202952Y-94606952D02*
X163155333Y-94511714D01*
X163107714Y-94464095D01*
X163012476Y-94416476D01*
X162964857Y-94416476D01*
X162869619Y-94464095D01*
X162822000Y-94511714D01*
X162774380Y-94606952D01*
X162774380Y-94797428D01*
X162822000Y-94892666D01*
X162869619Y-94940285D01*
X162964857Y-94987904D01*
X163012476Y-94987904D01*
X163107714Y-94940285D01*
X163155333Y-94892666D01*
X163202952Y-94797428D01*
X163202952Y-94606952D01*
X163250571Y-94511714D01*
X163298190Y-94464095D01*
X163393428Y-94416476D01*
X163583904Y-94416476D01*
X163679142Y-94464095D01*
X163726761Y-94511714D01*
X163774380Y-94606952D01*
X163774380Y-94797428D01*
X163726761Y-94892666D01*
X163679142Y-94940285D01*
X163583904Y-94987904D01*
X163393428Y-94987904D01*
X163298190Y-94940285D01*
X163250571Y-94892666D01*
X163202952Y-94797428D01*
%TO.C,CN10*%
X171984452Y-107164142D02*
X172032071Y-107211761D01*
X172174928Y-107259380D01*
X172270166Y-107259380D01*
X172413024Y-107211761D01*
X172508262Y-107116523D01*
X172555881Y-107021285D01*
X172603500Y-106830809D01*
X172603500Y-106687952D01*
X172555881Y-106497476D01*
X172508262Y-106402238D01*
X172413024Y-106307000D01*
X172270166Y-106259380D01*
X172174928Y-106259380D01*
X172032071Y-106307000D01*
X171984452Y-106354619D01*
X171555881Y-107259380D02*
X171555881Y-106259380D01*
X170984452Y-107259380D01*
X170984452Y-106259380D01*
X169984452Y-107259380D02*
X170555881Y-107259380D01*
X170270166Y-107259380D02*
X170270166Y-106259380D01*
X170365405Y-106402238D01*
X170460643Y-106497476D01*
X170555881Y-106545095D01*
X169365405Y-106259380D02*
X169270166Y-106259380D01*
X169174928Y-106307000D01*
X169127309Y-106354619D01*
X169079690Y-106449857D01*
X169032071Y-106640333D01*
X169032071Y-106878428D01*
X169079690Y-107068904D01*
X169127309Y-107164142D01*
X169174928Y-107211761D01*
X169270166Y-107259380D01*
X169365405Y-107259380D01*
X169460643Y-107211761D01*
X169508262Y-107164142D01*
X169555881Y-107068904D01*
X169603500Y-106878428D01*
X169603500Y-106640333D01*
X169555881Y-106449857D01*
X169508262Y-106354619D01*
X169460643Y-106307000D01*
X169365405Y-106259380D01*
%TO.C,C32*%
X162423142Y-93057742D02*
X162470761Y-93010123D01*
X162518380Y-92867266D01*
X162518380Y-92772028D01*
X162470761Y-92629171D01*
X162375523Y-92533933D01*
X162280285Y-92486314D01*
X162089809Y-92438695D01*
X161946952Y-92438695D01*
X161756476Y-92486314D01*
X161661238Y-92533933D01*
X161566000Y-92629171D01*
X161518380Y-92772028D01*
X161518380Y-92867266D01*
X161566000Y-93010123D01*
X161613619Y-93057742D01*
X161518380Y-93391076D02*
X161518380Y-94010123D01*
X161899333Y-93676790D01*
X161899333Y-93819647D01*
X161946952Y-93914885D01*
X161994571Y-93962504D01*
X162089809Y-94010123D01*
X162327904Y-94010123D01*
X162423142Y-93962504D01*
X162470761Y-93914885D01*
X162518380Y-93819647D01*
X162518380Y-93533933D01*
X162470761Y-93438695D01*
X162423142Y-93391076D01*
X161613619Y-94391076D02*
X161566000Y-94438695D01*
X161518380Y-94533933D01*
X161518380Y-94772028D01*
X161566000Y-94867266D01*
X161613619Y-94914885D01*
X161708857Y-94962504D01*
X161804095Y-94962504D01*
X161946952Y-94914885D01*
X162518380Y-94343457D01*
X162518380Y-94962504D01*
%TO.C,C2*%
X162016742Y-87336333D02*
X162064361Y-87288714D01*
X162111980Y-87145857D01*
X162111980Y-87050619D01*
X162064361Y-86907761D01*
X161969123Y-86812523D01*
X161873885Y-86764904D01*
X161683409Y-86717285D01*
X161540552Y-86717285D01*
X161350076Y-86764904D01*
X161254838Y-86812523D01*
X161159600Y-86907761D01*
X161111980Y-87050619D01*
X161111980Y-87145857D01*
X161159600Y-87288714D01*
X161207219Y-87336333D01*
X161207219Y-87717285D02*
X161159600Y-87764904D01*
X161111980Y-87860142D01*
X161111980Y-88098238D01*
X161159600Y-88193476D01*
X161207219Y-88241095D01*
X161302457Y-88288714D01*
X161397695Y-88288714D01*
X161540552Y-88241095D01*
X162111980Y-87669666D01*
X162111980Y-88288714D01*
%TO.C,C1*%
X163413742Y-87463333D02*
X163461361Y-87415714D01*
X163508980Y-87272857D01*
X163508980Y-87177619D01*
X163461361Y-87034761D01*
X163366123Y-86939523D01*
X163270885Y-86891904D01*
X163080409Y-86844285D01*
X162937552Y-86844285D01*
X162747076Y-86891904D01*
X162651838Y-86939523D01*
X162556600Y-87034761D01*
X162508980Y-87177619D01*
X162508980Y-87272857D01*
X162556600Y-87415714D01*
X162604219Y-87463333D01*
X163508980Y-88415714D02*
X163508980Y-87844285D01*
X163508980Y-88130000D02*
X162508980Y-88130000D01*
X162651838Y-88034761D01*
X162747076Y-87939523D01*
X162794695Y-87844285D01*
D11*
%TO.C,CN7*%
X112457786Y-57556786D02*
X112457786Y-105936786D01*
X109857786Y-57556786D02*
X109857786Y-60156786D01*
X107257786Y-57556786D02*
X107257786Y-58886786D01*
X108587786Y-57556786D02*
X107257786Y-57556786D01*
X112457786Y-105936786D02*
X107257786Y-105936786D01*
X107257786Y-60156786D02*
X107257786Y-105936786D01*
X112457786Y-57556786D02*
X109857786Y-57556786D01*
X109857786Y-60156786D02*
X107257786Y-60156786D01*
%TO.C,J2*%
X146278000Y-60574000D02*
X146278000Y-65024000D01*
X146278000Y-70844000D02*
X143598000Y-70844000D01*
X146278000Y-66424000D02*
X146278000Y-68724000D01*
X146278000Y-70124000D02*
X146278000Y-70844000D01*
X144798000Y-59204000D02*
X143938000Y-59204000D01*
X135328000Y-70844000D02*
X134098000Y-70844000D01*
X141298000Y-70844000D02*
X137628000Y-70844000D01*
X134098000Y-70844000D02*
X134098000Y-61024000D01*
%TO.C,BT1*%
X142844000Y-95929000D02*
X147644000Y-95929000D01*
X121544000Y-108179000D02*
X128244000Y-108179000D01*
X121344000Y-101429000D02*
X116544000Y-101429000D01*
X147644000Y-95929000D02*
X147644000Y-101429000D01*
X147644000Y-101429000D02*
X142844000Y-101429000D01*
X121294000Y-92629000D02*
X128144000Y-87829000D01*
X142644000Y-108179000D02*
X135944000Y-108179000D01*
X116544000Y-101429000D02*
X116544000Y-95929000D01*
X136044000Y-87829000D02*
X142844000Y-92629000D01*
X128144000Y-87829000D02*
X136044000Y-87829000D01*
X116544000Y-95929000D02*
X121344000Y-95929000D01*
X128247615Y-108180464D02*
G75*
G03*
X135944000Y-108179000I3846385J9501471D01*
G01*
%TO.C,J3*%
X157250000Y-83971000D02*
X157250000Y-84771000D01*
X160050000Y-86971000D02*
X160250000Y-86971000D01*
X160250000Y-84771000D02*
X160250000Y-84171000D01*
X157250000Y-86971000D02*
X157450000Y-86971000D01*
X160250000Y-86171000D02*
X160750000Y-86171000D01*
X160250000Y-84171000D02*
X160050000Y-83971000D01*
X160250000Y-86971000D02*
X160250000Y-86171000D01*
X157450000Y-83971000D02*
X157250000Y-83971000D01*
X157250000Y-86171000D02*
X157250000Y-86971000D01*
X160250000Y-84771000D02*
X160750000Y-84771000D01*
%TO.C,C28*%
X162812000Y-96920267D02*
X162812000Y-96627733D01*
X163832000Y-96920267D02*
X163832000Y-96627733D01*
%TO.C,CN10*%
X173417786Y-57556786D02*
X170817786Y-57556786D01*
X173417786Y-57556786D02*
X173417786Y-105936786D01*
X168217786Y-60156786D02*
X168217786Y-105936786D01*
X170817786Y-57556786D02*
X170817786Y-60156786D01*
X169547786Y-57556786D02*
X168217786Y-57556786D01*
X170817786Y-60156786D02*
X168217786Y-60156786D01*
X168217786Y-57556786D02*
X168217786Y-58886786D01*
X173417786Y-105936786D02*
X168217786Y-105936786D01*
%TO.C,C32*%
X161505200Y-96945667D02*
X161505200Y-96653133D01*
X162525200Y-96945667D02*
X162525200Y-96653133D01*
%TO.C,C2*%
X161161001Y-84881767D02*
X161161001Y-84589233D01*
X162181001Y-84881767D02*
X162181001Y-84589233D01*
%TO.C,C1*%
X163578000Y-84881767D02*
X163578000Y-84589233D01*
X162558000Y-84881767D02*
X162558000Y-84589233D01*
%TD*%
M02*
