%TF.GenerationSoftware,KiCad,Pcbnew,(6.0.1)*%
%TF.CreationDate,2022-04-28T18:35:21+02:00*%
%TF.ProjectId,STM32_NRF24_Tx,53544d33-325f-44e5-9246-32345f54782e,rev?*%
%TF.SameCoordinates,Original*%
%TF.FileFunction,Paste,Top*%
%TF.FilePolarity,Positive*%
%FSLAX46Y46*%
G04 Gerber Fmt 4.6, Leading zero omitted, Abs format (unit mm)*
G04 Created by KiCad (PCBNEW (6.0.1)) date 2022-04-28 18:35:21*
%MOMM*%
%LPD*%
G01*
G04 APERTURE LIST*
G04 Aperture macros list*
%AMRoundRect*
0 Rectangle with rounded corners*
0 $1 Rounding radius*
0 $2 $3 $4 $5 $6 $7 $8 $9 X,Y pos of 4 corners*
0 Add a 4 corners polygon primitive as box body*
4,1,4,$2,$3,$4,$5,$6,$7,$8,$9,$2,$3,0*
0 Add four circle primitives for the rounded corners*
1,1,$1+$1,$2,$3*
1,1,$1+$1,$4,$5*
1,1,$1+$1,$6,$7*
1,1,$1+$1,$8,$9*
0 Add four rect primitives between the rounded corners*
20,1,$1+$1,$2,$3,$4,$5,0*
20,1,$1+$1,$4,$5,$6,$7,0*
20,1,$1+$1,$6,$7,$8,$9,0*
20,1,$1+$1,$8,$9,$2,$3,0*%
G04 Aperture macros list end*
%ADD10R,1.270000X3.600000*%
%ADD11R,1.350000X4.200000*%
%ADD12RoundRect,0.237500X-0.250000X-0.237500X0.250000X-0.237500X0.250000X0.237500X-0.250000X0.237500X0*%
%ADD13RoundRect,0.237500X0.300000X0.237500X-0.300000X0.237500X-0.300000X-0.237500X0.300000X-0.237500X0*%
%ADD14RoundRect,0.237500X0.237500X-0.300000X0.237500X0.300000X-0.237500X0.300000X-0.237500X-0.300000X0*%
%ADD15RoundRect,0.237500X-0.300000X-0.237500X0.300000X-0.237500X0.300000X0.237500X-0.300000X0.237500X0*%
%ADD16RoundRect,0.250000X-0.650000X0.412500X-0.650000X-0.412500X0.650000X-0.412500X0.650000X0.412500X0*%
%ADD17RoundRect,0.062500X0.162500X0.062500X-0.162500X0.062500X-0.162500X-0.062500X0.162500X-0.062500X0*%
%ADD18RoundRect,0.062500X-0.162500X-0.062500X0.162500X-0.062500X0.162500X0.062500X-0.162500X0.062500X0*%
%ADD19RoundRect,0.237500X0.237500X-0.287500X0.237500X0.287500X-0.237500X0.287500X-0.237500X-0.287500X0*%
%ADD20RoundRect,0.237500X0.250000X0.237500X-0.250000X0.237500X-0.250000X-0.237500X0.250000X-0.237500X0*%
%ADD21R,5.700000X1.600000*%
%ADD22RoundRect,0.237500X-0.287500X-0.237500X0.287500X-0.237500X0.287500X0.237500X-0.287500X0.237500X0*%
%ADD23R,1.500000X1.500000*%
%ADD24RoundRect,0.237500X-0.237500X0.300000X-0.237500X-0.300000X0.237500X-0.300000X0.237500X0.300000X0*%
%ADD25RoundRect,0.250000X-0.625000X0.400000X-0.625000X-0.400000X0.625000X-0.400000X0.625000X0.400000X0*%
%ADD26RoundRect,0.250000X0.412500X0.650000X-0.412500X0.650000X-0.412500X-0.650000X0.412500X-0.650000X0*%
%ADD27RoundRect,0.237500X-0.237500X0.250000X-0.237500X-0.250000X0.237500X-0.250000X0.237500X0.250000X0*%
%ADD28RoundRect,0.062500X-0.062500X0.350000X-0.062500X-0.350000X0.062500X-0.350000X0.062500X0.350000X0*%
%ADD29RoundRect,0.062500X-0.350000X0.062500X-0.350000X-0.062500X0.350000X-0.062500X0.350000X0.062500X0*%
%ADD30R,1.000000X1.150000*%
%ADD31R,1.200000X0.900000*%
%ADD32RoundRect,0.237500X0.237500X-0.250000X0.237500X0.250000X-0.237500X0.250000X-0.237500X-0.250000X0*%
%ADD33R,0.900000X1.200000*%
%ADD34R,0.500000X2.500000*%
%ADD35R,2.000000X2.500000*%
%ADD36R,1.500000X2.000000*%
%ADD37R,3.800000X2.000000*%
%ADD38RoundRect,0.172500X-0.172500X0.172500X-0.172500X-0.172500X0.172500X-0.172500X0.172500X0.172500X0*%
%ADD39RoundRect,0.075000X0.075000X-0.662500X0.075000X0.662500X-0.075000X0.662500X-0.075000X-0.662500X0*%
%ADD40RoundRect,0.075000X0.662500X-0.075000X0.662500X0.075000X-0.662500X0.075000X-0.662500X-0.075000X0*%
%ADD41RoundRect,0.150000X-0.825000X-0.150000X0.825000X-0.150000X0.825000X0.150000X-0.825000X0.150000X0*%
%ADD42R,1.800000X1.000000*%
%ADD43R,1.600000X1.300000*%
%ADD44RoundRect,0.125000X-0.125000X0.587500X-0.125000X-0.587500X0.125000X-0.587500X0.125000X0.587500X0*%
G04 APERTURE END LIST*
D10*
%TO.C,J7*%
X159004000Y-105737000D03*
D11*
X161829000Y-105537000D03*
X156179000Y-105537000D03*
%TD*%
D12*
%TO.C,R14*%
X116299000Y-83947000D03*
X118124000Y-83947000D03*
%TD*%
D13*
%TO.C,C23*%
X153022500Y-85979000D03*
X151297500Y-85979000D03*
%TD*%
D14*
%TO.C,C17*%
X124347000Y-97232000D03*
X124347000Y-95507000D03*
%TD*%
D15*
%TO.C,C5*%
X141899500Y-66548000D03*
X143624500Y-66548000D03*
%TD*%
D16*
%TO.C,C8*%
X132856000Y-67017500D03*
X132856000Y-70142500D03*
%TD*%
D17*
%TO.C,FL1*%
X159102000Y-101354000D03*
D18*
X159102000Y-101854000D03*
X159102000Y-102354000D03*
X159922000Y-102354000D03*
X159922000Y-101854000D03*
X159922000Y-101354000D03*
%TD*%
D19*
%TO.C,L4*%
X158496000Y-90156000D03*
X158496000Y-88406000D03*
%TD*%
D20*
%TO.C,R3*%
X118148500Y-69659500D03*
X116323500Y-69659500D03*
%TD*%
D13*
%TO.C,C30*%
X160755500Y-100203000D03*
X159030500Y-100203000D03*
%TD*%
D20*
%TO.C,R19*%
X155090500Y-94742000D03*
X153265500Y-94742000D03*
%TD*%
D21*
%TO.C,L1*%
X126126000Y-68453500D03*
X126126000Y-63753500D03*
%TD*%
D15*
%TO.C,C22*%
X151297500Y-80518000D03*
X153022500Y-80518000D03*
%TD*%
D14*
%TO.C,C19*%
X121299000Y-97232000D03*
X121299000Y-95507000D03*
%TD*%
%TO.C,C25*%
X154446000Y-91667500D03*
X154446000Y-89942500D03*
%TD*%
D20*
%TO.C,R13*%
X118124000Y-85471000D03*
X116299000Y-85471000D03*
%TD*%
%TO.C,R6*%
X118148500Y-62547500D03*
X116323500Y-62547500D03*
%TD*%
D22*
%TO.C,L3*%
X154954000Y-88265000D03*
X156704000Y-88265000D03*
%TD*%
D15*
%TO.C,C10*%
X116373500Y-71437500D03*
X118098500Y-71437500D03*
%TD*%
D23*
%TO.C,SW1*%
X115482400Y-94017000D03*
X115482400Y-101817000D03*
%TD*%
D14*
%TO.C,C29*%
X162052000Y-97636500D03*
X162052000Y-95911500D03*
%TD*%
%TO.C,C3*%
X161671001Y-85598000D03*
X161671001Y-83873000D03*
%TD*%
D24*
%TO.C,C18*%
X122823000Y-95507000D03*
X122823000Y-97232000D03*
%TD*%
D22*
%TO.C,L2*%
X156732000Y-86868000D03*
X158482000Y-86868000D03*
%TD*%
D25*
%TO.C,R2*%
X152820400Y-61467400D03*
X152820400Y-64567400D03*
%TD*%
D14*
%TO.C,C24*%
X155843000Y-91667500D03*
X155843000Y-89942500D03*
%TD*%
D26*
%TO.C,C12*%
X123497500Y-61277500D03*
X120372500Y-61277500D03*
%TD*%
D20*
%TO.C,R20*%
X155090500Y-97536000D03*
X153265500Y-97536000D03*
%TD*%
%TO.C,R5*%
X118148500Y-67881500D03*
X116323500Y-67881500D03*
%TD*%
D24*
%TO.C,C20*%
X119775000Y-95507000D03*
X119775000Y-97232000D03*
%TD*%
D14*
%TO.C,C4*%
X163068000Y-85598000D03*
X163068000Y-83873000D03*
%TD*%
D27*
%TO.C,R11*%
X130443000Y-95480500D03*
X130443000Y-97305500D03*
%TD*%
D28*
%TO.C,U7*%
X158861000Y-81628500D03*
X158361000Y-81628500D03*
X157861000Y-81628500D03*
X157361000Y-81628500D03*
X156861000Y-81628500D03*
D29*
X155923500Y-82566000D03*
X155923500Y-83066000D03*
X155923500Y-83566000D03*
X155923500Y-84066000D03*
X155923500Y-84566000D03*
D28*
X156861000Y-85503500D03*
X157361000Y-85503500D03*
X157861000Y-85503500D03*
X158361000Y-85503500D03*
X158861000Y-85503500D03*
D29*
X159798500Y-84566000D03*
X159798500Y-84066000D03*
X159798500Y-83566000D03*
X159798500Y-83066000D03*
X159798500Y-82566000D03*
%TD*%
D14*
%TO.C,C31*%
X163322000Y-97636500D03*
X163322000Y-95911500D03*
%TD*%
D13*
%TO.C,C14*%
X118097500Y-90297000D03*
X116372500Y-90297000D03*
%TD*%
D30*
%TO.C,Y3*%
X151333000Y-82437000D03*
X151333000Y-84187000D03*
X152733000Y-84187000D03*
X152733000Y-82437000D03*
%TD*%
D27*
%TO.C,R9*%
X124601000Y-76012000D03*
X124601000Y-77837000D03*
%TD*%
%TO.C,R18*%
X154319000Y-82399500D03*
X154319000Y-84224500D03*
%TD*%
D31*
%TO.C,D8*%
X130570000Y-66930000D03*
X130570000Y-70230000D03*
%TD*%
D14*
%TO.C,C21*%
X161671001Y-82042000D03*
X161671001Y-80317000D03*
%TD*%
D22*
%TO.C,D7*%
X116390123Y-87122000D03*
X118140123Y-87122000D03*
%TD*%
D15*
%TO.C,C13*%
X116372500Y-88773000D03*
X118097500Y-88773000D03*
%TD*%
D20*
%TO.C,R4*%
X118148500Y-66103500D03*
X116323500Y-66103500D03*
%TD*%
D32*
%TO.C,R10*%
X127395000Y-97282000D03*
X127395000Y-95457000D03*
%TD*%
D16*
%TO.C,C7*%
X132856000Y-61073500D03*
X132856000Y-64198500D03*
%TD*%
D31*
%TO.C,D3*%
X130570000Y-61088000D03*
X130570000Y-64388000D03*
%TD*%
D13*
%TO.C,C11*%
X118098500Y-64325500D03*
X116373500Y-64325500D03*
%TD*%
%TO.C,C6*%
X143624500Y-63881000D03*
X141899500Y-63881000D03*
%TD*%
D33*
%TO.C,D2*%
X128665000Y-70802500D03*
X125365000Y-70802500D03*
%TD*%
D26*
%TO.C,C9*%
X123497500Y-70802500D03*
X120372500Y-70802500D03*
%TD*%
D34*
%TO.C,J5*%
X120105000Y-57972000D03*
X119305000Y-57972000D03*
X118505000Y-57972000D03*
X117705000Y-57972000D03*
X116905000Y-57972000D03*
D35*
X122905000Y-57972000D03*
X122905000Y-52472000D03*
X114105000Y-57972000D03*
X114105000Y-52472000D03*
%TD*%
D22*
%TO.C,D4*%
X116361000Y-60896500D03*
X118111000Y-60896500D03*
%TD*%
D36*
%TO.C,U3*%
X139982000Y-61518000D03*
D37*
X137682000Y-67818000D03*
D36*
X137682000Y-61518000D03*
X135382000Y-61518000D03*
%TD*%
D12*
%TO.C,R21*%
X153279500Y-96139000D03*
X155104500Y-96139000D03*
%TD*%
D27*
%TO.C,R8*%
X123077000Y-76012000D03*
X123077000Y-77837000D03*
%TD*%
D38*
%TO.C,U8*%
X159683000Y-96984000D03*
X158833000Y-97834000D03*
X159683000Y-97834000D03*
X158833000Y-96984000D03*
D28*
X160008000Y-95946500D03*
X159508000Y-95946500D03*
X159008000Y-95946500D03*
X158508000Y-95946500D03*
D29*
X157795500Y-96659000D03*
X157795500Y-97159000D03*
X157795500Y-97659000D03*
X157795500Y-98159000D03*
D28*
X158508000Y-98871500D03*
X159008000Y-98871500D03*
X159508000Y-98871500D03*
X160008000Y-98871500D03*
D29*
X160720500Y-98159000D03*
X160720500Y-97659000D03*
X160720500Y-97159000D03*
X160720500Y-96659000D03*
%TD*%
D39*
%TO.C,U5*%
X121851000Y-88707000D03*
X122351000Y-88707000D03*
X122851000Y-88707000D03*
X123351000Y-88707000D03*
X123851000Y-88707000D03*
X124351000Y-88707000D03*
X124851000Y-88707000D03*
X125351000Y-88707000D03*
X125851000Y-88707000D03*
X126351000Y-88707000D03*
X126851000Y-88707000D03*
X127351000Y-88707000D03*
D40*
X128763500Y-87294500D03*
X128763500Y-86794500D03*
X128763500Y-86294500D03*
X128763500Y-85794500D03*
X128763500Y-85294500D03*
X128763500Y-84794500D03*
X128763500Y-84294500D03*
X128763500Y-83794500D03*
X128763500Y-83294500D03*
X128763500Y-82794500D03*
X128763500Y-82294500D03*
X128763500Y-81794500D03*
D39*
X127351000Y-80382000D03*
X126851000Y-80382000D03*
X126351000Y-80382000D03*
X125851000Y-80382000D03*
X125351000Y-80382000D03*
X124851000Y-80382000D03*
X124351000Y-80382000D03*
X123851000Y-80382000D03*
X123351000Y-80382000D03*
X122851000Y-80382000D03*
X122351000Y-80382000D03*
X121851000Y-80382000D03*
D40*
X120438500Y-81794500D03*
X120438500Y-82294500D03*
X120438500Y-82794500D03*
X120438500Y-83294500D03*
X120438500Y-83794500D03*
X120438500Y-84294500D03*
X120438500Y-84794500D03*
X120438500Y-85294500D03*
X120438500Y-85794500D03*
X120438500Y-86294500D03*
X120438500Y-86794500D03*
X120438500Y-87294500D03*
%TD*%
D24*
%TO.C,C15*%
X127649000Y-76062000D03*
X127649000Y-77787000D03*
%TD*%
D41*
%TO.C,U2*%
X145621000Y-61087000D03*
X145621000Y-62357000D03*
X145621000Y-63627000D03*
X145621000Y-64897000D03*
X150571000Y-64897000D03*
X150571000Y-63627000D03*
X150571000Y-62357000D03*
X150571000Y-61087000D03*
%TD*%
D14*
%TO.C,C16*%
X125871000Y-97232000D03*
X125871000Y-95507000D03*
%TD*%
%TO.C,C34*%
X128919000Y-93803000D03*
X128919000Y-92078000D03*
%TD*%
D32*
%TO.C,R17*%
X163068000Y-82092000D03*
X163068000Y-80267000D03*
%TD*%
D24*
%TO.C,C33*%
X121553000Y-76062000D03*
X121553000Y-77787000D03*
%TD*%
D42*
%TO.C,Y2*%
X120410000Y-94063500D03*
X120410000Y-91563500D03*
%TD*%
D32*
%TO.C,R12*%
X128919000Y-97305500D03*
X128919000Y-95480500D03*
%TD*%
D33*
%TO.C,D1*%
X128665000Y-61404500D03*
X125365000Y-61404500D03*
%TD*%
D43*
%TO.C,Y1*%
X126505000Y-91813500D03*
X123205000Y-91813500D03*
X123205000Y-93813500D03*
X126505000Y-93813500D03*
%TD*%
D24*
%TO.C,C26*%
X158496000Y-91593500D03*
X158496000Y-93318500D03*
%TD*%
D20*
%TO.C,R1*%
X143674500Y-60960000D03*
X141849500Y-60960000D03*
%TD*%
D27*
%TO.C,R7*%
X126125000Y-76012000D03*
X126125000Y-77837000D03*
%TD*%
D12*
%TO.C,R15*%
X116322500Y-91821000D03*
X118147500Y-91821000D03*
%TD*%
D13*
%TO.C,C27*%
X160247500Y-94742000D03*
X158522500Y-94742000D03*
%TD*%
D44*
%TO.C,U4*%
X121869000Y-64966000D03*
X120919000Y-64966000D03*
X119969000Y-64966000D03*
X119969000Y-67241000D03*
X120919000Y-67241000D03*
X121869000Y-67241000D03*
%TD*%
M02*
