M48
; DRILL file {KiCad (6.0.1)} date Tue May  3 00:11:39 2022
; FORMAT={-:-/ absolute / metric / decimal}
; #@! TF.CreationDate,2022-05-03T00:11:39+02:00
; #@! TF.GenerationSoftware,Kicad,Pcbnew,(6.0.1)
; #@! TF.FileFunction,Plated,1,2,PTH
FMAT,2
METRIC
; #@! TA.AperFunction,Plated,PTH,ComponentDrill
T1C0.690
; #@! TA.AperFunction,Plated,PTH,ComponentDrill
T2C0.700
; #@! TA.AperFunction,Plated,PTH,ComponentDrill
T3C0.750
; #@! TA.AperFunction,Plated,PTH,ComponentDrill
T4C0.900
; #@! TA.AperFunction,Plated,PTH,ComponentDrill
T5C0.980
; #@! TA.AperFunction,Plated,PTH,ComponentDrill
T6C1.000
; #@! TA.AperFunction,Plated,PTH,ViaDrill
T7C1.250
; #@! TA.AperFunction,Plated,PTH,ComponentDrill
T8C1.300
; #@! TA.AperFunction,Plated,PTH,ComponentDrill
T9C1.400
; #@! TA.AperFunction,Plated,PTH,ComponentDrill
T10C1.600
; #@! TA.AperFunction,Plated,PTH,ViaDrill
T11C1.750
; #@! TA.AperFunction,Plated,PTH,ComponentDrill
T12C2.190
; #@! TA.AperFunction,Plated,PTH,ViaDrill
T13C2.250
; #@! TA.AperFunction,Plated,PTH,ComponentDrill
T14C3.200
%
G90
G05
T1
X242.46Y-51.47
X242.46Y-66.47
X242.46Y-81.47
X242.46Y-96.47
X245.0Y-48.93
X245.0Y-63.93
X245.0Y-78.93
X245.0Y-93.93
X247.54Y-51.47
X247.54Y-66.47
X247.54Y-81.47
X247.54Y-96.47
X257.46Y-51.47
X257.46Y-66.47
X257.46Y-81.47
X257.46Y-96.47
X260.0Y-48.93
X260.0Y-63.93
X260.0Y-78.93
X260.0Y-93.93
X262.54Y-51.47
X262.54Y-66.47
X262.54Y-81.47
X262.54Y-96.47
X282.46Y-51.47
X282.46Y-66.47
X282.46Y-81.47
X282.46Y-96.47
X282.46Y-111.47
X282.46Y-126.47
X282.46Y-141.47
X285.0Y-48.93
X285.0Y-63.93
X285.0Y-78.93
X285.0Y-93.93
X285.0Y-108.93
X285.0Y-123.93
X285.0Y-138.93
X287.54Y-51.47
X287.54Y-66.47
X287.54Y-81.47
X287.54Y-96.47
X287.54Y-111.47
X287.54Y-126.47
X287.54Y-141.47
X297.46Y-51.47
X297.46Y-66.47
X297.46Y-81.47
X297.46Y-96.47
X297.46Y-111.47
X297.46Y-126.47
X297.46Y-141.47
X300.0Y-48.93
X300.0Y-63.93
X300.0Y-78.93
X300.0Y-93.93
X300.0Y-108.93
X300.0Y-123.93
X300.0Y-138.93
X302.54Y-51.47
X302.54Y-66.47
X302.54Y-81.47
X302.54Y-96.47
X302.54Y-111.47
X302.54Y-126.47
X302.54Y-141.47
T2
X243.5Y-160.0
X243.5Y-162.0
X243.5Y-164.0
X243.5Y-166.0
X243.5Y-168.0
X243.5Y-170.0
X246.0Y-160.0
X246.0Y-162.0
X246.0Y-164.0
X246.0Y-166.0
X246.0Y-168.0
X246.0Y-170.0
X292.0Y-159.0
X302.0Y-159.0
T3
X27.5Y-67.0
X32.5Y-58.0
X32.5Y-67.0
X37.5Y-58.0
X300.0Y-164.185
T4
X31.0Y-83.12
X31.0Y-85.62
X31.0Y-88.12
T6
X31.0Y-140.0
X31.0Y-160.0
X31.0Y-180.0
X33.54Y-140.0
X33.54Y-160.0
X33.54Y-180.0
X46.0Y-140.0
X46.0Y-160.0
X48.54Y-140.0
X48.54Y-160.0
X77.25Y-80.46
X77.25Y-83.0
X77.25Y-130.46
X77.25Y-133.0
X105.25Y-80.46
X105.25Y-83.0
X105.25Y-130.46
X105.25Y-133.0
X105.25Y-180.46
X105.25Y-183.0
X133.25Y-80.46
X133.25Y-83.0
X133.25Y-130.46
X133.25Y-133.0
X133.25Y-180.46
X133.25Y-183.0
X161.25Y-80.46
X161.25Y-83.0
X161.25Y-130.46
X161.25Y-133.0
X161.25Y-180.46
X161.25Y-183.0
X189.25Y-80.46
X189.25Y-83.0
X189.25Y-130.46
X189.25Y-133.0
X189.25Y-180.46
X189.25Y-183.0
X217.25Y-130.46
X217.25Y-133.0
X217.25Y-180.46
X217.25Y-183.0
X218.25Y-80.46
X218.25Y-83.0
X289.04Y-164.185
X290.41Y-166.725
X291.78Y-164.185
X293.15Y-166.725
X294.52Y-164.185
X295.89Y-166.725
X297.26Y-164.185
X298.63Y-166.725
T7
X42.25Y-85.75
X230.5Y-138.5
X233.75Y-141.25
X237.0Y-140.749
T8
X44.0Y-71.0
X46.5Y-61.0
X49.0Y-71.0
T9
X31.0Y-99.0
X31.0Y-104.08
X31.0Y-109.16
X31.0Y-114.24
X31.0Y-119.32
X31.0Y-124.4
X40.25Y-32.0
X45.33Y-32.0
X50.41Y-32.0
X55.49Y-32.0
X60.57Y-32.0
X65.65Y-32.0
X70.73Y-32.0
X75.81Y-32.0
X80.89Y-32.0
X90.75Y-32.0
X95.83Y-32.0
X100.91Y-32.0
X105.99Y-32.0
X111.07Y-32.0
X116.15Y-32.0
X121.23Y-32.0
X126.31Y-32.0
X131.39Y-32.0
X141.25Y-32.0
X146.33Y-32.0
X151.41Y-32.0
X156.49Y-32.0
X161.57Y-32.0
X166.65Y-32.0
X171.73Y-32.0
X176.81Y-32.0
X181.89Y-32.0
X186.97Y-32.0
X192.05Y-32.0
X197.13Y-32.0
X207.0Y-32.0
X212.08Y-32.0
X217.16Y-32.0
X222.24Y-32.0
X227.32Y-32.0
X237.25Y-32.0
X242.33Y-32.0
X247.41Y-32.0
X252.49Y-32.0
X257.57Y-32.0
X262.65Y-32.0
X267.73Y-32.0
X272.81Y-32.0
X277.89Y-32.0
X282.97Y-32.0
X288.05Y-32.0
X293.13Y-32.0
X298.21Y-32.0
X303.29Y-32.0
T10
X46.5Y-57.0
X55.25Y-57.0
T11
X23.0Y-59.25
X55.0Y-83.0
X83.5Y-142.749
T12
X244.75Y-157.445
X244.75Y-172.555
T13
X43.218Y-125.373
X46.753Y-121.623
X50.394Y-118.197
X53.929Y-114.662
T14
X282.025Y-165.455
X307.015Y-165.455
T5
G00X74.85Y-60.0
M15
G01X79.65Y-60.0
M16
G05
G00X74.85Y-67.0
M15
G01X79.65Y-67.0
M16
G05
G00X74.85Y-110.0
M15
G01X79.65Y-110.0
M16
G05
G00X74.85Y-117.0
M15
G01X79.65Y-117.0
M16
G05
G00X102.85Y-60.0
M15
G01X107.65Y-60.0
M16
G05
G00X102.85Y-67.0
M15
G01X107.65Y-67.0
M16
G05
G00X102.85Y-110.0
M15
G01X107.65Y-110.0
M16
G05
G00X102.85Y-117.0
M15
G01X107.65Y-117.0
M16
G05
G00X102.85Y-160.0
M15
G01X107.65Y-160.0
M16
G05
G00X102.85Y-167.0
M15
G01X107.65Y-167.0
M16
G05
G00X130.85Y-60.0
M15
G01X135.65Y-60.0
M16
G05
G00X130.85Y-67.0
M15
G01X135.65Y-67.0
M16
G05
G00X130.85Y-110.0
M15
G01X135.65Y-110.0
M16
G05
G00X130.85Y-117.0
M15
G01X135.65Y-117.0
M16
G05
G00X130.85Y-160.0
M15
G01X135.65Y-160.0
M16
G05
G00X130.85Y-167.0
M15
G01X135.65Y-167.0
M16
G05
G00X158.85Y-60.0
M15
G01X163.65Y-60.0
M16
G05
G00X158.85Y-67.0
M15
G01X163.65Y-67.0
M16
G05
G00X158.85Y-110.0
M15
G01X163.65Y-110.0
M16
G05
G00X158.85Y-117.0
M15
G01X163.65Y-117.0
M16
G05
G00X158.85Y-160.0
M15
G01X163.65Y-160.0
M16
G05
G00X158.85Y-167.0
M15
G01X163.65Y-167.0
M16
G05
G00X186.85Y-60.0
M15
G01X191.65Y-60.0
M16
G05
G00X186.85Y-67.0
M15
G01X191.65Y-67.0
M16
G05
G00X186.85Y-110.0
M15
G01X191.65Y-110.0
M16
G05
G00X186.85Y-117.0
M15
G01X191.65Y-117.0
M16
G05
G00X186.85Y-160.0
M15
G01X191.65Y-160.0
M16
G05
G00X186.85Y-167.0
M15
G01X191.65Y-167.0
M16
G05
G00X214.85Y-110.0
M15
G01X219.65Y-110.0
M16
G05
G00X214.85Y-117.0
M15
G01X219.65Y-117.0
M16
G05
G00X214.85Y-160.0
M15
G01X219.65Y-160.0
M16
G05
G00X214.85Y-167.0
M15
G01X219.65Y-167.0
M16
G05
G00X215.85Y-60.0
M15
G01X220.65Y-60.0
M16
G05
G00X215.85Y-67.0
M15
G01X220.65Y-67.0
M16
G05
T6
G00X25.3Y-31.7
M15
G01X25.3Y-32.3
M16
G05
G00X29.7Y-29.0
M15
G01X30.3Y-29.0
M16
G05
G00X29.7Y-35.0
M15
G01X30.3Y-35.0
M16
G05
T0
M30
