<svg xmlns="http://www.w3.org/2000/svg" width="525" height="231"><g fill="none"><path fill="#231916" d="m233.01 35.991-4.95 18.22c-1.04.1-2.35.25-4.38.25-9.73 0-8.65-2.93-4.54-18.8 4.27-16.5 6.75-19.51 12.82-19.51s5.89 3.94 4.4 8.92h14.82c2.4-9.3.8-17.54-16.54-17.54-19.3 0-24.55 4.07-30.77 28.13-5.79 22.4-3.89 28.35 16.98 28.35 9.9 0 14.04-.73 20.07-1.82l6.98-26.19h-14.89v-.01Zm35.37 17.97c-1.93 0-2.61-.58-2.24-2.15l3.36-13.18h19.83l2.23-8.64h-19.84l2.25-8.78c.59-2.3 2.23-4.25 5.42-4.25h15.89l2.24-8.65h-23.08c-9.57 0-12.45 1.71-16.18 16.12l-6.85 26.34c-2.11 8.84.52 12.69 7.74 12.69h19.92c3.92 0 6.45-2.08 7.66-5.28l1.64-4.22h-20 .01Zm226.9 0c-1.93 0-2.61-.58-2.24-2.15l3.36-13.18h19.84l2.24-8.64h-19.84l2.25-8.78c.6-2.3 2.23-4.25 5.42-4.25h15.88l2.24-8.65h-23.08c-9.58 0-12.46 1.71-16.18 16.12l-6.85 26.34c-2.1 8.84.52 12.69 7.74 12.69h19.92c3.92 0 6.44-2.08 7.66-5.28l1.63-4.22h-20 .01ZM181.29 8.311h-19.85l-13.83 53.5c-.24.91.3 1.65 1.2 1.65h17.68c22.21 0 25.96-4.25 32.05-27.81 5.29-20.48 2.03-27.34-17.24-27.34h-.01Zm-12.73 45.73h-4.07l9.59-37.07c1.23 0 1.69-.05 4.75-.05 8.61 0 8.6 2.85 4.49 18.73-4.15 16.07-6.56 18.39-14.75 18.39h-.01Zm290.51-45.84c-11.44 0-16.76.25-19.88.11l-13.84 53.5c-.24.91.3 1.65 1.19 1.65h13.27l12.02-46.49c1.22 0 3.08-.11 4.97-.11 6.45 0 7.3 2.29 5.6 8.86l-9.33 36.08c-.24.91.3 1.65 1.19 1.65h13.27l9.76-37.73c3.38-13.07-2.36-17.53-18.22-17.53v.01Zm-114.91.11-2.29 8.96h14.74c.15 0 .15.18.02.28-2.36 1.77-3.79 4.3-4.48 6.94l-9.67 37.31c-.24.91.3 1.65 1.2 1.65h14.24l11.97-46.18h7.3c4.09 0 6.59-1.72 7.97-5.3l1.39-3.67h-42.39v.01Zm-206.57 55.14 13.84-53.49c.24-.92-.3-1.66-1.19-1.66h-14.03l-13.84 53.5c-.24.91.3 1.65 1.19 1.65h14.03Zm271.76-55.9c-16.7 0-23.94 2.97-30.51 28.34-5.68 21.98-1.13 28.33 15.86 28.33s24.1-3.55 30.5-28.33c4.64-17.94 3.7-28.34-15.85-28.34Zm-12.26 47.41c-6.37 0-7.31-2.32-2.87-19.52 3.7-14.3 7.23-19.29 12.91-19.29 6.36 0 7.06 3.42 2.96 19.29-4.06 15.72-8.07 19.52-13 19.52Z"/><path fill="#E1251B" d="m11.93 36.301 8.64-30.3c.83-3.12 4.28-5.96 7.76-5.96h26.42c.44 0 .58.58.24.81-13.74 9.4-30.3 23.35-42.31 35.84-.31.33-.87.06-.75-.39Z"/><path fill="#231916" d="m32.8 54.481 8.55-29.9a.447.447 0 0 0-.73-.47c-12.58 10.82-27.75 26.63-37.25 38.58-.24.31-.12.76.3.76h37c15.6 0 24.14-4.83 27.24-16.38 2.52-9.41-2.41-15.83-10.28-17.48-.14-.03-.27-.3 0-.34 6.66-1.14 13.37-3.82 15.77-13.53C75.99 5.211 67.96-.549 58.71.041l-14.14 49.52c-.76 2.68-3.63 4.93-6.35 4.93h-5.43l.01-.01Zm80.4-13.14c-.49-1.64-1.03-2.84-1.81-3.82-.1-.13-.13-.3.06-.35 6.34-1.96 10.49-5.96 12.24-12.74 2.32-8.97-3.34-16.12-17.62-16.12H84.84L71 61.811c-.23.91.3 1.65 1.19 1.65h13.27l12.02-46.49c1.29 0 2.51-.05 5.57-.05 5.11 0 7 3.16 5.9 7.41-1.45 5.61-5.8 8.76-10.97 8.76h-1.95l5.52 26.69c.65 2.6 1.96 3.67 4.95 3.67h11.85l-5.15-22.11Zm180.57 3.43c-5.62 13.43 1.71 19.52 16.62 19.52 13.62 0 21.18-3.24 24.42-15.76 1.11-4.28.39-8.9-2.23-11.75-5.1-5.54-14.89-6.57-18.33-9.78-1.76-1.63-1.74-3.92-1.23-5.88.93-3.61 3.36-5.58 7.28-5.58 6.16 0 6.31 3.79 4.8 8.28h13.21c3.1-9.38-.96-16.74-16.51-16.74-13.09 0-20.15 5.14-22.69 14.98-.7 2.7-.44 7.1 1.17 9.86 3.59 6.16 13.11 6.92 18.39 10.59 2.29 1.59 2.36 3.74 1.75 6.1-1.19 4.59-3.49 6.78-8.08 6.78s-7.07-2.57-4.54-10.62h-14.03Z"/><g fill="#F5A800"><path d="M294.27 180.441c2.06 2.5 5.4 6.55 12.59 8.6 3.53 1.03 7.13 1.35 10.53 1.35 2.5 0 11.62 0 17.34-5.84 2.06-2.12 4.05-5.46 4.05-10.21 0-11.24-10.02-13.04-20.1-14.77-3.92-.71-6.23-1.29-6.23-3.47 0-2.31 2.7-2.96 5.14-2.96 2.31 0 5.78.39 8.41 1.67 1.99 1.03 2.76 2.05 3.47 2.95l8.99-7.51c-1.61-1.67-3.28-3.47-6.68-5.14-3.72-1.86-8.48-2.89-13.68-2.89-8.16 0-15.8 2.63-18.75 9.31-.84 1.8-1.28 3.85-1.28 5.84 0 9.57 8.15 12.14 12.33 13.23 1.86.45 10.21 1.93 11.82 2.5 2.5.83 2.5 2.5 2.5 2.83 0 3.27-5.65 3.4-6.81 3.4-2.18 0-4.5-.39-6.36-1.03-3.92-1.29-5.01-2.95-6.29-4.95l-10.98 7.07-.01.02Zm70.84-38.4c-16.38 0-24.4 11.43-24.4 24.4 0 10.34 5.59 24.08 24.14 24.08s24.53-13.1 24.53-24.6c0-10.79-6.36-23.89-24.27-23.89v.01Zm0 11.43c1.28 0 6.81.19 8.99 6.49.64 1.8.84 3.79.84 5.97 0 8.54-4.05 13.1-9.83 13.1-6.81 0-10.02-4.75-10.02-12.65 0-9.38 4.88-12.91 10.02-12.91ZM392.39 189.051h31.85v-11.43h-17.53v-33.91h-14.32v45.34zM426.59 189.051H442l1.99-6.29h15.8l1.99 6.29h15.41l-16.95-45.34h-16.31l-17.34 45.34Zm30.25-16.44h-9.76l4.94-15.99 4.82 15.99Zm22.19 16.44h14.39v-15.99h4.24l8.8 15.99h15.93l-11.05-18.31c2.12-.83 4.05-1.54 5.84-3.47 3.28-3.34 3.47-7.36 3.47-9.08 0-4.34-1.8-10.5-7.83-13.07-2.76-1.15-6.87-1.41-11.18-1.41h-22.61v45.34Zm20.29-35.84c2.51 0 7 .13 7 5.3s-4.56 5.23-6.93 5.23h-5.97v-10.53h5.91-.01Z"/></g><g fill="#0F206C"><path d="m320.47 89.421-3.68 13.84c-2.35 8.89-2.79 10.61-4.44 19.5-1.33-9.71-1.84-12.06-6.67-33.33h-11.17l11.36 44.82h11.55l4.32-15.11c2.54-8.57 2.67-9.02 3.81-14.54 1.33 6.28 1.46 6.6 3.87 14.86 1.46 4.89 2.79 9.84 4.19 14.79h11.55l11.37-44.82h-11.11c-.95 4.51-1.97 9.08-2.92 13.65-2.03 9.14-2.35 10.67-3.68 19.55-1.4-8.7-1.84-10.09-4.32-18.73-1.46-4.83-2.79-9.65-4.13-14.48h-9.9Zm71.52 41.39c4.95-4 8.5-10.99 8.5-18.73 0-3.05-.89-17.97-14.6-22.73-2.73-.95-5.52-1.33-8.19-1.33-14.41 0-22.09 11.49-22.09 23.62 0 12.95 8.06 23.87 22.29 23.87 4.63 0 9.71-1.08 14.09-4.7Zm-2.73-17.97c-.32 9.4-6.03 13.21-11.36 13.21-5.33 0-11.24-3.93-11.24-14.6 0-8.13 4.32-14.09 11.11-14.09 3.05 0 5.97 1.27 7.87 3.3 2.54 2.73 3.81 7.49 3.62 12.19v-.01Zm15.79 21.4h11.24v-16h7.05l8.89 16h12.38l-10.35-17.9c3.05-1.14 9.21-3.37 9.21-12.38 0-4.06-1.46-7.62-3.56-9.97-4.13-4.44-9.97-4.51-14.67-4.57h-20.19v44.82Zm20.76-36.44c2.35.06 6.48.25 6.48 5.97s-5.14 6.1-6.73 6.16h-9.27v-12.13h9.52ZM450.28 134.241h28.7v-9.46h-17.53v-35.36h-11.17v44.82zM482.2 134.241h17.65c4.7-.06 17.2-.32 21.33-14.16.57-1.9 1.14-4.76 1.14-8.63 0-6.28-1.78-12.57-6.41-16.76-5.71-5.08-13.97-5.21-19.42-5.27h-14.28v44.82h-.01Zm15.81-35.36c3.43 0 7.75-.06 10.79 4 2.03 2.79 2.35 5.91 2.35 9.01 0 12.89-8.25 13.21-14.22 13.33h-3.43v-26.35h4.51v.01Z"/></g><g fill="#0F206C"><path d="M322.91 220.611c-1 1.57-1.95 3.1-4.09 4.59-1.15.8-3.79 2.37-7.54 2.37-7.16 0-12.93-5.2-12.93-14.35 0-8 5.43-14.31 13.09-14.31 3.1 0 5.85 1.07 7.88 2.68 1.88 1.49 2.75 2.98 3.52 4.32l-5.36 2.68c-.38-.88-.84-1.8-2.03-2.79-1.3-1.03-2.6-1.34-3.71-1.34-4.36 0-6.66 4.06-6.66 8.57 0 5.93 3.02 8.88 6.66 8.88s4.94-2.45 5.85-4.02l5.32 2.72ZM348.47 199.761v27.01h-6.77v-11.52h-9.87v11.52h-6.81v-27.01h6.81v9.76h9.87v-9.76zM368.13 199.761l9.95 27.01h-7.19l-1.34-4.32h-9.95l-1.34 4.32h-7.19l10.02-27.01h7.04Zm-3.64 6.43c-.34 1.38-.73 2.79-1.11 4.17-.57 2.03-1.61 5.2-2.22 7.23h6.85l-3.52-11.4ZM380.6 199.721h6.73v21.35h10.56v5.7H380.6v-27.05zM400.76 199.721h6.73v21.35h10.56v5.7h-17.29v-27.05zM421.11 199.761h19.97v5.24h-13.24v4.9h12.36v5.13h-12.36v6.43h14.43v5.32h-21.16v-27.01zM445.79 199.761h6.62l5.85 9.95c2.14 3.79 2.79 5.01 4.06 7.38l-.31-17.33h6.47v27.01h-6.62l-5.05-8.53c-2.45-4.02-2.91-4.86-4.74-8.46l.19 16.99h-6.47v-27.01Zm46.02 24.49c-1.11 1.03-3.41 3.14-7.96 3.14-7.54 0-12.17-6.12-12.17-14.08 0-8.69 5.62-14.46 13.31-14.46 7.16 0 10.64 4.59 11.9 6.24l-5.13 3.1c-.96-1.45-2.53-3.83-6.28-3.83-5.13 0-7.08 4.25-7.08 8.76 0 3.06.84 5.55 2.14 6.89 1.03 1.11 2.87 1.95 4.94 1.95 1.23 0 2.6-.31 3.71-1.03 1.76-1.15 1.99-2.6 2.18-4.02h-6.05v-5.13h11.75v15h-5.28v-2.53h.02ZM500.69 199.761h19.97v5.24h-13.24v4.9h12.36v5.13h-12.36v6.43h14.43v5.32h-21.16v-27.01z"/></g><path fill="#0F206C" d="M287.66 226.771c-.02-78.52-63.68-142.18-142.2-142.18-78.52 0-142.19 63.66-142.21 142.18h284.41Z"/><g fill="#F5A800"><path d="M104.85 99.761c1.52 2.99 2.67 6.15 4.11 9.09 1.53 5.42 4.11 10.71 6.52 16.23.34.82.46 1.86.83 2.71 1.9 4.31 4.28 8.74 6.06 13.08 2.1 5.07 4.22 10.54 6.21 15.79.32.84.55 2.04.78 3.08l-1.38 10.05c0 .67.46 1.12.46 1.68 0 .56-.47.84-.69 1.22.2.16.43.61.83 1.03 1.6-.75.7-2.8 1.29-4.27.52-.02.93-.23 1.5-.45.05 1.67.05 3.48.05 7.09 0 1.8.46 3.83.68 6.82-.51.27-1.02.28-1.37.2 2.08 1.23 1.72 4.27 2.28 5.98l.37.19c.15-.19.35 0 .35-.56s-.46-4.95-.65-7.74c3.97.22 1.18-4.83 1.91-7.02 1.32 2.17 3.07 5.35 4.77 7.94.32.48.82.41 1.21.63l.37-.37c-2.21-4.41-4.05-9.92-5.22-14.51l9.93 15.55c1.63-2.27 2.48-5.24 3.9-7.89 0 0 .34 0 .34.56s-2.3 5.07-2.3 5.64c0 .57.6 1.07.83 1.77.2.65.2 1.59.38 2.49.06.28.37.62.75 1.03.15-.19.46-.22.83-.19-.18-2.57.9-5.59 2.41-7.92.09.33-.14.56-.14 1.12s.47 1.98.52 2.04c.17-1.05.17-2.38.18-3.79.51-.27.97-.27 1.53-.49.53 1.88.69 3.73 1.27 5.48.29.9 1.28 1.97 2.29 2.68.19.94.65 1.84.78 2.65.11-.39.33-.9.33-1.47s-.69-.68-.69-1.24c0-.56.23-.56.34-.79.12.23.01.56.42.59.15-.59-.3-3.03-.85-4.42.17-.82.17-2.85-.57-3.34v-3.08c1.97.96 1.74 3.32 3.28 4.95.14-.39-.1-1.02-.05-1.79.57.22.75.43 1.33.43.58 0 3.26-2.68 5.22-4.05.06 1 .29 4.91-.17 7.56-.2 1.19-.69 3.03-.69 3.59s.69 1.69.69 2.26c0 .57-.46 3.27-.46 3.83 0 .45.6-.08.23 1.32l.36.37c.14-.19.68-.23.84-.2.19-.62.18-1.37.18-1.94 0-.57.69-2.95.92-4.29 0-.22.48-.5.61-.71.2-.99-.08-1.63.77-2.22-.2-.14-.46-.22-.41-.54.57.22 1.04.9 1.67 1.34 0 0 .57.22.57-.34s-.46-3.16-.46-3.72.03-3.32.29-4.87c.17-1.16.49-2.27.78-3.39.4-1.49.1-3.41 1.63-4.58.07 3.03-.16 12.05-.16 12.62 0 1.13-.95 1.61-.5 3.86.16-.03.52-.42.65-.62.31-3.36.77-6.96.91-10.36.09-.24.54-.32.54-.88s-.46-.56-.46-1.13c0-.57.69.11.69-.45s-.46-.11-.46-.68c0-.57.48-.28.61-.48.08-1.33.03-2.8.61-4.07.37-.82 1.52-1.5 2.26-2.23 7.27-7.13 14.65-14.54 22.12-21.87 1.23-1.21 3.11-2.12 4.55-3.31 1.55-1.27 3.21-2.84 4.97-4.43-2.96 5.11-6.15 10.72-9.48 15.63-4.17 6.17-7.41 12.65-11.03 18.71-1.41 2.37-3.35 4.63-4.21 7.28-1.38 4.2-5.02 7.01-7.94 8.02-.86.28-1.55 1.24-1.99 2.1.28.77 1.86 1.03 2.95 1.04.04.31.27.31.27.87s-.69.68-.69 1.24c0 .56.92 1.47.92 2.03 0 .56-.25 1.19-.69 1.79.2.16-.11.12.46.12.69 0 1.27-.88 1.47-1.49.22-.08.63-.51 1-.75-.23 1.75-1.09 1.4-1.09 3.03 0 1.3 1.03 1.92 1.95 1.92 1.78 0 3.16-6.77 3.17-7.15.67-.49.93-1.18 1.73-1.38-.89 3.05-2.72 8.54-2.72 9.1 0 .56.22 1.32.37 1.92.35-.42.78-.51.93-1.05.83-3.04 2.73-12.26 5.02-12.26.57 0 .31.26.46.45.15-.19.11-.9.69-.9s.08.26.22.45c1.58-2.6 4.72-3.11 7.08-4.58.92-.56 2.4-1.19 3.69-1.81 6.44-3.1 13.01-6.53 19.13-10.23 4.25-2.57 8.54-5.75 13.04-8.34 5.75-3.3 12.9-5.27 18.99-9.05-9.48 10.97-21.98 22.7-33.56 33.67-.14.14-.78.29-1.15.6-2.79 2.34-5.08 4.68-7.9 7.07-2.88 2.42-5.54 5.35-9.18 5.35-.29 0-.58.28-.58.85s.43.93.69 1.27c-1 .3-1.98.13-2.84.36-.75.2-1.39.58-2.05.89-.26.11-.39.52-.43 1.05-.77.03-1.57.26-2.15.26-.58 0-1.84-.45-2.41-.45-.57 0-.72.42-1.15.81.22.38.68 1.05.88 1.39.88.29 2.11.51 2.69.51.58 0 3.43-.9 5.83-1.1-.05 1.39-1.9 2.05-2.5 3.26 0 .2.2.57.37.77 1.54-.67 3.12-1.55 4.88-2.91-1.03 2.06-2.89 3.44-4.56 5.03.4.14.86.37 1.25.58l.38-.39c-.01-.18-.36-.06-.69-.12.23-.56 1.03-.85 1.45-.79.89-.5 1.98-1.86 2.55-1.86.57 0-.11.45.46.45 1.24 0 3.98-5.02 4.35-5.56.89-.3 2.22-.98 2.8-.94h1l-.46.55c.42.8.75 2.35 2.18 2.35 1.35 0 .52-1.46 1.49-2.37-.2-.15-.58.11-.9.06.23-.56.64-1.55 1.22-1.69 16.2-4.31 32.94-9.42 49.56-11.48-3.06 1.23-5.01 2.18-7.74 4.11-1 .12-3.09.79-4.27 1.35-.6.28-1.66.38-2.35.38-.29 0-.64.44-1.1.67-.43.2-1.14.16-1.59.44-.23.17-.41.5-.35.88.72-.24 1.17-.69 1.9-.92l.8.35c-1.24.32-2.87 1.22-3.45 1.22-.58 0-.19-.26-.35-.45-1.3 1.1-3.14 1.78-4.55 2.92-.27 0 .11-.41.31-.55-.29-.14-1.09.31-1.48.1-.17.19-.25.68-.52.67-.27-.25.04-.22-.53-.22-.57 0-2.36 1.12-3.68 1.68.61.13 1.72.12 2.29.19-.26.35-.68.72-.8.94-.11-.22-.08-.37-.24-.56-.53.35-.77.9-.87 1.12-.34-.25-.49.23-1.07.23-.58 0-.88-.48-1.03-.68-.29.44-.52.94-1.5.33.49-.21 1.4.13.88-.78-.5.22-1.19.68-1.8.82l.69.42c-.26.31-.23.69-.28 1.23 0 0-.37-.01-.54-.21-.39.22-.67.68-1.21.65-.03-.3.23-.39.43-.53-.2-.15-.11-.11-.69-.11s-2.18 1.58-2.76 1.58c-.58 0-1.15-.34-1.03-.56.11.45.11.9.07 1.44l-1.1-.29.7-.65c-.79.28-1.62.29-1.62.85s.19.37.46.68c-.26.3-.23.34-.8.34-.57 0-.58-.45-1.15-.45s-1.31.65-1.91 1.08c-.04.19.19.61.16.92-.31.03-.43.48-1 .48-.57 0 0-.45-.58-.45s.23.45-.34.45c-.57 0-.08-.26-.28-.46-.18 0-.07.35-.11.65-.54.03-1.14 0-1.53.42-.05.2-.05.66-.14.9-.15.23-.02.29-.59.29s-.8-.45-1.17-.51c.23.34.69.57.92 1.13-.33.05-.67.28-1.25.28s-.35-.45-.92-.45c-.57 0-.57.23-1.15.23-.32 0-.37.47-.38 1.32-.31.04-.39-.22-.59-.43h-.59c-.18.4-.63.91-1.2.91s-4.62-1.38-6.91-1.75c-1.69-.28-3.9-.51-5.82-.77-.03-.53-.02-.99.21-2.52-.2-.18-.43-.18-.58-.37-.72.81-.72 1.85-.83 2.66-.71.32-3.37-.85-2.99.9-.78.04-2.04-.18-2.62-.18-.89 0-4.25 1.07-4.25 2.26 0 1.19.65.98.97 1.88.69 1.92 3.84.23 4.68 1.73.13-.19.62-.21 1.02-.33-.83-.13-2.53-1.25-3.1-1.25-.57 0-.46.45-.73.44-.5-.48-.71-.91-1.43-1.4v-.81c1.22-.26 2.97-.71 3.54-.71 1.32 0 1.91.99 4.63.68l.76.83c-.33.06-.65.03-.79-.16-.61.64-.81 1.49-1.05 2.32.41.17.67.67 1.08.76 4.94 1.24 11.04 2.03 16.18 2.66-.77.34-1.66.78-2.31 1.19.01.17.46.57.63.97 3.11-1.1 3.92-2.04 6.39-2.04.57 0 2.53-.45 3.1-.45l24.02 2.71c.58 0 3.23.68 4.84.82 5.03.51 10.34.76 15.4.99l27.38 2.55c-1.28-.1-11.65.38-12.22.38-.57 0-.46.45-1.04.45-.58 0-1.76-.23-2.43-.45l-31.7 1.12h-13.52c-.19.2-.39.34-.45.67-.81-.46-2.01-.66-2.58-.66-.57 0-.92.28-1.38.28-.23 0-.69.17-9.17-.06 0 0 .06.23-.51.23h-26.86l-14.6.56-16.65-.34c-.9.22-2.08.4-3.22.45-7.35.37-11.04.45-11.61.45-.57 0-14.36-.45-14.94-.45-.58 0-1.23-.45-1.95-.45-6.24.2-14.91-1.6-17.82.35.2.14.63.11 1.15.47-.34.09-.72.28-.99.53-.27 0-.5-.22-5.79 0-6.44-.68-11.03-1.13-15.7-1.16v-.85c3.71.49.8.17 7.89.49 1.21.03 2.32.4 3.45.62 3.44 0 3.67-.23 3.92-.22.48.23.87.42 1.36.45 2.99.17 3.86-.22 4.48-.36-.2-.12-.58-.31-.81-.31-13.33-.22-15.98-.7-23.45-1.13-.54-.03-1.62-.48-2.41.11 1.61.98 2.82.18 5.03.38.03.3.26.53.23.83-1.69.03-3.53.03-8.36.03-.95 0-2.1-.23-3.1-.53.26-.34.11-.59.68-.59.57 0 .34.45.92.45 1.15 0-.63-.45 3.98-.22l.39-.35s-.18-.13-.37-.28c-.87.17-7.8.79-10.79.57l-14.01-.11-19.88.68c-.57 0-1.72-.65-2.41-.65-6.52.11-24.62-.08-30.11-.08-.57 0-4.62-.45-6.78-1.01 1.46-.56 21.52-2.1 22.9-2.33l25.24-2.07h3c1.38 0 2.94-.7 4.58-.9 5-.68 9.89-.9 12.53-1.13l13.92-2.48c1.4.23 3.68.9 4.25.9.57 0 .82-1.12 1.22-1.29 1.29-.54 3.84-.74 4.41-.74.57 0 .92.45 1.49.45l.48-.18c-.02-.15.2-.15.2-.72 0-1.16-2.47-1.13-2.72-1.16-.21-2.86 2.76-.88 3.75-3.35 0 0 .09.26.22.45 0 0 .13-.11.19-.43 0 0-.06.21.52.21.58 0 1.51-.85 1.95-1.48-.22-.63-1.14-.85-1.27-1.45 0 0-.11.11-.18.44-.36-.25-.27-.44-.85-.44s-.23.45-.8.45c-.57 0-.11-.45-.69-.45s-1.07.64-1.63 1.13c-.32-.51-.92-.45-1.37-.56-.55-.85-1.69-1.77-2.56-2.96-1.64-2.17-3.05-4.43-4.4-6.61.84.68 2.01 1.35 2.9 2.09.77.65 4.78 4.65 5.67 4.65.63 0 1.72-.51 1.72-1.13 0-.56-1.37-1.64-1.82-2.66 3.1.41 5.16 1.08 7.18 1.31l.4-.4c-.01-.17.03-.31-.18-.47-2.98-1.18-5.74-2.76-8.56-4.25 3.11.37 8.84 1.05 9.42 1.05 1.41 0 1.38-1.18 1.38-1.47 0-.56.05-.59-.16-.74-1.58-.28-3.46-.47-5.04-.81-3.45-.76-7.15-1.52-10.8-2.25-3.33-.68-4.8-4.15-7.04-6.49-2.41-2.51-4.66-5.99-6.9-9.03-4.17-5.69-8.39-11.36-12.27-17-2.79-4.06-4.68-8.88-7.73-13.22-2.18-3.1-6.47-7.85-8.63-11.88 2.91 2.26 5.92 4 8.42 6.15 6.92 5.98 13.39 13.25 20.28 19.34 7.76 6.85 15.63 11.47 22.84 18.27 1.35 1.27 1.29 3.96 2.01 5.68 1.03 2.51 4.78 11.65 6.39 11.65.57 0 .57-.45.85-.44.27.25.49.69.93 1.05.21.08-.06.07.52.07.58 0 .69-.45 1.26-.45.57 0 .77.48 1.15.9.15-.19.34.11.34-.45s-1.25-2.25-1.99-3.44c-.37-.62-.46-1.63-.83-2.25-.75-1.16-2.23-2.77-2.23-3.33s.46 0 .46-.56-.9-1.52-1.34-2.22v-.81l13.86 9.01.36-.35c-.89-.81-2.24-1.7-3.42-2.42v-1.04c.55-.03 1.06.21 1.45.42l.36-.36c-.67-.82-1.8-1.7-2.94-2.68-.22-.13-.27-.64-.34-.84-1.73-1.33-3.8-2.91-5.44-4.39.89-.04 1.09.31 1.48.61l.35-.34c-4.09-3.07-8.58-6.6-13.01-10.74-.66-.62-1.01-2.13-1.32-2.97-.78-2.03-1.75-3.94-2.84-6.08-.52-1.01-.87-2.55-1.3-3.85-.69-2.06-1.84-4.28-2.61-6.54-.89-2.65-1.41-5.32-2.53-8.11-.32-.82-.18-1.85-.38-2.72-.23-.93-.92-1.94-1.24-3.15-.57-2.17-.97-4.73-1.52-6.91.74 2.06 4.43 5.16 5.95 7.5 2.59 3.92 5.29 8.06 7.82 12.18 3.39 5.58 8.64 11.83 13.1 18.03 3.76 5.24 7.33 11 10.72 16.47.43.71 1.75.98 2.38 1.4.07.17.45.93 1.08 1.27-.05-.13-.51-.54-.68-1-.06-.23.4-.03.4-.6s-.46-.79-.39-1.34c2.5 1.82 4.59 5.32 6.66 7.43v-.36c-1.65-3.08-3.48-6.22-5.81-9.46.26-.3.49-.75.8-1.01 1.23 1.16 2.6 2.28 3.93 3.46-.17 1.07 2.67 3.2 3.2 3.76.15-.19.18-.67.58-.82-3.89-5.91-9.62-11.43-11.79-17.32v-1.25c.74.72 1.4 1.6 2.24 2.25.16-.19.39-.42.58-.58-.22-.38-.63-.78-1.3-1.13-.08-.64-.37-1.15-.83-1.71-.46-.57-1.39-.93-1.71-1.6-.8-1.78-1.44-3.85-1.98-5.64-.14-.21-.36-.2-.55-.45-.3-1.38-.44-3.01-.84-4.53-.52-1.89-1.21-3.64-1.14-5.38 0 0 0-.17-.27-.13-.57-2.61-1.72-7.82-1.72-8.38 0-.56-1.84-8.23-1.84-8.79 0-.56.26-.42.38-.6v-1.21c-.19.2-.15.57-.26.91-1.44-7.45-1.27-4.17-1.27-9.02 0-1.04-.82-2-1.15-2.59.24-.51.46-.91.46-1.47 0-.56-.17-.69-.61-.95-.08-.73.18-1.65.07-2.3-1.01-5.64-1.98-11.72-3.28-18.62l-.03-.05Z"/><path d="M76.84 225.671v.29s-.44-.1 0-.29Zm39.25-2.2c-.77.35-1.72.13-2.64.02.69-.11 1.61-.11 2.64-.02ZM110.74 223.161l1.91.33-1.91.29v-.62zM71.05 222.081l2.52.28c-.34.11-.69.33-1.26.33-.57 0-1-.26-1.25-.61h-.01Zm-12.61-.01h.88c-.26.36-.91.29-.88 0Zm4.44-.95c.23 0 .31.64 0 .9-.31-.26-.23-.9 0-.9Zm218.47-5.03h-1.13c.25-.35.88-.35 1.13 0Zm-31.6-.27h-1.61c.46-.11 1.15-.11 1.61 0Zm-52.74-7.7c1.28.15 2.66.6 3.9.94-1.26.1-2.68-.36-3.9-.94Zm6.92-.48h.88c-.26.36-.91.28-.88 0Zm-117.91-.95c1.12 0 1.44.92 1.84 1.46 0 0-.23.24-.26.54-.77.03-.45-.42-1.03-.42h-2.68c-.5.69-1.46 1.13-1.89 1.13-.57 0-.79-.29-1.02-.85 2.74-.05 2.14-1.41 2.63-1.41.57 0 0 .45.57.45s1.26-.9 1.84-.9Zm-11.04-2.22h.4c.02.3-.44.3-.4 0Zm17.81-.26s.32 0 .32.56-1.44 1-2.43 1.46c-.29-.26-.52-.48-.78-.75 0-.27.22-.72.28-1.04.6.25 1.65.52 2.61-.24v.01Zm-19.25-.26c-.31.03-.85-.23-1.11-.57.57-.07 1.14.27 1.11.57Zm148.01-2.88s.01.4-.37.63c0 0-.01-.4.37-.63Zm7.83-2.53c-.31.03-.54.26-.84.22v-.86s.87.1.84.63v.01Zm7.34-1.08c.05.32.24.46.51.77-.26.31-.58.11-.66.11l-21.31 9.92c-.29-.26-.67-.22-1.01-.31 6.78-3.76 14.93-8.17 22.47-10.49Zm-179.64-2.26c.57.22 1.29.69 1.78 1.3h-1.07c-.26-.22-.76-.75-.7-1.3h-.01Zm181.68-1.81c.07.33.04.86-.32 1.11-.07-.33-.04-.86.32-1.11Zm11.62-5.85s.37.02.63.32c-.26.31-.69 0-.63-.32Zm4.66-.58c.11.22-.31.53-.57.21 0 0 .46.02.57-.21Zm-222.39-1.24c3.39 1.9 7.12 3.17 10.14 4.66 2.76 1.38 5.74 2.56 8.23 3.74.19-.05.59-.05.89 0 .31.18.82.73.79 1.05h-.97c-.57.02-2.91-1.46-4.43-1.96-4.8-1.63-9.85-3.82-14.74-6.61-.24-.24-.16-.88.1-.88h-.01Zm231.22-.39c-5.96 3.64-12.58 6.64-19.82 9.77-.83.34-2.11.32-3.38.23.52-.35 1.03-.36 1.47-.36l21.73-9.64Zm-230.28-.22h.9c-.26.35-.65.35-.9 0Zm232.1-.94c-.19.38-.53.72-1.1.82.25-.37.71-.59 1.1-.82Z"/><path d="M33.05 183.511c.58-.05 2.19.24 3.28.55 2.82.79 5.49 2.09 8.28 2.93 3.16.93 6.37 2.14 9.65 2.93.43.08 1.12.08 2.16.16-3.03-2.05-7.51-2.59-10.97-3.78-.24-.15-.53-.47-.49-.78 3.53.2 4.79.2 5.36.2.57 0 .52.24.73.37 7.51 1.23 16.23 3.64 23.68 6.46 1 .36 1.54 1.67 2.18 2.46.95 1.21 1.78 2.03 2.43 2.96 0 0 .2-.06.47 0 1.63 1.77 3.02 3.81 4.65 6.16-.52.3-1.15.76-1.72.76-.57 0-.46-.45-.65-.46-.19.2-.22.9-.22.9-1.63-.39-1.71.6-2.65.89-.05-.32-.02-.47-.16-.66-.15.19-.12-.11-.12.45s.69.79.67 1.3c0 0 .02.28-.56.28-.58 0-.5-.23-.79-.36-.02-.66-.47-1.07-.66-1.69-.16.02-.54.21-1.06.7-5.24-2.63-10.91-5.68-14.56-8.08-.54-.37-1.68-.41-2.52-.81-.98-.48-1.97-1.44-3-2.12-1.03-.68-2.4-.73-3.44-1.26-1.49-.79-2.99-1.77-4.59-2.56-.2-.09-.75.05-1.15-.14-2.64-1.47-5.9-3.09-8.72-4.14-2.1-.79-4.37-2.31-6.97-3.61h1.46v-.01Zm186.44-.92c.03.31-.31.42-.65.34 0 0 .34-.37.65-.34Zm50.6-.86c-.25.35-.34.83-.63.82 0 0-.02-.24-.27-.59.33-.07.56-.29.9-.22v-.01Zm1.6-.23c-.25.35-.57.38-.79.27.23-.11.46-.34.79-.27Zm5.87-2.44c-.23.11-1.11.56-1.94.74.25-.36 1.25-.85 1.94-.74Zm-79.47-8.21c.06.32-.52.66-1.09.58 0 0 .52-.35 1.09-.58Zm-173.73 8.8c1.34.23 4.85 1.22 5.17 2.85-.26.27-.45.76-1.03.76-.78 0-5.31-2.91-5.63-3.3l1.49-.31Zm176.2-10.28c.11.22.08.53-.19.78-.27 0-.58-.02-.85-.33.26-.3.92-.23 1.04-.45Zm2.15-1.21c.03.31-.59.86-1.11.55.26-.32.8-.58 1.11-.55Zm-28.48-2.46s-.01.36-.37.61c-.07-.33.05-.67.37-.61Zm21.33-2.07c-.29.93-.52 3.13-1.74 3.56.43-1.25.9-2.39 1.74-3.56Zm1.83-2.03c.07.33.04.86-.27 1.12l-.57-.57c.26-.3.49-.3.85-.55h-.01Zm-22.84-.9c.35.25.35.86 0 1.11v-1.11Zm22.85.45c.14-.41.9-1.52.57-2.47.95.83-.29 2.11-.57 2.47Zm25.1-3.79c-4.95 3.58-11.24 6.12-16.85 9.59h-.83c5.5-4.25 12.05-7.42 17.68-9.59Zm-22.4-2.42c.12.23 0 .56-.33.51 0 0 .21-.28.33-.51Zm-26.26-1.93c.17-1.92.4-2.83.74-4.05.2.39.65 3.08-.74 4.05Zm-71.06-4.9c.32-.05.89.24 1.09.72v.81a2.73 2.73 0 0 1-1.09-1.52v-.01Zm73.92-2.97v1.57c-.37-.51-.35-1.32 0-1.57Zm.45-2.71c.08.79.08 1.5-.28 2.25-.1-.48-.54-1.19.28-2.25Zm.43-3.05c.12.68.11 1.39-.25 2.14-.1-.79.13-1.46.25-2.14Zm68.5 1.94c-.45.81-1.37 1.5-2.15 2.44-.32-.26-.55-.48-.81-.8.96-.76 1.9-1.22 2.96-1.65v.01Zm-95.22-6.32c.37.24.4.78.33 1.1-.35-.25-.33-1.1-.33-1.1Zm27.45-.44v1.32c-.15-.34-.27-1.35 0-1.32Zm.53-1.27c-.26.3-.23.68-.32 1.01 0 0-.37 0-.37-.56s.43-.76.69-.45Zm-53.51-.79c.63.96 1.05 2.27 1.83 3.2 1.32 1.61 2.27 2.69 2.27 4.24 0 .56-.24 1.28-.57 2.03-1.26-2.78-3.57-7.64-3.52-8.2v-1.27h-.01Zm53.71-1.09c.03.31 0 .84-.36 1.09-.07-.33.04-1.12.36-1.09Zm-28.84-.03c.36.51.37 1.24.26 1.69-.11-.45-.34-1.13-.26-1.69Zm27-9.67c.03.3 0 .61-.36.86-.07-.33.05-.89.36-.86Zm-78.21-2.5v.89c-.13-.34-.33-.64 0-.89Zm79-1.83c.16-1.03.39-2.13.48-3.37.65 1.1.15 2.6-.48 3.37Zm1.89-7.77c.11.22 0 .56-.33.51 0 0 .21-.29.33-.51Zm.04-4.16c-.85 4.41-3.37 13.29-3.37 13.86 0 .57.46-.22.46.34 0 .73-1.55 2.46-1.24 4.19-.16.26-.39.72-.55.92-.05 1.77-.54 3.84-.83 5.84-.14 1.1-.29 2.51-.46 3.61-.72 4.28-1.53 8.69-2.76 12.87-.8 2.76-2.21 5.62-2.52 8.32-.43 3.95-4.07 7.96-8.32 9.38-.12.15-.32.19-.32.75s.19.59.58.89c.1.19.11.58.11 1.14 0 1.02-.2 1.8-1.48 2.14-.25 0-.57-.49-.75-.74-.99-4.08-3.06-12.11-3.06-12.68 0-.57.89-2.47 1.06-3.62.58-3.75 2.77-8.83 4.52-12.43 2.99-6.06 7.73-11.69 10.2-17.81 2.27-5.64 6.13-13.01 8.74-16.97h-.01Zm.57-1.79v.54s-.23-.31 0-.54Zm-2.18-2.72c-.45 2.38-1.9 4.67-3.3 6.97.47-2.39 1.64-4.68 3.3-6.97Zm-37.85-1.59c0 .56.23 2.93.23 3.5 0 .57 1.26 8.37 2.35 12.6 1.12 4.31 1.87 9.32 2.07 14 .03 1.13.55 2.48.63 3.6.35 4.06.23 6.66.23 7.22 0 .56 1.84 11.19 1.84 11.75v3.33c0 .56.92 4.99.92 5.55 0 1.92-3.61 12.35-4.95 14.43l-9.67-22.72v-.35c-.06-1.4 0-3.73.72-5.12.56 1.43 1.47 2.99 2.33 4.52 0 0 .12.03.31-.13-1.13-1.96-3.22-5.48-3.22-6.05v-7.95c0-4.03 2.16-8.87 1.67-13.26-.32-2.68.4-6.39.69-9.04.09-.9.63-2.1.63-2.67v-4.33l1.81-8.34c-.2-4.04.03-4.73.1-5.51 2.51 2.31 1.31 2.87 1.31 4.95v.02Z"/></g></g></svg>