%TF.GenerationSoftware,KiCad,Pcbnew,(6.0.1)*%
%TF.CreationDate,2022-05-02T23:55:26+02:00*%
%TF.ProjectId,CMU,434d552e-6b69-4636-9164-5f7063625858,rev?*%
%TF.SameCoordinates,Original*%
%TF.FileFunction,Paste,Top*%
%TF.FilePolarity,Positive*%
%FSLAX46Y46*%
G04 Gerber Fmt 4.6, Leading zero omitted, Abs format (unit mm)*
G04 Created by KiCad (PCBNEW (6.0.1)) date 2022-05-02 23:55:26*
%MOMM*%
%LPD*%
G01*
G04 APERTURE LIST*
%ADD10C,0.010000*%
%ADD11R,3.300000X2.500000*%
%ADD12R,5.250000X4.550000*%
%ADD13R,1.100000X4.600000*%
%ADD14R,1.000000X1.020000*%
%ADD15R,0.400000X0.420000*%
%ADD16R,0.900000X0.500000*%
G04 APERTURE END LIST*
D10*
%TO.C,C40*%
X101350000Y-182350000D02*
X100250000Y-182350000D01*
X100250000Y-182350000D02*
X100250000Y-180650000D01*
X100250000Y-180650000D02*
X97750000Y-180650000D01*
X97750000Y-180650000D02*
X97750000Y-182350000D01*
X97750000Y-182350000D02*
X96650000Y-182350000D01*
X96650000Y-182350000D02*
X96650000Y-183650000D01*
X96650000Y-183650000D02*
X97750000Y-183650000D01*
X97750000Y-183650000D02*
X97750000Y-184650000D01*
X97750000Y-184650000D02*
X100250000Y-184650000D01*
X100250000Y-184650000D02*
X100250000Y-183650000D01*
X100250000Y-183650000D02*
X101350000Y-183650000D01*
X101350000Y-183650000D02*
X101350000Y-182350000D01*
G36*
X100250000Y-182350000D02*
G01*
X101350000Y-182350000D01*
X101350000Y-183650000D01*
X100250000Y-183650000D01*
X100250000Y-184650000D01*
X97750000Y-184650000D01*
X97750000Y-183650000D01*
X96650000Y-183650000D01*
X96650000Y-182350000D01*
X97750000Y-182350000D01*
X97750000Y-180650000D01*
X100250000Y-180650000D01*
X100250000Y-182350000D01*
G37*
X100250000Y-182350000D02*
X101350000Y-182350000D01*
X101350000Y-183650000D01*
X100250000Y-183650000D01*
X100250000Y-184650000D01*
X97750000Y-184650000D01*
X97750000Y-183650000D01*
X96650000Y-183650000D01*
X96650000Y-182350000D01*
X97750000Y-182350000D01*
X97750000Y-180650000D01*
X100250000Y-180650000D01*
X100250000Y-182350000D01*
X101350000Y-189650000D02*
X100250000Y-189650000D01*
X100250000Y-189650000D02*
X100250000Y-191350000D01*
X100250000Y-191350000D02*
X97750000Y-191350000D01*
X97750000Y-191350000D02*
X97750000Y-189650000D01*
X97750000Y-189650000D02*
X96650000Y-189650000D01*
X96650000Y-189650000D02*
X96650000Y-188350000D01*
X96650000Y-188350000D02*
X97750000Y-188350000D01*
X97750000Y-188350000D02*
X97750000Y-187350000D01*
X97750000Y-187350000D02*
X100250000Y-187350000D01*
X100250000Y-187350000D02*
X100250000Y-188350000D01*
X100250000Y-188350000D02*
X101350000Y-188350000D01*
X101350000Y-188350000D02*
X101350000Y-189650000D01*
G36*
X100250000Y-188350000D02*
G01*
X101350000Y-188350000D01*
X101350000Y-189650000D01*
X100250000Y-189650000D01*
X100250000Y-191350000D01*
X97750000Y-191350000D01*
X97750000Y-189650000D01*
X96650000Y-189650000D01*
X96650000Y-188350000D01*
X97750000Y-188350000D01*
X97750000Y-187350000D01*
X100250000Y-187350000D01*
X100250000Y-188350000D01*
G37*
X100250000Y-188350000D02*
X101350000Y-188350000D01*
X101350000Y-189650000D01*
X100250000Y-189650000D01*
X100250000Y-191350000D01*
X97750000Y-191350000D01*
X97750000Y-189650000D01*
X96650000Y-189650000D01*
X96650000Y-188350000D01*
X97750000Y-188350000D01*
X97750000Y-187350000D01*
X100250000Y-187350000D01*
X100250000Y-188350000D01*
%TO.C,C31*%
X162400000Y-43500000D02*
X163500000Y-43500000D01*
X163500000Y-43500000D02*
X163500000Y-41600000D01*
X163500000Y-41600000D02*
X166000000Y-41600000D01*
X166000000Y-41600000D02*
X166000000Y-43500000D01*
X166000000Y-43500000D02*
X167100000Y-43500000D01*
X167100000Y-43500000D02*
X167100000Y-44800000D01*
X167100000Y-44800000D02*
X166000000Y-44800000D01*
X166000000Y-44800000D02*
X166000000Y-46000000D01*
X166000000Y-46000000D02*
X163500000Y-46000000D01*
X163500000Y-46000000D02*
X163500000Y-44800000D01*
X163500000Y-44800000D02*
X162400000Y-44800000D01*
X162400000Y-44800000D02*
X162400000Y-43500000D01*
G36*
X166000000Y-43500000D02*
G01*
X167100000Y-43500000D01*
X167100000Y-44800000D01*
X166000000Y-44800000D01*
X166000000Y-46000000D01*
X163500000Y-46000000D01*
X163500000Y-44800000D01*
X162400000Y-44800000D01*
X162400000Y-43500000D01*
X163500000Y-43500000D01*
X163500000Y-41600000D01*
X166000000Y-41600000D01*
X166000000Y-43500000D01*
G37*
X166000000Y-43500000D02*
X167100000Y-43500000D01*
X167100000Y-44800000D01*
X166000000Y-44800000D01*
X166000000Y-46000000D01*
X163500000Y-46000000D01*
X163500000Y-44800000D01*
X162400000Y-44800000D01*
X162400000Y-43500000D01*
X163500000Y-43500000D01*
X163500000Y-41600000D01*
X166000000Y-41600000D01*
X166000000Y-43500000D01*
X162400000Y-52400000D02*
X163500000Y-52400000D01*
X163500000Y-52400000D02*
X163500000Y-54300000D01*
X163500000Y-54300000D02*
X166000000Y-54300000D01*
X166000000Y-54300000D02*
X166000000Y-52400000D01*
X166000000Y-52400000D02*
X167100000Y-52400000D01*
X167100000Y-52400000D02*
X167100000Y-51100000D01*
X167100000Y-51100000D02*
X166000000Y-51100000D01*
X166000000Y-51100000D02*
X166000000Y-49900000D01*
X166000000Y-49900000D02*
X163500000Y-49900000D01*
X163500000Y-49900000D02*
X163500000Y-51100000D01*
X163500000Y-51100000D02*
X162400000Y-51100000D01*
X162400000Y-51100000D02*
X162400000Y-52400000D01*
G36*
X166000000Y-51100000D02*
G01*
X167100000Y-51100000D01*
X167100000Y-52400000D01*
X166000000Y-52400000D01*
X166000000Y-54300000D01*
X163500000Y-54300000D01*
X163500000Y-52400000D01*
X162400000Y-52400000D01*
X162400000Y-51100000D01*
X163500000Y-51100000D01*
X163500000Y-49900000D01*
X166000000Y-49900000D01*
X166000000Y-51100000D01*
G37*
X166000000Y-51100000D02*
X167100000Y-51100000D01*
X167100000Y-52400000D01*
X166000000Y-52400000D01*
X166000000Y-54300000D01*
X163500000Y-54300000D01*
X163500000Y-52400000D01*
X162400000Y-52400000D01*
X162400000Y-51100000D01*
X163500000Y-51100000D01*
X163500000Y-49900000D01*
X166000000Y-49900000D01*
X166000000Y-51100000D01*
%TO.C,C38*%
X101350000Y-106350000D02*
X100250000Y-106350000D01*
X100250000Y-106350000D02*
X100250000Y-104650000D01*
X100250000Y-104650000D02*
X97750000Y-104650000D01*
X97750000Y-104650000D02*
X97750000Y-106350000D01*
X97750000Y-106350000D02*
X96650000Y-106350000D01*
X96650000Y-106350000D02*
X96650000Y-107650000D01*
X96650000Y-107650000D02*
X97750000Y-107650000D01*
X97750000Y-107650000D02*
X97750000Y-108650000D01*
X97750000Y-108650000D02*
X100250000Y-108650000D01*
X100250000Y-108650000D02*
X100250000Y-107650000D01*
X100250000Y-107650000D02*
X101350000Y-107650000D01*
X101350000Y-107650000D02*
X101350000Y-106350000D01*
G36*
X100250000Y-106350000D02*
G01*
X101350000Y-106350000D01*
X101350000Y-107650000D01*
X100250000Y-107650000D01*
X100250000Y-108650000D01*
X97750000Y-108650000D01*
X97750000Y-107650000D01*
X96650000Y-107650000D01*
X96650000Y-106350000D01*
X97750000Y-106350000D01*
X97750000Y-104650000D01*
X100250000Y-104650000D01*
X100250000Y-106350000D01*
G37*
X100250000Y-106350000D02*
X101350000Y-106350000D01*
X101350000Y-107650000D01*
X100250000Y-107650000D01*
X100250000Y-108650000D01*
X97750000Y-108650000D01*
X97750000Y-107650000D01*
X96650000Y-107650000D01*
X96650000Y-106350000D01*
X97750000Y-106350000D01*
X97750000Y-104650000D01*
X100250000Y-104650000D01*
X100250000Y-106350000D01*
X101350000Y-113650000D02*
X100250000Y-113650000D01*
X100250000Y-113650000D02*
X100250000Y-115350000D01*
X100250000Y-115350000D02*
X97750000Y-115350000D01*
X97750000Y-115350000D02*
X97750000Y-113650000D01*
X97750000Y-113650000D02*
X96650000Y-113650000D01*
X96650000Y-113650000D02*
X96650000Y-112350000D01*
X96650000Y-112350000D02*
X97750000Y-112350000D01*
X97750000Y-112350000D02*
X97750000Y-111350000D01*
X97750000Y-111350000D02*
X100250000Y-111350000D01*
X100250000Y-111350000D02*
X100250000Y-112350000D01*
X100250000Y-112350000D02*
X101350000Y-112350000D01*
X101350000Y-112350000D02*
X101350000Y-113650000D01*
G36*
X100250000Y-112350000D02*
G01*
X101350000Y-112350000D01*
X101350000Y-113650000D01*
X100250000Y-113650000D01*
X100250000Y-115350000D01*
X97750000Y-115350000D01*
X97750000Y-113650000D01*
X96650000Y-113650000D01*
X96650000Y-112350000D01*
X97750000Y-112350000D01*
X97750000Y-111350000D01*
X100250000Y-111350000D01*
X100250000Y-112350000D01*
G37*
X100250000Y-112350000D02*
X101350000Y-112350000D01*
X101350000Y-113650000D01*
X100250000Y-113650000D01*
X100250000Y-115350000D01*
X97750000Y-115350000D01*
X97750000Y-113650000D01*
X96650000Y-113650000D01*
X96650000Y-112350000D01*
X97750000Y-112350000D01*
X97750000Y-111350000D01*
X100250000Y-111350000D01*
X100250000Y-112350000D01*
%TO.C,C39*%
X101350000Y-151650000D02*
X100250000Y-151650000D01*
X100250000Y-151650000D02*
X100250000Y-153350000D01*
X100250000Y-153350000D02*
X97750000Y-153350000D01*
X97750000Y-153350000D02*
X97750000Y-151650000D01*
X97750000Y-151650000D02*
X96650000Y-151650000D01*
X96650000Y-151650000D02*
X96650000Y-150350000D01*
X96650000Y-150350000D02*
X97750000Y-150350000D01*
X97750000Y-150350000D02*
X97750000Y-149350000D01*
X97750000Y-149350000D02*
X100250000Y-149350000D01*
X100250000Y-149350000D02*
X100250000Y-150350000D01*
X100250000Y-150350000D02*
X101350000Y-150350000D01*
X101350000Y-150350000D02*
X101350000Y-151650000D01*
G36*
X100250000Y-150350000D02*
G01*
X101350000Y-150350000D01*
X101350000Y-151650000D01*
X100250000Y-151650000D01*
X100250000Y-153350000D01*
X97750000Y-153350000D01*
X97750000Y-151650000D01*
X96650000Y-151650000D01*
X96650000Y-150350000D01*
X97750000Y-150350000D01*
X97750000Y-149350000D01*
X100250000Y-149350000D01*
X100250000Y-150350000D01*
G37*
X100250000Y-150350000D02*
X101350000Y-150350000D01*
X101350000Y-151650000D01*
X100250000Y-151650000D01*
X100250000Y-153350000D01*
X97750000Y-153350000D01*
X97750000Y-151650000D01*
X96650000Y-151650000D01*
X96650000Y-150350000D01*
X97750000Y-150350000D01*
X97750000Y-149350000D01*
X100250000Y-149350000D01*
X100250000Y-150350000D01*
X101350000Y-144350000D02*
X100250000Y-144350000D01*
X100250000Y-144350000D02*
X100250000Y-142650000D01*
X100250000Y-142650000D02*
X97750000Y-142650000D01*
X97750000Y-142650000D02*
X97750000Y-144350000D01*
X97750000Y-144350000D02*
X96650000Y-144350000D01*
X96650000Y-144350000D02*
X96650000Y-145650000D01*
X96650000Y-145650000D02*
X97750000Y-145650000D01*
X97750000Y-145650000D02*
X97750000Y-146650000D01*
X97750000Y-146650000D02*
X100250000Y-146650000D01*
X100250000Y-146650000D02*
X100250000Y-145650000D01*
X100250000Y-145650000D02*
X101350000Y-145650000D01*
X101350000Y-145650000D02*
X101350000Y-144350000D01*
G36*
X100250000Y-144350000D02*
G01*
X101350000Y-144350000D01*
X101350000Y-145650000D01*
X100250000Y-145650000D01*
X100250000Y-146650000D01*
X97750000Y-146650000D01*
X97750000Y-145650000D01*
X96650000Y-145650000D01*
X96650000Y-144350000D01*
X97750000Y-144350000D01*
X97750000Y-142650000D01*
X100250000Y-142650000D01*
X100250000Y-144350000D01*
G37*
X100250000Y-144350000D02*
X101350000Y-144350000D01*
X101350000Y-145650000D01*
X100250000Y-145650000D01*
X100250000Y-146650000D01*
X97750000Y-146650000D01*
X97750000Y-145650000D01*
X96650000Y-145650000D01*
X96650000Y-144350000D01*
X97750000Y-144350000D01*
X97750000Y-142650000D01*
X100250000Y-142650000D01*
X100250000Y-144350000D01*
%TO.C,C32*%
X162400000Y-81500000D02*
X163500000Y-81500000D01*
X163500000Y-81500000D02*
X163500000Y-79600000D01*
X163500000Y-79600000D02*
X166000000Y-79600000D01*
X166000000Y-79600000D02*
X166000000Y-81500000D01*
X166000000Y-81500000D02*
X167100000Y-81500000D01*
X167100000Y-81500000D02*
X167100000Y-82800000D01*
X167100000Y-82800000D02*
X166000000Y-82800000D01*
X166000000Y-82800000D02*
X166000000Y-84000000D01*
X166000000Y-84000000D02*
X163500000Y-84000000D01*
X163500000Y-84000000D02*
X163500000Y-82800000D01*
X163500000Y-82800000D02*
X162400000Y-82800000D01*
X162400000Y-82800000D02*
X162400000Y-81500000D01*
G36*
X166000000Y-81500000D02*
G01*
X167100000Y-81500000D01*
X167100000Y-82800000D01*
X166000000Y-82800000D01*
X166000000Y-84000000D01*
X163500000Y-84000000D01*
X163500000Y-82800000D01*
X162400000Y-82800000D01*
X162400000Y-81500000D01*
X163500000Y-81500000D01*
X163500000Y-79600000D01*
X166000000Y-79600000D01*
X166000000Y-81500000D01*
G37*
X166000000Y-81500000D02*
X167100000Y-81500000D01*
X167100000Y-82800000D01*
X166000000Y-82800000D01*
X166000000Y-84000000D01*
X163500000Y-84000000D01*
X163500000Y-82800000D01*
X162400000Y-82800000D01*
X162400000Y-81500000D01*
X163500000Y-81500000D01*
X163500000Y-79600000D01*
X166000000Y-79600000D01*
X166000000Y-81500000D01*
X162400000Y-90400000D02*
X163500000Y-90400000D01*
X163500000Y-90400000D02*
X163500000Y-92300000D01*
X163500000Y-92300000D02*
X166000000Y-92300000D01*
X166000000Y-92300000D02*
X166000000Y-90400000D01*
X166000000Y-90400000D02*
X167100000Y-90400000D01*
X167100000Y-90400000D02*
X167100000Y-89100000D01*
X167100000Y-89100000D02*
X166000000Y-89100000D01*
X166000000Y-89100000D02*
X166000000Y-87900000D01*
X166000000Y-87900000D02*
X163500000Y-87900000D01*
X163500000Y-87900000D02*
X163500000Y-89100000D01*
X163500000Y-89100000D02*
X162400000Y-89100000D01*
X162400000Y-89100000D02*
X162400000Y-90400000D01*
G36*
X166000000Y-89100000D02*
G01*
X167100000Y-89100000D01*
X167100000Y-90400000D01*
X166000000Y-90400000D01*
X166000000Y-92300000D01*
X163500000Y-92300000D01*
X163500000Y-90400000D01*
X162400000Y-90400000D01*
X162400000Y-89100000D01*
X163500000Y-89100000D01*
X163500000Y-87900000D01*
X166000000Y-87900000D01*
X166000000Y-89100000D01*
G37*
X166000000Y-89100000D02*
X167100000Y-89100000D01*
X167100000Y-90400000D01*
X166000000Y-90400000D01*
X166000000Y-92300000D01*
X163500000Y-92300000D01*
X163500000Y-90400000D01*
X162400000Y-90400000D01*
X162400000Y-89100000D01*
X163500000Y-89100000D01*
X163500000Y-87900000D01*
X166000000Y-87900000D01*
X166000000Y-89100000D01*
%TO.C,C27*%
X85400000Y-119550000D02*
X86500000Y-119550000D01*
X86500000Y-119550000D02*
X86500000Y-117650000D01*
X86500000Y-117650000D02*
X89000000Y-117650000D01*
X89000000Y-117650000D02*
X89000000Y-119550000D01*
X89000000Y-119550000D02*
X90100000Y-119550000D01*
X90100000Y-119550000D02*
X90100000Y-120850000D01*
X90100000Y-120850000D02*
X89000000Y-120850000D01*
X89000000Y-120850000D02*
X89000000Y-122050000D01*
X89000000Y-122050000D02*
X86500000Y-122050000D01*
X86500000Y-122050000D02*
X86500000Y-120850000D01*
X86500000Y-120850000D02*
X85400000Y-120850000D01*
X85400000Y-120850000D02*
X85400000Y-119550000D01*
G36*
X89000000Y-119550000D02*
G01*
X90100000Y-119550000D01*
X90100000Y-120850000D01*
X89000000Y-120850000D01*
X89000000Y-122050000D01*
X86500000Y-122050000D01*
X86500000Y-120850000D01*
X85400000Y-120850000D01*
X85400000Y-119550000D01*
X86500000Y-119550000D01*
X86500000Y-117650000D01*
X89000000Y-117650000D01*
X89000000Y-119550000D01*
G37*
X89000000Y-119550000D02*
X90100000Y-119550000D01*
X90100000Y-120850000D01*
X89000000Y-120850000D01*
X89000000Y-122050000D01*
X86500000Y-122050000D01*
X86500000Y-120850000D01*
X85400000Y-120850000D01*
X85400000Y-119550000D01*
X86500000Y-119550000D01*
X86500000Y-117650000D01*
X89000000Y-117650000D01*
X89000000Y-119550000D01*
X85400000Y-128450000D02*
X86500000Y-128450000D01*
X86500000Y-128450000D02*
X86500000Y-130350000D01*
X86500000Y-130350000D02*
X89000000Y-130350000D01*
X89000000Y-130350000D02*
X89000000Y-128450000D01*
X89000000Y-128450000D02*
X90100000Y-128450000D01*
X90100000Y-128450000D02*
X90100000Y-127150000D01*
X90100000Y-127150000D02*
X89000000Y-127150000D01*
X89000000Y-127150000D02*
X89000000Y-125950000D01*
X89000000Y-125950000D02*
X86500000Y-125950000D01*
X86500000Y-125950000D02*
X86500000Y-127150000D01*
X86500000Y-127150000D02*
X85400000Y-127150000D01*
X85400000Y-127150000D02*
X85400000Y-128450000D01*
G36*
X89000000Y-127150000D02*
G01*
X90100000Y-127150000D01*
X90100000Y-128450000D01*
X89000000Y-128450000D01*
X89000000Y-130350000D01*
X86500000Y-130350000D01*
X86500000Y-128450000D01*
X85400000Y-128450000D01*
X85400000Y-127150000D01*
X86500000Y-127150000D01*
X86500000Y-125950000D01*
X89000000Y-125950000D01*
X89000000Y-127150000D01*
G37*
X89000000Y-127150000D02*
X90100000Y-127150000D01*
X90100000Y-128450000D01*
X89000000Y-128450000D01*
X89000000Y-130350000D01*
X86500000Y-130350000D01*
X86500000Y-128450000D01*
X85400000Y-128450000D01*
X85400000Y-127150000D01*
X86500000Y-127150000D01*
X86500000Y-125950000D01*
X89000000Y-125950000D01*
X89000000Y-127150000D01*
%TO.C,C37*%
X101350000Y-68350000D02*
X100250000Y-68350000D01*
X100250000Y-68350000D02*
X100250000Y-66650000D01*
X100250000Y-66650000D02*
X97750000Y-66650000D01*
X97750000Y-66650000D02*
X97750000Y-68350000D01*
X97750000Y-68350000D02*
X96650000Y-68350000D01*
X96650000Y-68350000D02*
X96650000Y-69650000D01*
X96650000Y-69650000D02*
X97750000Y-69650000D01*
X97750000Y-69650000D02*
X97750000Y-70650000D01*
X97750000Y-70650000D02*
X100250000Y-70650000D01*
X100250000Y-70650000D02*
X100250000Y-69650000D01*
X100250000Y-69650000D02*
X101350000Y-69650000D01*
X101350000Y-69650000D02*
X101350000Y-68350000D01*
G36*
X100250000Y-68350000D02*
G01*
X101350000Y-68350000D01*
X101350000Y-69650000D01*
X100250000Y-69650000D01*
X100250000Y-70650000D01*
X97750000Y-70650000D01*
X97750000Y-69650000D01*
X96650000Y-69650000D01*
X96650000Y-68350000D01*
X97750000Y-68350000D01*
X97750000Y-66650000D01*
X100250000Y-66650000D01*
X100250000Y-68350000D01*
G37*
X100250000Y-68350000D02*
X101350000Y-68350000D01*
X101350000Y-69650000D01*
X100250000Y-69650000D01*
X100250000Y-70650000D01*
X97750000Y-70650000D01*
X97750000Y-69650000D01*
X96650000Y-69650000D01*
X96650000Y-68350000D01*
X97750000Y-68350000D01*
X97750000Y-66650000D01*
X100250000Y-66650000D01*
X100250000Y-68350000D01*
X101350000Y-75650000D02*
X100250000Y-75650000D01*
X100250000Y-75650000D02*
X100250000Y-77350000D01*
X100250000Y-77350000D02*
X97750000Y-77350000D01*
X97750000Y-77350000D02*
X97750000Y-75650000D01*
X97750000Y-75650000D02*
X96650000Y-75650000D01*
X96650000Y-75650000D02*
X96650000Y-74350000D01*
X96650000Y-74350000D02*
X97750000Y-74350000D01*
X97750000Y-74350000D02*
X97750000Y-73350000D01*
X97750000Y-73350000D02*
X100250000Y-73350000D01*
X100250000Y-73350000D02*
X100250000Y-74350000D01*
X100250000Y-74350000D02*
X101350000Y-74350000D01*
X101350000Y-74350000D02*
X101350000Y-75650000D01*
G36*
X100250000Y-74350000D02*
G01*
X101350000Y-74350000D01*
X101350000Y-75650000D01*
X100250000Y-75650000D01*
X100250000Y-77350000D01*
X97750000Y-77350000D01*
X97750000Y-75650000D01*
X96650000Y-75650000D01*
X96650000Y-74350000D01*
X97750000Y-74350000D01*
X97750000Y-73350000D01*
X100250000Y-73350000D01*
X100250000Y-74350000D01*
G37*
X100250000Y-74350000D02*
X101350000Y-74350000D01*
X101350000Y-75650000D01*
X100250000Y-75650000D01*
X100250000Y-77350000D01*
X97750000Y-77350000D01*
X97750000Y-75650000D01*
X96650000Y-75650000D01*
X96650000Y-74350000D01*
X97750000Y-74350000D01*
X97750000Y-73350000D01*
X100250000Y-73350000D01*
X100250000Y-74350000D01*
%TO.C,C30*%
X85400000Y-233550000D02*
X86500000Y-233550000D01*
X86500000Y-233550000D02*
X86500000Y-231650000D01*
X86500000Y-231650000D02*
X89000000Y-231650000D01*
X89000000Y-231650000D02*
X89000000Y-233550000D01*
X89000000Y-233550000D02*
X90100000Y-233550000D01*
X90100000Y-233550000D02*
X90100000Y-234850000D01*
X90100000Y-234850000D02*
X89000000Y-234850000D01*
X89000000Y-234850000D02*
X89000000Y-236050000D01*
X89000000Y-236050000D02*
X86500000Y-236050000D01*
X86500000Y-236050000D02*
X86500000Y-234850000D01*
X86500000Y-234850000D02*
X85400000Y-234850000D01*
X85400000Y-234850000D02*
X85400000Y-233550000D01*
G36*
X89000000Y-233550000D02*
G01*
X90100000Y-233550000D01*
X90100000Y-234850000D01*
X89000000Y-234850000D01*
X89000000Y-236050000D01*
X86500000Y-236050000D01*
X86500000Y-234850000D01*
X85400000Y-234850000D01*
X85400000Y-233550000D01*
X86500000Y-233550000D01*
X86500000Y-231650000D01*
X89000000Y-231650000D01*
X89000000Y-233550000D01*
G37*
X89000000Y-233550000D02*
X90100000Y-233550000D01*
X90100000Y-234850000D01*
X89000000Y-234850000D01*
X89000000Y-236050000D01*
X86500000Y-236050000D01*
X86500000Y-234850000D01*
X85400000Y-234850000D01*
X85400000Y-233550000D01*
X86500000Y-233550000D01*
X86500000Y-231650000D01*
X89000000Y-231650000D01*
X89000000Y-233550000D01*
X85400000Y-242450000D02*
X86500000Y-242450000D01*
X86500000Y-242450000D02*
X86500000Y-244350000D01*
X86500000Y-244350000D02*
X89000000Y-244350000D01*
X89000000Y-244350000D02*
X89000000Y-242450000D01*
X89000000Y-242450000D02*
X90100000Y-242450000D01*
X90100000Y-242450000D02*
X90100000Y-241150000D01*
X90100000Y-241150000D02*
X89000000Y-241150000D01*
X89000000Y-241150000D02*
X89000000Y-239950000D01*
X89000000Y-239950000D02*
X86500000Y-239950000D01*
X86500000Y-239950000D02*
X86500000Y-241150000D01*
X86500000Y-241150000D02*
X85400000Y-241150000D01*
X85400000Y-241150000D02*
X85400000Y-242450000D01*
G36*
X89000000Y-241150000D02*
G01*
X90100000Y-241150000D01*
X90100000Y-242450000D01*
X89000000Y-242450000D01*
X89000000Y-244350000D01*
X86500000Y-244350000D01*
X86500000Y-242450000D01*
X85400000Y-242450000D01*
X85400000Y-241150000D01*
X86500000Y-241150000D01*
X86500000Y-239950000D01*
X89000000Y-239950000D01*
X89000000Y-241150000D01*
G37*
X89000000Y-241150000D02*
X90100000Y-241150000D01*
X90100000Y-242450000D01*
X89000000Y-242450000D01*
X89000000Y-244350000D01*
X86500000Y-244350000D01*
X86500000Y-242450000D01*
X85400000Y-242450000D01*
X85400000Y-241150000D01*
X86500000Y-241150000D01*
X86500000Y-239950000D01*
X89000000Y-239950000D01*
X89000000Y-241150000D01*
%TO.C,C29*%
X85400000Y-195500000D02*
X86500000Y-195500000D01*
X86500000Y-195500000D02*
X86500000Y-193600000D01*
X86500000Y-193600000D02*
X89000000Y-193600000D01*
X89000000Y-193600000D02*
X89000000Y-195500000D01*
X89000000Y-195500000D02*
X90100000Y-195500000D01*
X90100000Y-195500000D02*
X90100000Y-196800000D01*
X90100000Y-196800000D02*
X89000000Y-196800000D01*
X89000000Y-196800000D02*
X89000000Y-198000000D01*
X89000000Y-198000000D02*
X86500000Y-198000000D01*
X86500000Y-198000000D02*
X86500000Y-196800000D01*
X86500000Y-196800000D02*
X85400000Y-196800000D01*
X85400000Y-196800000D02*
X85400000Y-195500000D01*
G36*
X89000000Y-195500000D02*
G01*
X90100000Y-195500000D01*
X90100000Y-196800000D01*
X89000000Y-196800000D01*
X89000000Y-198000000D01*
X86500000Y-198000000D01*
X86500000Y-196800000D01*
X85400000Y-196800000D01*
X85400000Y-195500000D01*
X86500000Y-195500000D01*
X86500000Y-193600000D01*
X89000000Y-193600000D01*
X89000000Y-195500000D01*
G37*
X89000000Y-195500000D02*
X90100000Y-195500000D01*
X90100000Y-196800000D01*
X89000000Y-196800000D01*
X89000000Y-198000000D01*
X86500000Y-198000000D01*
X86500000Y-196800000D01*
X85400000Y-196800000D01*
X85400000Y-195500000D01*
X86500000Y-195500000D01*
X86500000Y-193600000D01*
X89000000Y-193600000D01*
X89000000Y-195500000D01*
X85400000Y-204400000D02*
X86500000Y-204400000D01*
X86500000Y-204400000D02*
X86500000Y-206300000D01*
X86500000Y-206300000D02*
X89000000Y-206300000D01*
X89000000Y-206300000D02*
X89000000Y-204400000D01*
X89000000Y-204400000D02*
X90100000Y-204400000D01*
X90100000Y-204400000D02*
X90100000Y-203100000D01*
X90100000Y-203100000D02*
X89000000Y-203100000D01*
X89000000Y-203100000D02*
X89000000Y-201900000D01*
X89000000Y-201900000D02*
X86500000Y-201900000D01*
X86500000Y-201900000D02*
X86500000Y-203100000D01*
X86500000Y-203100000D02*
X85400000Y-203100000D01*
X85400000Y-203100000D02*
X85400000Y-204400000D01*
G36*
X89000000Y-203100000D02*
G01*
X90100000Y-203100000D01*
X90100000Y-204400000D01*
X89000000Y-204400000D01*
X89000000Y-206300000D01*
X86500000Y-206300000D01*
X86500000Y-204400000D01*
X85400000Y-204400000D01*
X85400000Y-203100000D01*
X86500000Y-203100000D01*
X86500000Y-201900000D01*
X89000000Y-201900000D01*
X89000000Y-203100000D01*
G37*
X89000000Y-203100000D02*
X90100000Y-203100000D01*
X90100000Y-204400000D01*
X89000000Y-204400000D01*
X89000000Y-206300000D01*
X86500000Y-206300000D01*
X86500000Y-204400000D01*
X85400000Y-204400000D01*
X85400000Y-203100000D01*
X86500000Y-203100000D01*
X86500000Y-201900000D01*
X89000000Y-201900000D01*
X89000000Y-203100000D01*
%TO.C,C43*%
X178350000Y-68350000D02*
X177250000Y-68350000D01*
X177250000Y-68350000D02*
X177250000Y-66650000D01*
X177250000Y-66650000D02*
X174750000Y-66650000D01*
X174750000Y-66650000D02*
X174750000Y-68350000D01*
X174750000Y-68350000D02*
X173650000Y-68350000D01*
X173650000Y-68350000D02*
X173650000Y-69650000D01*
X173650000Y-69650000D02*
X174750000Y-69650000D01*
X174750000Y-69650000D02*
X174750000Y-70650000D01*
X174750000Y-70650000D02*
X177250000Y-70650000D01*
X177250000Y-70650000D02*
X177250000Y-69650000D01*
X177250000Y-69650000D02*
X178350000Y-69650000D01*
X178350000Y-69650000D02*
X178350000Y-68350000D01*
G36*
X177250000Y-68350000D02*
G01*
X178350000Y-68350000D01*
X178350000Y-69650000D01*
X177250000Y-69650000D01*
X177250000Y-70650000D01*
X174750000Y-70650000D01*
X174750000Y-69650000D01*
X173650000Y-69650000D01*
X173650000Y-68350000D01*
X174750000Y-68350000D01*
X174750000Y-66650000D01*
X177250000Y-66650000D01*
X177250000Y-68350000D01*
G37*
X177250000Y-68350000D02*
X178350000Y-68350000D01*
X178350000Y-69650000D01*
X177250000Y-69650000D01*
X177250000Y-70650000D01*
X174750000Y-70650000D01*
X174750000Y-69650000D01*
X173650000Y-69650000D01*
X173650000Y-68350000D01*
X174750000Y-68350000D01*
X174750000Y-66650000D01*
X177250000Y-66650000D01*
X177250000Y-68350000D01*
X178350000Y-75650000D02*
X177250000Y-75650000D01*
X177250000Y-75650000D02*
X177250000Y-77350000D01*
X177250000Y-77350000D02*
X174750000Y-77350000D01*
X174750000Y-77350000D02*
X174750000Y-75650000D01*
X174750000Y-75650000D02*
X173650000Y-75650000D01*
X173650000Y-75650000D02*
X173650000Y-74350000D01*
X173650000Y-74350000D02*
X174750000Y-74350000D01*
X174750000Y-74350000D02*
X174750000Y-73350000D01*
X174750000Y-73350000D02*
X177250000Y-73350000D01*
X177250000Y-73350000D02*
X177250000Y-74350000D01*
X177250000Y-74350000D02*
X178350000Y-74350000D01*
X178350000Y-74350000D02*
X178350000Y-75650000D01*
G36*
X177250000Y-74350000D02*
G01*
X178350000Y-74350000D01*
X178350000Y-75650000D01*
X177250000Y-75650000D01*
X177250000Y-77350000D01*
X174750000Y-77350000D01*
X174750000Y-75650000D01*
X173650000Y-75650000D01*
X173650000Y-74350000D01*
X174750000Y-74350000D01*
X174750000Y-73350000D01*
X177250000Y-73350000D01*
X177250000Y-74350000D01*
G37*
X177250000Y-74350000D02*
X178350000Y-74350000D01*
X178350000Y-75650000D01*
X177250000Y-75650000D01*
X177250000Y-77350000D01*
X174750000Y-77350000D01*
X174750000Y-75650000D01*
X173650000Y-75650000D01*
X173650000Y-74350000D01*
X174750000Y-74350000D01*
X174750000Y-73350000D01*
X177250000Y-73350000D01*
X177250000Y-74350000D01*
%TO.C,C46*%
X178350000Y-189650000D02*
X177250000Y-189650000D01*
X177250000Y-189650000D02*
X177250000Y-191350000D01*
X177250000Y-191350000D02*
X174750000Y-191350000D01*
X174750000Y-191350000D02*
X174750000Y-189650000D01*
X174750000Y-189650000D02*
X173650000Y-189650000D01*
X173650000Y-189650000D02*
X173650000Y-188350000D01*
X173650000Y-188350000D02*
X174750000Y-188350000D01*
X174750000Y-188350000D02*
X174750000Y-187350000D01*
X174750000Y-187350000D02*
X177250000Y-187350000D01*
X177250000Y-187350000D02*
X177250000Y-188350000D01*
X177250000Y-188350000D02*
X178350000Y-188350000D01*
X178350000Y-188350000D02*
X178350000Y-189650000D01*
G36*
X177250000Y-188350000D02*
G01*
X178350000Y-188350000D01*
X178350000Y-189650000D01*
X177250000Y-189650000D01*
X177250000Y-191350000D01*
X174750000Y-191350000D01*
X174750000Y-189650000D01*
X173650000Y-189650000D01*
X173650000Y-188350000D01*
X174750000Y-188350000D01*
X174750000Y-187350000D01*
X177250000Y-187350000D01*
X177250000Y-188350000D01*
G37*
X177250000Y-188350000D02*
X178350000Y-188350000D01*
X178350000Y-189650000D01*
X177250000Y-189650000D01*
X177250000Y-191350000D01*
X174750000Y-191350000D01*
X174750000Y-189650000D01*
X173650000Y-189650000D01*
X173650000Y-188350000D01*
X174750000Y-188350000D01*
X174750000Y-187350000D01*
X177250000Y-187350000D01*
X177250000Y-188350000D01*
X178350000Y-182350000D02*
X177250000Y-182350000D01*
X177250000Y-182350000D02*
X177250000Y-180650000D01*
X177250000Y-180650000D02*
X174750000Y-180650000D01*
X174750000Y-180650000D02*
X174750000Y-182350000D01*
X174750000Y-182350000D02*
X173650000Y-182350000D01*
X173650000Y-182350000D02*
X173650000Y-183650000D01*
X173650000Y-183650000D02*
X174750000Y-183650000D01*
X174750000Y-183650000D02*
X174750000Y-184650000D01*
X174750000Y-184650000D02*
X177250000Y-184650000D01*
X177250000Y-184650000D02*
X177250000Y-183650000D01*
X177250000Y-183650000D02*
X178350000Y-183650000D01*
X178350000Y-183650000D02*
X178350000Y-182350000D01*
G36*
X177250000Y-182350000D02*
G01*
X178350000Y-182350000D01*
X178350000Y-183650000D01*
X177250000Y-183650000D01*
X177250000Y-184650000D01*
X174750000Y-184650000D01*
X174750000Y-183650000D01*
X173650000Y-183650000D01*
X173650000Y-182350000D01*
X174750000Y-182350000D01*
X174750000Y-180650000D01*
X177250000Y-180650000D01*
X177250000Y-182350000D01*
G37*
X177250000Y-182350000D02*
X178350000Y-182350000D01*
X178350000Y-183650000D01*
X177250000Y-183650000D01*
X177250000Y-184650000D01*
X174750000Y-184650000D01*
X174750000Y-183650000D01*
X173650000Y-183650000D01*
X173650000Y-182350000D01*
X174750000Y-182350000D01*
X174750000Y-180650000D01*
X177250000Y-180650000D01*
X177250000Y-182350000D01*
%TO.C,C25*%
X85400000Y-43550000D02*
X86500000Y-43550000D01*
X86500000Y-43550000D02*
X86500000Y-41650000D01*
X86500000Y-41650000D02*
X89000000Y-41650000D01*
X89000000Y-41650000D02*
X89000000Y-43550000D01*
X89000000Y-43550000D02*
X90100000Y-43550000D01*
X90100000Y-43550000D02*
X90100000Y-44850000D01*
X90100000Y-44850000D02*
X89000000Y-44850000D01*
X89000000Y-44850000D02*
X89000000Y-46050000D01*
X89000000Y-46050000D02*
X86500000Y-46050000D01*
X86500000Y-46050000D02*
X86500000Y-44850000D01*
X86500000Y-44850000D02*
X85400000Y-44850000D01*
X85400000Y-44850000D02*
X85400000Y-43550000D01*
G36*
X89000000Y-43550000D02*
G01*
X90100000Y-43550000D01*
X90100000Y-44850000D01*
X89000000Y-44850000D01*
X89000000Y-46050000D01*
X86500000Y-46050000D01*
X86500000Y-44850000D01*
X85400000Y-44850000D01*
X85400000Y-43550000D01*
X86500000Y-43550000D01*
X86500000Y-41650000D01*
X89000000Y-41650000D01*
X89000000Y-43550000D01*
G37*
X89000000Y-43550000D02*
X90100000Y-43550000D01*
X90100000Y-44850000D01*
X89000000Y-44850000D01*
X89000000Y-46050000D01*
X86500000Y-46050000D01*
X86500000Y-44850000D01*
X85400000Y-44850000D01*
X85400000Y-43550000D01*
X86500000Y-43550000D01*
X86500000Y-41650000D01*
X89000000Y-41650000D01*
X89000000Y-43550000D01*
X85400000Y-52450000D02*
X86500000Y-52450000D01*
X86500000Y-52450000D02*
X86500000Y-54350000D01*
X86500000Y-54350000D02*
X89000000Y-54350000D01*
X89000000Y-54350000D02*
X89000000Y-52450000D01*
X89000000Y-52450000D02*
X90100000Y-52450000D01*
X90100000Y-52450000D02*
X90100000Y-51150000D01*
X90100000Y-51150000D02*
X89000000Y-51150000D01*
X89000000Y-51150000D02*
X89000000Y-49950000D01*
X89000000Y-49950000D02*
X86500000Y-49950000D01*
X86500000Y-49950000D02*
X86500000Y-51150000D01*
X86500000Y-51150000D02*
X85400000Y-51150000D01*
X85400000Y-51150000D02*
X85400000Y-52450000D01*
G36*
X89000000Y-51150000D02*
G01*
X90100000Y-51150000D01*
X90100000Y-52450000D01*
X89000000Y-52450000D01*
X89000000Y-54350000D01*
X86500000Y-54350000D01*
X86500000Y-52450000D01*
X85400000Y-52450000D01*
X85400000Y-51150000D01*
X86500000Y-51150000D01*
X86500000Y-49950000D01*
X89000000Y-49950000D01*
X89000000Y-51150000D01*
G37*
X89000000Y-51150000D02*
X90100000Y-51150000D01*
X90100000Y-52450000D01*
X89000000Y-52450000D01*
X89000000Y-54350000D01*
X86500000Y-54350000D01*
X86500000Y-52450000D01*
X85400000Y-52450000D01*
X85400000Y-51150000D01*
X86500000Y-51150000D01*
X86500000Y-49950000D01*
X89000000Y-49950000D01*
X89000000Y-51150000D01*
%TO.C,C35*%
X162400000Y-204450000D02*
X163500000Y-204450000D01*
X163500000Y-204450000D02*
X163500000Y-206350000D01*
X163500000Y-206350000D02*
X166000000Y-206350000D01*
X166000000Y-206350000D02*
X166000000Y-204450000D01*
X166000000Y-204450000D02*
X167100000Y-204450000D01*
X167100000Y-204450000D02*
X167100000Y-203150000D01*
X167100000Y-203150000D02*
X166000000Y-203150000D01*
X166000000Y-203150000D02*
X166000000Y-201950000D01*
X166000000Y-201950000D02*
X163500000Y-201950000D01*
X163500000Y-201950000D02*
X163500000Y-203150000D01*
X163500000Y-203150000D02*
X162400000Y-203150000D01*
X162400000Y-203150000D02*
X162400000Y-204450000D01*
G36*
X166000000Y-203150000D02*
G01*
X167100000Y-203150000D01*
X167100000Y-204450000D01*
X166000000Y-204450000D01*
X166000000Y-206350000D01*
X163500000Y-206350000D01*
X163500000Y-204450000D01*
X162400000Y-204450000D01*
X162400000Y-203150000D01*
X163500000Y-203150000D01*
X163500000Y-201950000D01*
X166000000Y-201950000D01*
X166000000Y-203150000D01*
G37*
X166000000Y-203150000D02*
X167100000Y-203150000D01*
X167100000Y-204450000D01*
X166000000Y-204450000D01*
X166000000Y-206350000D01*
X163500000Y-206350000D01*
X163500000Y-204450000D01*
X162400000Y-204450000D01*
X162400000Y-203150000D01*
X163500000Y-203150000D01*
X163500000Y-201950000D01*
X166000000Y-201950000D01*
X166000000Y-203150000D01*
X162400000Y-195550000D02*
X163500000Y-195550000D01*
X163500000Y-195550000D02*
X163500000Y-193650000D01*
X163500000Y-193650000D02*
X166000000Y-193650000D01*
X166000000Y-193650000D02*
X166000000Y-195550000D01*
X166000000Y-195550000D02*
X167100000Y-195550000D01*
X167100000Y-195550000D02*
X167100000Y-196850000D01*
X167100000Y-196850000D02*
X166000000Y-196850000D01*
X166000000Y-196850000D02*
X166000000Y-198050000D01*
X166000000Y-198050000D02*
X163500000Y-198050000D01*
X163500000Y-198050000D02*
X163500000Y-196850000D01*
X163500000Y-196850000D02*
X162400000Y-196850000D01*
X162400000Y-196850000D02*
X162400000Y-195550000D01*
G36*
X166000000Y-195550000D02*
G01*
X167100000Y-195550000D01*
X167100000Y-196850000D01*
X166000000Y-196850000D01*
X166000000Y-198050000D01*
X163500000Y-198050000D01*
X163500000Y-196850000D01*
X162400000Y-196850000D01*
X162400000Y-195550000D01*
X163500000Y-195550000D01*
X163500000Y-193650000D01*
X166000000Y-193650000D01*
X166000000Y-195550000D01*
G37*
X166000000Y-195550000D02*
X167100000Y-195550000D01*
X167100000Y-196850000D01*
X166000000Y-196850000D01*
X166000000Y-198050000D01*
X163500000Y-198050000D01*
X163500000Y-196850000D01*
X162400000Y-196850000D01*
X162400000Y-195550000D01*
X163500000Y-195550000D01*
X163500000Y-193650000D01*
X166000000Y-193650000D01*
X166000000Y-195550000D01*
%TO.C,C44*%
X178350000Y-106350000D02*
X177250000Y-106350000D01*
X177250000Y-106350000D02*
X177250000Y-104650000D01*
X177250000Y-104650000D02*
X174750000Y-104650000D01*
X174750000Y-104650000D02*
X174750000Y-106350000D01*
X174750000Y-106350000D02*
X173650000Y-106350000D01*
X173650000Y-106350000D02*
X173650000Y-107650000D01*
X173650000Y-107650000D02*
X174750000Y-107650000D01*
X174750000Y-107650000D02*
X174750000Y-108650000D01*
X174750000Y-108650000D02*
X177250000Y-108650000D01*
X177250000Y-108650000D02*
X177250000Y-107650000D01*
X177250000Y-107650000D02*
X178350000Y-107650000D01*
X178350000Y-107650000D02*
X178350000Y-106350000D01*
G36*
X177250000Y-106350000D02*
G01*
X178350000Y-106350000D01*
X178350000Y-107650000D01*
X177250000Y-107650000D01*
X177250000Y-108650000D01*
X174750000Y-108650000D01*
X174750000Y-107650000D01*
X173650000Y-107650000D01*
X173650000Y-106350000D01*
X174750000Y-106350000D01*
X174750000Y-104650000D01*
X177250000Y-104650000D01*
X177250000Y-106350000D01*
G37*
X177250000Y-106350000D02*
X178350000Y-106350000D01*
X178350000Y-107650000D01*
X177250000Y-107650000D01*
X177250000Y-108650000D01*
X174750000Y-108650000D01*
X174750000Y-107650000D01*
X173650000Y-107650000D01*
X173650000Y-106350000D01*
X174750000Y-106350000D01*
X174750000Y-104650000D01*
X177250000Y-104650000D01*
X177250000Y-106350000D01*
X178350000Y-113650000D02*
X177250000Y-113650000D01*
X177250000Y-113650000D02*
X177250000Y-115350000D01*
X177250000Y-115350000D02*
X174750000Y-115350000D01*
X174750000Y-115350000D02*
X174750000Y-113650000D01*
X174750000Y-113650000D02*
X173650000Y-113650000D01*
X173650000Y-113650000D02*
X173650000Y-112350000D01*
X173650000Y-112350000D02*
X174750000Y-112350000D01*
X174750000Y-112350000D02*
X174750000Y-111350000D01*
X174750000Y-111350000D02*
X177250000Y-111350000D01*
X177250000Y-111350000D02*
X177250000Y-112350000D01*
X177250000Y-112350000D02*
X178350000Y-112350000D01*
X178350000Y-112350000D02*
X178350000Y-113650000D01*
G36*
X177250000Y-112350000D02*
G01*
X178350000Y-112350000D01*
X178350000Y-113650000D01*
X177250000Y-113650000D01*
X177250000Y-115350000D01*
X174750000Y-115350000D01*
X174750000Y-113650000D01*
X173650000Y-113650000D01*
X173650000Y-112350000D01*
X174750000Y-112350000D01*
X174750000Y-111350000D01*
X177250000Y-111350000D01*
X177250000Y-112350000D01*
G37*
X177250000Y-112350000D02*
X178350000Y-112350000D01*
X178350000Y-113650000D01*
X177250000Y-113650000D01*
X177250000Y-115350000D01*
X174750000Y-115350000D01*
X174750000Y-113650000D01*
X173650000Y-113650000D01*
X173650000Y-112350000D01*
X174750000Y-112350000D01*
X174750000Y-111350000D01*
X177250000Y-111350000D01*
X177250000Y-112350000D01*
%TO.C,C41*%
X101350000Y-227650000D02*
X100250000Y-227650000D01*
X100250000Y-227650000D02*
X100250000Y-229350000D01*
X100250000Y-229350000D02*
X97750000Y-229350000D01*
X97750000Y-229350000D02*
X97750000Y-227650000D01*
X97750000Y-227650000D02*
X96650000Y-227650000D01*
X96650000Y-227650000D02*
X96650000Y-226350000D01*
X96650000Y-226350000D02*
X97750000Y-226350000D01*
X97750000Y-226350000D02*
X97750000Y-225350000D01*
X97750000Y-225350000D02*
X100250000Y-225350000D01*
X100250000Y-225350000D02*
X100250000Y-226350000D01*
X100250000Y-226350000D02*
X101350000Y-226350000D01*
X101350000Y-226350000D02*
X101350000Y-227650000D01*
G36*
X100250000Y-226350000D02*
G01*
X101350000Y-226350000D01*
X101350000Y-227650000D01*
X100250000Y-227650000D01*
X100250000Y-229350000D01*
X97750000Y-229350000D01*
X97750000Y-227650000D01*
X96650000Y-227650000D01*
X96650000Y-226350000D01*
X97750000Y-226350000D01*
X97750000Y-225350000D01*
X100250000Y-225350000D01*
X100250000Y-226350000D01*
G37*
X100250000Y-226350000D02*
X101350000Y-226350000D01*
X101350000Y-227650000D01*
X100250000Y-227650000D01*
X100250000Y-229350000D01*
X97750000Y-229350000D01*
X97750000Y-227650000D01*
X96650000Y-227650000D01*
X96650000Y-226350000D01*
X97750000Y-226350000D01*
X97750000Y-225350000D01*
X100250000Y-225350000D01*
X100250000Y-226350000D01*
X101350000Y-220350000D02*
X100250000Y-220350000D01*
X100250000Y-220350000D02*
X100250000Y-218650000D01*
X100250000Y-218650000D02*
X97750000Y-218650000D01*
X97750000Y-218650000D02*
X97750000Y-220350000D01*
X97750000Y-220350000D02*
X96650000Y-220350000D01*
X96650000Y-220350000D02*
X96650000Y-221650000D01*
X96650000Y-221650000D02*
X97750000Y-221650000D01*
X97750000Y-221650000D02*
X97750000Y-222650000D01*
X97750000Y-222650000D02*
X100250000Y-222650000D01*
X100250000Y-222650000D02*
X100250000Y-221650000D01*
X100250000Y-221650000D02*
X101350000Y-221650000D01*
X101350000Y-221650000D02*
X101350000Y-220350000D01*
G36*
X100250000Y-220350000D02*
G01*
X101350000Y-220350000D01*
X101350000Y-221650000D01*
X100250000Y-221650000D01*
X100250000Y-222650000D01*
X97750000Y-222650000D01*
X97750000Y-221650000D01*
X96650000Y-221650000D01*
X96650000Y-220350000D01*
X97750000Y-220350000D01*
X97750000Y-218650000D01*
X100250000Y-218650000D01*
X100250000Y-220350000D01*
G37*
X100250000Y-220350000D02*
X101350000Y-220350000D01*
X101350000Y-221650000D01*
X100250000Y-221650000D01*
X100250000Y-222650000D01*
X97750000Y-222650000D01*
X97750000Y-221650000D01*
X96650000Y-221650000D01*
X96650000Y-220350000D01*
X97750000Y-220350000D01*
X97750000Y-218650000D01*
X100250000Y-218650000D01*
X100250000Y-220350000D01*
%TO.C,C36*%
X162400000Y-242450000D02*
X163500000Y-242450000D01*
X163500000Y-242450000D02*
X163500000Y-244350000D01*
X163500000Y-244350000D02*
X166000000Y-244350000D01*
X166000000Y-244350000D02*
X166000000Y-242450000D01*
X166000000Y-242450000D02*
X167100000Y-242450000D01*
X167100000Y-242450000D02*
X167100000Y-241150000D01*
X167100000Y-241150000D02*
X166000000Y-241150000D01*
X166000000Y-241150000D02*
X166000000Y-239950000D01*
X166000000Y-239950000D02*
X163500000Y-239950000D01*
X163500000Y-239950000D02*
X163500000Y-241150000D01*
X163500000Y-241150000D02*
X162400000Y-241150000D01*
X162400000Y-241150000D02*
X162400000Y-242450000D01*
G36*
X166000000Y-241150000D02*
G01*
X167100000Y-241150000D01*
X167100000Y-242450000D01*
X166000000Y-242450000D01*
X166000000Y-244350000D01*
X163500000Y-244350000D01*
X163500000Y-242450000D01*
X162400000Y-242450000D01*
X162400000Y-241150000D01*
X163500000Y-241150000D01*
X163500000Y-239950000D01*
X166000000Y-239950000D01*
X166000000Y-241150000D01*
G37*
X166000000Y-241150000D02*
X167100000Y-241150000D01*
X167100000Y-242450000D01*
X166000000Y-242450000D01*
X166000000Y-244350000D01*
X163500000Y-244350000D01*
X163500000Y-242450000D01*
X162400000Y-242450000D01*
X162400000Y-241150000D01*
X163500000Y-241150000D01*
X163500000Y-239950000D01*
X166000000Y-239950000D01*
X166000000Y-241150000D01*
X162400000Y-233550000D02*
X163500000Y-233550000D01*
X163500000Y-233550000D02*
X163500000Y-231650000D01*
X163500000Y-231650000D02*
X166000000Y-231650000D01*
X166000000Y-231650000D02*
X166000000Y-233550000D01*
X166000000Y-233550000D02*
X167100000Y-233550000D01*
X167100000Y-233550000D02*
X167100000Y-234850000D01*
X167100000Y-234850000D02*
X166000000Y-234850000D01*
X166000000Y-234850000D02*
X166000000Y-236050000D01*
X166000000Y-236050000D02*
X163500000Y-236050000D01*
X163500000Y-236050000D02*
X163500000Y-234850000D01*
X163500000Y-234850000D02*
X162400000Y-234850000D01*
X162400000Y-234850000D02*
X162400000Y-233550000D01*
G36*
X166000000Y-233550000D02*
G01*
X167100000Y-233550000D01*
X167100000Y-234850000D01*
X166000000Y-234850000D01*
X166000000Y-236050000D01*
X163500000Y-236050000D01*
X163500000Y-234850000D01*
X162400000Y-234850000D01*
X162400000Y-233550000D01*
X163500000Y-233550000D01*
X163500000Y-231650000D01*
X166000000Y-231650000D01*
X166000000Y-233550000D01*
G37*
X166000000Y-233550000D02*
X167100000Y-233550000D01*
X167100000Y-234850000D01*
X166000000Y-234850000D01*
X166000000Y-236050000D01*
X163500000Y-236050000D01*
X163500000Y-234850000D01*
X162400000Y-234850000D01*
X162400000Y-233550000D01*
X163500000Y-233550000D01*
X163500000Y-231650000D01*
X166000000Y-231650000D01*
X166000000Y-233550000D01*
%TO.C,C42*%
X101350000Y-265650000D02*
X100250000Y-265650000D01*
X100250000Y-265650000D02*
X100250000Y-267350000D01*
X100250000Y-267350000D02*
X97750000Y-267350000D01*
X97750000Y-267350000D02*
X97750000Y-265650000D01*
X97750000Y-265650000D02*
X96650000Y-265650000D01*
X96650000Y-265650000D02*
X96650000Y-264350000D01*
X96650000Y-264350000D02*
X97750000Y-264350000D01*
X97750000Y-264350000D02*
X97750000Y-263350000D01*
X97750000Y-263350000D02*
X100250000Y-263350000D01*
X100250000Y-263350000D02*
X100250000Y-264350000D01*
X100250000Y-264350000D02*
X101350000Y-264350000D01*
X101350000Y-264350000D02*
X101350000Y-265650000D01*
G36*
X100250000Y-264350000D02*
G01*
X101350000Y-264350000D01*
X101350000Y-265650000D01*
X100250000Y-265650000D01*
X100250000Y-267350000D01*
X97750000Y-267350000D01*
X97750000Y-265650000D01*
X96650000Y-265650000D01*
X96650000Y-264350000D01*
X97750000Y-264350000D01*
X97750000Y-263350000D01*
X100250000Y-263350000D01*
X100250000Y-264350000D01*
G37*
X100250000Y-264350000D02*
X101350000Y-264350000D01*
X101350000Y-265650000D01*
X100250000Y-265650000D01*
X100250000Y-267350000D01*
X97750000Y-267350000D01*
X97750000Y-265650000D01*
X96650000Y-265650000D01*
X96650000Y-264350000D01*
X97750000Y-264350000D01*
X97750000Y-263350000D01*
X100250000Y-263350000D01*
X100250000Y-264350000D01*
X101350000Y-258350000D02*
X100250000Y-258350000D01*
X100250000Y-258350000D02*
X100250000Y-256650000D01*
X100250000Y-256650000D02*
X97750000Y-256650000D01*
X97750000Y-256650000D02*
X97750000Y-258350000D01*
X97750000Y-258350000D02*
X96650000Y-258350000D01*
X96650000Y-258350000D02*
X96650000Y-259650000D01*
X96650000Y-259650000D02*
X97750000Y-259650000D01*
X97750000Y-259650000D02*
X97750000Y-260650000D01*
X97750000Y-260650000D02*
X100250000Y-260650000D01*
X100250000Y-260650000D02*
X100250000Y-259650000D01*
X100250000Y-259650000D02*
X101350000Y-259650000D01*
X101350000Y-259650000D02*
X101350000Y-258350000D01*
G36*
X100250000Y-258350000D02*
G01*
X101350000Y-258350000D01*
X101350000Y-259650000D01*
X100250000Y-259650000D01*
X100250000Y-260650000D01*
X97750000Y-260650000D01*
X97750000Y-259650000D01*
X96650000Y-259650000D01*
X96650000Y-258350000D01*
X97750000Y-258350000D01*
X97750000Y-256650000D01*
X100250000Y-256650000D01*
X100250000Y-258350000D01*
G37*
X100250000Y-258350000D02*
X101350000Y-258350000D01*
X101350000Y-259650000D01*
X100250000Y-259650000D01*
X100250000Y-260650000D01*
X97750000Y-260650000D01*
X97750000Y-259650000D01*
X96650000Y-259650000D01*
X96650000Y-258350000D01*
X97750000Y-258350000D01*
X97750000Y-256650000D01*
X100250000Y-256650000D01*
X100250000Y-258350000D01*
%TO.C,C28*%
X85400000Y-166400000D02*
X86500000Y-166400000D01*
X86500000Y-166400000D02*
X86500000Y-168300000D01*
X86500000Y-168300000D02*
X89000000Y-168300000D01*
X89000000Y-168300000D02*
X89000000Y-166400000D01*
X89000000Y-166400000D02*
X90100000Y-166400000D01*
X90100000Y-166400000D02*
X90100000Y-165100000D01*
X90100000Y-165100000D02*
X89000000Y-165100000D01*
X89000000Y-165100000D02*
X89000000Y-163900000D01*
X89000000Y-163900000D02*
X86500000Y-163900000D01*
X86500000Y-163900000D02*
X86500000Y-165100000D01*
X86500000Y-165100000D02*
X85400000Y-165100000D01*
X85400000Y-165100000D02*
X85400000Y-166400000D01*
G36*
X89000000Y-165100000D02*
G01*
X90100000Y-165100000D01*
X90100000Y-166400000D01*
X89000000Y-166400000D01*
X89000000Y-168300000D01*
X86500000Y-168300000D01*
X86500000Y-166400000D01*
X85400000Y-166400000D01*
X85400000Y-165100000D01*
X86500000Y-165100000D01*
X86500000Y-163900000D01*
X89000000Y-163900000D01*
X89000000Y-165100000D01*
G37*
X89000000Y-165100000D02*
X90100000Y-165100000D01*
X90100000Y-166400000D01*
X89000000Y-166400000D01*
X89000000Y-168300000D01*
X86500000Y-168300000D01*
X86500000Y-166400000D01*
X85400000Y-166400000D01*
X85400000Y-165100000D01*
X86500000Y-165100000D01*
X86500000Y-163900000D01*
X89000000Y-163900000D01*
X89000000Y-165100000D01*
X85400000Y-157500000D02*
X86500000Y-157500000D01*
X86500000Y-157500000D02*
X86500000Y-155600000D01*
X86500000Y-155600000D02*
X89000000Y-155600000D01*
X89000000Y-155600000D02*
X89000000Y-157500000D01*
X89000000Y-157500000D02*
X90100000Y-157500000D01*
X90100000Y-157500000D02*
X90100000Y-158800000D01*
X90100000Y-158800000D02*
X89000000Y-158800000D01*
X89000000Y-158800000D02*
X89000000Y-160000000D01*
X89000000Y-160000000D02*
X86500000Y-160000000D01*
X86500000Y-160000000D02*
X86500000Y-158800000D01*
X86500000Y-158800000D02*
X85400000Y-158800000D01*
X85400000Y-158800000D02*
X85400000Y-157500000D01*
G36*
X89000000Y-157500000D02*
G01*
X90100000Y-157500000D01*
X90100000Y-158800000D01*
X89000000Y-158800000D01*
X89000000Y-160000000D01*
X86500000Y-160000000D01*
X86500000Y-158800000D01*
X85400000Y-158800000D01*
X85400000Y-157500000D01*
X86500000Y-157500000D01*
X86500000Y-155600000D01*
X89000000Y-155600000D01*
X89000000Y-157500000D01*
G37*
X89000000Y-157500000D02*
X90100000Y-157500000D01*
X90100000Y-158800000D01*
X89000000Y-158800000D01*
X89000000Y-160000000D01*
X86500000Y-160000000D01*
X86500000Y-158800000D01*
X85400000Y-158800000D01*
X85400000Y-157500000D01*
X86500000Y-157500000D01*
X86500000Y-155600000D01*
X89000000Y-155600000D01*
X89000000Y-157500000D01*
%TO.C,C45*%
X178350000Y-144350000D02*
X177250000Y-144350000D01*
X177250000Y-144350000D02*
X177250000Y-142650000D01*
X177250000Y-142650000D02*
X174750000Y-142650000D01*
X174750000Y-142650000D02*
X174750000Y-144350000D01*
X174750000Y-144350000D02*
X173650000Y-144350000D01*
X173650000Y-144350000D02*
X173650000Y-145650000D01*
X173650000Y-145650000D02*
X174750000Y-145650000D01*
X174750000Y-145650000D02*
X174750000Y-146650000D01*
X174750000Y-146650000D02*
X177250000Y-146650000D01*
X177250000Y-146650000D02*
X177250000Y-145650000D01*
X177250000Y-145650000D02*
X178350000Y-145650000D01*
X178350000Y-145650000D02*
X178350000Y-144350000D01*
G36*
X177250000Y-144350000D02*
G01*
X178350000Y-144350000D01*
X178350000Y-145650000D01*
X177250000Y-145650000D01*
X177250000Y-146650000D01*
X174750000Y-146650000D01*
X174750000Y-145650000D01*
X173650000Y-145650000D01*
X173650000Y-144350000D01*
X174750000Y-144350000D01*
X174750000Y-142650000D01*
X177250000Y-142650000D01*
X177250000Y-144350000D01*
G37*
X177250000Y-144350000D02*
X178350000Y-144350000D01*
X178350000Y-145650000D01*
X177250000Y-145650000D01*
X177250000Y-146650000D01*
X174750000Y-146650000D01*
X174750000Y-145650000D01*
X173650000Y-145650000D01*
X173650000Y-144350000D01*
X174750000Y-144350000D01*
X174750000Y-142650000D01*
X177250000Y-142650000D01*
X177250000Y-144350000D01*
X178350000Y-151650000D02*
X177250000Y-151650000D01*
X177250000Y-151650000D02*
X177250000Y-153350000D01*
X177250000Y-153350000D02*
X174750000Y-153350000D01*
X174750000Y-153350000D02*
X174750000Y-151650000D01*
X174750000Y-151650000D02*
X173650000Y-151650000D01*
X173650000Y-151650000D02*
X173650000Y-150350000D01*
X173650000Y-150350000D02*
X174750000Y-150350000D01*
X174750000Y-150350000D02*
X174750000Y-149350000D01*
X174750000Y-149350000D02*
X177250000Y-149350000D01*
X177250000Y-149350000D02*
X177250000Y-150350000D01*
X177250000Y-150350000D02*
X178350000Y-150350000D01*
X178350000Y-150350000D02*
X178350000Y-151650000D01*
G36*
X177250000Y-150350000D02*
G01*
X178350000Y-150350000D01*
X178350000Y-151650000D01*
X177250000Y-151650000D01*
X177250000Y-153350000D01*
X174750000Y-153350000D01*
X174750000Y-151650000D01*
X173650000Y-151650000D01*
X173650000Y-150350000D01*
X174750000Y-150350000D01*
X174750000Y-149350000D01*
X177250000Y-149350000D01*
X177250000Y-150350000D01*
G37*
X177250000Y-150350000D02*
X178350000Y-150350000D01*
X178350000Y-151650000D01*
X177250000Y-151650000D01*
X177250000Y-153350000D01*
X174750000Y-153350000D01*
X174750000Y-151650000D01*
X173650000Y-151650000D01*
X173650000Y-150350000D01*
X174750000Y-150350000D01*
X174750000Y-149350000D01*
X177250000Y-149350000D01*
X177250000Y-150350000D01*
%TO.C,C33*%
X162400000Y-119550000D02*
X163500000Y-119550000D01*
X163500000Y-119550000D02*
X163500000Y-117650000D01*
X163500000Y-117650000D02*
X166000000Y-117650000D01*
X166000000Y-117650000D02*
X166000000Y-119550000D01*
X166000000Y-119550000D02*
X167100000Y-119550000D01*
X167100000Y-119550000D02*
X167100000Y-120850000D01*
X167100000Y-120850000D02*
X166000000Y-120850000D01*
X166000000Y-120850000D02*
X166000000Y-122050000D01*
X166000000Y-122050000D02*
X163500000Y-122050000D01*
X163500000Y-122050000D02*
X163500000Y-120850000D01*
X163500000Y-120850000D02*
X162400000Y-120850000D01*
X162400000Y-120850000D02*
X162400000Y-119550000D01*
G36*
X166000000Y-119550000D02*
G01*
X167100000Y-119550000D01*
X167100000Y-120850000D01*
X166000000Y-120850000D01*
X166000000Y-122050000D01*
X163500000Y-122050000D01*
X163500000Y-120850000D01*
X162400000Y-120850000D01*
X162400000Y-119550000D01*
X163500000Y-119550000D01*
X163500000Y-117650000D01*
X166000000Y-117650000D01*
X166000000Y-119550000D01*
G37*
X166000000Y-119550000D02*
X167100000Y-119550000D01*
X167100000Y-120850000D01*
X166000000Y-120850000D01*
X166000000Y-122050000D01*
X163500000Y-122050000D01*
X163500000Y-120850000D01*
X162400000Y-120850000D01*
X162400000Y-119550000D01*
X163500000Y-119550000D01*
X163500000Y-117650000D01*
X166000000Y-117650000D01*
X166000000Y-119550000D01*
X162400000Y-128450000D02*
X163500000Y-128450000D01*
X163500000Y-128450000D02*
X163500000Y-130350000D01*
X163500000Y-130350000D02*
X166000000Y-130350000D01*
X166000000Y-130350000D02*
X166000000Y-128450000D01*
X166000000Y-128450000D02*
X167100000Y-128450000D01*
X167100000Y-128450000D02*
X167100000Y-127150000D01*
X167100000Y-127150000D02*
X166000000Y-127150000D01*
X166000000Y-127150000D02*
X166000000Y-125950000D01*
X166000000Y-125950000D02*
X163500000Y-125950000D01*
X163500000Y-125950000D02*
X163500000Y-127150000D01*
X163500000Y-127150000D02*
X162400000Y-127150000D01*
X162400000Y-127150000D02*
X162400000Y-128450000D01*
G36*
X166000000Y-127150000D02*
G01*
X167100000Y-127150000D01*
X167100000Y-128450000D01*
X166000000Y-128450000D01*
X166000000Y-130350000D01*
X163500000Y-130350000D01*
X163500000Y-128450000D01*
X162400000Y-128450000D01*
X162400000Y-127150000D01*
X163500000Y-127150000D01*
X163500000Y-125950000D01*
X166000000Y-125950000D01*
X166000000Y-127150000D01*
G37*
X166000000Y-127150000D02*
X167100000Y-127150000D01*
X167100000Y-128450000D01*
X166000000Y-128450000D01*
X166000000Y-130350000D01*
X163500000Y-130350000D01*
X163500000Y-128450000D01*
X162400000Y-128450000D01*
X162400000Y-127150000D01*
X163500000Y-127150000D01*
X163500000Y-125950000D01*
X166000000Y-125950000D01*
X166000000Y-127150000D01*
%TO.C,C26*%
X85400000Y-81550000D02*
X86500000Y-81550000D01*
X86500000Y-81550000D02*
X86500000Y-79650000D01*
X86500000Y-79650000D02*
X89000000Y-79650000D01*
X89000000Y-79650000D02*
X89000000Y-81550000D01*
X89000000Y-81550000D02*
X90100000Y-81550000D01*
X90100000Y-81550000D02*
X90100000Y-82850000D01*
X90100000Y-82850000D02*
X89000000Y-82850000D01*
X89000000Y-82850000D02*
X89000000Y-84050000D01*
X89000000Y-84050000D02*
X86500000Y-84050000D01*
X86500000Y-84050000D02*
X86500000Y-82850000D01*
X86500000Y-82850000D02*
X85400000Y-82850000D01*
X85400000Y-82850000D02*
X85400000Y-81550000D01*
G36*
X89000000Y-81550000D02*
G01*
X90100000Y-81550000D01*
X90100000Y-82850000D01*
X89000000Y-82850000D01*
X89000000Y-84050000D01*
X86500000Y-84050000D01*
X86500000Y-82850000D01*
X85400000Y-82850000D01*
X85400000Y-81550000D01*
X86500000Y-81550000D01*
X86500000Y-79650000D01*
X89000000Y-79650000D01*
X89000000Y-81550000D01*
G37*
X89000000Y-81550000D02*
X90100000Y-81550000D01*
X90100000Y-82850000D01*
X89000000Y-82850000D01*
X89000000Y-84050000D01*
X86500000Y-84050000D01*
X86500000Y-82850000D01*
X85400000Y-82850000D01*
X85400000Y-81550000D01*
X86500000Y-81550000D01*
X86500000Y-79650000D01*
X89000000Y-79650000D01*
X89000000Y-81550000D01*
X85400000Y-90450000D02*
X86500000Y-90450000D01*
X86500000Y-90450000D02*
X86500000Y-92350000D01*
X86500000Y-92350000D02*
X89000000Y-92350000D01*
X89000000Y-92350000D02*
X89000000Y-90450000D01*
X89000000Y-90450000D02*
X90100000Y-90450000D01*
X90100000Y-90450000D02*
X90100000Y-89150000D01*
X90100000Y-89150000D02*
X89000000Y-89150000D01*
X89000000Y-89150000D02*
X89000000Y-87950000D01*
X89000000Y-87950000D02*
X86500000Y-87950000D01*
X86500000Y-87950000D02*
X86500000Y-89150000D01*
X86500000Y-89150000D02*
X85400000Y-89150000D01*
X85400000Y-89150000D02*
X85400000Y-90450000D01*
G36*
X89000000Y-89150000D02*
G01*
X90100000Y-89150000D01*
X90100000Y-90450000D01*
X89000000Y-90450000D01*
X89000000Y-92350000D01*
X86500000Y-92350000D01*
X86500000Y-90450000D01*
X85400000Y-90450000D01*
X85400000Y-89150000D01*
X86500000Y-89150000D01*
X86500000Y-87950000D01*
X89000000Y-87950000D01*
X89000000Y-89150000D01*
G37*
X89000000Y-89150000D02*
X90100000Y-89150000D01*
X90100000Y-90450000D01*
X89000000Y-90450000D01*
X89000000Y-92350000D01*
X86500000Y-92350000D01*
X86500000Y-90450000D01*
X85400000Y-90450000D01*
X85400000Y-89150000D01*
X86500000Y-89150000D01*
X86500000Y-87950000D01*
X89000000Y-87950000D01*
X89000000Y-89150000D01*
%TO.C,C34*%
X162400000Y-157550000D02*
X163500000Y-157550000D01*
X163500000Y-157550000D02*
X163500000Y-155650000D01*
X163500000Y-155650000D02*
X166000000Y-155650000D01*
X166000000Y-155650000D02*
X166000000Y-157550000D01*
X166000000Y-157550000D02*
X167100000Y-157550000D01*
X167100000Y-157550000D02*
X167100000Y-158850000D01*
X167100000Y-158850000D02*
X166000000Y-158850000D01*
X166000000Y-158850000D02*
X166000000Y-160050000D01*
X166000000Y-160050000D02*
X163500000Y-160050000D01*
X163500000Y-160050000D02*
X163500000Y-158850000D01*
X163500000Y-158850000D02*
X162400000Y-158850000D01*
X162400000Y-158850000D02*
X162400000Y-157550000D01*
G36*
X166000000Y-157550000D02*
G01*
X167100000Y-157550000D01*
X167100000Y-158850000D01*
X166000000Y-158850000D01*
X166000000Y-160050000D01*
X163500000Y-160050000D01*
X163500000Y-158850000D01*
X162400000Y-158850000D01*
X162400000Y-157550000D01*
X163500000Y-157550000D01*
X163500000Y-155650000D01*
X166000000Y-155650000D01*
X166000000Y-157550000D01*
G37*
X166000000Y-157550000D02*
X167100000Y-157550000D01*
X167100000Y-158850000D01*
X166000000Y-158850000D01*
X166000000Y-160050000D01*
X163500000Y-160050000D01*
X163500000Y-158850000D01*
X162400000Y-158850000D01*
X162400000Y-157550000D01*
X163500000Y-157550000D01*
X163500000Y-155650000D01*
X166000000Y-155650000D01*
X166000000Y-157550000D01*
X162400000Y-166450000D02*
X163500000Y-166450000D01*
X163500000Y-166450000D02*
X163500000Y-168350000D01*
X163500000Y-168350000D02*
X166000000Y-168350000D01*
X166000000Y-168350000D02*
X166000000Y-166450000D01*
X166000000Y-166450000D02*
X167100000Y-166450000D01*
X167100000Y-166450000D02*
X167100000Y-165150000D01*
X167100000Y-165150000D02*
X166000000Y-165150000D01*
X166000000Y-165150000D02*
X166000000Y-163950000D01*
X166000000Y-163950000D02*
X163500000Y-163950000D01*
X163500000Y-163950000D02*
X163500000Y-165150000D01*
X163500000Y-165150000D02*
X162400000Y-165150000D01*
X162400000Y-165150000D02*
X162400000Y-166450000D01*
G36*
X166000000Y-165150000D02*
G01*
X167100000Y-165150000D01*
X167100000Y-166450000D01*
X166000000Y-166450000D01*
X166000000Y-168350000D01*
X163500000Y-168350000D01*
X163500000Y-166450000D01*
X162400000Y-166450000D01*
X162400000Y-165150000D01*
X163500000Y-165150000D01*
X163500000Y-163950000D01*
X166000000Y-163950000D01*
X166000000Y-165150000D01*
G37*
X166000000Y-165150000D02*
X167100000Y-165150000D01*
X167100000Y-166450000D01*
X166000000Y-166450000D01*
X166000000Y-168350000D01*
X163500000Y-168350000D01*
X163500000Y-166450000D01*
X162400000Y-166450000D01*
X162400000Y-165150000D01*
X163500000Y-165150000D01*
X163500000Y-163950000D01*
X166000000Y-163950000D01*
X166000000Y-165150000D01*
%TO.C,C48*%
X178350000Y-258350000D02*
X177250000Y-258350000D01*
X177250000Y-258350000D02*
X177250000Y-256650000D01*
X177250000Y-256650000D02*
X174750000Y-256650000D01*
X174750000Y-256650000D02*
X174750000Y-258350000D01*
X174750000Y-258350000D02*
X173650000Y-258350000D01*
X173650000Y-258350000D02*
X173650000Y-259650000D01*
X173650000Y-259650000D02*
X174750000Y-259650000D01*
X174750000Y-259650000D02*
X174750000Y-260650000D01*
X174750000Y-260650000D02*
X177250000Y-260650000D01*
X177250000Y-260650000D02*
X177250000Y-259650000D01*
X177250000Y-259650000D02*
X178350000Y-259650000D01*
X178350000Y-259650000D02*
X178350000Y-258350000D01*
G36*
X177250000Y-258350000D02*
G01*
X178350000Y-258350000D01*
X178350000Y-259650000D01*
X177250000Y-259650000D01*
X177250000Y-260650000D01*
X174750000Y-260650000D01*
X174750000Y-259650000D01*
X173650000Y-259650000D01*
X173650000Y-258350000D01*
X174750000Y-258350000D01*
X174750000Y-256650000D01*
X177250000Y-256650000D01*
X177250000Y-258350000D01*
G37*
X177250000Y-258350000D02*
X178350000Y-258350000D01*
X178350000Y-259650000D01*
X177250000Y-259650000D01*
X177250000Y-260650000D01*
X174750000Y-260650000D01*
X174750000Y-259650000D01*
X173650000Y-259650000D01*
X173650000Y-258350000D01*
X174750000Y-258350000D01*
X174750000Y-256650000D01*
X177250000Y-256650000D01*
X177250000Y-258350000D01*
X178350000Y-265650000D02*
X177250000Y-265650000D01*
X177250000Y-265650000D02*
X177250000Y-267350000D01*
X177250000Y-267350000D02*
X174750000Y-267350000D01*
X174750000Y-267350000D02*
X174750000Y-265650000D01*
X174750000Y-265650000D02*
X173650000Y-265650000D01*
X173650000Y-265650000D02*
X173650000Y-264350000D01*
X173650000Y-264350000D02*
X174750000Y-264350000D01*
X174750000Y-264350000D02*
X174750000Y-263350000D01*
X174750000Y-263350000D02*
X177250000Y-263350000D01*
X177250000Y-263350000D02*
X177250000Y-264350000D01*
X177250000Y-264350000D02*
X178350000Y-264350000D01*
X178350000Y-264350000D02*
X178350000Y-265650000D01*
G36*
X177250000Y-264350000D02*
G01*
X178350000Y-264350000D01*
X178350000Y-265650000D01*
X177250000Y-265650000D01*
X177250000Y-267350000D01*
X174750000Y-267350000D01*
X174750000Y-265650000D01*
X173650000Y-265650000D01*
X173650000Y-264350000D01*
X174750000Y-264350000D01*
X174750000Y-263350000D01*
X177250000Y-263350000D01*
X177250000Y-264350000D01*
G37*
X177250000Y-264350000D02*
X178350000Y-264350000D01*
X178350000Y-265650000D01*
X177250000Y-265650000D01*
X177250000Y-267350000D01*
X174750000Y-267350000D01*
X174750000Y-265650000D01*
X173650000Y-265650000D01*
X173650000Y-264350000D01*
X174750000Y-264350000D01*
X174750000Y-263350000D01*
X177250000Y-263350000D01*
X177250000Y-264350000D01*
%TO.C,C47*%
X178350000Y-227650000D02*
X177250000Y-227650000D01*
X177250000Y-227650000D02*
X177250000Y-229350000D01*
X177250000Y-229350000D02*
X174750000Y-229350000D01*
X174750000Y-229350000D02*
X174750000Y-227650000D01*
X174750000Y-227650000D02*
X173650000Y-227650000D01*
X173650000Y-227650000D02*
X173650000Y-226350000D01*
X173650000Y-226350000D02*
X174750000Y-226350000D01*
X174750000Y-226350000D02*
X174750000Y-225350000D01*
X174750000Y-225350000D02*
X177250000Y-225350000D01*
X177250000Y-225350000D02*
X177250000Y-226350000D01*
X177250000Y-226350000D02*
X178350000Y-226350000D01*
X178350000Y-226350000D02*
X178350000Y-227650000D01*
G36*
X177250000Y-226350000D02*
G01*
X178350000Y-226350000D01*
X178350000Y-227650000D01*
X177250000Y-227650000D01*
X177250000Y-229350000D01*
X174750000Y-229350000D01*
X174750000Y-227650000D01*
X173650000Y-227650000D01*
X173650000Y-226350000D01*
X174750000Y-226350000D01*
X174750000Y-225350000D01*
X177250000Y-225350000D01*
X177250000Y-226350000D01*
G37*
X177250000Y-226350000D02*
X178350000Y-226350000D01*
X178350000Y-227650000D01*
X177250000Y-227650000D01*
X177250000Y-229350000D01*
X174750000Y-229350000D01*
X174750000Y-227650000D01*
X173650000Y-227650000D01*
X173650000Y-226350000D01*
X174750000Y-226350000D01*
X174750000Y-225350000D01*
X177250000Y-225350000D01*
X177250000Y-226350000D01*
X178350000Y-220350000D02*
X177250000Y-220350000D01*
X177250000Y-220350000D02*
X177250000Y-218650000D01*
X177250000Y-218650000D02*
X174750000Y-218650000D01*
X174750000Y-218650000D02*
X174750000Y-220350000D01*
X174750000Y-220350000D02*
X173650000Y-220350000D01*
X173650000Y-220350000D02*
X173650000Y-221650000D01*
X173650000Y-221650000D02*
X174750000Y-221650000D01*
X174750000Y-221650000D02*
X174750000Y-222650000D01*
X174750000Y-222650000D02*
X177250000Y-222650000D01*
X177250000Y-222650000D02*
X177250000Y-221650000D01*
X177250000Y-221650000D02*
X178350000Y-221650000D01*
X178350000Y-221650000D02*
X178350000Y-220350000D01*
G36*
X177250000Y-220350000D02*
G01*
X178350000Y-220350000D01*
X178350000Y-221650000D01*
X177250000Y-221650000D01*
X177250000Y-222650000D01*
X174750000Y-222650000D01*
X174750000Y-221650000D01*
X173650000Y-221650000D01*
X173650000Y-220350000D01*
X174750000Y-220350000D01*
X174750000Y-218650000D01*
X177250000Y-218650000D01*
X177250000Y-220350000D01*
G37*
X177250000Y-220350000D02*
X178350000Y-220350000D01*
X178350000Y-221650000D01*
X177250000Y-221650000D01*
X177250000Y-222650000D01*
X174750000Y-222650000D01*
X174750000Y-221650000D01*
X173650000Y-221650000D01*
X173650000Y-220350000D01*
X174750000Y-220350000D01*
X174750000Y-218650000D01*
X177250000Y-218650000D01*
X177250000Y-220350000D01*
%TD*%
D11*
%TO.C,D3*%
X97990000Y-140900000D03*
X98000000Y-134000000D03*
%TD*%
D12*
%TO.C,U7*%
X173225000Y-42200000D03*
X178775000Y-42200000D03*
X178775000Y-47050000D03*
X173225000Y-47050000D03*
D13*
X172600000Y-53775000D03*
X174300000Y-53775000D03*
X176000000Y-53775000D03*
X177700000Y-53775000D03*
X179400000Y-53775000D03*
%TD*%
D14*
%TO.C,C24*%
X154759000Y-236750000D03*
X153241000Y-236750000D03*
%TD*%
D15*
%TO.C,C8*%
X142220000Y-85000000D03*
X142780000Y-85000000D03*
%TD*%
D12*
%TO.C,U4*%
X96225000Y-161050000D03*
X101775000Y-161050000D03*
X101775000Y-156200000D03*
X96225000Y-156200000D03*
D13*
X95600000Y-167775000D03*
X97300000Y-167775000D03*
X99000000Y-167775000D03*
X100700000Y-167775000D03*
X102400000Y-167775000D03*
%TD*%
D12*
%TO.C,U1*%
X101775000Y-47050000D03*
X96225000Y-42200000D03*
X96225000Y-47050000D03*
X101775000Y-42200000D03*
D13*
X95600000Y-53775000D03*
X97300000Y-53775000D03*
X99000000Y-53775000D03*
X100700000Y-53775000D03*
X102400000Y-53775000D03*
%TD*%
D14*
%TO.C,C19*%
X154759000Y-46750000D03*
X153241000Y-46750000D03*
%TD*%
%TO.C,C22*%
X154759000Y-160750000D03*
X153241000Y-160750000D03*
%TD*%
D12*
%TO.C,U3*%
X101775000Y-123050000D03*
X96225000Y-118200000D03*
X101775000Y-118200000D03*
X96225000Y-123050000D03*
D13*
X95600000Y-129775000D03*
X97300000Y-129775000D03*
X99000000Y-129775000D03*
X100700000Y-129775000D03*
X102400000Y-129775000D03*
%TD*%
D12*
%TO.C,U10*%
X178775000Y-161050000D03*
X173225000Y-156200000D03*
X173225000Y-161050000D03*
X178775000Y-156200000D03*
D13*
X172600000Y-167775000D03*
X174300000Y-167775000D03*
X176000000Y-167775000D03*
X177700000Y-167775000D03*
X179400000Y-167775000D03*
%TD*%
D14*
%TO.C,C18*%
X78009000Y-236750000D03*
X76491000Y-236750000D03*
%TD*%
%TO.C,C14*%
X78009000Y-84750000D03*
X76491000Y-84750000D03*
%TD*%
D11*
%TO.C,D4*%
X97990000Y-178900000D03*
X98000000Y-172000000D03*
%TD*%
D14*
%TO.C,C15*%
X78009000Y-122750000D03*
X76491000Y-122750000D03*
%TD*%
D15*
%TO.C,C3*%
X65220000Y-123000000D03*
X65780000Y-123000000D03*
%TD*%
D11*
%TO.C,D8*%
X174990000Y-102900000D03*
X175000000Y-96000000D03*
%TD*%
D12*
%TO.C,U12*%
X178775000Y-237050000D03*
X178775000Y-232200000D03*
X173225000Y-232200000D03*
X173225000Y-237050000D03*
D13*
X172600000Y-243775000D03*
X174300000Y-243775000D03*
X176000000Y-243775000D03*
X177700000Y-243775000D03*
X179400000Y-243775000D03*
%TD*%
D14*
%TO.C,C20*%
X154759000Y-84750000D03*
X153241000Y-84750000D03*
%TD*%
D12*
%TO.C,U6*%
X101775000Y-237050000D03*
X96225000Y-232200000D03*
X101775000Y-232200000D03*
X96225000Y-237050000D03*
D13*
X95600000Y-243775000D03*
X97300000Y-243775000D03*
X99000000Y-243775000D03*
X100700000Y-243775000D03*
X102400000Y-243775000D03*
%TD*%
D11*
%TO.C,D10*%
X174990000Y-178900000D03*
X175000000Y-172000000D03*
%TD*%
D15*
%TO.C,C7*%
X142220000Y-47000000D03*
X142780000Y-47000000D03*
%TD*%
%TO.C,C1*%
X65780000Y-47000000D03*
X65220000Y-47000000D03*
%TD*%
D11*
%TO.C,D12*%
X174990000Y-254900000D03*
X175000000Y-248000000D03*
%TD*%
D14*
%TO.C,C21*%
X154759000Y-122750000D03*
X153241000Y-122750000D03*
%TD*%
%TO.C,C13*%
X77759000Y-46500000D03*
X76241000Y-46500000D03*
%TD*%
%TO.C,C17*%
X78009000Y-198750000D03*
X76491000Y-198750000D03*
%TD*%
D15*
%TO.C,C6*%
X65220000Y-237000000D03*
X65780000Y-237000000D03*
%TD*%
D12*
%TO.C,U5*%
X101775000Y-194200000D03*
X96225000Y-194200000D03*
X96225000Y-199050000D03*
X101775000Y-199050000D03*
D13*
X95600000Y-205775000D03*
X97300000Y-205775000D03*
X99000000Y-205775000D03*
X100700000Y-205775000D03*
X102400000Y-205775000D03*
%TD*%
D15*
%TO.C,C9*%
X142220000Y-123000000D03*
X142780000Y-123000000D03*
%TD*%
D12*
%TO.C,U11*%
X173225000Y-194200000D03*
X178775000Y-199050000D03*
X178775000Y-194200000D03*
X173225000Y-199050000D03*
D13*
X172600000Y-205775000D03*
X174300000Y-205775000D03*
X176000000Y-205775000D03*
X177700000Y-205775000D03*
X179400000Y-205775000D03*
%TD*%
D15*
%TO.C,C11*%
X142220000Y-199000000D03*
X142780000Y-199000000D03*
%TD*%
%TO.C,C4*%
X65220000Y-161000000D03*
X65780000Y-161000000D03*
%TD*%
D12*
%TO.C,U8*%
X173225000Y-80200000D03*
X178775000Y-80200000D03*
X173225000Y-85050000D03*
X178775000Y-85050000D03*
D13*
X172600000Y-91775000D03*
X174300000Y-91775000D03*
X176000000Y-91775000D03*
X177700000Y-91775000D03*
X179400000Y-91775000D03*
%TD*%
D11*
%TO.C,D9*%
X174990000Y-140900000D03*
X175000000Y-134000000D03*
%TD*%
D15*
%TO.C,C5*%
X65220000Y-199000000D03*
X65780000Y-199000000D03*
%TD*%
%TO.C,C12*%
X142220000Y-237000000D03*
X142780000Y-237000000D03*
%TD*%
D11*
%TO.C,D2*%
X97990000Y-102900000D03*
X98000000Y-96000000D03*
%TD*%
%TO.C,D7*%
X174990000Y-64900000D03*
X175000000Y-58000000D03*
%TD*%
%TO.C,D5*%
X97990000Y-216900000D03*
X98000000Y-210000000D03*
%TD*%
D15*
%TO.C,C10*%
X142220000Y-161000000D03*
X142780000Y-161000000D03*
%TD*%
D11*
%TO.C,D11*%
X174990000Y-216900000D03*
X175000000Y-210000000D03*
%TD*%
D12*
%TO.C,U2*%
X96225000Y-80200000D03*
X101775000Y-80200000D03*
X101775000Y-85050000D03*
X96225000Y-85050000D03*
D13*
X95600000Y-91775000D03*
X97300000Y-91775000D03*
X99000000Y-91775000D03*
X100700000Y-91775000D03*
X102400000Y-91775000D03*
%TD*%
D12*
%TO.C,U9*%
X178775000Y-118200000D03*
X173225000Y-118200000D03*
X178775000Y-123050000D03*
X173225000Y-123050000D03*
D13*
X172600000Y-129775000D03*
X174300000Y-129775000D03*
X176000000Y-129775000D03*
X177700000Y-129775000D03*
X179400000Y-129775000D03*
%TD*%
D11*
%TO.C,D6*%
X97990000Y-254900000D03*
X98000000Y-248000000D03*
%TD*%
D14*
%TO.C,C16*%
X78009000Y-160750000D03*
X76491000Y-160750000D03*
%TD*%
D16*
%TO.C,F1*%
X68000000Y-34875000D03*
X68000000Y-36125000D03*
%TD*%
D11*
%TO.C,D1*%
X97990000Y-64900000D03*
X98000000Y-58000000D03*
%TD*%
D14*
%TO.C,C23*%
X154759000Y-198750000D03*
X153241000Y-198750000D03*
%TD*%
D15*
%TO.C,C2*%
X65220000Y-85000000D03*
X65780000Y-85000000D03*
%TD*%
M02*
