%TF.GenerationSoftware,KiCad,Pcbnew,(6.0.1)*%
%TF.CreationDate,2024-03-16T16:01:57+01:00*%
%TF.ProjectId,mock_up_pcb,6d6f636b-5f75-4705-9f70-63622e6b6963,rev?*%
%TF.SameCoordinates,Original*%
%TF.FileFunction,Soldermask,Top*%
%TF.FilePolarity,Negative*%
%FSLAX46Y46*%
G04 Gerber Fmt 4.6, Leading zero omitted, Abs format (unit mm)*
G04 Created by KiCad (PCBNEW (6.0.1)) date 2024-03-16 16:01:57*
%MOMM*%
%LPD*%
G01*
G04 APERTURE LIST*
%ADD10C,1.500000*%
%ADD11C,1.240000*%
%ADD12R,1.200000X1.200000*%
%ADD13C,1.200000*%
%ADD14C,2.400000*%
%ADD15C,5.700000*%
%ADD16R,3.300000X2.450000*%
%ADD17R,0.800000X1.000000*%
%ADD18C,1.800000*%
%ADD19C,3.300000*%
%ADD20C,3.000000*%
%ADD21C,2.700000*%
%ADD22C,2.775000*%
%ADD23R,3.550000X1.190000*%
%ADD24R,1.070000X2.160000*%
%ADD25R,8.330000X7.000000*%
%ADD26R,1.235000X1.910000*%
%ADD27R,0.960000X1.390000*%
%ADD28R,3.810000X4.240000*%
%ADD29C,4.000000*%
%ADD30C,1.950000*%
%ADD31R,0.710000X1.780000*%
%ADD32R,1.635000X1.635000*%
%ADD33C,1.635000*%
%ADD34C,4.800000*%
%ADD35R,2.050000X4.300000*%
%ADD36C,3.050000*%
%ADD37C,3.290000*%
%ADD38C,2.250000*%
%ADD39C,1.100000*%
%ADD40R,1.000000X0.800000*%
%ADD41R,2.000000X2.600000*%
%ADD42R,2.600000X2.000000*%
G04 APERTURE END LIST*
D10*
%TO.C,Q13*%
X212250000Y-78750000D03*
X213550000Y-80020000D03*
X212250000Y-81290000D03*
%TD*%
%TO.C,Q14*%
X265500000Y-94500000D03*
X266800000Y-95770000D03*
X265500000Y-97040000D03*
%TD*%
%TO.C,Q7*%
X194500000Y-110250000D03*
X195800000Y-111520000D03*
X194500000Y-112790000D03*
%TD*%
%TO.C,Q6*%
X230000000Y-94500000D03*
X231300000Y-95770000D03*
X230000000Y-97040000D03*
%TD*%
%TO.C,Q16*%
X247750000Y-94500000D03*
X249050000Y-95770000D03*
X247750000Y-97040000D03*
%TD*%
%TO.C,Q1*%
X230000000Y-78750000D03*
X231300000Y-80020000D03*
X230000000Y-81290000D03*
%TD*%
%TO.C,Q15*%
X194500000Y-78750000D03*
X195800000Y-80020000D03*
X194500000Y-81290000D03*
%TD*%
%TO.C,Q9*%
X230000000Y-110250000D03*
X231300000Y-111520000D03*
X230000000Y-112790000D03*
%TD*%
%TO.C,Q4*%
X194500000Y-94500000D03*
X195800000Y-95770000D03*
X194500000Y-97040000D03*
%TD*%
%TO.C,Q8*%
X212250000Y-110250000D03*
X213550000Y-111520000D03*
X212250000Y-112790000D03*
%TD*%
%TO.C,Q12*%
X265500000Y-126000000D03*
X266800000Y-127270000D03*
X265500000Y-128540000D03*
%TD*%
%TO.C,Q2*%
X247750000Y-78750000D03*
X249050000Y-80020000D03*
X247750000Y-81290000D03*
%TD*%
%TO.C,Q5*%
X212250000Y-94500000D03*
X213550000Y-95770000D03*
X212250000Y-97040000D03*
%TD*%
%TO.C,Q10*%
X247750000Y-110250000D03*
X249050000Y-111520000D03*
X247750000Y-112790000D03*
%TD*%
%TO.C,Q3*%
X265500000Y-78750000D03*
X266800000Y-80020000D03*
X265500000Y-81290000D03*
%TD*%
%TO.C,Q11*%
X265500000Y-110250000D03*
X266800000Y-111520000D03*
X265500000Y-112790000D03*
%TD*%
D11*
%TO.C,VR19*%
X298945000Y-87925000D03*
X301485000Y-85385000D03*
X304025000Y-87925000D03*
%TD*%
%TO.C,VR21*%
X298945000Y-66425000D03*
X301485000Y-63885000D03*
X304025000Y-66425000D03*
%TD*%
%TO.C,VR15*%
X298945000Y-130925000D03*
X301485000Y-128385000D03*
X304025000Y-130925000D03*
%TD*%
%TO.C,VR14*%
X298945000Y-141675000D03*
X301485000Y-139135000D03*
X304025000Y-141675000D03*
%TD*%
%TO.C,VR17*%
X298945000Y-109425000D03*
X301485000Y-106885000D03*
X304025000Y-109425000D03*
%TD*%
%TO.C,VR16*%
X298945000Y-120175000D03*
X301485000Y-117635000D03*
X304025000Y-120175000D03*
%TD*%
%TO.C,VR20*%
X298945000Y-77175000D03*
X301485000Y-74635000D03*
X304025000Y-77175000D03*
%TD*%
%TO.C,VR13*%
X298945000Y-152425000D03*
X301485000Y-149885000D03*
X304025000Y-152425000D03*
%TD*%
%TO.C,VR22*%
X298945000Y-55675000D03*
X301485000Y-53135000D03*
X304025000Y-55675000D03*
%TD*%
%TO.C,VR12*%
X298945000Y-163175000D03*
X301485000Y-160635000D03*
X304025000Y-163175000D03*
%TD*%
%TO.C,VR18*%
X298945000Y-98675000D03*
X301485000Y-96135000D03*
X304025000Y-98675000D03*
%TD*%
D12*
%TO.C,LED13*%
X262000000Y-133000000D03*
D13*
X262000000Y-135540000D03*
%TD*%
D14*
%TO.C,TP35*%
X195250000Y-140000000D03*
%TD*%
%TO.C,TP1*%
X279250000Y-163250000D03*
%TD*%
D15*
%TO.C,REF\u002A\u002A*%
X161500000Y-46500000D03*
%TD*%
D16*
%TO.C,R14*%
X225500000Y-97450000D03*
X225500000Y-92550000D03*
%TD*%
D17*
%TO.C,R9*%
X265900000Y-88250000D03*
X267600000Y-88250000D03*
%TD*%
D18*
%TO.C,J8*%
X161340000Y-67646000D03*
X171500000Y-67646000D03*
X161340000Y-77806000D03*
X171500000Y-77806000D03*
D19*
X167700000Y-72726000D03*
%TD*%
D20*
%TO.C,J6*%
X272000000Y-52750000D03*
X230000000Y-52750000D03*
D21*
X230000000Y-60050000D03*
X234200000Y-60050000D03*
X238400000Y-60050000D03*
X242600000Y-60050000D03*
X246800000Y-60050000D03*
X251000000Y-60050000D03*
X255200000Y-60050000D03*
X259400000Y-60050000D03*
X263600000Y-60050000D03*
X267800000Y-60050000D03*
X272000000Y-60050000D03*
X230000000Y-65550000D03*
X234200000Y-65550000D03*
X238400000Y-65550000D03*
X242600000Y-65550000D03*
X246800000Y-65550000D03*
X251000000Y-65550000D03*
X255200000Y-65550000D03*
X259400000Y-65550000D03*
X263600000Y-65550000D03*
X267800000Y-65550000D03*
X272000000Y-65550000D03*
%TD*%
D17*
%TO.C,R7*%
X248150000Y-88250000D03*
X249850000Y-88250000D03*
%TD*%
%TO.C,R17*%
X194900000Y-119750000D03*
X196600000Y-119750000D03*
%TD*%
D22*
%TO.C,S14*%
X255250000Y-133950000D03*
X255250000Y-129250000D03*
X255250000Y-124550000D03*
%TD*%
D14*
%TO.C,TP3*%
X279250000Y-141750000D03*
%TD*%
D23*
%TO.C,VR3*%
X283925000Y-139210000D03*
X290075000Y-141750000D03*
X283925000Y-144290000D03*
%TD*%
D12*
%TO.C,LED7*%
X226500000Y-101500000D03*
D13*
X226500000Y-104040000D03*
%TD*%
D23*
%TO.C,VR5*%
X283925000Y-117710000D03*
X290075000Y-120250000D03*
X283925000Y-122790000D03*
%TD*%
D22*
%TO.C,S6*%
X184250000Y-102450000D03*
X184250000Y-97750000D03*
X184250000Y-93050000D03*
%TD*%
D12*
%TO.C,LED2*%
X226500000Y-85750000D03*
D13*
X226500000Y-88290000D03*
%TD*%
D14*
%TO.C,TP26*%
X308250000Y-131000000D03*
%TD*%
D17*
%TO.C,R11*%
X194900000Y-104000000D03*
X196600000Y-104000000D03*
%TD*%
D14*
%TO.C,TP30*%
X308250000Y-88000000D03*
%TD*%
D22*
%TO.C,S3*%
X219750000Y-86700000D03*
X219750000Y-82000000D03*
X219750000Y-77300000D03*
%TD*%
D17*
%TO.C,R21*%
X230400000Y-119750000D03*
X232100000Y-119750000D03*
%TD*%
D12*
%TO.C,LED11*%
X244250000Y-117250000D03*
D13*
X244250000Y-119790000D03*
%TD*%
D23*
%TO.C,VR6*%
X283925000Y-106960000D03*
X290075000Y-109500000D03*
X283925000Y-112040000D03*
%TD*%
D15*
%TO.C,REF\u002A\u002A*%
X314750000Y-165000000D03*
%TD*%
D14*
%TO.C,TP27*%
X308250000Y-120250000D03*
%TD*%
D23*
%TO.C,VR4*%
X283925000Y-128460000D03*
X290075000Y-131000000D03*
X283925000Y-133540000D03*
%TD*%
D22*
%TO.C,S23*%
X210250000Y-137200000D03*
X210250000Y-132500000D03*
X210250000Y-127800000D03*
%TD*%
D16*
%TO.C,R24*%
X261000000Y-113200000D03*
X261000000Y-108300000D03*
%TD*%
D22*
%TO.C,S21*%
X237750000Y-137100000D03*
X237750000Y-132400000D03*
X237750000Y-127700000D03*
%TD*%
%TO.C,S7*%
X202000000Y-102450000D03*
X202000000Y-97750000D03*
X202000000Y-93050000D03*
%TD*%
D14*
%TO.C,TP32*%
X308250000Y-66500000D03*
%TD*%
D24*
%TO.C,IC1*%
X171960000Y-107920000D03*
X174500000Y-107920000D03*
X177040000Y-107920000D03*
D25*
X174500000Y-97250000D03*
D26*
X179282500Y-94705000D03*
X169717500Y-94705000D03*
%TD*%
D22*
%TO.C,S11*%
X219750000Y-118200000D03*
X219750000Y-113500000D03*
X219750000Y-108800000D03*
%TD*%
D14*
%TO.C,TP33*%
X308250000Y-55750000D03*
%TD*%
D20*
%TO.C,J5*%
X222250000Y-52750000D03*
X180250000Y-52750000D03*
D21*
X180250000Y-60050000D03*
X184450000Y-60050000D03*
X188650000Y-60050000D03*
X192850000Y-60050000D03*
X197050000Y-60050000D03*
X201250000Y-60050000D03*
X205450000Y-60050000D03*
X209650000Y-60050000D03*
X213850000Y-60050000D03*
X218050000Y-60050000D03*
X222250000Y-60050000D03*
X180250000Y-65550000D03*
X184450000Y-65550000D03*
X188650000Y-65550000D03*
X192850000Y-65550000D03*
X197050000Y-65550000D03*
X201250000Y-65550000D03*
X205450000Y-65550000D03*
X209650000Y-65550000D03*
X213850000Y-65550000D03*
X218050000Y-65550000D03*
X222250000Y-65550000D03*
%TD*%
D14*
%TO.C,TP18*%
X294750000Y-98750000D03*
%TD*%
D22*
%TO.C,S13*%
X255250000Y-118200000D03*
X255250000Y-113500000D03*
X255250000Y-108800000D03*
%TD*%
D23*
%TO.C,VR10*%
X283925000Y-63960000D03*
X290075000Y-66500000D03*
X283925000Y-69040000D03*
%TD*%
D16*
%TO.C,R8*%
X261000000Y-81700000D03*
X261000000Y-76800000D03*
%TD*%
D14*
%TO.C,TP10*%
X279250000Y-66500000D03*
%TD*%
D27*
%TO.C,C2*%
X177310000Y-110831000D03*
X175690000Y-110831000D03*
%TD*%
D14*
%TO.C,TP23*%
X308250000Y-163250000D03*
%TD*%
D22*
%TO.C,S4*%
X237500000Y-86700000D03*
X237500000Y-82000000D03*
X237500000Y-77300000D03*
%TD*%
D17*
%TO.C,R27*%
X265900000Y-135500000D03*
X267600000Y-135500000D03*
%TD*%
%TO.C,R35*%
X248150000Y-104000000D03*
X249850000Y-104000000D03*
%TD*%
D14*
%TO.C,TP24*%
X308250000Y-152500000D03*
%TD*%
D28*
%TO.C,F1*%
X176000000Y-83565000D03*
X176000000Y-89935000D03*
%TD*%
D14*
%TO.C,TP21*%
X294750000Y-66500000D03*
%TD*%
%TO.C,TP31*%
X308250000Y-77250000D03*
%TD*%
%TO.C,TP9*%
X279250000Y-77250000D03*
%TD*%
D12*
%TO.C,LED6*%
X208750000Y-101500000D03*
D13*
X208750000Y-104040000D03*
%TD*%
D16*
%TO.C,R16*%
X190000000Y-113200000D03*
X190000000Y-108300000D03*
%TD*%
D14*
%TO.C,TP20*%
X294750000Y-77250000D03*
%TD*%
%TO.C,TP28*%
X308250000Y-109500000D03*
%TD*%
%TO.C,TP15*%
X294750000Y-131000000D03*
%TD*%
D22*
%TO.C,S8*%
X219750000Y-102450000D03*
X219750000Y-97750000D03*
X219750000Y-93050000D03*
%TD*%
D17*
%TO.C,R4*%
X230400000Y-88250000D03*
X232100000Y-88250000D03*
%TD*%
D12*
%TO.C,LED3*%
X244250000Y-85750000D03*
D13*
X244250000Y-88290000D03*
%TD*%
D14*
%TO.C,TP11*%
X279250000Y-55750000D03*
%TD*%
D17*
%TO.C,R13*%
X212650000Y-104000000D03*
X214350000Y-104000000D03*
%TD*%
D16*
%TO.C,R32*%
X190000000Y-81700000D03*
X190000000Y-76800000D03*
%TD*%
%TO.C,R12*%
X207750000Y-97450000D03*
X207750000Y-92550000D03*
%TD*%
%TO.C,R3*%
X225500000Y-81700000D03*
X225500000Y-76800000D03*
%TD*%
D29*
%TO.C,Shunt_Ctrl1*%
X163500000Y-113750000D03*
D30*
X166000000Y-108750000D03*
X161000000Y-108750000D03*
X163500000Y-118750000D03*
%TD*%
D12*
%TO.C,LED14*%
X208750000Y-85750000D03*
D13*
X208750000Y-88290000D03*
%TD*%
D22*
%TO.C,S12*%
X237500000Y-118200000D03*
X237500000Y-113500000D03*
X237500000Y-108800000D03*
%TD*%
D17*
%TO.C,R25*%
X265900000Y-119750000D03*
X267600000Y-119750000D03*
%TD*%
D22*
%TO.C,S5*%
X255250000Y-86700000D03*
X255250000Y-82000000D03*
X255250000Y-77300000D03*
%TD*%
D14*
%TO.C,TP29*%
X308250000Y-98750000D03*
%TD*%
D23*
%TO.C,VR2*%
X283925000Y-149960000D03*
X290075000Y-152500000D03*
X283925000Y-155040000D03*
%TD*%
D14*
%TO.C,TP8*%
X279250000Y-88000000D03*
%TD*%
D15*
%TO.C,REF\u002A\u002A*%
X161500000Y-165000000D03*
%TD*%
D12*
%TO.C,LED4*%
X262000000Y-85750000D03*
D13*
X262000000Y-88290000D03*
%TD*%
D14*
%TO.C,TP22*%
X294750000Y-55750000D03*
%TD*%
D22*
%TO.C,S18*%
X237500000Y-102450000D03*
X237500000Y-97750000D03*
X237500000Y-93050000D03*
%TD*%
D12*
%TO.C,LED5*%
X191000000Y-101500000D03*
D13*
X191000000Y-104040000D03*
%TD*%
D16*
%TO.C,R28*%
X207750000Y-81700000D03*
X207750000Y-76800000D03*
%TD*%
%TO.C,R5*%
X243250000Y-81700000D03*
X243250000Y-76800000D03*
%TD*%
%TO.C,R18*%
X207750000Y-113200000D03*
X207750000Y-108300000D03*
%TD*%
D31*
%TO.C,C1*%
X170710000Y-111081000D03*
X173790000Y-111081000D03*
%TD*%
D22*
%TO.C,S17*%
X184250000Y-86700000D03*
X184250000Y-82000000D03*
X184250000Y-77300000D03*
%TD*%
D16*
%TO.C,R34*%
X243250000Y-97450000D03*
X243250000Y-92550000D03*
%TD*%
D21*
%TO.C,J3*%
X205000000Y-155250000D03*
X200800000Y-155250000D03*
X196600000Y-155250000D03*
X205000000Y-149750000D03*
X200800000Y-149750000D03*
X196600000Y-149750000D03*
%TD*%
D15*
%TO.C,REF\u002A\u002A*%
X314750000Y-46500000D03*
%TD*%
D14*
%TO.C,TP5*%
X279250000Y-120250000D03*
%TD*%
%TO.C,TP7*%
X279250000Y-98750000D03*
%TD*%
%TO.C,TP34*%
X172000000Y-118750000D03*
%TD*%
D32*
%TO.C,J2*%
X264500000Y-158780000D03*
D33*
X261730000Y-158780000D03*
X258960000Y-158780000D03*
X256190000Y-158780000D03*
X253420000Y-158780000D03*
X263115000Y-161620000D03*
X260345000Y-161620000D03*
X257575000Y-161620000D03*
X254805000Y-161620000D03*
D34*
X271460000Y-160200000D03*
X246460000Y-160200000D03*
%TD*%
D12*
%TO.C,LED1*%
X162750000Y-142730000D03*
D13*
X162750000Y-145270000D03*
%TD*%
D22*
%TO.C,S19*%
X219750000Y-137200000D03*
X219750000Y-132500000D03*
X219750000Y-127800000D03*
%TD*%
D16*
%TO.C,R20*%
X225500000Y-113200000D03*
X225500000Y-108300000D03*
%TD*%
D35*
%TO.C,C3*%
X163250000Y-102450000D03*
X163250000Y-94050000D03*
%TD*%
D36*
%TO.C,J1*%
X225900000Y-161800000D03*
D22*
X228000000Y-154500000D03*
X223800000Y-154500000D03*
X228000000Y-149000000D03*
X223800000Y-149000000D03*
%TD*%
%TO.C,S15*%
X202000000Y-86700000D03*
X202000000Y-82000000D03*
X202000000Y-77300000D03*
%TD*%
D12*
%TO.C,LED12*%
X262000000Y-117250000D03*
D13*
X262000000Y-119790000D03*
%TD*%
D18*
%TO.C,J7*%
X161340000Y-52646000D03*
X171500000Y-52646000D03*
X161340000Y-62806000D03*
X171500000Y-62806000D03*
D19*
X167700000Y-57726000D03*
%TD*%
D17*
%TO.C,R23*%
X248150000Y-119750000D03*
X249850000Y-119750000D03*
%TD*%
D23*
%TO.C,VR8*%
X283925000Y-85460000D03*
X290075000Y-88000000D03*
X283925000Y-90540000D03*
%TD*%
D13*
%TO.C,S1*%
X237750000Y-148500000D03*
X237750000Y-151500000D03*
X237750000Y-154500000D03*
X237750000Y-157500000D03*
X237750000Y-160500000D03*
X237750000Y-163500000D03*
X235250000Y-148500000D03*
X235250000Y-151500000D03*
X235250000Y-154500000D03*
X235250000Y-157500000D03*
X235250000Y-160500000D03*
X235250000Y-163500000D03*
D37*
X236500000Y-145600000D03*
X236500000Y-166400000D03*
%TD*%
D17*
%TO.C,R19*%
X212650000Y-119750000D03*
X214350000Y-119750000D03*
%TD*%
%TO.C,R15*%
X230400000Y-104000000D03*
X232100000Y-104000000D03*
%TD*%
D14*
%TO.C,TP12*%
X294750000Y-163250000D03*
%TD*%
D17*
%TO.C,R29*%
X212650000Y-88250000D03*
X214350000Y-88250000D03*
%TD*%
D21*
%TO.C,J4*%
X189750000Y-155250000D03*
X185550000Y-155250000D03*
X181350000Y-155250000D03*
X177150000Y-155250000D03*
X172950000Y-155250000D03*
X168750000Y-155250000D03*
X189750000Y-149750000D03*
X185550000Y-149750000D03*
X181350000Y-149750000D03*
X177150000Y-149750000D03*
X172950000Y-149750000D03*
X168750000Y-149750000D03*
%TD*%
D22*
%TO.C,S9*%
X184250000Y-118200000D03*
X184250000Y-113500000D03*
X184250000Y-108800000D03*
%TD*%
D14*
%TO.C,TP2*%
X279250000Y-152500000D03*
%TD*%
D12*
%TO.C,LED9*%
X208750000Y-117250000D03*
D13*
X208750000Y-119790000D03*
%TD*%
D12*
%TO.C,LED16*%
X191000000Y-85750000D03*
D13*
X191000000Y-88290000D03*
%TD*%
%TO.C,S2*%
X161500000Y-134500000D03*
X161500000Y-130500000D03*
X161500000Y-126500000D03*
X164000000Y-134500000D03*
X164000000Y-130500000D03*
X164000000Y-126500000D03*
D38*
X159750000Y-138000000D03*
X159750000Y-123000000D03*
X165750000Y-138000000D03*
X165750000Y-123000000D03*
%TD*%
D39*
%TO.C,R6*%
X264000000Y-152750000D03*
X254000000Y-152750000D03*
%TD*%
D16*
%TO.C,R30*%
X261000000Y-97450000D03*
X261000000Y-92550000D03*
%TD*%
D23*
%TO.C,VR11*%
X283925000Y-53210000D03*
X290075000Y-55750000D03*
X283925000Y-58290000D03*
%TD*%
D22*
%TO.C,S16*%
X255250000Y-102410000D03*
X255250000Y-97710000D03*
X255250000Y-93010000D03*
%TD*%
D29*
%TO.C,Hall_high1*%
X187500000Y-131000000D03*
D30*
X190000000Y-126000000D03*
X185000000Y-126000000D03*
X187500000Y-136000000D03*
%TD*%
D16*
%TO.C,R10*%
X190000000Y-97450000D03*
X190000000Y-92550000D03*
%TD*%
D12*
%TO.C,LED15*%
X262000000Y-101500000D03*
D13*
X262000000Y-104040000D03*
%TD*%
D14*
%TO.C,TP25*%
X308250000Y-141750000D03*
%TD*%
D16*
%TO.C,R22*%
X243250000Y-113200000D03*
X243250000Y-108300000D03*
%TD*%
D22*
%TO.C,S22*%
X246760383Y-137201670D03*
X246760383Y-132501670D03*
X246760383Y-127801670D03*
%TD*%
D12*
%TO.C,LED10*%
X226500000Y-117250000D03*
D13*
X226500000Y-119790000D03*
%TD*%
D12*
%TO.C,LED8*%
X191000000Y-117250000D03*
D13*
X191000000Y-119790000D03*
%TD*%
D22*
%TO.C,S10*%
X202000000Y-118200000D03*
X202000000Y-113500000D03*
X202000000Y-108800000D03*
%TD*%
D23*
%TO.C,VR1*%
X283925000Y-160710000D03*
X290075000Y-163250000D03*
X283925000Y-165790000D03*
%TD*%
D14*
%TO.C,TP13*%
X294750000Y-152500000D03*
%TD*%
D16*
%TO.C,R26*%
X261000000Y-128950000D03*
X261000000Y-124050000D03*
%TD*%
D29*
%TO.C,Hall_low1*%
X199750000Y-131000000D03*
D30*
X202250000Y-126000000D03*
X197250000Y-126000000D03*
X199750000Y-136000000D03*
%TD*%
D14*
%TO.C,TP19*%
X294750000Y-88000000D03*
%TD*%
D23*
%TO.C,VR9*%
X283925000Y-74710000D03*
X290075000Y-77250000D03*
X283925000Y-79790000D03*
%TD*%
%TO.C,VR7*%
X283925000Y-96210000D03*
X290075000Y-98750000D03*
X283925000Y-101290000D03*
%TD*%
D14*
%TO.C,TP4*%
X279250000Y-131000000D03*
%TD*%
D40*
%TO.C,R1*%
X179500000Y-107231000D03*
X179500000Y-108931000D03*
%TD*%
D17*
%TO.C,R31*%
X265900000Y-104000000D03*
X267600000Y-104000000D03*
%TD*%
D14*
%TO.C,TP17*%
X294750000Y-109500000D03*
%TD*%
%TO.C,TP14*%
X294750000Y-141750000D03*
%TD*%
D40*
%TO.C,R2*%
X179500000Y-110731000D03*
X179500000Y-112431000D03*
%TD*%
D22*
%TO.C,S20*%
X228750000Y-137100000D03*
X228750000Y-132400000D03*
X228750000Y-127700000D03*
%TD*%
D41*
%TO.C,J10*%
X170750000Y-85250000D03*
X164750000Y-85250000D03*
D42*
X167750000Y-89950000D03*
%TD*%
D14*
%TO.C,TP6*%
X279250000Y-109500000D03*
%TD*%
%TO.C,TP36*%
X183000000Y-140000000D03*
%TD*%
%TO.C,TP16*%
X294750000Y-120250000D03*
%TD*%
D17*
%TO.C,R33*%
X194900000Y-88250000D03*
X196600000Y-88250000D03*
%TD*%
D12*
%TO.C,LED17*%
X244250000Y-101500000D03*
D13*
X244250000Y-104040000D03*
%TD*%
M02*
