M48
; DRILL file {KiCad (6.0.1)} date Sat Mar 16 16:02:24 2024
; FORMAT={-:-/ absolute / metric / decimal}
; #@! TF.CreationDate,2024-03-16T16:02:24+01:00
; #@! TF.GenerationSoftware,Kicad,Pcbnew,(6.0.1)
; #@! TF.FileFunction,Plated,1,4,PTH
FMAT,2
METRIC
; #@! TA.AperFunction,Plated,PTH,ComponentDrill
T1C0.700
; #@! TA.AperFunction,Plated,PTH,ComponentDrill
T2C0.740
; #@! TA.AperFunction,Plated,PTH,ViaDrill
T3C0.750
; #@! TA.AperFunction,Plated,PTH,ViaDrill
T4C1.000
; #@! TA.AperFunction,Plated,PTH,ComponentDrill
T5C1.000
; #@! TA.AperFunction,Plated,PTH,ComponentDrill
T6C1.090
; #@! TA.AperFunction,Plated,PTH,ComponentDrill
T7C1.200
; #@! TA.AperFunction,Plated,PTH,ComponentDrill
T8C1.300
; #@! TA.AperFunction,Plated,PTH,ComponentDrill
T9C1.500
; #@! TA.AperFunction,Plated,PTH,ComponentDrill
T10C1.600
; #@! TA.AperFunction,Plated,PTH,ComponentDrill
T11C1.800
; #@! TA.AperFunction,Plated,PTH,ComponentDrill
T12C1.850
; #@! TA.AperFunction,Plated,PTH,ComponentDrill
T13C2.193
; #@! TA.AperFunction,Plated,PTH,ComponentDrill
T14C2.200
; #@! TA.AperFunction,Plated,PTH,ComponentDrill
T15C3.200
%
G90
G05
T1
X161.5Y-126.5
X161.5Y-130.5
X161.5Y-134.5
X162.75Y-142.73
X162.75Y-145.27
X164.0Y-126.5
X164.0Y-130.5
X164.0Y-134.5
X191.0Y-85.75
X191.0Y-88.29
X191.0Y-101.5
X191.0Y-104.04
X191.0Y-117.25
X191.0Y-119.79
X208.75Y-85.75
X208.75Y-88.29
X208.75Y-101.5
X208.75Y-104.04
X208.75Y-117.25
X208.75Y-119.79
X226.5Y-85.75
X226.5Y-88.29
X226.5Y-101.5
X226.5Y-104.04
X226.5Y-117.25
X226.5Y-119.79
X235.25Y-148.5
X235.25Y-151.5
X235.25Y-154.5
X235.25Y-157.5
X235.25Y-160.5
X235.25Y-163.5
X237.75Y-148.5
X237.75Y-151.5
X237.75Y-154.5
X237.75Y-157.5
X237.75Y-160.5
X237.75Y-163.5
X244.25Y-85.75
X244.25Y-88.29
X244.25Y-101.5
X244.25Y-104.04
X244.25Y-117.25
X244.25Y-119.79
X254.0Y-152.75
X262.0Y-85.75
X262.0Y-88.29
X262.0Y-101.5
X262.0Y-104.04
X262.0Y-117.25
X262.0Y-119.79
X262.0Y-133.0
X262.0Y-135.54
X264.0Y-152.75
T2
X298.945Y-55.675
X298.945Y-66.425
X298.945Y-77.175
X298.945Y-87.925
X298.945Y-98.675
X298.945Y-109.425
X298.945Y-120.175
X298.945Y-130.925
X298.945Y-141.675
X298.945Y-152.425
X298.945Y-163.175
X301.485Y-53.135
X301.485Y-63.885
X301.485Y-74.635
X301.485Y-85.385
X301.485Y-96.135
X301.485Y-106.885
X301.485Y-117.635
X301.485Y-128.385
X301.485Y-139.135
X301.485Y-149.885
X301.485Y-160.635
X304.025Y-55.675
X304.025Y-66.425
X304.025Y-77.175
X304.025Y-87.925
X304.025Y-98.675
X304.025Y-109.425
X304.025Y-120.175
X304.025Y-130.925
X304.025Y-141.675
X304.025Y-152.425
X304.025Y-163.175
T3
X174.5Y-113.5
T4
X163.25Y-106.25
T5
X194.5Y-78.75
X194.5Y-81.29
X194.5Y-94.5
X194.5Y-97.04
X194.5Y-110.25
X194.5Y-112.79
X195.8Y-80.02
X195.8Y-95.77
X195.8Y-111.52
X212.25Y-78.75
X212.25Y-81.29
X212.25Y-94.5
X212.25Y-97.04
X212.25Y-110.25
X212.25Y-112.79
X213.55Y-80.02
X213.55Y-95.77
X213.55Y-111.52
X230.0Y-78.75
X230.0Y-81.29
X230.0Y-94.5
X230.0Y-97.04
X230.0Y-110.25
X230.0Y-112.79
X231.3Y-80.02
X231.3Y-95.77
X231.3Y-111.52
X247.75Y-78.75
X247.75Y-81.29
X247.75Y-94.5
X247.75Y-97.04
X247.75Y-110.25
X247.75Y-112.79
X249.05Y-80.02
X249.05Y-95.77
X249.05Y-111.52
X265.5Y-78.75
X265.5Y-81.29
X265.5Y-94.5
X265.5Y-97.04
X265.5Y-110.25
X265.5Y-112.79
X265.5Y-126.0
X265.5Y-128.54
X266.8Y-80.02
X266.8Y-95.77
X266.8Y-111.52
X266.8Y-127.27
T6
X253.42Y-158.78
X254.805Y-161.62
X256.19Y-158.78
X257.575Y-161.62
X258.96Y-158.78
X260.345Y-161.62
X261.73Y-158.78
X263.115Y-161.62
X264.5Y-158.78
T7
X161.34Y-52.646
X161.34Y-62.806
X161.34Y-67.646
X161.34Y-77.806
X171.5Y-52.646
X171.5Y-62.806
X171.5Y-67.646
X171.5Y-77.806
T8
X161.0Y-108.75
X163.5Y-118.75
X166.0Y-108.75
X185.0Y-126.0
X187.5Y-136.0
X190.0Y-126.0
X197.25Y-126.0
X199.75Y-136.0
X202.25Y-126.0
T9
X159.75Y-123.0
X159.75Y-138.0
X165.75Y-123.0
X165.75Y-138.0
T10
X172.0Y-118.75
X183.0Y-140.0
X195.25Y-140.0
X279.25Y-55.75
X279.25Y-66.5
X279.25Y-77.25
X279.25Y-88.0
X279.25Y-98.75
X279.25Y-109.5
X279.25Y-120.25
X279.25Y-131.0
X279.25Y-141.75
X279.25Y-152.5
X279.25Y-163.25
X294.75Y-55.75
X294.75Y-66.5
X294.75Y-77.25
X294.75Y-88.0
X294.75Y-98.75
X294.75Y-109.5
X294.75Y-120.25
X294.75Y-131.0
X294.75Y-141.75
X294.75Y-152.5
X294.75Y-163.25
X308.25Y-55.75
X308.25Y-66.5
X308.25Y-77.25
X308.25Y-88.0
X308.25Y-98.75
X308.25Y-109.5
X308.25Y-120.25
X308.25Y-131.0
X308.25Y-141.75
X308.25Y-152.5
X308.25Y-163.25
T11
X168.75Y-149.75
X168.75Y-155.25
X172.95Y-149.75
X172.95Y-155.25
X177.15Y-149.75
X177.15Y-155.25
X180.25Y-60.05
X180.25Y-65.55
X181.35Y-149.75
X181.35Y-155.25
X184.45Y-60.05
X184.45Y-65.55
X185.55Y-149.75
X185.55Y-155.25
X188.65Y-60.05
X188.65Y-65.55
X189.75Y-149.75
X189.75Y-155.25
X192.85Y-60.05
X192.85Y-65.55
X196.6Y-149.75
X196.6Y-155.25
X197.05Y-60.05
X197.05Y-65.55
X200.8Y-149.75
X200.8Y-155.25
X201.25Y-60.05
X201.25Y-65.55
X205.0Y-149.75
X205.0Y-155.25
X205.45Y-60.05
X205.45Y-65.55
X209.65Y-60.05
X209.65Y-65.55
X213.85Y-60.05
X213.85Y-65.55
X218.05Y-60.05
X218.05Y-65.55
X222.25Y-60.05
X222.25Y-65.55
X230.0Y-60.05
X230.0Y-65.55
X234.2Y-60.05
X234.2Y-65.55
X238.4Y-60.05
X238.4Y-65.55
X242.6Y-60.05
X242.6Y-65.55
X246.8Y-60.05
X246.8Y-65.55
X251.0Y-60.05
X251.0Y-65.55
X255.2Y-60.05
X255.2Y-65.55
X259.4Y-60.05
X259.4Y-65.55
X263.6Y-60.05
X263.6Y-65.55
X267.8Y-60.05
X267.8Y-65.55
X272.0Y-60.05
X272.0Y-65.55
T12
X184.25Y-77.3
X184.25Y-82.0
X184.25Y-86.7
X184.25Y-93.05
X184.25Y-97.75
X184.25Y-102.45
X184.25Y-108.8
X184.25Y-113.5
X184.25Y-118.2
X202.0Y-77.3
X202.0Y-82.0
X202.0Y-86.7
X202.0Y-93.05
X202.0Y-97.75
X202.0Y-102.45
X202.0Y-108.8
X202.0Y-113.5
X202.0Y-118.2
X210.25Y-127.8
X210.25Y-132.5
X210.25Y-137.2
X219.75Y-77.3
X219.75Y-82.0
X219.75Y-86.7
X219.75Y-93.05
X219.75Y-97.75
X219.75Y-102.45
X219.75Y-108.8
X219.75Y-113.5
X219.75Y-118.2
X219.75Y-127.8
X219.75Y-132.5
X219.75Y-137.2
X223.8Y-149.0
X223.8Y-154.5
X228.0Y-149.0
X228.0Y-154.5
X228.75Y-127.7
X228.75Y-132.4
X228.75Y-137.1
X237.5Y-77.3
X237.5Y-82.0
X237.5Y-86.7
X237.5Y-93.05
X237.5Y-97.75
X237.5Y-102.45
X237.5Y-108.8
X237.5Y-113.5
X237.5Y-118.2
X237.75Y-127.7
X237.75Y-132.4
X237.75Y-137.1
X246.76Y-127.802
X246.76Y-132.502
X246.76Y-137.202
X255.25Y-77.3
X255.25Y-82.0
X255.25Y-86.7
X255.25Y-93.01
X255.25Y-97.71
X255.25Y-102.41
X255.25Y-108.8
X255.25Y-113.5
X255.25Y-118.2
X255.25Y-124.55
X255.25Y-129.25
X255.25Y-133.95
T13
X236.5Y-145.6
X236.5Y-166.4
T14
X167.7Y-57.726
X167.7Y-72.726
T15
X161.5Y-46.5
X161.5Y-165.0
X246.46Y-160.2
X271.46Y-160.2
X314.75Y-46.5
X314.75Y-165.0
T5
G00X164.75Y-85.55
M15
G01X164.75Y-84.95
M16
G05
G00X167.45Y-89.95
M15
G01X168.05Y-89.95
M16
G05
G00X170.75Y-85.55
M15
G01X170.75Y-84.95
M16
G05
T0
M30
