M48
; DRILL file {KiCad (6.0.1)} date Thu Apr  7 10:36:42 2022
; FORMAT={-:-/ absolute / metric / decimal}
; #@! TF.CreationDate,2022-04-07T10:36:42+02:00
; #@! TF.GenerationSoftware,Kicad,Pcbnew,(6.0.1)
; #@! TF.FileFunction,Plated,1,2,PTH
FMAT,2
METRIC
; #@! TA.AperFunction,Plated,PTH,ViaDrill
T1C0.400
; #@! TA.AperFunction,Plated,PTH,ComponentDrill
T2C0.690
; #@! TA.AperFunction,Plated,PTH,ComponentDrill
T3C1.000
; #@! TA.AperFunction,Plated,PTH,ComponentDrill
T4C1.060
; #@! TA.AperFunction,Plated,PTH,ComponentDrill
T5C1.100
; #@! TA.AperFunction,Plated,PTH,ComponentDrill
T6C1.270
; #@! TA.AperFunction,Plated,PTH,ComponentDrill
T7C1.400
; #@! TA.AperFunction,Plated,PTH,ComponentDrill
T8C1.600
%
G90
G05
T1
X81.126Y-39.25
X82.575Y-38.0
X82.575Y-39.25
X105.25Y-56.5
X105.25Y-94.5
X105.25Y-132.5
X105.25Y-170.5
X105.25Y-208.5
X105.25Y-246.5
X138.5Y-46.0
X182.25Y-56.5
X182.25Y-94.5
X182.25Y-132.5
X182.25Y-170.5
X182.25Y-208.5
X182.25Y-246.5
T2
X108.46Y-64.97
X108.46Y-102.97
X108.46Y-140.97
X108.46Y-178.97
X108.46Y-216.97
X108.46Y-254.97
X111.0Y-62.43
X111.0Y-100.43
X111.0Y-138.43
X111.0Y-176.43
X111.0Y-214.43
X111.0Y-252.43
X113.54Y-64.97
X113.54Y-102.97
X113.54Y-140.97
X113.54Y-178.97
X113.54Y-216.97
X113.54Y-254.97
X185.46Y-64.97
X185.46Y-102.97
X185.46Y-140.97
X185.46Y-178.97
X185.46Y-216.97
X185.46Y-254.97
X188.0Y-62.43
X188.0Y-100.43
X188.0Y-138.43
X188.0Y-176.43
X188.0Y-214.43
X188.0Y-252.43
X190.54Y-64.97
X190.54Y-102.97
X190.54Y-140.97
X190.54Y-178.97
X190.54Y-216.97
X190.54Y-254.97
X217.46Y-41.47
X217.46Y-61.47
X217.46Y-81.47
X217.46Y-101.47
X217.46Y-121.47
X217.46Y-141.47
X217.46Y-161.47
X217.46Y-181.47
X217.46Y-201.47
X217.46Y-221.47
X217.46Y-241.47
X217.46Y-261.47
X220.0Y-38.93
X220.0Y-58.93
X220.0Y-78.93
X220.0Y-98.93
X220.0Y-118.93
X220.0Y-138.93
X220.0Y-158.93
X220.0Y-178.93
X220.0Y-198.93
X220.0Y-218.93
X220.0Y-238.93
X220.0Y-258.93
X222.54Y-41.47
X222.54Y-61.47
X222.54Y-81.47
X222.54Y-101.47
X222.54Y-121.47
X222.54Y-141.47
X222.54Y-161.47
X222.54Y-181.47
X222.54Y-201.47
X222.54Y-221.47
X222.54Y-241.47
X222.54Y-261.47
X232.46Y-41.47
X232.46Y-61.47
X232.46Y-81.47
X232.46Y-101.47
X232.46Y-121.47
X232.46Y-141.47
X232.46Y-161.47
X232.46Y-181.47
X232.46Y-201.47
X232.46Y-221.47
X232.46Y-241.47
X232.46Y-261.47
X235.0Y-38.93
X235.0Y-58.93
X235.0Y-78.93
X235.0Y-98.93
X235.0Y-118.93
X235.0Y-138.93
X235.0Y-158.93
X235.0Y-178.93
X235.0Y-198.93
X235.0Y-218.93
X235.0Y-238.93
X235.0Y-258.93
X237.54Y-41.47
X237.54Y-61.47
X237.54Y-81.47
X237.54Y-101.47
X237.54Y-121.47
X237.54Y-141.47
X237.54Y-161.47
X237.54Y-181.47
X237.54Y-201.47
X237.54Y-221.47
X237.54Y-241.47
X237.54Y-261.47
T3
X64.38Y-48.875
X64.38Y-86.875
X64.38Y-124.875
X64.38Y-162.875
X64.38Y-200.875
X64.38Y-238.875
X66.92Y-48.875
X66.92Y-86.875
X66.92Y-124.875
X66.92Y-162.875
X66.92Y-200.875
X66.92Y-238.875
X74.54Y-48.875
X74.54Y-86.875
X74.54Y-124.875
X74.54Y-162.875
X74.54Y-200.875
X74.54Y-238.875
X79.62Y-48.875
X79.62Y-86.875
X79.62Y-124.875
X79.62Y-162.875
X79.62Y-200.875
X79.62Y-238.875
X141.38Y-48.875
X141.38Y-86.875
X141.38Y-124.875
X141.38Y-162.875
X141.38Y-200.875
X141.38Y-238.875
X143.92Y-48.875
X143.92Y-86.875
X143.92Y-124.875
X143.92Y-162.875
X143.92Y-200.875
X143.92Y-238.875
X151.54Y-48.875
X151.54Y-86.875
X151.54Y-124.875
X151.54Y-162.875
X151.54Y-200.875
X151.54Y-238.875
X156.62Y-48.875
X156.62Y-86.875
X156.62Y-124.875
X156.62Y-162.875
X156.62Y-200.875
X156.62Y-238.875
T4
X104.8Y-67.35
X104.8Y-105.35
X104.8Y-143.35
X104.8Y-181.35
X104.8Y-219.35
X104.8Y-257.35
X106.2Y-62.25
X106.2Y-100.25
X106.2Y-138.25
X106.2Y-176.25
X106.2Y-214.25
X106.2Y-252.25
X181.8Y-67.35
X181.8Y-105.35
X181.8Y-143.35
X181.8Y-181.35
X181.8Y-219.35
X181.8Y-257.35
X183.2Y-62.25
X183.2Y-100.25
X183.2Y-138.25
X183.2Y-176.25
X183.2Y-214.25
X183.2Y-252.25
T5
X79.31Y-33.5
X81.85Y-33.5
X84.39Y-33.5
X86.93Y-33.5
X89.47Y-33.5
X92.01Y-33.5
X94.55Y-33.5
X97.09Y-33.5
X99.63Y-33.5
X102.17Y-33.5
X104.71Y-33.5
X107.25Y-33.5
X109.79Y-33.5
X112.33Y-33.5
X114.87Y-33.5
X117.41Y-33.5
X119.95Y-33.5
X122.49Y-33.5
X125.03Y-33.5
X127.57Y-33.5
X130.11Y-33.5
X132.65Y-33.5
X135.19Y-33.5
X137.73Y-33.5
T6
X78.0Y-58.396
X78.0Y-71.604
X78.0Y-96.396
X78.0Y-109.604
X78.0Y-134.396
X78.0Y-147.604
X78.0Y-172.396
X78.0Y-185.604
X78.0Y-210.396
X78.0Y-223.604
X78.0Y-248.396
X78.0Y-261.604
X155.0Y-58.396
X155.0Y-71.604
X155.0Y-96.396
X155.0Y-109.604
X155.0Y-134.396
X155.0Y-147.604
X155.0Y-172.396
X155.0Y-185.604
X155.0Y-210.396
X155.0Y-223.604
X155.0Y-248.396
X155.0Y-261.604
T7
X74.5Y-27.0
X79.58Y-27.0
X84.66Y-27.0
X89.74Y-27.0
X94.82Y-27.0
X99.9Y-27.0
X104.98Y-27.0
X110.06Y-27.0
X115.14Y-27.0
X120.22Y-27.0
X125.3Y-27.0
X130.38Y-27.0
X135.46Y-27.0
X140.54Y-27.0
X145.62Y-27.0
X155.5Y-27.0
X160.5Y-27.0
X165.5Y-27.0
X170.5Y-27.0
X175.5Y-27.0
X180.5Y-27.0
X185.5Y-27.0
X190.5Y-27.0
X195.5Y-27.0
X200.5Y-27.0
X205.5Y-27.0
X210.5Y-27.0
X215.5Y-27.0
X220.5Y-27.0
X225.5Y-27.0
X230.5Y-27.0
X235.5Y-27.0
X240.5Y-27.0
T8
X109.0Y-55.0
X109.0Y-93.0
X109.0Y-131.0
X109.0Y-169.0
X109.0Y-207.0
X109.0Y-245.0
X115.0Y-55.0
X115.0Y-93.0
X115.0Y-131.0
X115.0Y-169.0
X115.0Y-207.0
X115.0Y-245.0
X143.25Y-34.5
X148.25Y-34.5
X186.0Y-54.0
X186.0Y-92.0
X186.0Y-130.0
X186.0Y-168.0
X186.0Y-206.0
X186.0Y-244.0
X192.0Y-54.0
X192.0Y-92.0
X192.0Y-130.0
X192.0Y-168.0
X192.0Y-206.0
X192.0Y-244.0
T3
G00X62.0Y-27.3
M15
G01X62.0Y-26.7
M16
G05
G00X64.7Y-31.7
M15
G01X65.3Y-31.7
M16
G05
G00X68.0Y-27.3
M15
G01X68.0Y-26.7
M16
G05
T0
M30
