<?xml version="1.0" encoding="UTF-8" standalone="no"?>
<!-- Created with Inkscape (http://www.inkscape.org/) -->

<svg
   xmlns:dc="http://purl.org/dc/elements/1.1/"
   xmlns:cc="http://creativecommons.org/ns#"
   xmlns:rdf="http://www.w3.org/1999/02/22-rdf-syntax-ns#"
   xmlns:svg="http://www.w3.org/2000/svg"
   xmlns="http://www.w3.org/2000/svg"
   xmlns:sodipodi="http://sodipodi.sourceforge.net/DTD/sodipodi-0.dtd"
   xmlns:inkscape="http://www.inkscape.org/namespaces/inkscape"
   width="213.65314"
   height="64.187134"
   viewBox="0 0 56.529059 16.982845"
   version="1.1"
   id="svg1785"
   inkscape:version="0.92.0 r15299"
   sodipodi:docname="wiha.svg">
  <defs
     id="defs1779">
    <clipPath
       id="clipPath494"
       clipPathUnits="userSpaceOnUse">
      <path
         inkscape:connector-curvature="0"
         id="path492"
         d="M 419.76,713.569 H 578.5 v 63.699 H 419.76 Z" />
    </clipPath>
  </defs>
  <sodipodi:namedview
     id="base"
     pagecolor="#ffffff"
     bordercolor="#666666"
     borderopacity="1.0"
     inkscape:pageopacity="0.0"
     inkscape:pageshadow="2"
     inkscape:zoom="4.2380633"
     inkscape:cx="85.064296"
     inkscape:cy="19.720432"
     inkscape:document-units="mm"
     inkscape:current-layer="layer1"
     showgrid="false"
     fit-margin-top="0"
     fit-margin-left="0"
     fit-margin-right="0"
     fit-margin-bottom="0"
     units="px"
     inkscape:window-width="1280"
     inkscape:window-height="744"
     inkscape:window-x="-4"
     inkscape:window-y="-4"
     inkscape:window-maximized="1" />
  <metadata
     id="metadata1782">
    <rdf:RDF>
      <cc:Work
         rdf:about="">
        <dc:format>image/svg+xml</dc:format>
        <dc:type
           rdf:resource="http://purl.org/dc/dcmitype/StillImage" />
        <dc:title></dc:title>
      </cc:Work>
    </rdf:RDF>
  </metadata>
  <g
     inkscape:label="Layer 1"
     inkscape:groupmode="layer"
     id="layer1"
     transform="translate(15.526701,-137.06819)">
    <g
       id="g2208"
       transform="translate(0.26458411,-0.26457322)">
      <path
         d="m 31.342067,153.05519 h 5.505337 l 2.75408,-4.82654 -2.753878,-4.82633 h -5.505539 l -2.752467,4.82633 z m 5.940988,0.76423 h -6.376841 l -3.188319,-5.59077 3.188319,-5.59077 h 6.377043 l 3.189933,5.59077 z"
         style="fill:#d7182a;fill-opacity:1;fill-rule:nonzero;stroke:none;stroke-width:0.20292974"
         id="path646"
         inkscape:connector-curvature="0" />
      <path
         d="m 37.236183,148.57177 -0.270265,1.00312 c -0.04941,0.17396 -0.303745,0.13251 -0.303745,0.13251 -0.253525,0.004 -0.269862,-0.24828 -0.269862,-0.24828 0.01634,-0.12475 0.229523,-0.87918 0.229523,-0.87918 l 0.278131,-0.9484 c 0.07422,-0.15783 0.302939,-0.1662 0.302939,-0.1662 0.180715,0.0284 0.221456,0.1029 0.221456,0.1029 0.09016,0.058 -0.188177,1.00353 -0.188177,1.00353 m 0.261794,1.01925 0.679696,-2.58978 -0.507654,-0.005 c 0,0 -0.09359,0.2983 -0.12283,0.17395 -0.07362,-0.11944 -0.165587,-0.16926 -0.283576,-0.19927 -0.33884,-0.0741 -0.618786,0.10474 -0.780945,0.35833 -0.206329,0.71666 -0.38301,1.41821 -0.589944,2.14916 -0.04437,0.0592 -0.117989,0.13456 -0.206329,0.16437 -0.05869,0.0149 -0.177084,0.0447 -0.221456,-0.0298 0.176883,-0.70115 0.353967,-1.43312 0.560901,-2.13447 0.05506,-0.19233 0.07382,-0.34342 -0.07442,-0.44755 -0.304754,-0.27523 -0.951373,0.27992 -0.951373,0.27992 0.180311,-0.61886 0.362034,-1.3104 0.362034,-1.3104 h -0.501402 c 0,0 -0.893084,3.25907 -0.958028,3.43302 -0.09822,0.2489 -0.270467,0.1905 -0.41286,0.19418 0.191807,-0.89552 0.538916,-1.75143 0.715798,-2.63143 h -0.549202 c 0,0 -0.433634,1.70753 -0.556262,2.073 -0.246062,0.17376 -0.549404,0.37263 -0.480426,0.27483 0,0 0.692604,-1.5934 0.604466,-3.3436 h -0.530446 c 0.01291,0.34056 0.01291,0.61436 -0.02985,1.03048 0,0 -0.0472,0.57863 -0.26018,1.4078 -0.188379,0.56393 -0.335613,1.21893 -0.756541,1.20403 -0.147637,-0.0151 -0.14441,-0.11006 -0.07079,-0.41714 0.206329,-0.79016 0.409431,-1.41882 0.586717,-2.22471 h -0.531252 c -0.132309,0.47757 -0.513907,2.13426 -0.678284,2.51566 -0.08148,0.1658 -0.310402,0.13252 -0.351546,-0.0414 -0.04962,-0.26523 0.05688,-1.01946 0.212379,-1.67446 0.266232,-1.04926 0.721446,-1.80022 0.721446,-1.80022 h -0.596599 c -0.353765,0.68644 -0.558682,1.49294 -0.722455,2.20878 0,0 -0.178496,0.97576 -0.09036,1.49784 0.07382,0.29871 0.237591,0.4398 0.508259,0.45613 0.327344,0.0578 0.565137,-0.30728 0.761381,-0.0731 0.475384,0.24726 1.032049,-0.0178 1.533451,-0.47716 -0.04236,0.29299 0.0474,0.54229 0.34247,0.5917 0.220851,0.009 0.302939,-0.0245 0.453198,-0.17396 l 0.07422,0.13721 h 0.47135 l 0.462073,-1.77185 0.20169,-0.65398 c 0,0 0.24586,-0.15762 0.442307,-0.28196 0.0067,0.004 0.229725,-0.18193 0.06535,0.32362 -0.114762,0.50329 -0.404792,1.5009 -0.404792,1.5009 -0.07846,0.28217 -0.161756,0.43245 -0.08794,0.65643 0.05889,0.13435 0.196648,0.19887 0.328957,0.21418 0.213186,0.0414 0.401363,-0.166 0.655493,-0.23195 0.139166,-0.0498 0.253525,0.36303 0.630887,0.26523 0.204716,-0.0269 0.343277,-0.0998 0.433836,-0.13251 0.114157,-0.0253 0.131099,0.14864 0.311208,0.10719 0.152679,0.005 0.362236,-0.12005 0.425768,-0.19213 0.237389,-0.18866 0.103467,-0.46287 0.103467,-0.46287 0,0 -0.414675,0.21582 -0.341058,0.0825"
         style="fill:#d7182a;fill-opacity:1;fill-rule:nonzero;stroke:none;stroke-width:0.20292974"
         id="path650"
         inkscape:connector-curvature="0" />
      <path
         d="m 33.533957,146.31597 c 0,-0.26502 0.212582,-0.48084 0.475182,-0.48084 0.262198,0 0.474779,0.21582 0.474779,0.48084 0,0.26604 -0.212581,0.48104 -0.474779,0.48104 -0.2626,0 -0.475182,-0.215 -0.475182,-0.48104"
         style="fill:#d7182a;fill-opacity:1;fill-rule:nonzero;stroke:none;stroke-width:0.20292974"
         id="path654"
         inkscape:connector-curvature="0" />
      <path
         d="m 1.1089029,139.37185 c 0,-0.98025 0.7847768,-1.7745 1.7526883,-1.7745 0.9683149,0 1.7530916,0.79425 1.7530916,1.7745 0,0.98005 -0.7847767,1.7745 -1.7530916,1.7745 -0.9679115,0 -1.7526883,-0.79445 -1.7526883,-1.7745"
         style="fill:#546670;fill-opacity:1;fill-rule:evenodd;stroke:none;stroke-width:0.20292974"
         id="path658"
         inkscape:connector-curvature="0" />
      <path
         d="m 1.0271784,153.8064 c 0.1492508,0 0.2753072,-0.10801 0.305359,-0.25052 l 2.2978571,-10.49122 c 0.00585,-0.0237 0.00484,-0.0457 0.00484,-0.0711 0,-0.17396 -0.1387629,-0.31504 -0.310603,-0.31504 h -7.1648444 c -0.1458221,0 -0.2696599,0.0864 -0.3299653,0.21071 l -2.8575474,6.34929 v -6.24108 c 0,-0.17396 -0.1373511,-0.31892 -0.3091912,-0.31892 h -2.235333 c -0.148444,0 -0.2749038,0.0923 -0.3337974,0.2201 l -2.9977218,6.7019 -0.0058,-6.60696 c 0,-0.17396 -0.135737,-0.31504 -0.307577,-0.31504 h -2.000162 c -0.171638,0 -0.309393,0.14027 -0.309393,0.31423 l 0.233758,10.49632 c 0,0.17396 0.143201,0.31729 0.315242,0.31729 h 2.087293 c 0.152479,0 0.282568,-0.0919 0.339243,-0.22541 l 3.1304346,-6.46016 -0.049213,6.3695 c 0,0.17396 0.1383596,0.31607 0.309998,0.31607 h 2.2077014 c 0.1423934,0 0.2690548,-0.0806 0.3309737,-0.19968 l 4.464212,-8.75286 h 2.56630677 l -1.87410577,8.55562 c -0.00706,0.0259 -0.011093,0.0537 -0.011093,0.0819 0,0.17395 0.1407798,0.31504 0.3128216,0.31504 z"
         style="fill:#546670;fill-opacity:1;fill-rule:evenodd;stroke:none;stroke-width:0.20292974"
         id="path662"
         inkscape:connector-curvature="0" />
      <path
         d="m 7.8602192,149.3169 -0.9354394,4.23912 c -0.029648,0.14231 -0.1557049,0.25032 -0.305359,0.25032 H 4.4290647 c -0.1718401,0 -0.3126199,-0.14109 -0.3126199,-0.31504 0,-0.028 0.00403,-0.0559 0.010891,-0.0819 l 3.1711758,-14.48941 0.068373,-0.30075 c 0.028438,-0.13802 0.1315021,-0.2491 0.264416,-0.28564 l 2.2974536,-0.50003 c 0,0 0.04296,-0.007 0.065146,-0.007 0.1718398,0 0.3110068,0.14089 0.3110068,0.31505 0,0.0259 -0.01069,0.0514 -0.0091,0.0757 l -1.2970705,5.90255 c 0.7605739,-0.91288 1.8329615,-1.80738 3.1663355,-1.80125 3.348058,0.0149 2.152035,4.07904 2.152035,4.07904 l -1.577621,7.15824 c -0.02985,0.14231 -0.155907,0.25032 -0.305359,0.25032 h -2.190558 c -0.17184,0 -0.3124185,-0.14109 -0.3124185,-0.31504 0,-0.028 0.00403,-0.0559 0.010891,-0.0819 l 1.5415195,-7.13169 c 0,0 0.399951,-1.40943 -0.71116,-1.40943 -1.2442279,0 -2.2899919,1.64423 -2.9122063,4.4486"
         style="fill:#546670;fill-opacity:1;fill-rule:evenodd;stroke:none;stroke-width:0.20292974"
         id="path666"
         inkscape:connector-curvature="0" />
      <path
         d="m 21.539699,153.40942 c -0.0069,0.0259 -0.01089,0.0539 -0.01089,0.0819 0,0.17396 0.14078,0.31505 0.312418,0.31505 h 2.190154 c 0.149856,0 0.276114,-0.10801 0.305763,-0.25032 l 2.307336,-10.45733 c 0.0067,-0.0261 0.0097,-0.0784 0.0097,-0.10658 0,-0.17396 -0.140981,-0.31484 -0.31262,-0.31484 h -2.190759 c -0.149452,0 -0.275509,0.10801 -0.305157,0.25032 l -0.197859,0.90818 c 0.08854,-0.40427 -0.373732,-1.52009 -2.240375,-1.52009 -1.866643,0 -3.940624,1.07968 -4.96279,4.57397 -1.022166,3.49448 -0.784979,7.17824 1.985035,7.16129 1.549385,-0.005 2.040097,-0.55842 2.153044,-0.65785 0.02924,-0.0257 0.05748,-0.0788 0.07604,-0.1613 0.01291,-0.0617 0.397733,-1.80493 0.397733,-1.81983 0,-0.12373 -0.09923,-0.22419 -0.221657,-0.22419 -0.0482,0 -0.09177,0.0127 -0.128477,0.0394 -0.320284,0.20234 -0.686755,0.30892 -1.091346,0.32668 -1.037091,0.0449 -1.018536,-1.67915 -0.415079,-3.9743 0.548396,-2.08465 1.45217,-2.99936 2.533432,-2.99936 1.081261,0 1.531837,1.00373 1.377544,1.70876 z"
         style="fill:#546670;fill-opacity:1;fill-rule:evenodd;stroke:none;stroke-width:0.20292974"
         id="path670"
         inkscape:connector-curvature="0" />
    </g>
  </g>
</svg>
