%TF.GenerationSoftware,KiCad,Pcbnew,(6.0.1)*%
%TF.CreationDate,2024-03-16T13:10:31+01:00*%
%TF.ProjectId,CMU,434d552e-6b69-4636-9164-5f7063625858,rev?*%
%TF.SameCoordinates,Original*%
%TF.FileFunction,Soldermask,Top*%
%TF.FilePolarity,Negative*%
%FSLAX46Y46*%
G04 Gerber Fmt 4.6, Leading zero omitted, Abs format (unit mm)*
G04 Created by KiCad (PCBNEW (6.0.1)) date 2024-03-16 13:10:31*
%MOMM*%
%LPD*%
G01*
G04 APERTURE LIST*
G04 Aperture macros list*
%AMFreePoly0*
4,1,5,0.500000,-1.050000,-0.500000,-1.050000,-0.500000,1.050000,0.500000,1.050000,0.500000,-1.050000,0.500000,-1.050000,$1*%
G04 Aperture macros list end*
%ADD10R,2.820000X1.360000*%
%ADD11R,0.800000X1.000000*%
%ADD12R,1.100000X1.820000*%
%ADD13R,0.450000X0.550000*%
%ADD14R,0.450000X0.500000*%
%ADD15R,1.500000X1.800000*%
%ADD16C,5.700000*%
%ADD17C,1.400000*%
%ADD18R,1.400000X1.400000*%
%ADD19R,0.696500X0.506000*%
%ADD20C,1.650000*%
%ADD21R,0.940000X0.800000*%
%ADD22C,2.400000*%
%ADD23C,1.500000*%
%ADD24FreePoly0,180.000000*%
%ADD25R,2.900000X1.800000*%
%ADD26R,2.050000X4.300000*%
%ADD27R,0.800000X0.940000*%
%ADD28C,3.050000*%
%ADD29R,2.775000X2.775000*%
%ADD30C,2.775000*%
%ADD31C,1.800000*%
%ADD32C,3.300000*%
%ADD33R,2.000000X2.600000*%
%ADD34R,2.600000X2.000000*%
%ADD35C,2.700000*%
%ADD36R,3.810000X4.240000*%
%ADD37R,0.506000X0.696500*%
G04 APERTURE END LIST*
D10*
%TO.C,C9*%
X131000000Y-196420000D03*
X131000000Y-199080000D03*
%TD*%
%TO.C,C39*%
X89250000Y-196420000D03*
X89250000Y-199080000D03*
%TD*%
%TO.C,C2*%
X131000000Y-214670000D03*
X131000000Y-217330000D03*
%TD*%
%TO.C,C51*%
X89250000Y-159920000D03*
X89250000Y-162580000D03*
%TD*%
%TO.C,C15*%
X131000000Y-178170000D03*
X131000000Y-180830000D03*
%TD*%
%TO.C,C21*%
X131000000Y-159920000D03*
X131000000Y-162580000D03*
%TD*%
%TO.C,C27*%
X131000000Y-141670000D03*
X131000000Y-144330000D03*
%TD*%
%TO.C,C33*%
X131000000Y-123420000D03*
X131000000Y-126080000D03*
%TD*%
%TO.C,C57*%
X89250000Y-141670000D03*
X89250000Y-144330000D03*
%TD*%
%TO.C,C63*%
X89250000Y-123420000D03*
X89250000Y-126080000D03*
%TD*%
%TO.C,C69*%
X89000000Y-214670000D03*
X89000000Y-217330000D03*
%TD*%
%TO.C,C45*%
X89250000Y-178170000D03*
X89250000Y-180830000D03*
%TD*%
D11*
%TO.C,R32*%
X98050000Y-188000000D03*
X96450000Y-188000000D03*
%TD*%
%TO.C,R28*%
X98050000Y-206250000D03*
X96450000Y-206250000D03*
%TD*%
%TO.C,R8*%
X139800000Y-206250000D03*
X138200000Y-206250000D03*
%TD*%
%TO.C,R44*%
X98050000Y-133250000D03*
X96450000Y-133250000D03*
%TD*%
%TO.C,R40*%
X98050000Y-151500000D03*
X96450000Y-151500000D03*
%TD*%
%TO.C,R16*%
X139800000Y-169750000D03*
X138200000Y-169750000D03*
%TD*%
%TO.C,R48*%
X97800000Y-224500000D03*
X96200000Y-224500000D03*
%TD*%
%TO.C,R36*%
X98050000Y-169750000D03*
X96450000Y-169750000D03*
%TD*%
%TO.C,R12*%
X139800000Y-188000000D03*
X138200000Y-188000000D03*
%TD*%
%TO.C,R4*%
X139800000Y-224750000D03*
X138200000Y-224750000D03*
%TD*%
%TO.C,R20*%
X139800000Y-151500000D03*
X138200000Y-151500000D03*
%TD*%
%TO.C,R24*%
X139800000Y-133250000D03*
X138200000Y-133250000D03*
%TD*%
D12*
%TO.C,C11*%
X133110000Y-201250000D03*
X130390000Y-201250000D03*
%TD*%
%TO.C,C23*%
X133110000Y-164750000D03*
X130390000Y-164750000D03*
%TD*%
%TO.C,C35*%
X133110000Y-128250000D03*
X130390000Y-128250000D03*
%TD*%
%TO.C,C59*%
X91360000Y-146500000D03*
X88640000Y-146500000D03*
%TD*%
%TO.C,C71*%
X91110000Y-219500000D03*
X88390000Y-219500000D03*
%TD*%
%TO.C,C4*%
X133110000Y-219500000D03*
X130390000Y-219500000D03*
%TD*%
%TO.C,C65*%
X91360000Y-128250000D03*
X88640000Y-128250000D03*
%TD*%
%TO.C,C53*%
X91360000Y-164750000D03*
X88640000Y-164750000D03*
%TD*%
%TO.C,C29*%
X133110000Y-146500000D03*
X130390000Y-146500000D03*
%TD*%
%TO.C,C41*%
X91360000Y-201250000D03*
X88640000Y-201250000D03*
%TD*%
%TO.C,C47*%
X91360000Y-183000000D03*
X88640000Y-183000000D03*
%TD*%
%TO.C,C17*%
X133110000Y-183000000D03*
X130390000Y-183000000D03*
%TD*%
%TO.C,C26*%
X120860000Y-155000000D03*
X118140000Y-155000000D03*
%TD*%
%TO.C,C32*%
X120860000Y-136750000D03*
X118140000Y-136750000D03*
%TD*%
%TO.C,C8*%
X120860000Y-209750000D03*
X118140000Y-209750000D03*
%TD*%
%TO.C,C62*%
X79110000Y-136750000D03*
X76390000Y-136750000D03*
%TD*%
%TO.C,C1*%
X120860000Y-228000000D03*
X118140000Y-228000000D03*
%TD*%
%TO.C,C44*%
X79110000Y-191500000D03*
X76390000Y-191500000D03*
%TD*%
%TO.C,C20*%
X120860000Y-173250000D03*
X118140000Y-173250000D03*
%TD*%
%TO.C,C50*%
X79110000Y-173250000D03*
X76390000Y-173250000D03*
%TD*%
%TO.C,C38*%
X79110000Y-209750000D03*
X76390000Y-209750000D03*
%TD*%
%TO.C,C14*%
X120860000Y-191500000D03*
X118140000Y-191500000D03*
%TD*%
%TO.C,C56*%
X79110000Y-155000000D03*
X76390000Y-155000000D03*
%TD*%
%TO.C,C68*%
X78860000Y-228000000D03*
X76140000Y-228000000D03*
%TD*%
D13*
%TO.C,PS12*%
X96025000Y-127825000D03*
D14*
X96025000Y-127000000D03*
D13*
X96025000Y-126175000D03*
X93475000Y-126175000D03*
D14*
X93475000Y-127000000D03*
D13*
X93475000Y-127825000D03*
D15*
X94750000Y-127000000D03*
%TD*%
D13*
%TO.C,PS3*%
X137775000Y-182575000D03*
D14*
X137775000Y-181750000D03*
D13*
X137775000Y-180925000D03*
X135225000Y-180925000D03*
D14*
X135225000Y-181750000D03*
D13*
X135225000Y-182575000D03*
D15*
X136500000Y-181750000D03*
%TD*%
D13*
%TO.C,PS2*%
X137775000Y-200825000D03*
D14*
X137775000Y-200000000D03*
D13*
X137775000Y-199175000D03*
X135225000Y-199175000D03*
D14*
X135225000Y-200000000D03*
D13*
X135225000Y-200825000D03*
D15*
X136500000Y-200000000D03*
%TD*%
D13*
%TO.C,PS1*%
X137775000Y-219075000D03*
D14*
X137775000Y-218250000D03*
D13*
X137775000Y-217425000D03*
X135225000Y-217425000D03*
D14*
X135225000Y-218250000D03*
D13*
X135225000Y-219075000D03*
D15*
X136500000Y-218250000D03*
%TD*%
D13*
%TO.C,PS10*%
X96025000Y-164325000D03*
D14*
X96025000Y-163500000D03*
D13*
X96025000Y-162675000D03*
X93475000Y-162675000D03*
D14*
X93475000Y-163500000D03*
D13*
X93475000Y-164325000D03*
D15*
X94750000Y-163500000D03*
%TD*%
D13*
%TO.C,PS11*%
X96025000Y-146075000D03*
D14*
X96025000Y-145250000D03*
D13*
X96025000Y-144425000D03*
X93475000Y-144425000D03*
D14*
X93475000Y-145250000D03*
D13*
X93475000Y-146075000D03*
D15*
X94750000Y-145250000D03*
%TD*%
D13*
%TO.C,PS8*%
X96025000Y-200825000D03*
D14*
X96025000Y-200000000D03*
D13*
X96025000Y-199175000D03*
X93475000Y-199175000D03*
D14*
X93475000Y-200000000D03*
D13*
X93475000Y-200825000D03*
D15*
X94750000Y-200000000D03*
%TD*%
D13*
%TO.C,PS4*%
X137775000Y-164325000D03*
D14*
X137775000Y-163500000D03*
D13*
X137775000Y-162675000D03*
X135225000Y-162675000D03*
D14*
X135225000Y-163500000D03*
D13*
X135225000Y-164325000D03*
D15*
X136500000Y-163500000D03*
%TD*%
D13*
%TO.C,PS5*%
X137775000Y-146075000D03*
D14*
X137775000Y-145250000D03*
D13*
X137775000Y-144425000D03*
X135225000Y-144425000D03*
D14*
X135225000Y-145250000D03*
D13*
X135225000Y-146075000D03*
D15*
X136500000Y-145250000D03*
%TD*%
D13*
%TO.C,PS7*%
X95775000Y-219075000D03*
D14*
X95775000Y-218250000D03*
D13*
X95775000Y-217425000D03*
X93225000Y-217425000D03*
D14*
X93225000Y-218250000D03*
D13*
X93225000Y-219075000D03*
D15*
X94500000Y-218250000D03*
%TD*%
D13*
%TO.C,PS9*%
X96025000Y-182575000D03*
D14*
X96025000Y-181750000D03*
D13*
X96025000Y-180925000D03*
X93475000Y-180925000D03*
D14*
X93475000Y-181750000D03*
D13*
X93475000Y-182575000D03*
D15*
X94750000Y-181750000D03*
%TD*%
D13*
%TO.C,PS6*%
X137775000Y-127825000D03*
D14*
X137775000Y-127000000D03*
D13*
X137775000Y-126175000D03*
X135225000Y-126175000D03*
D14*
X135225000Y-127000000D03*
D13*
X135225000Y-127825000D03*
D15*
X136500000Y-127000000D03*
%TD*%
D11*
%TO.C,R23*%
X138200000Y-223250000D03*
X139800000Y-223250000D03*
%TD*%
%TO.C,R47*%
X96200000Y-223000000D03*
X97800000Y-223000000D03*
%TD*%
%TO.C,R46*%
X94450000Y-214750000D03*
X96050000Y-214750000D03*
%TD*%
%TO.C,R45*%
X91450000Y-214750000D03*
X93050000Y-214750000D03*
%TD*%
%TO.C,R43*%
X96450000Y-131750000D03*
X98050000Y-131750000D03*
%TD*%
%TO.C,R42*%
X94700000Y-123500000D03*
X96300000Y-123500000D03*
%TD*%
%TO.C,R41*%
X91700000Y-123500000D03*
X93300000Y-123500000D03*
%TD*%
%TO.C,R39*%
X96450000Y-150000000D03*
X98050000Y-150000000D03*
%TD*%
%TO.C,R38*%
X94700000Y-141750000D03*
X96300000Y-141750000D03*
%TD*%
%TO.C,R37*%
X91700000Y-141750000D03*
X93300000Y-141750000D03*
%TD*%
%TO.C,R35*%
X96450000Y-168250000D03*
X98050000Y-168250000D03*
%TD*%
%TO.C,R34*%
X94700000Y-160000000D03*
X96300000Y-160000000D03*
%TD*%
%TO.C,R33*%
X91700000Y-160000000D03*
X93300000Y-160000000D03*
%TD*%
%TO.C,R31*%
X96450000Y-186500000D03*
X98050000Y-186500000D03*
%TD*%
%TO.C,R30*%
X94700000Y-178250000D03*
X96300000Y-178250000D03*
%TD*%
%TO.C,R29*%
X91700000Y-178250000D03*
X93300000Y-178250000D03*
%TD*%
%TO.C,R27*%
X96450000Y-204750000D03*
X98050000Y-204750000D03*
%TD*%
%TO.C,R26*%
X94700000Y-196500000D03*
X96300000Y-196500000D03*
%TD*%
%TO.C,R25*%
X91700000Y-196500000D03*
X93300000Y-196500000D03*
%TD*%
%TO.C,R22*%
X136450000Y-214750000D03*
X138050000Y-214750000D03*
%TD*%
%TO.C,R21*%
X133450000Y-214750000D03*
X135050000Y-214750000D03*
%TD*%
%TO.C,R19*%
X138200000Y-131750000D03*
X139800000Y-131750000D03*
%TD*%
%TO.C,R18*%
X136450000Y-123500000D03*
X138050000Y-123500000D03*
%TD*%
%TO.C,R17*%
X133450000Y-123500000D03*
X135050000Y-123500000D03*
%TD*%
%TO.C,R15*%
X138200000Y-150000000D03*
X139800000Y-150000000D03*
%TD*%
%TO.C,R14*%
X136450000Y-141750000D03*
X138050000Y-141750000D03*
%TD*%
%TO.C,R13*%
X133450000Y-141750000D03*
X135050000Y-141750000D03*
%TD*%
%TO.C,R11*%
X138200000Y-168250000D03*
X139800000Y-168250000D03*
%TD*%
%TO.C,R10*%
X136450000Y-160000000D03*
X138050000Y-160000000D03*
%TD*%
%TO.C,R9*%
X133450000Y-160000000D03*
X135050000Y-160000000D03*
%TD*%
%TO.C,R7*%
X138200000Y-186500000D03*
X139800000Y-186500000D03*
%TD*%
%TO.C,R6*%
X136450000Y-178250000D03*
X138050000Y-178250000D03*
%TD*%
%TO.C,R5*%
X133450000Y-178250000D03*
X135050000Y-178250000D03*
%TD*%
%TO.C,R3*%
X138200000Y-204750000D03*
X139800000Y-204750000D03*
%TD*%
%TO.C,R2*%
X136450000Y-196500000D03*
X138050000Y-196500000D03*
%TD*%
%TO.C,R1*%
X133450000Y-196500000D03*
X135050000Y-196500000D03*
%TD*%
D16*
%TO.C,H4*%
X71500000Y-231000000D03*
%TD*%
D17*
%TO.C,VR27*%
X143480000Y-200845000D03*
X140980000Y-198345000D03*
X143480000Y-195845000D03*
%TD*%
D18*
%TO.C,VR25*%
X170155000Y-220480000D03*
D17*
X172695000Y-217980000D03*
X175235000Y-220480000D03*
%TD*%
D19*
%TO.C,JP3*%
X140000000Y-174000000D03*
X140000000Y-175000000D03*
%TD*%
D20*
%TO.C,J28*%
X94770000Y-156750000D03*
X92230000Y-156750000D03*
%TD*%
D21*
%TO.C,C3*%
X133250000Y-216080000D03*
X133250000Y-217420000D03*
%TD*%
D19*
%TO.C,JP7*%
X98000000Y-210500000D03*
X98000000Y-211500000D03*
%TD*%
D22*
%TO.C,TP14*%
X154000000Y-212750000D03*
%TD*%
%TO.C,TP21*%
X166500000Y-180250000D03*
%TD*%
D20*
%TO.C,J19*%
X136520000Y-211500000D03*
X133980000Y-211500000D03*
%TD*%
D22*
%TO.C,TP40*%
X179000000Y-225750000D03*
%TD*%
%TO.C,TP13*%
X154000000Y-206250000D03*
%TD*%
D23*
%TO.C,VR28*%
X149980000Y-200777000D03*
X147480000Y-198277000D03*
X149980000Y-195777000D03*
%TD*%
D20*
%TO.C,J25*%
X94520000Y-211500000D03*
X91980000Y-211500000D03*
%TD*%
D21*
%TO.C,C64*%
X91500000Y-124830000D03*
X91500000Y-126170000D03*
%TD*%
D24*
%TO.C,U3*%
X118190000Y-188830000D03*
X120730000Y-188830000D03*
X125810000Y-188830000D03*
X125810000Y-178670000D03*
X118190000Y-178670000D03*
%TD*%
D22*
%TO.C,TP48*%
X149000000Y-150500000D03*
%TD*%
D18*
%TO.C,VR22*%
X170155000Y-200980000D03*
D17*
X172695000Y-198480000D03*
X175235000Y-200980000D03*
%TD*%
D16*
%TO.C,H1*%
X71500000Y-95750000D03*
%TD*%
D25*
%TO.C,C42*%
X93750000Y-206000000D03*
X89750000Y-206000000D03*
%TD*%
D20*
%TO.C,J5*%
X126730000Y-211500000D03*
X129270000Y-211500000D03*
%TD*%
%TO.C,J27*%
X94750000Y-175000000D03*
X92210000Y-175000000D03*
%TD*%
D21*
%TO.C,C52*%
X91500000Y-161330000D03*
X91500000Y-162670000D03*
%TD*%
D22*
%TO.C,TP16*%
X154000000Y-225750000D03*
%TD*%
%TO.C,TP10*%
X154000000Y-186750000D03*
%TD*%
D20*
%TO.C,J10*%
X112250000Y-212520000D03*
X112250000Y-209980000D03*
%TD*%
D17*
%TO.C,VR33*%
X143480000Y-146095000D03*
X140980000Y-143595000D03*
X143480000Y-141095000D03*
%TD*%
D19*
%TO.C,JP5*%
X140000000Y-137500000D03*
X140000000Y-138500000D03*
%TD*%
D22*
%TO.C,TP17*%
X166500000Y-154250000D03*
%TD*%
D26*
%TO.C,C7*%
X155750000Y-109300000D03*
X155750000Y-117700000D03*
%TD*%
D22*
%TO.C,TP34*%
X179000000Y-186750000D03*
%TD*%
%TO.C,TP53*%
X102000000Y-187000000D03*
%TD*%
D27*
%TO.C,C13*%
X138330000Y-203250000D03*
X139670000Y-203250000D03*
%TD*%
D22*
%TO.C,TP5*%
X154000000Y-154250000D03*
%TD*%
D19*
%TO.C,JP8*%
X98000000Y-192250000D03*
X98000000Y-193250000D03*
%TD*%
D22*
%TO.C,TP44*%
X149000000Y-187000000D03*
%TD*%
%TO.C,TP22*%
X166500000Y-186750000D03*
%TD*%
D28*
%TO.C,J18*%
X70450000Y-102750000D03*
D29*
X77750000Y-102750000D03*
D30*
X83250000Y-102750000D03*
%TD*%
D19*
%TO.C,JP10*%
X98000000Y-155750000D03*
X98000000Y-156750000D03*
%TD*%
D21*
%TO.C,C22*%
X133250000Y-161330000D03*
X133250000Y-162670000D03*
%TD*%
D22*
%TO.C,TP36*%
X179000000Y-199750000D03*
%TD*%
D21*
%TO.C,C40*%
X91500000Y-197830000D03*
X91500000Y-199170000D03*
%TD*%
D24*
%TO.C,U1*%
X118190000Y-225330000D03*
X120730000Y-225330000D03*
X125810000Y-225330000D03*
X125810000Y-215170000D03*
X118190000Y-215170000D03*
%TD*%
D22*
%TO.C,TP54*%
X107250000Y-187000000D03*
%TD*%
D24*
%TO.C,U10*%
X76440000Y-170580000D03*
X78980000Y-170580000D03*
X84060000Y-170580000D03*
X84060000Y-160420000D03*
X76440000Y-160420000D03*
%TD*%
D22*
%TO.C,TP15*%
X154000000Y-219250000D03*
%TD*%
D16*
%TO.C,H2*%
X180000000Y-95750000D03*
%TD*%
D22*
%TO.C,TP62*%
X107000000Y-223500000D03*
%TD*%
D27*
%TO.C,C55*%
X96580000Y-166750000D03*
X97920000Y-166750000D03*
%TD*%
D22*
%TO.C,TP61*%
X101750000Y-223500000D03*
%TD*%
%TO.C,TP30*%
X179000000Y-160750000D03*
%TD*%
%TO.C,TP47*%
X143750000Y-150500000D03*
%TD*%
D20*
%TO.C,J24*%
X112250000Y-217230000D03*
X112250000Y-219770000D03*
%TD*%
D23*
%TO.C,VR2*%
X149980000Y-219277000D03*
X147480000Y-216777000D03*
X149980000Y-214277000D03*
%TD*%
D25*
%TO.C,C24*%
X135500000Y-169500000D03*
X131500000Y-169500000D03*
%TD*%
D17*
%TO.C,VR41*%
X101730000Y-164345000D03*
X99230000Y-161845000D03*
X101730000Y-159345000D03*
%TD*%
D18*
%TO.C,VR15*%
X170155000Y-155480000D03*
D17*
X172695000Y-152980000D03*
X175235000Y-155480000D03*
%TD*%
D20*
%TO.C,J26*%
X94750000Y-193250000D03*
X92210000Y-193250000D03*
%TD*%
D17*
%TO.C,VR6*%
X157655000Y-174980000D03*
X160155000Y-172480000D03*
X162655000Y-174980000D03*
%TD*%
D20*
%TO.C,J11*%
X84730000Y-211500000D03*
X87270000Y-211500000D03*
%TD*%
D22*
%TO.C,TP38*%
X179000000Y-212750000D03*
%TD*%
%TO.C,TP1*%
X143750000Y-223750000D03*
%TD*%
D25*
%TO.C,C66*%
X93750000Y-133000000D03*
X89750000Y-133000000D03*
%TD*%
D23*
%TO.C,VR44*%
X108230000Y-146027000D03*
X105730000Y-143527000D03*
X108230000Y-141027000D03*
%TD*%
D22*
%TO.C,TP20*%
X166500000Y-173750000D03*
%TD*%
D21*
%TO.C,C28*%
X133250000Y-143080000D03*
X133250000Y-144420000D03*
%TD*%
D27*
%TO.C,C6*%
X138080000Y-221750000D03*
X139420000Y-221750000D03*
%TD*%
D24*
%TO.C,U7*%
X76190000Y-225330000D03*
X78730000Y-225330000D03*
X83810000Y-225330000D03*
X83810000Y-215170000D03*
X76190000Y-215170000D03*
%TD*%
D17*
%TO.C,VR39*%
X101730000Y-182595000D03*
X99230000Y-180095000D03*
X101730000Y-177595000D03*
%TD*%
D22*
%TO.C,TP57*%
X102000000Y-150500000D03*
%TD*%
D31*
%TO.C,J1*%
X171660000Y-133104000D03*
X161500000Y-133104000D03*
X171660000Y-122944000D03*
X161500000Y-122944000D03*
D32*
X165300000Y-128024000D03*
%TD*%
D17*
%TO.C,VR7*%
X157655000Y-181480000D03*
X160155000Y-178980000D03*
X162655000Y-181480000D03*
%TD*%
D22*
%TO.C,TP7*%
X154000000Y-167250000D03*
%TD*%
%TO.C,TP28*%
X166500000Y-225750000D03*
%TD*%
%TO.C,TP59*%
X102000000Y-132250000D03*
%TD*%
D17*
%TO.C,VR12*%
X157655000Y-213980000D03*
X160155000Y-211480000D03*
X162655000Y-213980000D03*
%TD*%
%TO.C,VR4*%
X157655000Y-161980000D03*
X160155000Y-159480000D03*
X162655000Y-161980000D03*
%TD*%
D18*
%TO.C,VR17*%
X170155000Y-168480000D03*
D17*
X172695000Y-165980000D03*
X175235000Y-168480000D03*
%TD*%
D22*
%TO.C,TP4*%
X110000000Y-112500000D03*
%TD*%
D23*
%TO.C,VR34*%
X150000000Y-146000000D03*
X147500000Y-143500000D03*
X150000000Y-141000000D03*
%TD*%
D24*
%TO.C,U12*%
X76440000Y-134080000D03*
X78980000Y-134080000D03*
X84060000Y-134080000D03*
X84060000Y-123920000D03*
X76440000Y-123920000D03*
%TD*%
D21*
%TO.C,C16*%
X133250000Y-179580000D03*
X133250000Y-180920000D03*
%TD*%
D17*
%TO.C,VR37*%
X101730000Y-200845000D03*
X99230000Y-198345000D03*
X101730000Y-195845000D03*
%TD*%
D18*
%TO.C,VR26*%
X170155000Y-226980000D03*
D17*
X172695000Y-224480000D03*
X175235000Y-226980000D03*
%TD*%
%TO.C,VR1*%
X143480000Y-219345000D03*
X140980000Y-216845000D03*
X143480000Y-214345000D03*
%TD*%
D22*
%TO.C,TP52*%
X107250000Y-205250000D03*
%TD*%
D33*
%TO.C,Power_in1*%
X170150000Y-115550000D03*
X176150000Y-115550000D03*
D34*
X173150000Y-110850000D03*
%TD*%
D22*
%TO.C,TP46*%
X149000000Y-168750000D03*
%TD*%
D23*
%TO.C,VR36*%
X149980000Y-127777000D03*
X147480000Y-125277000D03*
X149980000Y-122777000D03*
%TD*%
D18*
%TO.C,VR23*%
X170155000Y-207480000D03*
D17*
X172695000Y-204980000D03*
X175235000Y-207480000D03*
%TD*%
%TO.C,VR3*%
X157655000Y-155480000D03*
X160155000Y-152980000D03*
X162655000Y-155480000D03*
%TD*%
D22*
%TO.C,TP51*%
X102000000Y-205250000D03*
%TD*%
%TO.C,TP39*%
X179000000Y-219250000D03*
%TD*%
D25*
%TO.C,C18*%
X135500000Y-187750000D03*
X131500000Y-187750000D03*
%TD*%
D22*
%TO.C,TP43*%
X143750000Y-187000000D03*
%TD*%
D21*
%TO.C,C58*%
X91500000Y-143080000D03*
X91500000Y-144420000D03*
%TD*%
D22*
%TO.C,TP29*%
X179000000Y-154250000D03*
%TD*%
D19*
%TO.C,JP11*%
X98000000Y-137500000D03*
X98000000Y-138500000D03*
%TD*%
D17*
%TO.C,VR9*%
X157655000Y-194480000D03*
X160155000Y-191980000D03*
X162655000Y-194480000D03*
%TD*%
D22*
%TO.C,TP31*%
X179000000Y-167250000D03*
%TD*%
D19*
%TO.C,JP9*%
X98000000Y-174000000D03*
X98000000Y-175000000D03*
%TD*%
D24*
%TO.C,U5*%
X118190000Y-152330000D03*
X120730000Y-152330000D03*
X125810000Y-152330000D03*
X125810000Y-142170000D03*
X118190000Y-142170000D03*
%TD*%
D22*
%TO.C,TP55*%
X102000000Y-168750000D03*
%TD*%
D21*
%TO.C,C10*%
X133250000Y-197830000D03*
X133250000Y-199170000D03*
%TD*%
D20*
%TO.C,J6*%
X126730000Y-193250000D03*
X129270000Y-193250000D03*
%TD*%
D17*
%TO.C,VR5*%
X157655000Y-168480000D03*
X160155000Y-165980000D03*
X162655000Y-168480000D03*
%TD*%
D21*
%TO.C,C70*%
X91250000Y-216080000D03*
X91250000Y-217420000D03*
%TD*%
D17*
%TO.C,VR47*%
X101480000Y-219095000D03*
X98980000Y-216595000D03*
X101480000Y-214095000D03*
%TD*%
D35*
%TO.C,J2*%
X92050000Y-99275000D03*
X96250000Y-99275000D03*
X100450000Y-99275000D03*
X104650000Y-99275000D03*
X108850000Y-99275000D03*
X113050000Y-99275000D03*
X117250000Y-99275000D03*
X121450000Y-99275000D03*
X92050000Y-104775000D03*
X96250000Y-104775000D03*
X100450000Y-104775000D03*
X104650000Y-104775000D03*
X108850000Y-104775000D03*
X113050000Y-104775000D03*
X117250000Y-104775000D03*
X121450000Y-104775000D03*
%TD*%
D23*
%TO.C,VR38*%
X108230000Y-200777000D03*
X105730000Y-198277000D03*
X108230000Y-195777000D03*
%TD*%
D22*
%TO.C,TP12*%
X154000000Y-199750000D03*
%TD*%
D25*
%TO.C,C72*%
X93500000Y-224250000D03*
X89500000Y-224250000D03*
%TD*%
D28*
%TO.C,J17*%
X180043500Y-102750000D03*
D29*
X172743500Y-102750000D03*
D30*
X167243500Y-102750000D03*
%TD*%
D27*
%TO.C,C49*%
X96580000Y-185000000D03*
X97920000Y-185000000D03*
%TD*%
D22*
%TO.C,TP27*%
X166500000Y-219250000D03*
%TD*%
D18*
%TO.C,VR24*%
X170155000Y-213980000D03*
D17*
X172695000Y-211480000D03*
X175235000Y-213980000D03*
%TD*%
%TO.C,VR35*%
X143480000Y-127845000D03*
X140980000Y-125345000D03*
X143480000Y-122845000D03*
%TD*%
D25*
%TO.C,C30*%
X135500000Y-151250000D03*
X131500000Y-151250000D03*
%TD*%
D24*
%TO.C,U6*%
X118190000Y-134080000D03*
X120730000Y-134080000D03*
X125810000Y-134080000D03*
X125810000Y-123920000D03*
X118190000Y-123920000D03*
%TD*%
D22*
%TO.C,TP18*%
X166500000Y-160750000D03*
%TD*%
%TO.C,TP2*%
X149000000Y-223750000D03*
%TD*%
D36*
%TO.C,F1*%
X165250000Y-117185000D03*
X165250000Y-110815000D03*
%TD*%
D17*
%TO.C,VR14*%
X157655000Y-226980000D03*
X160155000Y-224480000D03*
X162655000Y-226980000D03*
%TD*%
D20*
%TO.C,J23*%
X136520000Y-138500000D03*
X133980000Y-138500000D03*
%TD*%
D17*
%TO.C,VR11*%
X157655000Y-207480000D03*
X160155000Y-204980000D03*
X162655000Y-207480000D03*
%TD*%
D23*
%TO.C,VR46*%
X108230000Y-127777000D03*
X105730000Y-125277000D03*
X108230000Y-122777000D03*
%TD*%
%TO.C,VR32*%
X149980000Y-164277000D03*
X147480000Y-161777000D03*
X149980000Y-159277000D03*
%TD*%
D22*
%TO.C,TP41*%
X143750000Y-205250000D03*
%TD*%
%TO.C,TP23*%
X166500000Y-193250000D03*
%TD*%
D17*
%TO.C,VR13*%
X157655000Y-220480000D03*
X160155000Y-217980000D03*
X162655000Y-220480000D03*
%TD*%
D25*
%TO.C,C60*%
X93750000Y-151250000D03*
X89750000Y-151250000D03*
%TD*%
D27*
%TO.C,C67*%
X96580000Y-130250000D03*
X97920000Y-130250000D03*
%TD*%
D18*
%TO.C,VR19*%
X170155000Y-181480000D03*
D17*
X172695000Y-178980000D03*
X175235000Y-181480000D03*
%TD*%
D22*
%TO.C,TP3*%
X103500000Y-112500000D03*
%TD*%
%TO.C,TP19*%
X166500000Y-167250000D03*
%TD*%
%TO.C,TP32*%
X179000000Y-173750000D03*
%TD*%
D27*
%TO.C,C19*%
X138330000Y-185000000D03*
X139670000Y-185000000D03*
%TD*%
D20*
%TO.C,J14*%
X84980000Y-156750000D03*
X87520000Y-156750000D03*
%TD*%
%TO.C,J20*%
X136520000Y-193250000D03*
X133980000Y-193250000D03*
%TD*%
D27*
%TO.C,C43*%
X96580000Y-203250000D03*
X97920000Y-203250000D03*
%TD*%
D37*
%TO.C,JP6*%
X112250000Y-223750000D03*
X111250000Y-223750000D03*
%TD*%
D21*
%TO.C,C46*%
X91500000Y-179580000D03*
X91500000Y-180920000D03*
%TD*%
D22*
%TO.C,TP42*%
X149000000Y-205250000D03*
%TD*%
D24*
%TO.C,U9*%
X76440000Y-188830000D03*
X78980000Y-188830000D03*
X84060000Y-188830000D03*
X84060000Y-178670000D03*
X76440000Y-178670000D03*
%TD*%
D17*
%TO.C,VR31*%
X143480000Y-164345000D03*
X140980000Y-161845000D03*
X143480000Y-159345000D03*
%TD*%
D18*
%TO.C,VR21*%
X170155000Y-194480000D03*
D17*
X172695000Y-191980000D03*
X175235000Y-194480000D03*
%TD*%
D22*
%TO.C,TP50*%
X149000000Y-132250000D03*
%TD*%
D20*
%TO.C,J9*%
X126730000Y-138500000D03*
X129270000Y-138500000D03*
%TD*%
D25*
%TO.C,C36*%
X135500000Y-133000000D03*
X131500000Y-133000000D03*
%TD*%
D23*
%TO.C,VR42*%
X108230000Y-164277000D03*
X105730000Y-161777000D03*
X108230000Y-159277000D03*
%TD*%
%TO.C,VR48*%
X107980000Y-219027000D03*
X105480000Y-216527000D03*
X107980000Y-214027000D03*
%TD*%
D22*
%TO.C,TP56*%
X107250000Y-168750000D03*
%TD*%
D17*
%TO.C,VR29*%
X143480000Y-182595000D03*
X140980000Y-180095000D03*
X143480000Y-177595000D03*
%TD*%
D20*
%TO.C,J4*%
X126730000Y-229750000D03*
X129270000Y-229750000D03*
%TD*%
D22*
%TO.C,TP33*%
X179000000Y-180250000D03*
%TD*%
%TO.C,TP58*%
X107250000Y-150500000D03*
%TD*%
D25*
%TO.C,C48*%
X93750000Y-187750000D03*
X89750000Y-187750000D03*
%TD*%
D24*
%TO.C,U8*%
X76440000Y-207080000D03*
X78980000Y-207080000D03*
X84060000Y-207080000D03*
X84060000Y-196920000D03*
X76440000Y-196920000D03*
%TD*%
D18*
%TO.C,VR18*%
X170155000Y-174980000D03*
D17*
X172695000Y-172480000D03*
X175235000Y-174980000D03*
%TD*%
D22*
%TO.C,TP35*%
X179000000Y-193250000D03*
%TD*%
D17*
%TO.C,VR8*%
X157655000Y-187980000D03*
X160155000Y-185480000D03*
X162655000Y-187980000D03*
%TD*%
D24*
%TO.C,U4*%
X118190000Y-170580000D03*
X120730000Y-170580000D03*
X125810000Y-170580000D03*
X125810000Y-160420000D03*
X118190000Y-160420000D03*
%TD*%
D17*
%TO.C,VR45*%
X101730000Y-127845000D03*
X99230000Y-125345000D03*
X101730000Y-122845000D03*
%TD*%
D18*
%TO.C,VR20*%
X170155000Y-187980000D03*
D17*
X172695000Y-185480000D03*
X175235000Y-187980000D03*
%TD*%
D24*
%TO.C,U11*%
X76440000Y-152330000D03*
X78980000Y-152330000D03*
X84060000Y-152330000D03*
X84060000Y-142170000D03*
X76440000Y-142170000D03*
%TD*%
D19*
%TO.C,JP1*%
X140000000Y-210250000D03*
X140000000Y-211250000D03*
%TD*%
D20*
%TO.C,J12*%
X84980000Y-193250000D03*
X87520000Y-193250000D03*
%TD*%
D22*
%TO.C,TP24*%
X166500000Y-199750000D03*
%TD*%
%TO.C,TP9*%
X154000000Y-180250000D03*
%TD*%
D25*
%TO.C,C12*%
X135500000Y-206000000D03*
X131500000Y-206000000D03*
%TD*%
D20*
%TO.C,J21*%
X136520000Y-175000000D03*
X133980000Y-175000000D03*
%TD*%
D22*
%TO.C,TP25*%
X166500000Y-206250000D03*
%TD*%
D31*
%TO.C,J3*%
X171660000Y-148354000D03*
X161500000Y-148354000D03*
X171660000Y-138194000D03*
X161500000Y-138194000D03*
D32*
X165300000Y-143274000D03*
%TD*%
D17*
%TO.C,VR10*%
X157655000Y-200980000D03*
X160155000Y-198480000D03*
X162655000Y-200980000D03*
%TD*%
D22*
%TO.C,TP11*%
X154000000Y-193250000D03*
%TD*%
D27*
%TO.C,C31*%
X138330000Y-148500000D03*
X139670000Y-148500000D03*
%TD*%
D17*
%TO.C,VR43*%
X101730000Y-146095000D03*
X99230000Y-143595000D03*
X101730000Y-141095000D03*
%TD*%
D27*
%TO.C,C25*%
X138330000Y-166750000D03*
X139670000Y-166750000D03*
%TD*%
%TO.C,C61*%
X96580000Y-148500000D03*
X97920000Y-148500000D03*
%TD*%
D20*
%TO.C,J22*%
X136520000Y-156750000D03*
X133980000Y-156750000D03*
%TD*%
D25*
%TO.C,C5*%
X135500000Y-224250000D03*
X131500000Y-224250000D03*
%TD*%
D23*
%TO.C,VR40*%
X108230000Y-182527000D03*
X105730000Y-180027000D03*
X108230000Y-177527000D03*
%TD*%
D27*
%TO.C,C37*%
X138330000Y-130250000D03*
X139670000Y-130250000D03*
%TD*%
D19*
%TO.C,JP4*%
X140000000Y-155750000D03*
X140000000Y-156750000D03*
%TD*%
D22*
%TO.C,TP26*%
X166500000Y-212750000D03*
%TD*%
D25*
%TO.C,C54*%
X93750000Y-169500000D03*
X89750000Y-169500000D03*
%TD*%
D27*
%TO.C,C73*%
X96330000Y-221500000D03*
X97670000Y-221500000D03*
%TD*%
D22*
%TO.C,TP60*%
X107250000Y-132250000D03*
%TD*%
D24*
%TO.C,U2*%
X118190000Y-207080000D03*
X120730000Y-207080000D03*
X125810000Y-207080000D03*
X125810000Y-196920000D03*
X118190000Y-196920000D03*
%TD*%
D22*
%TO.C,TP45*%
X143750000Y-168750000D03*
%TD*%
%TO.C,TP49*%
X143750000Y-132250000D03*
%TD*%
D16*
%TO.C,H3*%
X180000000Y-231000000D03*
%TD*%
D18*
%TO.C,VR16*%
X170155000Y-161980000D03*
D17*
X172695000Y-159480000D03*
X175235000Y-161980000D03*
%TD*%
D20*
%TO.C,J7*%
X126730000Y-175000000D03*
X129270000Y-175000000D03*
%TD*%
%TO.C,J16*%
X84980000Y-120250000D03*
X87520000Y-120250000D03*
%TD*%
D23*
%TO.C,VR30*%
X149980000Y-182527000D03*
X147480000Y-180027000D03*
X149980000Y-177527000D03*
%TD*%
D19*
%TO.C,JP2*%
X140000000Y-192250000D03*
X140000000Y-193250000D03*
%TD*%
D20*
%TO.C,J15*%
X84980000Y-138500000D03*
X87520000Y-138500000D03*
%TD*%
%TO.C,J29*%
X94750000Y-138500000D03*
X92210000Y-138500000D03*
%TD*%
D35*
%TO.C,J30*%
X128200000Y-99150000D03*
X132400000Y-99150000D03*
X136600000Y-99150000D03*
X140800000Y-99150000D03*
X145000000Y-99150000D03*
X149200000Y-99150000D03*
X153400000Y-99150000D03*
X157600000Y-99150000D03*
X161800000Y-99150000D03*
X128200000Y-104650000D03*
X132400000Y-104650000D03*
X136600000Y-104650000D03*
X140800000Y-104650000D03*
X145000000Y-104650000D03*
X149200000Y-104650000D03*
X153400000Y-104650000D03*
X157600000Y-104650000D03*
X161800000Y-104650000D03*
%TD*%
D20*
%TO.C,J13*%
X84980000Y-175000000D03*
X87520000Y-175000000D03*
%TD*%
D22*
%TO.C,TP37*%
X179000000Y-206250000D03*
%TD*%
D20*
%TO.C,J8*%
X126730000Y-156750000D03*
X129270000Y-156750000D03*
%TD*%
D22*
%TO.C,TP8*%
X154000000Y-173750000D03*
%TD*%
%TO.C,TP6*%
X154000000Y-160750000D03*
%TD*%
D21*
%TO.C,C34*%
X133250000Y-124830000D03*
X133250000Y-126170000D03*
%TD*%
M02*
