%TF.GenerationSoftware,KiCad,Pcbnew,(6.0.1)*%
%TF.CreationDate,2024-03-16T13:10:31+01:00*%
%TF.ProjectId,CMU,434d552e-6b69-4636-9164-5f7063625858,rev?*%
%TF.SameCoordinates,Original*%
%TF.FileFunction,Soldermask,Bot*%
%TF.FilePolarity,Negative*%
%FSLAX46Y46*%
G04 Gerber Fmt 4.6, Leading zero omitted, Abs format (unit mm)*
G04 Created by KiCad (PCBNEW (6.0.1)) date 2024-03-16 13:10:31*
%MOMM*%
%LPD*%
G01*
G04 APERTURE LIST*
%ADD10C,5.700000*%
%ADD11C,1.400000*%
%ADD12R,1.400000X1.400000*%
%ADD13C,1.650000*%
%ADD14C,2.400000*%
%ADD15C,1.500000*%
%ADD16C,3.050000*%
%ADD17R,2.775000X2.775000*%
%ADD18C,2.775000*%
%ADD19C,1.800000*%
%ADD20C,3.300000*%
%ADD21R,2.000000X2.600000*%
%ADD22R,2.600000X2.000000*%
%ADD23C,2.700000*%
G04 APERTURE END LIST*
D10*
%TO.C,H4*%
X71500000Y-231000000D03*
%TD*%
D11*
%TO.C,VR27*%
X143480000Y-200845000D03*
X140980000Y-198345000D03*
X143480000Y-195845000D03*
%TD*%
D12*
%TO.C,VR25*%
X170155000Y-220480000D03*
D11*
X172695000Y-217980000D03*
X175235000Y-220480000D03*
%TD*%
D13*
%TO.C,J28*%
X94770000Y-156750000D03*
X92230000Y-156750000D03*
%TD*%
D14*
%TO.C,TP14*%
X154000000Y-212750000D03*
%TD*%
%TO.C,TP21*%
X166500000Y-180250000D03*
%TD*%
D13*
%TO.C,J19*%
X136520000Y-211500000D03*
X133980000Y-211500000D03*
%TD*%
D14*
%TO.C,TP40*%
X179000000Y-225750000D03*
%TD*%
%TO.C,TP13*%
X154000000Y-206250000D03*
%TD*%
D15*
%TO.C,VR28*%
X149980000Y-200777000D03*
X147480000Y-198277000D03*
X149980000Y-195777000D03*
%TD*%
D13*
%TO.C,J25*%
X94520000Y-211500000D03*
X91980000Y-211500000D03*
%TD*%
D14*
%TO.C,TP48*%
X149000000Y-150500000D03*
%TD*%
D12*
%TO.C,VR22*%
X170155000Y-200980000D03*
D11*
X172695000Y-198480000D03*
X175235000Y-200980000D03*
%TD*%
D10*
%TO.C,H1*%
X71500000Y-95750000D03*
%TD*%
D13*
%TO.C,J5*%
X126730000Y-211500000D03*
X129270000Y-211500000D03*
%TD*%
%TO.C,J27*%
X94750000Y-175000000D03*
X92210000Y-175000000D03*
%TD*%
D14*
%TO.C,TP16*%
X154000000Y-225750000D03*
%TD*%
%TO.C,TP10*%
X154000000Y-186750000D03*
%TD*%
D13*
%TO.C,J10*%
X112250000Y-212520000D03*
X112250000Y-209980000D03*
%TD*%
D11*
%TO.C,VR33*%
X143480000Y-146095000D03*
X140980000Y-143595000D03*
X143480000Y-141095000D03*
%TD*%
D14*
%TO.C,TP17*%
X166500000Y-154250000D03*
%TD*%
%TO.C,TP34*%
X179000000Y-186750000D03*
%TD*%
%TO.C,TP53*%
X102000000Y-187000000D03*
%TD*%
%TO.C,TP5*%
X154000000Y-154250000D03*
%TD*%
%TO.C,TP44*%
X149000000Y-187000000D03*
%TD*%
%TO.C,TP22*%
X166500000Y-186750000D03*
%TD*%
D16*
%TO.C,J18*%
X70450000Y-102750000D03*
D17*
X77750000Y-102750000D03*
D18*
X83250000Y-102750000D03*
%TD*%
D14*
%TO.C,TP36*%
X179000000Y-199750000D03*
%TD*%
%TO.C,TP54*%
X107250000Y-187000000D03*
%TD*%
%TO.C,TP15*%
X154000000Y-219250000D03*
%TD*%
D10*
%TO.C,H2*%
X180000000Y-95750000D03*
%TD*%
D14*
%TO.C,TP62*%
X107000000Y-223500000D03*
%TD*%
%TO.C,TP61*%
X101750000Y-223500000D03*
%TD*%
%TO.C,TP30*%
X179000000Y-160750000D03*
%TD*%
%TO.C,TP47*%
X143750000Y-150500000D03*
%TD*%
D13*
%TO.C,J24*%
X112250000Y-217230000D03*
X112250000Y-219770000D03*
%TD*%
D15*
%TO.C,VR2*%
X149980000Y-219277000D03*
X147480000Y-216777000D03*
X149980000Y-214277000D03*
%TD*%
D11*
%TO.C,VR41*%
X101730000Y-164345000D03*
X99230000Y-161845000D03*
X101730000Y-159345000D03*
%TD*%
D12*
%TO.C,VR15*%
X170155000Y-155480000D03*
D11*
X172695000Y-152980000D03*
X175235000Y-155480000D03*
%TD*%
D13*
%TO.C,J26*%
X94750000Y-193250000D03*
X92210000Y-193250000D03*
%TD*%
D11*
%TO.C,VR6*%
X157655000Y-174980000D03*
X160155000Y-172480000D03*
X162655000Y-174980000D03*
%TD*%
D13*
%TO.C,J11*%
X84730000Y-211500000D03*
X87270000Y-211500000D03*
%TD*%
D14*
%TO.C,TP38*%
X179000000Y-212750000D03*
%TD*%
%TO.C,TP1*%
X143750000Y-223750000D03*
%TD*%
D15*
%TO.C,VR44*%
X108230000Y-146027000D03*
X105730000Y-143527000D03*
X108230000Y-141027000D03*
%TD*%
D14*
%TO.C,TP20*%
X166500000Y-173750000D03*
%TD*%
D11*
%TO.C,VR39*%
X101730000Y-182595000D03*
X99230000Y-180095000D03*
X101730000Y-177595000D03*
%TD*%
D14*
%TO.C,TP57*%
X102000000Y-150500000D03*
%TD*%
D19*
%TO.C,J1*%
X171660000Y-133104000D03*
X161500000Y-133104000D03*
X171660000Y-122944000D03*
X161500000Y-122944000D03*
D20*
X165300000Y-128024000D03*
%TD*%
D11*
%TO.C,VR7*%
X157655000Y-181480000D03*
X160155000Y-178980000D03*
X162655000Y-181480000D03*
%TD*%
D14*
%TO.C,TP7*%
X154000000Y-167250000D03*
%TD*%
%TO.C,TP28*%
X166500000Y-225750000D03*
%TD*%
%TO.C,TP59*%
X102000000Y-132250000D03*
%TD*%
D11*
%TO.C,VR12*%
X157655000Y-213980000D03*
X160155000Y-211480000D03*
X162655000Y-213980000D03*
%TD*%
%TO.C,VR4*%
X157655000Y-161980000D03*
X160155000Y-159480000D03*
X162655000Y-161980000D03*
%TD*%
D12*
%TO.C,VR17*%
X170155000Y-168480000D03*
D11*
X172695000Y-165980000D03*
X175235000Y-168480000D03*
%TD*%
D14*
%TO.C,TP4*%
X110000000Y-112500000D03*
%TD*%
D15*
%TO.C,VR34*%
X150000000Y-146000000D03*
X147500000Y-143500000D03*
X150000000Y-141000000D03*
%TD*%
D11*
%TO.C,VR37*%
X101730000Y-200845000D03*
X99230000Y-198345000D03*
X101730000Y-195845000D03*
%TD*%
D12*
%TO.C,VR26*%
X170155000Y-226980000D03*
D11*
X172695000Y-224480000D03*
X175235000Y-226980000D03*
%TD*%
%TO.C,VR1*%
X143480000Y-219345000D03*
X140980000Y-216845000D03*
X143480000Y-214345000D03*
%TD*%
D14*
%TO.C,TP52*%
X107250000Y-205250000D03*
%TD*%
D21*
%TO.C,Power_in1*%
X170150000Y-115550000D03*
X176150000Y-115550000D03*
D22*
X173150000Y-110850000D03*
%TD*%
D14*
%TO.C,TP46*%
X149000000Y-168750000D03*
%TD*%
D15*
%TO.C,VR36*%
X149980000Y-127777000D03*
X147480000Y-125277000D03*
X149980000Y-122777000D03*
%TD*%
D12*
%TO.C,VR23*%
X170155000Y-207480000D03*
D11*
X172695000Y-204980000D03*
X175235000Y-207480000D03*
%TD*%
%TO.C,VR3*%
X157655000Y-155480000D03*
X160155000Y-152980000D03*
X162655000Y-155480000D03*
%TD*%
D14*
%TO.C,TP51*%
X102000000Y-205250000D03*
%TD*%
%TO.C,TP39*%
X179000000Y-219250000D03*
%TD*%
%TO.C,TP43*%
X143750000Y-187000000D03*
%TD*%
%TO.C,TP29*%
X179000000Y-154250000D03*
%TD*%
D11*
%TO.C,VR9*%
X157655000Y-194480000D03*
X160155000Y-191980000D03*
X162655000Y-194480000D03*
%TD*%
D14*
%TO.C,TP31*%
X179000000Y-167250000D03*
%TD*%
%TO.C,TP55*%
X102000000Y-168750000D03*
%TD*%
D13*
%TO.C,J6*%
X126730000Y-193250000D03*
X129270000Y-193250000D03*
%TD*%
D11*
%TO.C,VR5*%
X157655000Y-168480000D03*
X160155000Y-165980000D03*
X162655000Y-168480000D03*
%TD*%
%TO.C,VR47*%
X101480000Y-219095000D03*
X98980000Y-216595000D03*
X101480000Y-214095000D03*
%TD*%
D23*
%TO.C,J2*%
X92050000Y-99275000D03*
X96250000Y-99275000D03*
X100450000Y-99275000D03*
X104650000Y-99275000D03*
X108850000Y-99275000D03*
X113050000Y-99275000D03*
X117250000Y-99275000D03*
X121450000Y-99275000D03*
X92050000Y-104775000D03*
X96250000Y-104775000D03*
X100450000Y-104775000D03*
X104650000Y-104775000D03*
X108850000Y-104775000D03*
X113050000Y-104775000D03*
X117250000Y-104775000D03*
X121450000Y-104775000D03*
%TD*%
D15*
%TO.C,VR38*%
X108230000Y-200777000D03*
X105730000Y-198277000D03*
X108230000Y-195777000D03*
%TD*%
D14*
%TO.C,TP12*%
X154000000Y-199750000D03*
%TD*%
D16*
%TO.C,J17*%
X180043500Y-102750000D03*
D17*
X172743500Y-102750000D03*
D18*
X167243500Y-102750000D03*
%TD*%
D14*
%TO.C,TP27*%
X166500000Y-219250000D03*
%TD*%
D12*
%TO.C,VR24*%
X170155000Y-213980000D03*
D11*
X172695000Y-211480000D03*
X175235000Y-213980000D03*
%TD*%
%TO.C,VR35*%
X143480000Y-127845000D03*
X140980000Y-125345000D03*
X143480000Y-122845000D03*
%TD*%
D14*
%TO.C,TP18*%
X166500000Y-160750000D03*
%TD*%
%TO.C,TP2*%
X149000000Y-223750000D03*
%TD*%
D11*
%TO.C,VR14*%
X157655000Y-226980000D03*
X160155000Y-224480000D03*
X162655000Y-226980000D03*
%TD*%
D13*
%TO.C,J23*%
X136520000Y-138500000D03*
X133980000Y-138500000D03*
%TD*%
D11*
%TO.C,VR11*%
X157655000Y-207480000D03*
X160155000Y-204980000D03*
X162655000Y-207480000D03*
%TD*%
D15*
%TO.C,VR46*%
X108230000Y-127777000D03*
X105730000Y-125277000D03*
X108230000Y-122777000D03*
%TD*%
%TO.C,VR32*%
X149980000Y-164277000D03*
X147480000Y-161777000D03*
X149980000Y-159277000D03*
%TD*%
D14*
%TO.C,TP41*%
X143750000Y-205250000D03*
%TD*%
%TO.C,TP23*%
X166500000Y-193250000D03*
%TD*%
D11*
%TO.C,VR13*%
X157655000Y-220480000D03*
X160155000Y-217980000D03*
X162655000Y-220480000D03*
%TD*%
D12*
%TO.C,VR19*%
X170155000Y-181480000D03*
D11*
X172695000Y-178980000D03*
X175235000Y-181480000D03*
%TD*%
D14*
%TO.C,TP3*%
X103500000Y-112500000D03*
%TD*%
%TO.C,TP19*%
X166500000Y-167250000D03*
%TD*%
%TO.C,TP32*%
X179000000Y-173750000D03*
%TD*%
D13*
%TO.C,J14*%
X84980000Y-156750000D03*
X87520000Y-156750000D03*
%TD*%
%TO.C,J20*%
X136520000Y-193250000D03*
X133980000Y-193250000D03*
%TD*%
D14*
%TO.C,TP42*%
X149000000Y-205250000D03*
%TD*%
D11*
%TO.C,VR31*%
X143480000Y-164345000D03*
X140980000Y-161845000D03*
X143480000Y-159345000D03*
%TD*%
D12*
%TO.C,VR21*%
X170155000Y-194480000D03*
D11*
X172695000Y-191980000D03*
X175235000Y-194480000D03*
%TD*%
D14*
%TO.C,TP50*%
X149000000Y-132250000D03*
%TD*%
D13*
%TO.C,J9*%
X126730000Y-138500000D03*
X129270000Y-138500000D03*
%TD*%
D15*
%TO.C,VR42*%
X108230000Y-164277000D03*
X105730000Y-161777000D03*
X108230000Y-159277000D03*
%TD*%
%TO.C,VR48*%
X107980000Y-219027000D03*
X105480000Y-216527000D03*
X107980000Y-214027000D03*
%TD*%
D14*
%TO.C,TP56*%
X107250000Y-168750000D03*
%TD*%
D11*
%TO.C,VR29*%
X143480000Y-182595000D03*
X140980000Y-180095000D03*
X143480000Y-177595000D03*
%TD*%
D13*
%TO.C,J4*%
X126730000Y-229750000D03*
X129270000Y-229750000D03*
%TD*%
D14*
%TO.C,TP33*%
X179000000Y-180250000D03*
%TD*%
%TO.C,TP58*%
X107250000Y-150500000D03*
%TD*%
D12*
%TO.C,VR18*%
X170155000Y-174980000D03*
D11*
X172695000Y-172480000D03*
X175235000Y-174980000D03*
%TD*%
D14*
%TO.C,TP35*%
X179000000Y-193250000D03*
%TD*%
D11*
%TO.C,VR8*%
X157655000Y-187980000D03*
X160155000Y-185480000D03*
X162655000Y-187980000D03*
%TD*%
%TO.C,VR45*%
X101730000Y-127845000D03*
X99230000Y-125345000D03*
X101730000Y-122845000D03*
%TD*%
D12*
%TO.C,VR20*%
X170155000Y-187980000D03*
D11*
X172695000Y-185480000D03*
X175235000Y-187980000D03*
%TD*%
D13*
%TO.C,J12*%
X84980000Y-193250000D03*
X87520000Y-193250000D03*
%TD*%
D14*
%TO.C,TP24*%
X166500000Y-199750000D03*
%TD*%
%TO.C,TP9*%
X154000000Y-180250000D03*
%TD*%
D13*
%TO.C,J21*%
X136520000Y-175000000D03*
X133980000Y-175000000D03*
%TD*%
D14*
%TO.C,TP25*%
X166500000Y-206250000D03*
%TD*%
D19*
%TO.C,J3*%
X171660000Y-148354000D03*
X161500000Y-148354000D03*
X171660000Y-138194000D03*
X161500000Y-138194000D03*
D20*
X165300000Y-143274000D03*
%TD*%
D11*
%TO.C,VR10*%
X157655000Y-200980000D03*
X160155000Y-198480000D03*
X162655000Y-200980000D03*
%TD*%
D14*
%TO.C,TP11*%
X154000000Y-193250000D03*
%TD*%
D11*
%TO.C,VR43*%
X101730000Y-146095000D03*
X99230000Y-143595000D03*
X101730000Y-141095000D03*
%TD*%
D13*
%TO.C,J22*%
X136520000Y-156750000D03*
X133980000Y-156750000D03*
%TD*%
D15*
%TO.C,VR40*%
X108230000Y-182527000D03*
X105730000Y-180027000D03*
X108230000Y-177527000D03*
%TD*%
D14*
%TO.C,TP26*%
X166500000Y-212750000D03*
%TD*%
%TO.C,TP60*%
X107250000Y-132250000D03*
%TD*%
%TO.C,TP45*%
X143750000Y-168750000D03*
%TD*%
%TO.C,TP49*%
X143750000Y-132250000D03*
%TD*%
D10*
%TO.C,H3*%
X180000000Y-231000000D03*
%TD*%
D12*
%TO.C,VR16*%
X170155000Y-161980000D03*
D11*
X172695000Y-159480000D03*
X175235000Y-161980000D03*
%TD*%
D13*
%TO.C,J7*%
X126730000Y-175000000D03*
X129270000Y-175000000D03*
%TD*%
%TO.C,J16*%
X84980000Y-120250000D03*
X87520000Y-120250000D03*
%TD*%
D15*
%TO.C,VR30*%
X149980000Y-182527000D03*
X147480000Y-180027000D03*
X149980000Y-177527000D03*
%TD*%
D13*
%TO.C,J15*%
X84980000Y-138500000D03*
X87520000Y-138500000D03*
%TD*%
%TO.C,J29*%
X94750000Y-138500000D03*
X92210000Y-138500000D03*
%TD*%
D23*
%TO.C,J30*%
X128200000Y-99150000D03*
X132400000Y-99150000D03*
X136600000Y-99150000D03*
X140800000Y-99150000D03*
X145000000Y-99150000D03*
X149200000Y-99150000D03*
X153400000Y-99150000D03*
X157600000Y-99150000D03*
X161800000Y-99150000D03*
X128200000Y-104650000D03*
X132400000Y-104650000D03*
X136600000Y-104650000D03*
X140800000Y-104650000D03*
X145000000Y-104650000D03*
X149200000Y-104650000D03*
X153400000Y-104650000D03*
X157600000Y-104650000D03*
X161800000Y-104650000D03*
%TD*%
D13*
%TO.C,J13*%
X84980000Y-175000000D03*
X87520000Y-175000000D03*
%TD*%
D14*
%TO.C,TP37*%
X179000000Y-206250000D03*
%TD*%
D13*
%TO.C,J8*%
X126730000Y-156750000D03*
X129270000Y-156750000D03*
%TD*%
D14*
%TO.C,TP8*%
X154000000Y-173750000D03*
%TD*%
%TO.C,TP6*%
X154000000Y-160750000D03*
%TD*%
M02*
