<?xml version="1.0" encoding="UTF-8" standalone="no"?>
<!-- Created with Inkscape (http://www.inkscape.org/) -->

<svg
   width="155.86272mm"
   height="96.219017mm"
   viewBox="0 0 155.86272 96.219017"
   version="1.1"
   id="svg21"
   xml:space="preserve"
   inkscape:version="1.2.2 (b0a8486541, 2022-12-01)"
   sodipodi:docname="rat.svg"
   inkscape:export-filename="rat.svg"
   inkscape:export-xdpi="96"
   inkscape:export-ydpi="96"
   xmlns:inkscape="http://www.inkscape.org/namespaces/inkscape"
   xmlns:sodipodi="http://sodipodi.sourceforge.net/DTD/sodipodi-0.dtd"
   xmlns="http://www.w3.org/2000/svg"
   xmlns:svg="http://www.w3.org/2000/svg"><sodipodi:namedview
     id="namedview23"
     pagecolor="#ffffff"
     bordercolor="#000000"
     borderopacity="0.25"
     inkscape:showpageshadow="2"
     inkscape:pageopacity="0.0"
     inkscape:pagecheckerboard="0"
     inkscape:deskcolor="#d1d1d1"
     inkscape:document-units="mm"
     showgrid="false"
     inkscape:zoom="0.70710678"
     inkscape:cx="377.59502"
     inkscape:cy="189.50462"
     inkscape:window-width="1690"
     inkscape:window-height="1101"
     inkscape:window-x="0"
     inkscape:window-y="0"
     inkscape:window-maximized="1"
     inkscape:current-layer="layer1" /><defs
     id="defs18"><linearGradient
       id="linearGradient12464"
       inkscape:swatch="solid"><stop
         style="stop-color:#fd0000;stop-opacity:1;"
         offset="0"
         id="stop12462" /></linearGradient></defs><g
     inkscape:label="Layer 1"
     inkscape:groupmode="layer"
     id="layer1"
     transform="translate(-29.201264,-40.310553)"><path
       style="opacity:1;fill:none;fill-opacity:1;stroke:#000000;stroke-width:2.465;stroke-dasharray:none;stroke-opacity:1"
       d="M 39.644372,79.733348 C 47.082727,65.089916 63.657115,55.3261 63.657115,55.3261 101.70858,27.43431 136.195,50.340201 136.195,50.340201 c 0,0 15.75958,9.135005 17.46131,21.421795 0.20323,1.467357 8.495,10.998425 5.26895,27.647229"
       id="path249"
       sodipodi:nodetypes="cccsc" /><ellipse
       style="opacity:1;fill:#000000;fill-opacity:1;stroke:#000000;stroke-width:3.54594;stroke-dasharray:none;stroke-opacity:1"
       id="path3740"
       cx="46.333664"
       cy="61.06517"
       rx="2.9642806"
       ry="7.3017054" /><path
       style="opacity:1;fill:#000000;fill-opacity:1;stroke:#000000;stroke-width:2.465;stroke-dasharray:none;stroke-opacity:1"
       d="M 54.06636,61.607175 Z"
       id="path3796" /><path
       style="opacity:1;fill:none;fill-opacity:1;stroke:#000000;stroke-width:2.465;stroke-dasharray:none;stroke-opacity:1"
       d="m 42.988943,57.609008 c 0,0 1.108252,-13.658995 11.08146,-4.467626 4.547433,4.19094 -0.730072,11.376567 3.970645,5.242542"
       id="path3798"
       sodipodi:nodetypes="csc" /><ellipse
       style="opacity:1;fill:none;fill-opacity:1;stroke:#000000;stroke-width:2.63457;stroke-dasharray:none;stroke-opacity:1"
       id="path3937"
       ry="2.6223495"
       rx="4.0679483"
       cy="73.55748"
       cx="56.574814"
       transform="matrix(0.97994881,0.19924942,-0.19993792,0.97980857,0,0)" /><ellipse
       style="opacity:1;fill:#000000;fill-opacity:1;stroke:#000000;stroke-width:1.82536;stroke-linecap:round;stroke-dasharray:none;stroke-opacity:1"
       id="path5144"
       cx="76.962349"
       cy="58.825188"
       rx="1.3780727"
       ry="2.3865716"
       transform="matrix(0.97343669,0.22895633,-0.2948731,0.95553642,0,0)" /><ellipse
       style="opacity:1;fill:#000000;fill-opacity:1;stroke:#000000;stroke-width:1.39235;stroke-linecap:round;stroke-dasharray:none;stroke-opacity:1"
       id="path5144-3"
       cx="79.755615"
       cy="33.827663"
       rx="0.97054034"
       ry="1.9716777"
       transform="matrix(0.83893754,0.54422772,-0.52339561,0.8520898,0,0)" /><path
       style="opacity:1;fill:none;fill-opacity:1;stroke:#000000;stroke-width:2.465;stroke-linecap:round;stroke-dasharray:none;stroke-opacity:1"
       d="m 66.980582,66.356107 c 0.591559,-5.62896 5.615874,-17.551053 15.534727,-14.824638 12.38842,3.405229 5.683295,19.062898 3.632807,19.682226 -4.300733,3.58883 -4.38128,3.570717 -8.685876,5.599966"
       id="path5220"
       sodipodi:nodetypes="cscc" /><path
       style="opacity:1;fill:#000000;fill-opacity:1;stroke:#000000;stroke-width:2.465;stroke-linecap:round;stroke-dasharray:none;stroke-opacity:1"
       d="m 90.285252,65.428778 c 1.384576,1.083586 2.606365,1.797915 2.742525,3.861492 -0.288612,2.169791 -1.070894,4.092532 -2.837226,5.493797 -1.20684,0.957409 -5.980144,3.618505 -12.527377,2.158122"
       id="path5222"
       sodipodi:nodetypes="ccsc" /><path
       style="opacity:1;fill:#000000;fill-opacity:1;stroke:#000000;stroke-width:1.265;stroke-linecap:round;stroke-dasharray:none;stroke-opacity:1"
       d="m 57.386346,59.451935 c 0,0 4.741135,-1.875218 7.47468,-2.333736"
       id="path5277" /><path
       style="opacity:1;fill:#000000;fill-opacity:1;stroke:#000000;stroke-width:1.265;stroke-linecap:round;stroke-dasharray:none;stroke-opacity:1"
       d="m 62.352898,62.694954 c 0,0 0.398047,-1.692643 2.381412,-1.988251"
       id="path5279" /><path
       style="opacity:1;fill:#000000;fill-opacity:1;stroke:#000000;stroke-width:1.11576;stroke-linecap:round;stroke-dasharray:none;stroke-opacity:1"
       d="m 98.814939,66.281842 c 0,0 1.803581,0.155273 2.439051,-0.507781 0.51577,-0.538162 -4.368,-0.316995 -2.439051,0.507781 z"
       id="path5281"
       sodipodi:nodetypes="csc" /><path
       style="opacity:1;fill:#000000;fill-opacity:1;stroke:#000000;stroke-width:0.165;stroke-linecap:round;stroke-dasharray:none;stroke-opacity:1"
       d="m 113.33495,84.417404 c 0,0 0.54965,-0.349509 0.64242,-2.155706 0.0928,-1.806196 0.65966,-5.094636 1.33334,-6.462082 0.67367,-1.367446 1.18729,-2.516389 0.0948,-1.786695 -1.09254,0.729695 -3.16349,3.938567 -3.3274,7.041637 -0.1639,3.103073 0.73197,3.48773 1.25689,3.362846 z"
       id="path5283" /><path
       style="opacity:1;fill:#000000;fill-opacity:1;stroke:#000000;stroke-width:0.165;stroke-linecap:round;stroke-dasharray:none;stroke-opacity:1"
       d="m 119.70074,56.596166 c 0,0 2.51681,-0.440754 2.75388,-0.824183 0.23706,-0.383429 0.61469,-1.781842 -2.25862,-1.613471 -2.8733,0.168367 -3.19028,1.301744 -3.19028,1.301744 0,0 0.0639,1.262547 2.69502,1.13591 z"
       id="path5285" /><path
       style="opacity:1;fill:#000000;fill-opacity:1;stroke:#000000;stroke-width:0.165;stroke-linecap:round;stroke-dasharray:none;stroke-opacity:1"
       d="m 116.42025,52.745713 c 0,0 3.00384,-0.300728 3.57825,-1.00413 0.57441,-0.703406 -0.19358,-1.850229 -2.12066,-1.598827 -1.92708,0.251402 -3.78958,1.104604 -3.73384,1.639356 0.0557,0.534752 0.88286,0.997116 2.27625,0.963601 z"
       id="path5287" /><path
       style="opacity:1;fill:#000000;fill-opacity:1;stroke:#000000;stroke-width:0.165;stroke-linecap:round;stroke-dasharray:none;stroke-opacity:1"
       d="m 110.31792,48.40312 c 0.14527,1.016597 6.76501,0.229662 6.77827,-0.950227 0.0137,-1.221144 -7.08973,-1.400979 -6.77827,0.950227 z"
       id="path5289"
       sodipodi:nodetypes="csc" /><path
       style="opacity:1;fill:#000000;fill-opacity:1;stroke:#000000;stroke-width:0.165;stroke-linecap:round;stroke-dasharray:none;stroke-opacity:1"
       d="m 123.21836,50.346916 c -0.0588,1.186677 5.44113,1.66703 5.41158,0.612712 -0.0563,-2.007236 -5.3185,-1.844805 -5.41158,-0.612712 z"
       id="path5291"
       sodipodi:nodetypes="csc" /><path
       style="opacity:1;fill:#000000;fill-opacity:1;stroke:#000000;stroke-width:0.165;stroke-linecap:round;stroke-dasharray:none;stroke-opacity:1"
       d="m 152.65976,69.13999 -8.47091,2.272128 c -1.91226,-2.470438 -10.65519,-2.793604 -8.94632,-3.425451 4.87012,-1.8007 10.51988,1.544811 10.52559,1.20013 0.066,-3.98664 -11.79334,-4.508193 -10.84849,-5.091127 4.52416,-2.791212 11.98779,2.445095 11.56726,1.013283 -0.87777,-2.988594 -12.32318,-4.430141 -10.94516,-5.015903 4.9542,-2.105916 11.03594,2.743889 9.85675,0.970004 -2.24178,-3.372363 -15.81785,-4.950904 -15.07243,-5.958153 1.57436,-2.127347 11.22426,1.935969 11.0175,1.463664 -1.2471,-2.848832 -10.64636,-3.983318 -10.49177,-4.863433 0.1546,-0.880116 8.16102,0.169186 8.16102,0.169186 0,0 12.01518,10.424268 13.64696,17.265672 z"
       id="path5293"
       sodipodi:nodetypes="ccssssssssscc" /><path
       style="opacity:1;fill:#000000;fill-opacity:1;stroke:#000000;stroke-width:0.165;stroke-linecap:round;stroke-dasharray:none;stroke-opacity:1"
       d="m 128.58096,77.464041 c 1.08479,1.14051 11.89011,-3.968047 11.56765,-5.670997 -0.32247,-1.702949 -12.25792,4.146864 -11.56765,5.670997 z"
       id="path5327" /><path
       style="opacity:1;fill:#000000;fill-opacity:1;stroke:#000000;stroke-width:0.165;stroke-linecap:round;stroke-dasharray:none;stroke-opacity:1"
       d="m 144.1809,71.467373 c 0,0 -3.04656,3.77933 -6.98359,5.906114 -4.53712,2.450951 -10.52869,7.001264 -7.12925,5.902354 6.90528,-2.23221 14.69585,-8.001373 16.53014,-8.966862 0.26814,-0.141139 0.86893,-0.0826 0.38562,0.287899 -1.78674,1.369671 -5.86515,5.262242 -8.27046,6.650679 -1.31024,1.545981 7.20195,-3.721304 10.30322,-5.240844 -3.21514,4.167605 -7.60137,6.179245 -12.17188,8.501316 0,0 -14.9933,6.591243 -15.82048,7.43227 -0.35092,0.356795 3.7431,0.266961 8.72392,-1.537964 6.84131,-2.479116 16.79787,-6.663383 20.48589,-10.190703 5.11171,-4.888972 -4.26604,5.942216 -1.47963,3.021602 -1.07706,0.800077 -10.59711,7.113529 -17.01916,9.680963 -6.71865,2.686009 -18.68068,5.884445 -19.89871,7.289143 -0.29653,0.34197 4.72663,-2.223308 11.81924,-2.072187 2.97286,0.06334 11.51503,-3.098108 18.7499,-7.02997 4.60448,-2.502353 10.25832,-6.884899 11.40772,-7.673816 0.36658,-0.251612 -3.05379,3.764906 -8.0231,7.158401 -3.43272,2.344175 -7.35755,4.0506 -10.20415,5.447077 -3.94713,1.936374 2.57272,0.22665 8.45744,-2.092389 4.05803,-1.599183 7.70097,-3.926317 7.88697,-3.822591 0.53086,0.296037 -4.97778,3.773581 -12.7125,7.008535 -5.57756,2.332753 -42.111709,10.58297 -47.787429,11.58291 -2.077471,0.36601 12.169359,-0.88242 27.936939,-3.53898 3.84914,-0.64851 7.54173,-1.87546 11.36187,-2.69925 8.81389,-1.90068 17.27206,-3.862616 22.50623,-7.393 16.79588,-11.328611 2.15723,-11.285981 0.43813,-22.010118 -1.7191,-10.724139 -9.49289,-1.600589 -9.49289,-1.600589 z"
       id="path5329"
       sodipodi:nodetypes="csssscccssscsssssssssssssssc" /><path
       style="opacity:1;fill:#000000;fill-opacity:1;stroke:#000000;stroke-width:0.165;stroke-linecap:round;stroke-dasharray:none;stroke-opacity:1"
       d="m 71.110259,70.984406 c -0.641421,-0.836335 -0.456884,-8.342969 1.667323,-10.892973 2.166733,-2.601054 3.949007,-5.790281 7.931401,-5.088592 4.03285,0.710579 3.654586,1.320189 4.882898,4.099325 1.228315,2.779138 -0.319247,7.981268 -0.935084,8.823339 -0.615834,0.84207 -2.277049,3.260238 -5.649823,5.047458 -3.372776,1.787219 -5.594434,1.530797 -6.230607,0.786199 -0.366817,-0.429334 1.781575,-1.801921 1.040471,-2.704455 -0.741103,-0.902533 -1.032861,-0.06022 -2.706579,-0.0703 z"
       id="path5331"
       sodipodi:nodetypes="csssssssc" /><path
       style="opacity:1;fill:#000000;fill-opacity:1;stroke:#000000;stroke-width:0.165;stroke-linecap:round;stroke-dasharray:none;stroke-opacity:1"
       d="m 160.77954,97.529678 c 0.22953,-1.432121 21.23747,5.911742 -5.37325,16.614322 -14.78681,5.94712 -23.662,4.85796 -38.0486,8.77392 -14.55279,3.96119 -26.590749,7.66149 -29.588949,9.06763 -2.9982,1.40614 -3.897439,2.06657 -3.679219,3.32154 0.21822,1.25498 4.828492,1.60185 11.149169,0.38747 2.995722,-0.57556 10.100189,-2.00272 16.550839,-2.97785 7.15959,-1.0823 13.55671,-1.68867 13.55671,-1.68867 2.95972,-0.83485 10.30581,-1.3286 12.22949,-1.59513 0,0 19.78266,-1.10837 23.03639,-1.59384 3.25373,-0.48547 4.01542,-0.34668 4.70343,-1.24924 0.81981,-1.07545 -1.5433,-0.68647 -3.34616,-0.73958 -1.80285,-0.0531 -2.01373,0.22228 -1.86722,-0.8254 0.14651,-1.04768 1.51281,-0.0234 5.63622,-0.39482 4.12342,-0.37142 9.30723,-0.64843 9.46677,-1.805 0.15953,-1.15658 -3.30746,-0.71832 -4.12877,-0.96119 -0.8213,-0.24288 -1.61891,0.58662 -1.34274,-0.37117 0.27617,-0.95779 6.18251,-2.00882 8.80484,-2.16207 2.62234,-0.15325 5.58988,-0.71758 5.56291,-1.34253 -0.027,-0.62495 -1.44473,-1.15118 -2.78558,-1.30452 -1.34084,-0.15334 -2.77672,-0.01 -2.26521,-0.3211 0.51152,-0.31154 4.24218,-0.255 5.107,-0.78271 0.86481,-0.5277 0.8237,-1.27637 0.8237,-1.27637 0,0 -2.58061,-0.93047 -3.27046,-1.05376 -0.68985,-0.12328 -1.83989,0.0747 -2.06142,-0.36002 -0.22152,-0.43469 1.39955,-1.48469 2.58257,-4.82047 1.50815,-4.25254 0.0118,-10.969432 -4.40338,-15.31878 -2.70045,-2.660177 -6.81441,-5.606423 -11.36363,-7.265815 -2.28136,-0.832158 -4.44425,-1.392089 -6.79733,-1.130467 0,0 0.32383,12.194167 1.11188,13.17562 z"
       id="path5333"
       sodipodi:nodetypes="cssssssccssssssssssscscssssscc" /><path
       style="opacity:1;fill:#000000;fill-opacity:1;stroke:#000000;stroke-width:0.165;stroke-linecap:round;stroke-dasharray:none;stroke-opacity:1"
       d="m 83.818642,92.084614 c 0.322728,0.917599 5.352142,-0.349674 7.204736,-0.901732 1.852597,-0.552058 6.87284,-3.001605 6.824009,-3.397935 -0.04883,-0.396327 -6.396567,1.383376 -7.787288,1.725488 -1.390719,0.342109 -6.738475,1.43655 -6.241457,2.574179 z"
       id="path5371" /><path
       style="opacity:1;fill:#000000;fill-opacity:1;stroke:#000000;stroke-width:0.165;stroke-linecap:round;stroke-dasharray:none;stroke-opacity:1"
       d="m 46.034234,84.887884 c 0,0 0.04023,1.255755 -0.754369,1.958549 -0.794599,0.702794 -1.549612,0.991671 -1.619284,1.479587 -0.06967,0.487915 4.176104,2.681647 6.470951,2.892523 2.294848,0.210875 7.942895,0.304355 8.698394,0.242088 0.755502,-0.06226 3.613798,0.114451 3.658579,0.583793 0.04478,0.469339 -3.886681,1.801098 -5.836568,2.04027 -1.949889,0.239173 -6.473693,2.251105 -11.037067,0.327174 -4.563375,-1.923929 -5.026192,-3.524491 -5.655705,-3.40592 -0.62951,0.11857 -0.801809,0.02841 -0.34067,1.286676 0.467606,1.275903 1.067725,1.797889 2.277796,2.466456 1.210075,0.668565 3.740039,2.121223 6.894822,2.989596 3.154786,0.868376 6.317888,1.516523 7.115953,1.580028 0.798066,0.06351 1.352844,0.339334 1.401366,0.581417 0.04852,0.242079 -1.633707,0.790569 -2.476505,0.863019 -0.842799,0.0725 -11.370072,-1.923689 -13.151668,-2.962461 -1.781598,-1.038773 -2.734178,-1.84127 -2.717718,-2.144297 0.01646,-0.303028 -0.78468,0.360338 -0.392962,1.182494 0.391721,0.822156 1.777196,2.435058 5.13742,3.742504 3.360222,1.30744 14.158103,4.84467 23.888377,3.70114 9.730274,-1.14352 21.388041,-2.45925 27.28709,-4.841586 5.899054,-2.38233 12.368524,-3.143824 12.368524,-3.143824 0,0 0.98995,-0.132289 1.09509,0.104309 0.10513,0.236596 -5.68773,2.436045 -6.31844,2.66559 -0.6307,0.229544 -17.471327,4.927591 -19.776284,5.425781 -2.304958,0.49818 -7.9399,2.58848 -19.823575,2.10764 -11.883679,-0.48084 -22.755559,-5.04633 -22.755559,-5.04633 0,0 -1.026078,-1.1111 -1.215024,-0.758 -0.188947,0.35311 0.945594,2.26299 1.559816,2.77409 0.614225,0.51109 11.360936,5.06925 19.597629,5.33027 8.236696,0.26102 25.477192,0.55298 29.257355,-0.0556 3.780166,-0.60854 23.331192,-2.59693 23.331192,-2.59693 -0.80847,0.18068 -8.95302,1.8583 -8.39954,2.23089 0,0 1.75212,-0.15835 5.97229,-0.43591 3.70629,-0.24375 12.71999,-2.53517 12.83818,-3.179 0.0938,-0.51101 -2.15567,-0.11428 0.28765,-0.65343 0.73047,0.0184 0.38846,1.14209 0.0885,1.93394 -0.45494,1.20102 -2.3319,2.60285 -4.87349,2.97039 -4.21304,0.60926 -28.02569,2.79865 -32.548317,2.83541 -2.127154,0.0173 -6.589817,0.007 -11.219238,-0.0929 -8.418876,-0.18072 -18.480335,-1.02488 -21.41476,-1.94178 -4.548026,-1.42109 -9.329486,-1.39982 -13.384948,-4.02758 -4.055459,-2.62775 -3.988477,-3.93555 -4.00858,-4.82034 -0.02011,-0.8848 -0.02106,-2.135687 0.823068,-2.440336 0.84414,-0.304649 0.102894,-0.708282 0.102894,-0.708282 0,0 -0.362672,0.01442 -0.288081,-1.78699 0.07459,-1.801416 -0.254138,-1.164395 0.768705,-5.815134 0.684607,-3.112823 -0.618221,-4.33142 -0.710796,-5.138957 -0.31341,-0.787968 -0.691685,-1.14462 0.111387,-1.652372 0.809275,-0.511675 5.449832,2.983075 9.68611,1.352255 z"
       id="path5373"
       sodipodi:nodetypes="cssssssssssssscsssssscsssscssscccsscsssssssscsscscc" /><path
       style="opacity:1;fill:#000000;fill-opacity:1;stroke:#000000;stroke-width:0.165;stroke-linecap:round;stroke-dasharray:none;stroke-opacity:1"
       d="m 52.230858,95.790683 c -0.214315,0.333594 1.931022,1.410697 4.964099,1.085739 3.033078,-0.324962 5.156086,-0.576609 5.905886,-0.894964 0.749801,-0.318352 0.968381,-0.320688 0.91702,-0.554786 -0.05136,-0.234098 -5.818672,0.335708 -6.731431,0.259387 -0.912757,-0.07632 -4.886857,-0.0082 -5.055574,0.104624 z"
       id="path8479" /><path
       style="opacity:1;fill:#000000;fill-opacity:1;stroke:#000000;stroke-width:0.165;stroke-linecap:round;stroke-dasharray:none;stroke-opacity:1"
       d="m 61.992896,87.296166 c 2.552218,0.736134 3.963627,1.099381 4.13813,1.462672 0.174504,0.363292 0.20152,0.629955 0.01577,0.839894 -0.185764,0.209939 -0.704107,0.383632 -1.641348,0.290422 -0.937239,-0.09321 -4.48736,-0.932648 -5.195925,-1.026086 -0.708565,-0.09344 -2.14708,-0.473143 -2.565821,-0.745447 -0.418742,-0.272304 -0.514432,-0.78046 -0.356285,-1.066358 0.158144,-0.285901 0.521084,-0.178131 1.962462,-0.236694 1.441379,-0.05856 3.012676,0.296278 3.64303,0.481597 z"
       id="path8697" /><path
       style="opacity:1;fill:#000000;fill-opacity:1;stroke:#000000;stroke-width:0.165;stroke-linecap:round;stroke-dasharray:none;stroke-opacity:1"
       d="m 57.017623,85.165749 c 0.243536,0.410282 1.657416,0.431033 2.412677,0.472818 0.755259,0.04179 7.148264,0.122296 8.04636,0.133509 0.898097,0.01122 1.290736,0.14355 1.542415,-0.01326 0.251682,-0.156816 0.611757,-0.205375 0.436295,-0.761373 -0.175458,-0.555998 -0.330274,-0.739987 -1.220353,-0.949587 -0.89008,-0.209603 -5.888236,-0.495877 -7.392707,-0.385879 -1.504469,0.109995 -2.746613,0.65514 -3.392638,0.768675 -0.646028,0.113536 -0.407572,0.473062 -0.432049,0.735103 z"
       id="path8699" /><path
       style="opacity:1;fill:#000000;fill-opacity:1;stroke:#000000;stroke-width:0.165;stroke-linecap:round;stroke-dasharray:none;stroke-opacity:1"
       d="m 56.630244,82.838884 c 0.160589,-0.04925 5.732991,-2.077823 6.607087,-2.171218 0.874099,-0.0934 2.593891,-0.61304 3.895395,-0.787601 1.301501,-0.174559 2.042562,-0.20968 2.377202,-0.578123 0.334637,-0.368443 0.310623,-0.43811 0.08943,-0.711353 -0.221189,-0.273246 -1.882169,-0.664803 -3.546522,-0.528098 -1.664351,0.136705 -3.846962,0.462349 -5.54986,1.268571 -1.702896,0.806223 -4.431062,2.020131 -4.707819,2.478202 -0.276757,0.458073 -0.652018,0.899638 -0.290891,1.129141 0.361125,0.229502 0.555863,0.105129 1.125977,-0.09952 z"
       id="path8701" /><path
       style="opacity:1;fill:#000000;fill-opacity:1;stroke:#000000;stroke-width:0.165;stroke-linecap:round;stroke-dasharray:none;stroke-opacity:1"
       d="m 39.206453,78.1331 c 0,0 -2.308609,-1.931471 -3.792318,-2.639078 -1.483712,-0.707607 -2.6112,-1.278263 -3.62512,-1.084014 -1.01392,0.194249 -0.113051,1.288182 -0.113051,1.288182 l 2.632514,1.428345 c 0,0 1.536541,1.089867 1.926807,1.420532 0.390268,0.330669 1.192853,0.711026 1.200298,1.07478 0.0074,0.363757 -0.37524,1.168197 -0.37524,1.168197 l 2.262214,-0.916078 z"
       id="path8703" /><path
       style="opacity:1;fill:#000000;fill-opacity:1;stroke:#000000;stroke-width:0.165;stroke-linecap:round;stroke-dasharray:none;stroke-opacity:1"
       d="m 82.181307,83.842666 c 0,0 5.696564,-1.60419 7.619365,-2.233554 1.922799,-0.629362 5.522159,-1.966847 6.796299,-2.329114 1.274138,-0.362268 2.154412,-0.585491 2.445991,-0.554355 0.291576,0.03114 0.686179,0.06538 0.768871,0.239921 0.08269,0.174546 -3.690707,2.506536 -5.099031,3.048609 -1.408324,0.542075 -4.694925,1.781447 -7.207178,2.160733 -2.512251,0.379285 -4.495888,0.226078 -5.158058,0.228131 -0.662167,0.0021 -0.719415,-0.331446 -0.522957,-0.436327 0.196461,-0.104878 0.356698,-0.124044 0.356698,-0.124044 z"
       id="path10157" /><path
       style="opacity:1;fill:#000000;fill-opacity:1;stroke:#000000;stroke-width:0.165;stroke-linecap:round;stroke-dasharray:none;stroke-opacity:1"
       d="m 77.258234,91.715639 c 0.78176,-0.435753 1.480574,-0.63505 2.276732,-1.315789 0.796155,-0.680736 0.766363,-0.61551 0.624028,-0.812125 -0.142335,-0.196617 -0.501177,-0.37942 -1.672728,-0.166148 -1.171551,0.213276 -1.617752,0.518041 -1.880147,0.529527 -0.262398,0.01148 -0.09518,0.211965 -0.521743,-0.401408 -0.426561,-0.613372 -0.822846,-1.415195 -1.603004,-1.50129 -0.780156,-0.08609 -0.983383,-0.295445 -1.841016,0.261747 -0.857637,0.557188 -0.332478,-0.209495 -1.393106,-0.05017 -1.060627,0.159327 -1.212881,-0.03444 -1.790464,0.434412 -0.577583,0.468852 -0.638503,0.66159 -0.754883,1.15611 -0.116379,0.494517 -0.384185,0.857062 -0.244729,1.123855 0.139457,0.26679 0.116872,0.736695 0.116435,0.879837 -5.29e-4,0.143145 -0.157241,0.637535 -0.157241,0.637535 0,0 -0.723773,0.170661 -0.924791,0.529256 -0.201019,0.358596 -0.519136,0.918909 -0.39761,1.525342 0.121526,0.60643 0.716682,1.761818 1.654529,1.967272 0.93785,0.205457 1.805895,0.06176 1.996581,0.283189 0.190685,0.221424 0.617966,1.670365 0.793887,1.816608 0.175924,0.146246 -2.973038,0.738084 -4.777353,0.897744 -1.804319,0.159661 -4.302289,-0.07404 -4.818669,0.11719 -0.516377,0.191225 -0.63546,-0.02506 -0.733552,0.159514 -0.09809,0.184568 0.0066,0.746903 1.078614,0.994963 1.072039,0.24805 12.192852,0.74512 13.081518,0.46469 0.888664,-0.28043 0.807392,0.23011 0.807392,0.23011 0,0 0.382569,0.38967 1.074582,0.19239 0.692009,-0.19728 1.863613,-1.33685 2.955753,-1.66312 1.092139,-0.326274 7.754733,-1.549516 8.80892,-1.988262 1.054188,-0.438745 12.529171,-4.057475 13.641291,-4.994941 1.11212,-0.937467 1.92969,-1.073219 1.89012,-1.42107 -0.0396,-0.347853 -2.85819,0.6076 -5.865316,1.42902 -3.007122,0.821423 -15.46533,3.85603 -16.114459,3.923313 -0.649131,0.06728 -0.841623,0.354399 -0.938683,0.200732 -0.09706,-0.15367 -0.02664,-0.347734 0.862849,-0.809167 0.889481,-0.461431 1.265988,-0.856581 1.623017,-1.101601 0.357032,-0.24502 0.427077,-0.399061 0.294767,-0.593812 -0.13231,-0.194752 -3.264434,-0.09438 -4.00667,-0.08724 -0.742235,0.0071 -3.63416,0.117258 -4.086137,0.171169 -0.45198,0.05391 -1.574361,1.228307 -1.865869,1.565416 -0.29151,0.337105 -0.272248,0.604633 -0.832625,0.712052 -0.560374,0.107418 -1.079534,-0.255334 -0.875011,-0.828501 0.204523,-0.573164 1.009949,-1.415759 0.968486,-1.690952 -0.04146,-0.275196 -0.01032,-0.824071 -0.328753,-0.766101 -0.318444,0.05797 -0.903028,0.02933 -1.316768,0.06426 -0.413742,0.03493 -0.389456,0.06006 -1.033743,0.522322 -0.644286,0.462264 -1.253931,0.935291 -1.562801,0.60116 -0.308866,-0.334132 -0.827659,-0.208746 -0.592262,-0.676955 0.235398,-0.46821 -0.0069,-0.674423 0.485807,-0.795626 0.492728,-0.121203 1.141225,-0.247087 1.446424,-0.09762 0.305203,0.149465 0.650426,0.166952 0.758156,0.04761 0.10773,-0.119338 -0.603829,-0.848905 -0.845876,-1.379233 -0.242048,-0.530331 -0.573135,-0.574665 -0.398512,-0.982602 0.174622,-0.407934 -0.121695,-0.560525 0.374078,-0.761926 0.495774,-0.201403 0.873842,0.03013 1.088462,0.496983 0.214616,0.466855 0.176741,1.423863 0.584329,1.433034 0.407588,0.0092 0.848328,-0.143465 0.82768,-0.776563 -0.02064,-0.633098 -0.02241,-1.024562 0.29564,-1.313328 0.318059,-0.288769 0.254498,-0.347115 0.809303,-0.248899 0.554804,0.09822 0.376264,2.024367 0.376264,2.024367 0,0 0.141353,0.429006 0.359685,0.495183 0.218331,0.06618 0.868188,-0.02582 1.505865,-0.335772 0.637678,-0.309941 0.713327,-0.327689 0.713327,-0.327689 z"
       id="path10159" /><path
       style="opacity:1;fill:#000000;fill-opacity:1;stroke:#000000;stroke-width:0.165;stroke-linecap:round;stroke-dasharray:none;stroke-opacity:1"
       d="m 77.501058,106.45432 c 0.13108,0.43266 2.58658,0.64437 3.195201,0.58757 0.608621,-0.0568 9.793558,-0.88649 10.660309,-1.17226 0.866751,-0.28576 6.544013,-1.1658 8.680042,-2.00257 2.13604,-0.83677 3.52217,-1.04563 4.35103,-1.56999 0.82887,-0.52436 0.14151,-0.0993 0.0746,-0.29826 -0.0669,-0.19893 -3.53076,0.18039 -4.470876,0.3618 -0.94012,0.18141 -10.473246,1.96381 -11.279087,2.08314 -0.805841,0.11933 -2.286878,0.54643 -5.88735,0.82507 -3.600468,0.27864 -4.636283,0.58948 -4.875072,0.65441 -0.238791,0.0649 -0.479001,0.28769 -0.448797,0.53109 z"
       id="path10161" /><path
       style="opacity:1;fill:#000000;fill-opacity:1;stroke:#000000;stroke-width:0.165;stroke-linecap:round;stroke-dasharray:none;stroke-opacity:1"
       d="m 34.13787,89.914586 c -0.469625,-0.303256 -0.580014,-1.358757 -0.80056,-1.65626 -0.220546,-0.297505 -0.85836,-0.245097 -0.69223,0.676013 0.166126,0.921113 0.812942,0.992039 0.977738,1.328893 0.164795,0.336854 0.365876,0.604432 -0.103565,0.7 -0.346504,0.07054 -1.528276,-0.10171 -1.726364,0.125444 -0.198089,0.227126 -0.285179,0.874578 0.146155,0.980194 0.431332,0.105616 1.159677,-0.118563 2.04669,-0.706528 0.887016,-0.587967 0.871567,0.228849 0.871567,0.228849 0,0 -0.725676,1.355667 -0.628857,1.454666 0.09682,0.099 0.02777,1.13547 0.489691,1.008751 0.461926,-0.126723 0.799121,-0.643054 1.040215,-1.28927 0.241093,-0.646216 0.395499,-0.948625 0.647635,-1.148749 0.05198,-0.04126 -0.385535,4.301185 -0.338812,3.917362 0.0265,-0.217663 -2.863034,-0.138146 -2.807345,-0.700156 0.04532,-0.45738 -3.19902,-2.001431 -2.953504,-2.609332 0.315102,-0.780199 -0.214685,-1.201651 0.718401,-1.871981 0.428027,-0.307495 -0.48314,-1.697886 0.0467,-2.369054 0.35657,-0.451679 1.35717,-1.287444 2.474874,-1.230328 1.530948,0.07823 3.338051,0.741569 3.358561,0.670005 0.03588,-0.125179 0.447431,1.901665 0.447431,1.901665 l -0.599511,0.159745 c 0,0 -1.219347,0.151288 -1.501843,-0.300533 -0.204751,-0.327476 -0.349808,-0.62145 -0.212401,-1.063798 0.167968,-0.540732 -0.637478,-0.961194 -0.733565,-0.306447 -0.101,0.688222 -0.04738,0.855018 0.09425,1.53813 0.206688,0.996879 -0.01214,0.723639 -0.01214,0.723639 z"
       id="path10163"
       sodipodi:nodetypes="sssssssscsssssssssssccsssscs" /><path
       style="opacity:1;fill:#000000;fill-opacity:1;stroke:#000000;stroke-width:0.165;stroke-linecap:round;stroke-dasharray:none;stroke-opacity:1"
       d="m 34.576824,80.366433 c 0,0 -2.501911,-0.676717 -3.063047,-0.710118 -0.561133,-0.0334 -0.783553,-0.195506 -0.763844,-0.528844 0.01971,-0.333338 0.341969,-0.656151 1.110319,-0.580914 0.76835,0.07524 2.372783,0.336582 3.028407,0.549725 0.655627,0.213141 1.124757,0.510162 1.222994,0.767932 0.09823,0.25777 0.264488,0.378447 -0.126441,0.645467 -0.39093,0.267018 -0.961139,0.0021 -1.408388,-0.143248 z"
       id="path10203" /><path
       style="opacity:1;fill:#000000;fill-opacity:1;stroke:#000000;stroke-width:0.165;stroke-linecap:round;stroke-dasharray:none;stroke-opacity:1"
       d="m 32.441263,82.026958 c 1.007292,0.0551 1.719207,0.413801 2.311646,0.136565 0.592439,-0.277238 -0.03127,-1.037677 -1.022117,-1.00946 -0.990852,0.02822 -2.348455,0.110707 -2.713157,0.328634 -0.364702,0.217924 -0.217263,0.510085 0.175662,0.563814 0.392922,0.05373 0.981475,-0.04655 1.247966,-0.01955 z"
       id="path10205" /><path
       id="path10207"
       style="opacity:1;fill:#000000;fill-opacity:1;stroke:#000000;stroke-width:0.165;stroke-linecap:round;stroke-dasharray:none;stroke-opacity:1"
       d="m 36.009688,102.13433 c 0,0 -3.451391,-0.12083 -4.667415,1.25419 -1.216022,1.37501 -2.495589,2.55065 -1.914612,3.44992 0.580975,0.89927 1.522147,2.20446 2.164726,2.50682 0.642579,0.30236 2.642101,1.08111 3.538802,1.1958 0.896701,0.11468 1.516623,0.15692 0.896586,0.67437 -0.620034,0.51745 -2.079128,0.21551 -2.242757,0.52969 -0.163629,0.31419 -0.856564,1.06604 0.451652,1.20302 1.308212,0.13698 3.874216,0.1893 6.111772,0.0713 2.237557,-0.11796 3.050878,-0.15376 3.561023,0.41393 0.510148,0.5677 1.348772,0.73026 -0.917774,1.00355 -2.266548,0.27329 -3.999731,-0.0661 -4.136182,0.60875 -0.136447,0.67487 -0.753509,1.31955 1.430404,1.22112 2.183917,-0.0984 7.296993,-0.20327 9.704834,-0.35192 2.407841,-0.14864 8.646412,0.82721 10.581266,0.8816 1.934856,0.0544 19.160275,0.67667 25.573633,0.60048 6.413356,-0.0762 26.262414,-0.65039 30.087054,-1.20613 3.82462,-0.55574 11.79057,-0.46658 14.19862,-0.86351 2.40803,-0.39692 2.46889,-0.85036 4.97489,-1.05679 2.50598,-0.20642 5.0042,-0.0204 9.19065,-0.37775 4.18644,-0.35736 5.36038,0.23369 5.27099,-1.17667 -0.0894,-1.41036 -19.98379,1.00562 -19.98379,1.00562 0,0 -12.57112,-1.24675 -12.27263,-2.76314 0.13325,-0.67695 0.23397,-1.10657 0.30954,-1.40405 -0.46677,0.41489 -1.89565,1.03329 -5.99809,1.68982 -7.27678,1.16453 -23.633229,2.29589 -24.000081,2.2593 -0.366853,-0.0366 -18.802494,-0.0417 -20.497457,-0.29611 -1.694968,-0.25444 -9.177898,-0.7421 -10.934217,-1.11673 -1.756321,-0.37463 -9.967906,-1.40711 -11.820983,-2.61896 -1.853077,-1.21184 -5.358095,-1.83432 -5.788794,-3.59099 -0.430699,-1.75667 -1.558562,-2.82981 -1.558562,-2.82981 z m 81.911282,7.42022 c 0.36117,-0.32102 0.14676,-0.52038 0.14676,-0.52038 0,0 -0.0531,0.1515 -0.14676,0.52038 z m -82.999587,-5.57433 c 0.477278,0.002 0.572575,0.15606 0.572575,0.15606 0,0 0.007,0.0981 0.0041,0.43667 -0.0075,0.34327 -0.02065,0.68589 -0.0047,1.03972 0.0033,0.0569 0.0074,0.11107 0.01344,0.16227 0.04125,0.35229 0.396639,1.05011 0.298689,1.19321 -0.09795,0.14309 -1.173571,0.95446 -1.173571,0.95446 -0.592219,0.43842 -0.96994,0.32021 -1.137915,0.14366 -0.167976,-0.17656 -0.137562,-0.55778 0.273368,-1.10484 0.410932,-0.54706 1.320338,-0.78704 1.627808,-1.29036 0.16754,-0.43538 0.06776,-0.64591 -0.59738,-0.58601 -0.678058,-0.0126 -1.530131,0.48076 -1.574581,0.50746 -0.04446,0.0267 -1.449633,1.05468 -1.724442,0.76481 -0.274809,-0.28987 0.07947,-0.81839 0.247013,-0.99115 0.16754,-0.17276 0.975579,-0.97164 2.260844,-1.26452 0.401644,-0.0915 0.697728,-0.12216 0.914673,-0.12144 z" /><path
       id="path10209"
       style="opacity:1;fill:#000000;fill-opacity:1;fill-rule:evenodd;stroke:#000000;stroke-width:0.165;stroke-linecap:round;stroke-dasharray:none;stroke-opacity:1"
       d="m 158.98409,90.159871 -3.47524,3.062346 c 0,0 -1.25066,0.209427 -2.08721,2.022099 -0.83655,1.812672 -8.31213,5.102054 -11.39568,6.459554 -3.08356,1.3575 -13.17448,2.15098 -13.87564,2.17558 -0.70117,0.0246 -0.58085,-0.73019 -0.58085,-0.73019 l -4.39818,0.9958 c 0,0 -0.0813,0.73006 -0.14986,0.96894 -0.0686,0.23888 -4.71186,3.58789 -4.71186,3.58789 l -1.32395,3.27732 10.71511,2.24224 17.32763,-1.26607 c 0,0 3.15202,-0.58552 1.6676,-0.74259 -1.48443,-0.15707 -1.66466,-0.28452 -1.59216,-0.41186 0.0725,-0.12735 0.78115,-0.35784 1.47382,-0.37414 0.69268,-0.0163 9.44461,-1.11971 11.59929,-1.56683 2.15468,-0.44712 1.23453,-1.12976 0.54777,-1.36219 -0.68677,-0.23243 -2.93991,-0.25497 -2.95641,-0.55139 -0.0164,-0.29642 0.98347,-0.4273 4.63796,-0.65577 3.6545,-0.22846 3.04183,-0.8835 2.98793,-1.03766 -0.0539,-0.15416 -1.30962,-0.58401 -1.99781,-0.65371 -0.6882,-0.0697 -0.65336,-0.39043 -0.41186,-0.55656 0.24151,-0.16614 3.93104,-0.43752 4.37027,-0.68368 0.43922,-0.24616 0.50585,-0.64861 0.34934,-1.05058 -0.15652,-0.40197 -3.15776,-1.55962 -3.46232,-1.64382 -0.30456,-0.0842 -3.07214,0.0543 -2.52078,-0.71366 0.55137,-0.76795 0.80354,-1.946 1.01337,-3.074744 0.20984,-1.128743 -1.75028,-7.716325 -1.75028,-7.716325 z m -15.32051,14.466299 c 0.0965,-5e-4 0.16108,0.002 0.185,0.009 0.1914,0.0518 0.31739,0.18179 0.014,0.62787 -0.30344,0.44607 -1.17078,0.9427 -1.9296,1.24385 -0.75882,0.30116 -4.99551,2.06314 -6.1464,2.44636 -1.15089,0.38323 -1.74235,0.81016 -2.09858,1.04645 -0.35623,0.23629 -1.30331,1.64209 -1.69808,2.07429 -0.39478,0.43225 -1.15102,0.61429 -1.32964,-0.0791 -0.17862,-0.69334 0.46275,-1.47947 0.91106,-2.22828 0.45116,-0.75362 0.62737,-0.80621 0.54157,-1.09503 -0.1139,-0.38322 -0.0781,-0.16348 -0.6134,-0.15348 -0.53534,0.01 -0.94397,0.29996 -1.95492,0.96894 -0.89415,0.59169 -1.06325,1.1841 -1.38235,1.58853 -0.33064,0.38731 -0.45484,0.6561 -0.99529,0.98495 -0.40416,0.0799 -0.54194,0.12139 -0.79478,0.0367 -0.29344,-0.0983 -0.34394,-0.61464 -0.20825,-1.08262 0.26898,-0.92765 0.93804,-1.61487 1.85311,-2.48357 0.91507,-0.86893 0.86452,-0.69336 0.54571,-0.87591 -0.31883,-0.18255 -0.92688,-0.0699 -2.01073,0.20464 -1.08386,0.27454 -1.73986,1.278 -2.33113,1.93683 -0.59127,0.65884 -1.26171,0.76358 -1.55339,0.40101 -0.29167,-0.36258 0.36387,-1.28064 1.49345,-2.29289 1.12958,-1.01224 2.26794,-1.21524 3.56257,-1.58284 1.29464,-0.3676 3.04118,-0.20016 4.89066,-0.20516 1.84948,-0.005 5.99203,-0.9723 7.12824,-1.15962 0.99419,-0.16391 3.24569,-0.32724 3.92121,-0.33073 z" /><path
       style="opacity:1;fill:#000000;fill-opacity:1;fill-rule:evenodd;stroke:#000000;stroke-width:0.165;stroke-linecap:round;stroke-dasharray:none;stroke-opacity:1"
       d="m 49.35589,119.89087 c 2.28872,-0.27364 3.339484,-0.47289 3.7352,-0.99285 0.395713,-0.51996 -0.244372,-0.82057 -0.928812,-0.97486 -0.684443,-0.1543 -4.611325,-0.40853 -5.301162,-0.15219 -0.689835,0.25634 -1.313556,0.60504 -1.231292,1.12932 0.08226,0.52429 1.925198,1.10002 2.727251,1.05027 0.802053,-0.0497 0.998815,-0.0597 0.998815,-0.0597 z"
       id="path14706" /><path
       style="opacity:1;fill:#000000;fill-opacity:1;fill-rule:evenodd;stroke:#000000;stroke-width:0.165;stroke-linecap:round;stroke-dasharray:none;stroke-opacity:1"
       d="m 59.437865,119.93118 c 0.49291,0.48506 0.229367,0.48733 0.97405,0.51326 0.74468,0.0259 1.548646,0.0276 1.627119,-0.32307 0.07847,-0.35067 0.256566,-0.53407 -0.255802,-0.87943 -0.512369,-0.34535 -0.588026,-0.53521 -1.187532,-0.39007 -0.599509,0.14515 -0.880343,0.1846 -1.001776,0.48734 -0.121431,0.30274 -0.156059,0.59197 -0.156059,0.59197 z"
       id="path14708" /><path
       style="opacity:1;fill:#000000;fill-opacity:1;fill-rule:evenodd;stroke:#000000;stroke-width:0.165;stroke-linecap:round;stroke-dasharray:none;stroke-opacity:1"
       d="m 73.884813,119.99882 c 0.118163,0.42406 -0.106595,0.44267 1.302263,0.57387 1.408861,0.1312 1.169085,0.18598 2.639243,0.16048 1.470157,-0.0255 0.972772,0.14708 2.595049,-0.13317 1.622279,-0.28025 2.060665,0.0186 2.302494,-0.43495 0.241829,-0.4535 0.509831,-0.33901 -0.599297,-0.71034 -1.109128,-0.37134 -1.89198,-0.45413 -3.129836,-0.46491 -1.237858,-0.0108 -1.809551,-0.13195 -2.820667,-0.0319 -1.011116,0.10008 -1.837833,-0.0945 -1.956544,0.22925 -0.118707,0.32379 -0.379568,0.48187 -0.332705,0.81163 z"
       id="path14710" /><path
       style="opacity:1;fill:#000000;fill-opacity:1;fill-rule:evenodd;stroke:#000000;stroke-width:0.165;stroke-linecap:round;stroke-dasharray:none;stroke-opacity:1"
       d="m 93.168008,120.49888 c 7.499412,-0.25114 4.425016,-0.15702 9.131172,-0.37569 4.70616,-0.21866 4.74381,-0.11436 5.80817,-0.61532 1.06436,-0.50097 1.14602,-0.71004 0.92309,-0.93604 -0.22293,-0.226 0.18738,-0.2506 -1.38914,-0.36087 -1.57651,-0.11027 -2.6644,-0.28872 -5.31303,-0.0211 -2.648617,0.26761 -1.39215,0.27586 -4.022926,0.34946 -2.630776,0.0736 -4.48491,0.15107 -5.735101,0.12937 -1.25019,-0.0217 -1.47365,-0.0617 -2.59271,0.11646 -1.119063,0.17816 -1.899179,0.22858 -2.403626,0.40647 -0.504444,0.17789 -0.626234,0.30112 -0.387511,0.63831 0.23872,0.3372 -0.218922,0.79465 1.414872,0.77266 1.633797,-0.022 4.56674,-0.10371 4.56674,-0.10371 z"
       id="path14712" /><path
       style="opacity:1;fill:#000000;fill-opacity:1;fill-rule:evenodd;stroke:#000000;stroke-width:0.165;stroke-linecap:round;stroke-dasharray:none;stroke-opacity:1"
       d="m 123.24055,132.68305 c 0.24227,0.56059 0.34566,0.5473 1.63628,0.73114 1.29061,0.18383 1.84514,0.20616 2.91642,0.15316 1.07129,-0.053 1.33799,-0.17858 2.58624,-0.20199 1.24826,-0.0234 2.19828,-0.33164 2.40356,-0.6347 0.20529,-0.30305 0.31858,-0.75302 -1.0047,-0.8431 -1.32327,-0.0901 -1.1451,-0.1631 -2.66785,-0.17667 -1.52276,-0.0136 -2.21497,-0.23409 -3.47399,-0.0329 -1.25902,0.20117 -1.74629,0.0608 -2.06359,0.36658 -0.31729,0.30579 -0.33237,0.63851 -0.33237,0.63851 z"
       id="path14714" /><path
       style="opacity:1;fill:#000000;fill-opacity:1;fill-rule:evenodd;stroke:#000000;stroke-width:0.165;stroke-linecap:round;stroke-dasharray:none;stroke-opacity:1"
       d="m 113.73114,135.90555 c 1.0764,0.0532 1.53306,0.10087 2.05423,-0.26762 0.22211,-0.14422 0.37949,-0.80152 -0.11727,-1.01822 -0.49676,-0.2167 -0.43156,-0.34064 -1.3195,-0.29048 -0.84037,0.002 -1.38014,0.26204 -1.18995,1.02784 0.0775,0.30754 0.57249,0.54848 0.57249,0.54848 z"
       id="path14716"
       sodipodi:nodetypes="ccsccc" /><path
       style="opacity:1;fill:#000000;fill-opacity:1;fill-rule:evenodd;stroke:#000000;stroke-width:0.165;stroke-linecap:round;stroke-dasharray:none;stroke-opacity:1"
       d="m 116.44236,119.25138 c 0,0 1.28139,0.34779 1.75668,0.16868 0.47529,-0.1791 0.89606,-0.47457 0.87035,-0.77343 -0.0257,-0.29886 -0.167,-0.48992 -0.49188,-0.679 -0.32487,-0.18909 -0.83904,-0.41141 -1.4853,-0.23077 -0.64625,0.18064 -0.73941,0.23918 -0.95337,0.59161 -0.18661,0.48358 -0.0354,0.7203 0.30352,0.92291 z"
       id="path14718"
       sodipodi:nodetypes="csssscc" /><path
       style="opacity:1;fill:#000000;fill-opacity:1;fill-rule:evenodd;stroke:#000000;stroke-width:0.165;stroke-linecap:round;stroke-dasharray:none;stroke-opacity:1"
       d="m 153.09093,131.25404 c 1.11804,0.0736 1.74146,-0.66612 1.19302,-1.14908 -0.54843,-0.48295 -1.63751,-0.25909 -1.86658,0.0945 -0.22907,0.35363 0.0975,0.89983 0.67356,1.05454 z"
       id="path14720" /><path
       style="opacity:1;fill:#000000;fill-opacity:1;fill-rule:evenodd;stroke:#000000;stroke-width:0.165;stroke-linecap:round;stroke-dasharray:none;stroke-opacity:1"
       d="m 175.76224,126.21773 c 0.45574,0.32846 1.3072,0.41963 1.6899,0.0403 0.3827,-0.37936 0.23354,-1.17869 -0.23972,-1.26399 -0.47326,-0.0853 -1.525,0.059 -1.66039,0.45924 -0.13539,0.40024 0.14448,0.70017 0.21021,0.76448 z"
       id="path14722" /><path
       style="opacity:1;fill:#000000;fill-opacity:1;fill-rule:evenodd;stroke:#000000;stroke-width:0.165;stroke-linecap:round;stroke-dasharray:none;stroke-opacity:1"
       d="m 178.85595,122.55919 c 0.79155,-0.32773 0.93271,-0.8826 0.61545,-1.2118 -0.31726,-0.3292 -1.0142,-0.45959 -1.42773,-0.12251 -0.41354,0.33709 -0.10897,1.23558 0.30815,1.28599 0.41711,0.0504 0.50413,0.0483 0.50413,0.0483 z"
       id="path14724" /></g></svg>
